<svg width="310" height="297" viewBox="0 0 310 297" fill="none" xmlns="http://www.w3.org/2000/svg">
<path d="M13.4979 127.6H17.6379C18.0339 127.6 18.3699 127.654 18.6459 127.762C18.9219 127.87 19.1319 128.032 19.2759 128.248C19.4199 128.452 19.4919 128.722 19.4919 129.058C19.4919 129.382 19.4199 129.652 19.2759 129.868C19.1319 130.084 18.9219 130.246 18.6459 130.354C18.3699 130.45 18.0339 130.498 17.6379 130.498H13.4979V133H18.3039C19.1199 133 19.8459 132.832 20.4819 132.496C21.1299 132.16 21.6399 131.698 22.0119 131.11C22.3959 130.51 22.5879 129.826 22.5879 129.058C22.5879 128.278 22.3959 127.6 22.0119 127.024C21.6399 126.436 21.1299 125.98 20.4819 125.656C19.8459 125.32 19.1199 125.152 18.3039 125.152H13.4979V127.6ZM12.6519 120.4V133H15.7479V122.902H21.6339V120.4H12.6519ZM25.4117 129.436H32.9717C32.9957 129.292 33.0077 129.16 33.0077 129.04C33.0077 128.908 33.0077 128.806 33.0077 128.734C33.0077 127.858 32.8337 127.108 32.4857 126.484C32.1497 125.86 31.6517 125.38 30.9917 125.044C30.3317 124.708 29.5157 124.54 28.5437 124.54C27.6437 124.54 26.8697 124.684 26.2217 124.972C25.5857 125.26 25.0757 125.662 24.6917 126.178C24.3197 126.694 24.0737 127.294 23.9537 127.978C23.9297 128.122 23.9117 128.266 23.8997 128.41C23.8877 128.554 23.8817 128.704 23.8817 128.86C23.8817 129.688 24.0617 130.432 24.4217 131.092C24.7937 131.74 25.3277 132.25 26.0237 132.622C26.7317 132.994 27.5837 133.18 28.5797 133.18C29.3837 133.18 30.0617 133.084 30.6137 132.892C31.1777 132.688 31.6517 132.406 32.0357 132.046C32.4197 131.674 32.7497 131.236 33.0257 130.732L30.5957 130.138C30.4637 130.366 30.3017 130.564 30.1097 130.732C29.9177 130.888 29.6897 131.008 29.4257 131.092C29.1737 131.176 28.8797 131.218 28.5437 131.218C28.1957 131.218 27.8717 131.14 27.5717 130.984C27.2837 130.828 27.0497 130.576 26.8697 130.228C26.7017 129.88 26.6177 129.424 26.6177 128.86L26.6537 128.428C26.6537 127.984 26.7317 127.612 26.8877 127.312C27.0437 127 27.2537 126.766 27.5177 126.61C27.7937 126.442 28.1177 126.358 28.4897 126.358C28.8137 126.358 29.0837 126.424 29.2997 126.556C29.5277 126.676 29.7017 126.85 29.8217 127.078C29.9537 127.306 30.0437 127.588 30.0917 127.924H25.4117V129.436ZM37.0072 128.86C37.0072 128.452 37.1032 128.086 37.2952 127.762C37.4872 127.438 37.7512 127.18 38.0872 126.988C38.4352 126.796 38.8072 126.7 39.2032 126.7C39.5032 126.7 39.8092 126.748 40.1212 126.844C40.4332 126.94 40.7212 127.078 40.9852 127.258C41.2612 127.438 41.4832 127.66 41.6512 127.924V125.26C41.3632 125.056 41.0032 124.888 40.5712 124.756C40.1392 124.612 39.6112 124.54 38.9872 124.54C38.0752 124.54 37.2532 124.72 36.5212 125.08C35.8012 125.44 35.2312 125.944 34.8112 126.592C34.4032 127.228 34.1992 127.984 34.1992 128.86C34.1992 129.724 34.4032 130.48 34.8112 131.128C35.2312 131.776 35.8012 132.28 36.5212 132.64C37.2532 133 38.0752 133.18 38.9872 133.18C39.6112 133.18 40.1392 133.114 40.5712 132.982C41.0032 132.838 41.3632 132.652 41.6512 132.424V129.778C41.4832 130.042 41.2672 130.264 41.0032 130.444C40.7512 130.624 40.4692 130.768 40.1572 130.876C39.8572 130.972 39.5392 131.02 39.2032 131.02C38.8072 131.02 38.4352 130.93 38.0872 130.75C37.7512 130.57 37.4872 130.324 37.2952 130.012C37.1032 129.688 37.0072 129.304 37.0072 128.86ZM51.8237 124.72H43.6157V133H46.2437V127.078H49.2137V133H51.8237V124.72ZM62.6812 124.72H54.4012V129.454C54.4012 129.922 54.2692 130.228 54.0052 130.372C53.7532 130.504 53.4472 130.57 53.0872 130.57V133C54.0832 133 54.8632 132.898 55.4272 132.694C56.0032 132.478 56.4112 132.16 56.6512 131.74C56.8912 131.308 57.0112 130.768 57.0112 130.12V127.186H60.0712V133H62.6812V124.72ZM67.2901 130.534C67.2901 130.306 67.3441 130.114 67.4521 129.958C67.5721 129.802 67.7401 129.682 67.9561 129.598C68.1841 129.502 68.4541 129.454 68.7661 129.454C69.2341 129.454 69.6301 129.514 69.9541 129.634C70.2901 129.742 70.6141 129.91 70.9261 130.138V128.86C70.8061 128.728 70.6021 128.596 70.3141 128.464C70.0381 128.32 69.7081 128.206 69.3241 128.122C68.9521 128.026 68.5561 127.978 68.1361 127.978C67.4161 127.978 66.7861 128.086 66.2461 128.302C65.7061 128.518 65.2861 128.824 64.9861 129.22C64.6981 129.616 64.5541 130.09 64.5541 130.642C64.5541 131.182 64.6801 131.644 64.9321 132.028C65.1961 132.4 65.5561 132.688 66.0121 132.892C66.4681 133.084 66.9841 133.18 67.5601 133.18C68.1361 133.18 68.6521 133.084 69.1081 132.892C69.5761 132.688 69.9421 132.4 70.2061 132.028C70.4821 131.644 70.6201 131.188 70.6201 130.66L70.3321 129.652C70.3321 130.096 70.2481 130.444 70.0801 130.696C69.9121 130.948 69.6841 131.128 69.3961 131.236C69.1201 131.344 68.8141 131.398 68.4781 131.398C68.2741 131.398 68.0761 131.368 67.8841 131.308C67.7041 131.236 67.5601 131.14 67.4521 131.02C67.3441 130.888 67.2901 130.726 67.2901 130.534ZM66.2281 127.276C66.3601 127.192 66.5581 127.096 66.8221 126.988C67.0861 126.868 67.3921 126.766 67.7401 126.682C68.1001 126.598 68.4781 126.556 68.8741 126.556C69.3301 126.556 69.6841 126.664 69.9361 126.88C70.2001 127.084 70.3321 127.36 70.3321 127.708V133H72.9421V127.168C72.9421 126.592 72.7741 126.106 72.4381 125.71C72.1141 125.314 71.6581 125.014 71.0701 124.81C70.4941 124.594 69.8341 124.486 69.0901 124.486C68.3461 124.486 67.6441 124.588 66.9841 124.792C66.3361 124.996 65.7781 125.212 65.3101 125.44L66.2281 127.276ZM74.0031 124.72V126.97H79.8171V124.72H74.0031ZM75.6051 125.08V133H78.2151V125.08H75.6051ZM81.8152 129.652H88.5112V127.618H81.8152V129.652ZM87.2872 124.72V133H89.8972V124.72H87.2872ZM80.9692 124.72V133H83.5972V124.72H80.9692ZM100.917 124.72V133H103.653V124.72H100.917ZM92.0434 124.72V133H94.7794V124.72H92.0434ZM94.1854 129.274H96.2734C96.5854 129.274 96.8194 129.352 96.9754 129.508C97.1434 129.652 97.2274 129.844 97.2274 130.084C97.2274 130.252 97.1854 130.402 97.1014 130.534C97.0294 130.654 96.9214 130.744 96.7774 130.804C96.6454 130.864 96.4774 130.894 96.2734 130.894H94.1854V133H96.7594C97.3354 133 97.8514 132.886 98.3074 132.658C98.7634 132.418 99.1234 132.076 99.3874 131.632C99.6514 131.188 99.7834 130.672 99.7834 130.084C99.7834 129.196 99.4894 128.548 98.9014 128.14C98.3254 127.72 97.6114 127.51 96.7594 127.51H94.1854V129.274ZM114.16 127.06L114.25 124.09L105.898 130.66L105.808 133.63L114.16 127.06ZM108.436 124.72H105.808V133.63L108.436 131.092V124.72ZM114.25 124.09L111.64 126.628V133H114.25V124.09ZM107.212 120.49C107.212 120.97 107.326 121.414 107.554 121.822C107.782 122.218 108.118 122.536 108.562 122.776C109.006 123.004 109.54 123.118 110.164 123.118C110.8 123.118 111.334 123.004 111.766 122.776C112.21 122.536 112.546 122.218 112.774 121.822C113.002 121.414 113.116 120.97 113.116 120.49H111.334C111.334 120.694 111.286 120.88 111.19 121.048C111.094 121.204 110.956 121.33 110.776 121.426C110.596 121.51 110.392 121.552 110.164 121.552C109.936 121.552 109.732 121.51 109.552 121.426C109.372 121.33 109.234 121.204 109.138 121.048C109.042 120.88 108.994 120.694 108.994 120.49H107.212ZM130.209 127.06L130.299 124.09L121.947 130.66L121.857 133.63L130.209 127.06ZM124.485 124.72H121.857V133.63L124.485 131.092V124.72ZM130.299 124.09L127.689 126.628V133H130.299V124.09ZM133.319 129.652H140.015V127.618H133.319V129.652ZM138.791 124.72V133H141.401V124.72H138.791ZM132.473 124.72V133H135.101V124.72H132.473ZM154.833 124.72L151.233 128.14L155.193 133H158.325L154.419 128.212L157.965 124.72H154.833ZM151.701 124.72H149.109V133H151.701V124.72ZM145.995 124.72H142.845L146.409 128.212L142.485 133H145.635L149.595 128.14L145.995 124.72ZM160.166 129.436H167.726C167.75 129.292 167.762 129.16 167.762 129.04C167.762 128.908 167.762 128.806 167.762 128.734C167.762 127.858 167.588 127.108 167.24 126.484C166.904 125.86 166.406 125.38 165.746 125.044C165.086 124.708 164.27 124.54 163.298 124.54C162.398 124.54 161.624 124.684 160.976 124.972C160.34 125.26 159.83 125.662 159.446 126.178C159.074 126.694 158.828 127.294 158.708 127.978C158.684 128.122 158.666 128.266 158.654 128.41C158.642 128.554 158.636 128.704 158.636 128.86C158.636 129.688 158.816 130.432 159.176 131.092C159.548 131.74 160.082 132.25 160.778 132.622C161.486 132.994 162.338 133.18 163.334 133.18C164.138 133.18 164.816 133.084 165.368 132.892C165.932 132.688 166.406 132.406 166.79 132.046C167.174 131.674 167.504 131.236 167.78 130.732L165.35 130.138C165.218 130.366 165.056 130.564 164.864 130.732C164.672 130.888 164.444 131.008 164.18 131.092C163.928 131.176 163.634 131.218 163.298 131.218C162.95 131.218 162.626 131.14 162.326 130.984C162.038 130.828 161.804 130.576 161.624 130.228C161.456 129.88 161.372 129.424 161.372 128.86L161.408 128.428C161.408 127.984 161.486 127.612 161.642 127.312C161.798 127 162.008 126.766 162.272 126.61C162.548 126.442 162.872 126.358 163.244 126.358C163.568 126.358 163.838 126.424 164.054 126.556C164.282 126.676 164.456 126.85 164.576 127.078C164.708 127.306 164.798 127.588 164.846 127.924H160.166V129.436ZM170.321 129.652H177.017V127.618H170.321V129.652ZM175.793 124.72V133H178.403V124.72H175.793ZM169.475 124.72V133H172.103V124.72H169.475ZM181.593 129.436H189.153C189.177 129.292 189.189 129.16 189.189 129.04C189.189 128.908 189.189 128.806 189.189 128.734C189.189 127.858 189.015 127.108 188.667 126.484C188.331 125.86 187.833 125.38 187.173 125.044C186.513 124.708 185.697 124.54 184.725 124.54C183.825 124.54 183.051 124.684 182.403 124.972C181.767 125.26 181.257 125.662 180.873 126.178C180.501 126.694 180.255 127.294 180.135 127.978C180.111 128.122 180.093 128.266 180.081 128.41C180.069 128.554 180.063 128.704 180.063 128.86C180.063 129.688 180.243 130.432 180.603 131.092C180.975 131.74 181.509 132.25 182.205 132.622C182.913 132.994 183.765 133.18 184.761 133.18C185.565 133.18 186.243 133.084 186.795 132.892C187.359 132.688 187.833 132.406 188.217 132.046C188.601 131.674 188.931 131.236 189.207 130.732L186.777 130.138C186.645 130.366 186.483 130.564 186.291 130.732C186.099 130.888 185.871 131.008 185.607 131.092C185.355 131.176 185.061 131.218 184.725 131.218C184.377 131.218 184.053 131.14 183.753 130.984C183.465 130.828 183.231 130.576 183.051 130.228C182.883 129.88 182.799 129.424 182.799 128.86L182.835 128.428C182.835 127.984 182.913 127.612 183.069 127.312C183.225 127 183.435 126.766 183.699 126.61C183.975 126.442 184.299 126.358 184.671 126.358C184.995 126.358 185.265 126.424 185.481 126.556C185.709 126.676 185.883 126.85 186.003 127.078C186.135 127.306 186.225 127.588 186.273 127.924H181.593V129.436ZM193.603 136.96V124.72H190.885V136.96H193.603ZM200.371 128.86C200.371 127.888 200.179 127.078 199.795 126.43C199.423 125.77 198.937 125.272 198.337 124.936C197.749 124.6 197.113 124.432 196.429 124.432C195.709 124.432 195.085 124.618 194.557 124.99C194.041 125.35 193.645 125.86 193.369 126.52C193.093 127.18 192.955 127.96 192.955 128.86C192.955 129.748 193.093 130.528 193.369 131.2C193.645 131.86 194.041 132.376 194.557 132.748C195.085 133.108 195.709 133.288 196.429 133.288C197.113 133.288 197.749 133.12 198.337 132.784C198.937 132.448 199.423 131.95 199.795 131.29C200.179 130.63 200.371 129.82 200.371 128.86ZM197.509 128.86C197.509 129.292 197.419 129.658 197.239 129.958C197.059 130.258 196.819 130.486 196.519 130.642C196.219 130.798 195.889 130.876 195.529 130.876C195.217 130.876 194.911 130.804 194.611 130.66C194.323 130.504 194.083 130.276 193.891 129.976C193.699 129.676 193.603 129.304 193.603 128.86C193.603 128.416 193.699 128.044 193.891 127.744C194.083 127.444 194.323 127.222 194.611 127.078C194.911 126.922 195.217 126.844 195.529 126.844C195.889 126.844 196.219 126.922 196.519 127.078C196.819 127.234 197.059 127.462 197.239 127.762C197.419 128.062 197.509 128.428 197.509 128.86ZM202.858 129.652H209.554V127.618H202.858V129.652ZM208.33 124.72V133H210.94V124.72H208.33ZM202.012 124.72V133H204.64V124.72H202.012ZM221.96 124.72V133H224.696V124.72H221.96ZM213.086 124.72V133H215.822V124.72H213.086ZM215.228 129.274H217.316C217.628 129.274 217.862 129.352 218.018 129.508C218.186 129.652 218.27 129.844 218.27 130.084C218.27 130.252 218.228 130.402 218.144 130.534C218.072 130.654 217.964 130.744 217.82 130.804C217.688 130.864 217.52 130.894 217.316 130.894H215.228V133H217.802C218.378 133 218.894 132.886 219.35 132.658C219.806 132.418 220.166 132.076 220.43 131.632C220.694 131.188 220.826 130.672 220.826 130.084C220.826 129.196 220.532 128.548 219.944 128.14C219.368 127.72 218.654 127.51 217.802 127.51H215.228V129.274ZM235.203 127.06L235.293 124.09L226.941 130.66L226.851 133.63L235.203 127.06ZM229.479 124.72H226.851V133.63L229.479 131.092V124.72ZM235.293 124.09L232.683 126.628V133H235.293V124.09ZM228.255 120.49C228.255 120.97 228.369 121.414 228.597 121.822C228.825 122.218 229.161 122.536 229.605 122.776C230.049 123.004 230.583 123.118 231.207 123.118C231.843 123.118 232.377 123.004 232.809 122.776C233.253 122.536 233.589 122.218 233.817 121.822C234.045 121.414 234.159 120.97 234.159 120.49H232.377C232.377 120.694 232.329 120.88 232.233 121.048C232.137 121.204 231.999 121.33 231.819 121.426C231.639 121.51 231.435 121.552 231.207 121.552C230.979 121.552 230.775 121.51 230.595 121.426C230.415 121.33 230.277 121.204 230.181 121.048C230.085 120.88 230.037 120.694 230.037 120.49H228.255ZM245.564 136.96V124.72H242.846V136.96H245.564ZM252.332 128.86C252.332 127.888 252.14 127.078 251.756 126.43C251.384 125.77 250.898 125.272 250.298 124.936C249.71 124.6 249.074 124.432 248.39 124.432C247.67 124.432 247.046 124.618 246.518 124.99C246.002 125.35 245.606 125.86 245.33 126.52C245.054 127.18 244.916 127.96 244.916 128.86C244.916 129.748 245.054 130.528 245.33 131.2C245.606 131.86 246.002 132.376 246.518 132.748C247.046 133.108 247.67 133.288 248.39 133.288C249.074 133.288 249.71 133.12 250.298 132.784C250.898 132.448 251.384 131.95 251.756 131.29C252.14 130.63 252.332 129.82 252.332 128.86ZM249.47 128.86C249.47 129.292 249.38 129.658 249.2 129.958C249.02 130.258 248.78 130.486 248.48 130.642C248.18 130.798 247.85 130.876 247.49 130.876C247.178 130.876 246.872 130.804 246.572 130.66C246.284 130.504 246.044 130.276 245.852 129.976C245.66 129.676 245.564 129.304 245.564 128.86C245.564 128.416 245.66 128.044 245.852 127.744C246.044 127.444 246.284 127.222 246.572 127.078C246.872 126.922 247.178 126.844 247.49 126.844C247.85 126.844 248.18 126.922 248.48 127.078C248.78 127.234 249.02 127.462 249.2 127.762C249.38 128.062 249.47 128.428 249.47 128.86ZM256.079 130.534C256.079 130.306 256.133 130.114 256.241 129.958C256.361 129.802 256.529 129.682 256.745 129.598C256.973 129.502 257.243 129.454 257.555 129.454C258.023 129.454 258.419 129.514 258.743 129.634C259.079 129.742 259.403 129.91 259.715 130.138V128.86C259.595 128.728 259.391 128.596 259.103 128.464C258.827 128.32 258.497 128.206 258.113 128.122C257.741 128.026 257.345 127.978 256.925 127.978C256.205 127.978 255.575 128.086 255.035 128.302C254.495 128.518 254.075 128.824 253.775 129.22C253.487 129.616 253.343 130.09 253.343 130.642C253.343 131.182 253.469 131.644 253.721 132.028C253.985 132.4 254.345 132.688 254.801 132.892C255.257 133.084 255.773 133.18 256.349 133.18C256.925 133.18 257.441 133.084 257.897 132.892C258.365 132.688 258.731 132.4 258.995 132.028C259.271 131.644 259.409 131.188 259.409 130.66L259.121 129.652C259.121 130.096 259.037 130.444 258.869 130.696C258.701 130.948 258.473 131.128 258.185 131.236C257.909 131.344 257.603 131.398 257.267 131.398C257.063 131.398 256.865 131.368 256.673 131.308C256.493 131.236 256.349 131.14 256.241 131.02C256.133 130.888 256.079 130.726 256.079 130.534ZM255.017 127.276C255.149 127.192 255.347 127.096 255.611 126.988C255.875 126.868 256.181 126.766 256.529 126.682C256.889 126.598 257.267 126.556 257.663 126.556C258.119 126.556 258.473 126.664 258.725 126.88C258.989 127.084 259.121 127.36 259.121 127.708V133H261.731V127.168C261.731 126.592 261.563 126.106 261.227 125.71C260.903 125.314 260.447 125.014 259.859 124.81C259.283 124.594 258.623 124.486 257.879 124.486C257.135 124.486 256.433 124.588 255.773 124.792C255.125 124.996 254.567 125.212 254.099 125.44L255.017 127.276ZM266.05 128.86C266.05 128.452 266.146 128.086 266.338 127.762C266.53 127.438 266.794 127.18 267.13 126.988C267.478 126.796 267.85 126.7 268.246 126.7C268.546 126.7 268.852 126.748 269.164 126.844C269.476 126.94 269.764 127.078 270.028 127.258C270.304 127.438 270.526 127.66 270.694 127.924V125.26C270.406 125.056 270.046 124.888 269.614 124.756C269.182 124.612 268.654 124.54 268.03 124.54C267.118 124.54 266.296 124.72 265.564 125.08C264.844 125.44 264.274 125.944 263.854 126.592C263.446 127.228 263.242 127.984 263.242 128.86C263.242 129.724 263.446 130.48 263.854 131.128C264.274 131.776 264.844 132.28 265.564 132.64C266.296 133 267.118 133.18 268.03 133.18C268.654 133.18 269.182 133.114 269.614 132.982C270.046 132.838 270.406 132.652 270.694 132.424V129.778C270.526 130.042 270.31 130.264 270.046 130.444C269.794 130.624 269.512 130.768 269.2 130.876C268.9 130.972 268.582 131.02 268.246 131.02C267.85 131.02 267.478 130.93 267.13 130.75C266.794 130.57 266.53 130.324 266.338 130.012C266.146 129.688 266.05 129.304 266.05 128.86ZM275.737 130.93H278.563V128.68H276.529L275.737 130.93ZM277.537 124.72V133H280.255V124.72H277.537ZM275.215 124.72H272.497V127.096C272.497 127.9 272.593 128.59 272.785 129.166C272.977 129.73 273.307 130.168 273.775 130.48C274.255 130.78 274.909 130.93 275.737 130.93L276.529 128.68C276.217 128.68 275.965 128.638 275.773 128.554C275.581 128.458 275.437 128.314 275.341 128.122C275.257 127.918 275.215 127.648 275.215 127.312V124.72ZM283.546 129.436H291.106C291.13 129.292 291.142 129.16 291.142 129.04C291.142 128.908 291.142 128.806 291.142 128.734C291.142 127.858 290.968 127.108 290.62 126.484C290.284 125.86 289.786 125.38 289.126 125.044C288.466 124.708 287.65 124.54 286.678 124.54C285.778 124.54 285.004 124.684 284.356 124.972C283.72 125.26 283.21 125.662 282.826 126.178C282.454 126.694 282.208 127.294 282.088 127.978C282.064 128.122 282.046 128.266 282.034 128.41C282.022 128.554 282.016 128.704 282.016 128.86C282.016 129.688 282.196 130.432 282.556 131.092C282.928 131.74 283.462 132.25 284.158 132.622C284.866 132.994 285.718 133.18 286.714 133.18C287.518 133.18 288.196 133.084 288.748 132.892C289.312 132.688 289.786 132.406 290.17 132.046C290.554 131.674 290.884 131.236 291.16 130.732L288.73 130.138C288.598 130.366 288.436 130.564 288.244 130.732C288.052 130.888 287.824 131.008 287.56 131.092C287.308 131.176 287.014 131.218 286.678 131.218C286.33 131.218 286.006 131.14 285.706 130.984C285.418 130.828 285.184 130.576 285.004 130.228C284.836 129.88 284.752 129.424 284.752 128.86L284.788 128.428C284.788 127.984 284.866 127.612 285.022 127.312C285.178 127 285.388 126.766 285.652 126.61C285.928 126.442 286.252 126.358 286.624 126.358C286.948 126.358 287.218 126.424 287.434 126.556C287.662 126.676 287.836 126.85 287.956 127.078C288.088 127.306 288.178 127.588 288.226 127.924H283.546V129.436ZM287.29 121.984C287.29 122.404 287.44 122.752 287.74 123.028C288.052 123.304 288.43 123.442 288.874 123.442C289.306 123.442 289.678 123.304 289.99 123.028C290.302 122.752 290.458 122.404 290.458 121.984C290.458 121.552 290.302 121.198 289.99 120.922C289.678 120.646 289.306 120.508 288.874 120.508C288.43 120.508 288.052 120.646 287.74 120.922C287.44 121.198 287.29 121.552 287.29 121.984ZM282.898 121.984C282.898 122.404 283.054 122.752 283.366 123.028C283.678 123.304 284.05 123.442 284.482 123.442C284.926 123.442 285.298 123.304 285.598 123.028C285.91 122.752 286.066 122.404 286.066 121.984C286.066 121.552 285.91 121.198 285.598 120.922C285.298 120.646 284.926 120.508 284.482 120.508C284.05 120.508 283.678 120.646 283.366 120.922C283.054 121.198 282.898 121.552 282.898 121.984ZM291.884 124.72V126.97H297.698V124.72H291.884ZM293.486 125.08V133H296.096V125.08H293.486Z" fill="black"/>
<path d="M40.2588 146.32L40.3388 144.24L30.5788 154.48L30.4988 156.56L40.2588 146.32ZM31.8588 144.8H30.4988V156.56L31.8588 154.8V144.8ZM40.3388 144.24L38.9788 146V156H40.3388V144.24ZM43.577 152.72H49.017V151.52H43.577V152.72ZM48.185 148.64V156H49.465V148.64H48.185ZM42.825 148.64V156H44.105V148.64H42.825ZM59.5519 148.64L56.3519 151.68L59.8719 156H61.4719L57.7919 151.84L61.1519 148.64H59.5519ZM56.6719 148.64H55.4719V156H56.6719V148.64ZM52.5919 148.64H50.9919L54.3519 151.84L50.6719 156H52.2719L55.7919 151.68L52.5919 148.64ZM62.6104 152.64H68.8984C68.909 152.576 68.9144 152.512 68.9144 152.448C68.9144 152.384 68.9144 152.32 68.9144 152.256C68.9144 151.477 68.7704 150.811 68.4824 150.256C68.1944 149.691 67.789 149.253 67.2664 148.944C66.7437 148.635 66.1357 148.48 65.4424 148.48C64.813 148.48 64.2424 148.608 63.7304 148.864C63.229 149.12 62.8184 149.477 62.4984 149.936C62.1784 150.395 61.965 150.928 61.8584 151.536C61.837 151.664 61.821 151.792 61.8104 151.92C61.7997 152.048 61.7944 152.181 61.7944 152.32C61.7944 153.056 61.9437 153.717 62.2424 154.304C62.5517 154.88 62.9677 155.333 63.4904 155.664C64.0237 155.995 64.621 156.16 65.2824 156.16C65.9224 156.16 66.4557 156.085 66.8824 155.936C67.309 155.776 67.6717 155.557 67.9704 155.28C68.269 154.992 68.541 154.661 68.7864 154.288L67.7464 153.632C67.5864 153.899 67.3944 154.133 67.1704 154.336C66.9464 154.528 66.6904 154.683 66.4024 154.8C66.125 154.907 65.805 154.96 65.4424 154.96C64.9624 154.96 64.5464 154.859 64.1944 154.656C63.8424 154.453 63.5704 154.155 63.3784 153.76C63.1864 153.365 63.0904 152.885 63.0904 152.32L63.1224 151.84C63.1224 151.381 63.2237 150.987 63.4264 150.656C63.6397 150.315 63.9224 150.053 64.2744 149.872C64.6264 149.691 65.0157 149.6 65.4424 149.6C65.869 149.6 66.2264 149.685 66.5144 149.856C66.813 150.016 67.0424 150.245 67.2024 150.544C67.373 150.832 67.4797 151.168 67.5224 151.552H62.6104V152.64ZM71.4208 152.72H76.8608V151.52H71.4208V152.72ZM76.0288 148.64V156H77.3088V148.64H76.0288ZM70.6688 148.64V156H71.9488V148.64H70.6688ZM79.8916 152.64H86.1796C86.1903 152.576 86.1956 152.512 86.1956 152.448C86.1956 152.384 86.1956 152.32 86.1956 152.256C86.1956 151.477 86.0516 150.811 85.7636 150.256C85.4756 149.691 85.0703 149.253 84.5476 148.944C84.025 148.635 83.417 148.48 82.7236 148.48C82.0943 148.48 81.5236 148.608 81.0116 148.864C80.5103 149.12 80.0996 149.477 79.7796 149.936C79.4596 150.395 79.2463 150.928 79.1396 151.536C79.1183 151.664 79.1023 151.792 79.0916 151.92C79.081 152.048 79.0756 152.181 79.0756 152.32C79.0756 153.056 79.225 153.717 79.5236 154.304C79.833 154.88 80.249 155.333 80.7716 155.664C81.305 155.995 81.9023 156.16 82.5636 156.16C83.2036 156.16 83.737 156.085 84.1636 155.936C84.5903 155.776 84.953 155.557 85.2516 155.28C85.5503 154.992 85.8223 154.661 86.0676 154.288L85.0276 153.632C84.8676 153.899 84.6756 154.133 84.4516 154.336C84.2276 154.528 83.9716 154.683 83.6836 154.8C83.4063 154.907 83.0863 154.96 82.7236 154.96C82.2436 154.96 81.8276 154.859 81.4756 154.656C81.1236 154.453 80.8516 154.155 80.6596 153.76C80.4676 153.365 80.3716 152.885 80.3716 152.32L80.4036 151.84C80.4036 151.381 80.505 150.987 80.7076 150.656C80.921 150.315 81.2036 150.053 81.5556 149.872C81.9076 149.691 82.297 149.6 82.7236 149.6C83.1503 149.6 83.5076 149.685 83.7956 149.856C84.0943 150.016 84.3236 150.245 84.4836 150.544C84.6543 150.832 84.761 151.168 84.8036 151.552H79.8916V152.64ZM89.15 159.52V148.64H87.87V159.52H89.15ZM95.31 152.32C95.31 151.52 95.1447 150.837 94.814 150.272C94.4833 149.696 94.0407 149.253 93.486 148.944C92.942 148.635 92.334 148.48 91.662 148.48C91.054 148.48 90.5153 148.635 90.046 148.944C89.5873 149.253 89.2247 149.696 88.958 150.272C88.702 150.837 88.574 151.52 88.574 152.32C88.574 153.109 88.702 153.792 88.958 154.368C89.2247 154.944 89.5873 155.387 90.046 155.696C90.5153 156.005 91.054 156.16 91.662 156.16C92.334 156.16 92.942 156.005 93.486 155.696C94.0407 155.387 94.4833 154.944 94.814 154.368C95.1447 153.792 95.31 153.109 95.31 152.32ZM94.014 152.32C94.014 152.885 93.8967 153.365 93.662 153.76C93.438 154.155 93.134 154.453 92.75 154.656C92.3767 154.859 91.9607 154.96 91.502 154.96C91.1287 154.96 90.7607 154.859 90.398 154.656C90.0353 154.453 89.7367 154.155 89.502 153.76C89.2673 153.365 89.15 152.885 89.15 152.32C89.15 151.755 89.2673 151.275 89.502 150.88C89.7367 150.485 90.0353 150.187 90.398 149.984C90.7607 149.781 91.1287 149.68 91.502 149.68C91.9607 149.68 92.3767 149.781 92.75 149.984C93.134 150.187 93.438 150.485 93.662 150.88C93.8967 151.275 94.014 151.755 94.014 152.32ZM97.827 152.72H103.267V151.52H97.827V152.72ZM102.435 148.64V156H103.715V148.64H102.435ZM97.075 148.64V156H98.355V148.64H97.075ZM112.762 148.64V156H114.042V148.64H112.762ZM106.122 148.64V156H107.402V148.64H106.122ZM106.874 152.544H109.162C109.631 152.544 109.983 152.645 110.218 152.848C110.453 153.051 110.57 153.339 110.57 153.712C110.57 153.957 110.517 154.171 110.41 154.352C110.303 154.523 110.143 154.656 109.93 154.752C109.727 154.837 109.471 154.88 109.162 154.88H106.874V156H109.162C109.674 156 110.133 155.92 110.538 155.76C110.943 155.6 111.263 155.349 111.498 155.008C111.733 154.667 111.85 154.235 111.85 153.712C111.85 152.923 111.589 152.347 111.066 151.984C110.554 151.611 109.919 151.424 109.162 151.424H106.874V152.544ZM122.594 149.92L122.674 148.08L116.594 154.72L116.514 156.56L122.594 149.92ZM117.794 148.64H116.514V156.56L117.794 154.8V148.64ZM122.674 148.08L121.394 149.84V156H122.674V148.08ZM117.106 144.88C117.106 145.243 117.197 145.6 117.378 145.952C117.57 146.293 117.853 146.576 118.226 146.8C118.61 147.013 119.08 147.12 119.634 147.12C120.2 147.12 120.669 147.013 121.042 146.8C121.416 146.576 121.693 146.293 121.874 145.952C122.066 145.6 122.162 145.243 122.162 144.88H121.026C121.026 145.019 120.989 145.184 120.914 145.376C120.84 145.557 120.701 145.723 120.498 145.872C120.296 146.011 120.008 146.08 119.634 146.08C119.261 146.08 118.973 146.011 118.77 145.872C118.568 145.723 118.429 145.557 118.354 145.376C118.28 145.184 118.242 145.019 118.242 144.88H117.106ZM131.15 159.52V148.64H129.87V159.52H131.15ZM137.31 152.32C137.31 151.52 137.145 150.837 136.814 150.272C136.483 149.696 136.041 149.253 135.486 148.944C134.942 148.635 134.334 148.48 133.662 148.48C133.054 148.48 132.515 148.635 132.046 148.944C131.587 149.253 131.225 149.696 130.958 150.272C130.702 150.837 130.574 151.52 130.574 152.32C130.574 153.109 130.702 153.792 130.958 154.368C131.225 154.944 131.587 155.387 132.046 155.696C132.515 156.005 133.054 156.16 133.662 156.16C134.334 156.16 134.942 156.005 135.486 155.696C136.041 155.387 136.483 154.944 136.814 154.368C137.145 153.792 137.31 153.109 137.31 152.32ZM136.014 152.32C136.014 152.885 135.897 153.365 135.662 153.76C135.438 154.155 135.134 154.453 134.75 154.656C134.377 154.859 133.961 154.96 133.502 154.96C133.129 154.96 132.761 154.859 132.398 154.656C132.035 154.453 131.737 154.155 131.502 153.76C131.267 153.365 131.15 152.885 131.15 152.32C131.15 151.755 131.267 151.275 131.502 150.88C131.737 150.485 132.035 150.187 132.398 149.984C132.761 149.781 133.129 149.68 133.502 149.68C133.961 149.68 134.377 149.781 134.75 149.984C135.134 150.187 135.438 150.485 135.662 150.88C135.897 151.275 136.014 151.755 136.014 152.32ZM139.651 153.84C139.651 153.541 139.72 153.285 139.859 153.072C139.998 152.859 140.206 152.693 140.483 152.576C140.771 152.459 141.128 152.4 141.555 152.4C142.024 152.4 142.446 152.464 142.819 152.592C143.192 152.709 143.56 152.896 143.923 153.152V152.4C143.848 152.304 143.71 152.181 143.507 152.032C143.304 151.872 143.032 151.733 142.691 151.616C142.36 151.488 141.96 151.424 141.491 151.424C140.851 151.424 140.296 151.525 139.827 151.728C139.358 151.92 138.995 152.197 138.739 152.56C138.483 152.923 138.355 153.365 138.355 153.888C138.355 154.389 138.467 154.811 138.691 155.152C138.926 155.483 139.235 155.733 139.619 155.904C140.003 156.075 140.424 156.16 140.883 156.16C141.395 156.16 141.859 156.075 142.275 155.904C142.691 155.723 143.022 155.467 143.267 155.136C143.523 154.795 143.651 154.389 143.651 153.92L143.395 153.12C143.395 153.579 143.299 153.947 143.107 154.224C142.926 154.501 142.67 154.704 142.339 154.832C142.008 154.96 141.63 155.024 141.203 155.024C140.915 155.024 140.654 154.981 140.419 154.896C140.184 154.8 139.998 154.667 139.859 154.496C139.72 154.315 139.651 154.096 139.651 153.84ZM139.651 150.368C139.768 150.283 139.928 150.181 140.131 150.064C140.344 149.936 140.595 149.829 140.883 149.744C141.171 149.648 141.491 149.6 141.843 149.6C142.248 149.6 142.606 149.696 142.915 149.888C143.235 150.069 143.395 150.347 143.395 150.72V156H144.675V150.72C144.675 150.24 144.552 149.835 144.307 149.504C144.072 149.173 143.742 148.923 143.315 148.752C142.899 148.571 142.408 148.48 141.843 148.48C141.182 148.48 140.616 148.581 140.147 148.784C139.678 148.987 139.304 149.189 139.027 149.392L139.651 150.368ZM147.417 152.32C147.417 151.808 147.523 151.355 147.737 150.96C147.961 150.555 148.259 150.24 148.633 150.016C149.017 149.792 149.449 149.68 149.929 149.68C150.323 149.68 150.691 149.744 151.033 149.872C151.385 149.989 151.689 150.149 151.945 150.352C152.201 150.555 152.382 150.779 152.489 151.024V149.424C152.233 149.125 151.865 148.896 151.385 148.736C150.915 148.565 150.43 148.48 149.929 148.48C149.214 148.48 148.569 148.645 147.993 148.976C147.417 149.307 146.958 149.76 146.617 150.336C146.286 150.912 146.121 151.573 146.121 152.32C146.121 153.056 146.286 153.717 146.617 154.304C146.958 154.88 147.417 155.333 147.993 155.664C148.569 155.995 149.214 156.16 149.929 156.16C150.43 156.16 150.915 156.08 151.385 155.92C151.865 155.749 152.233 155.515 152.489 155.216V153.616C152.382 153.851 152.201 154.075 151.945 154.288C151.689 154.491 151.385 154.656 151.033 154.784C150.691 154.901 150.323 154.96 149.929 154.96C149.449 154.96 149.017 154.848 148.633 154.624C148.259 154.389 147.961 154.075 147.737 153.68C147.523 153.285 147.417 152.832 147.417 152.32ZM156.961 153.76H159.473V152.56H156.961V153.76ZM158.561 148.64V156H159.841V148.64H158.561ZM155.361 148.64H154.081V150.752C154.081 151.467 154.167 152.048 154.337 152.496C154.508 152.933 154.801 153.253 155.217 153.456C155.644 153.659 156.225 153.76 156.961 153.76V152.56C156.556 152.56 156.236 152.501 156.001 152.384C155.767 152.256 155.601 152.059 155.505 151.792C155.409 151.525 155.361 151.179 155.361 150.752V148.64ZM162.423 152.64H168.711C168.722 152.576 168.727 152.512 168.727 152.448C168.727 152.384 168.727 152.32 168.727 152.256C168.727 151.477 168.583 150.811 168.295 150.256C168.007 149.691 167.602 149.253 167.079 148.944C166.556 148.635 165.948 148.48 165.255 148.48C164.626 148.48 164.055 148.608 163.543 148.864C163.042 149.12 162.631 149.477 162.311 149.936C161.991 150.395 161.778 150.928 161.671 151.536C161.65 151.664 161.634 151.792 161.623 151.92C161.612 152.048 161.607 152.181 161.607 152.32C161.607 153.056 161.756 153.717 162.055 154.304C162.364 154.88 162.78 155.333 163.303 155.664C163.836 155.995 164.434 156.16 165.095 156.16C165.735 156.16 166.268 156.085 166.695 155.936C167.122 155.776 167.484 155.557 167.783 155.28C168.082 154.992 168.354 154.661 168.599 154.288L167.559 153.632C167.399 153.899 167.207 154.133 166.983 154.336C166.759 154.528 166.503 154.683 166.215 154.8C165.938 154.907 165.618 154.96 165.255 154.96C164.775 154.96 164.359 154.859 164.007 154.656C163.655 154.453 163.383 154.155 163.191 153.76C162.999 153.365 162.903 152.885 162.903 152.32L162.935 151.84C162.935 151.381 163.036 150.987 163.239 150.656C163.452 150.315 163.735 150.053 164.087 149.872C164.439 149.691 164.828 149.6 165.255 149.6C165.682 149.6 166.039 149.685 166.327 149.856C166.626 150.016 166.855 150.245 167.015 150.544C167.186 150.832 167.292 151.168 167.335 151.552H162.423V152.64ZM165.975 146.64C165.975 146.875 166.06 147.083 166.231 147.264C166.412 147.435 166.62 147.52 166.855 147.52C167.1 147.52 167.308 147.435 167.479 147.264C167.65 147.083 167.735 146.875 167.735 146.64C167.735 146.395 167.65 146.187 167.479 146.016C167.308 145.845 167.1 145.76 166.855 145.76C166.62 145.76 166.412 145.845 166.231 146.016C166.06 146.187 165.975 146.395 165.975 146.64ZM162.775 146.64C162.775 146.875 162.86 147.083 163.031 147.264C163.212 147.435 163.42 147.52 163.655 147.52C163.9 147.52 164.108 147.435 164.279 147.264C164.45 147.083 164.535 146.875 164.535 146.64C164.535 146.395 164.45 146.187 164.279 146.016C164.108 145.845 163.9 145.76 163.655 145.76C163.42 145.76 163.212 145.845 163.031 146.016C162.86 146.187 162.775 146.395 162.775 146.64ZM169.361 148.64V149.84H173.681V148.64H169.361ZM170.881 148.96V156H172.161V148.96H170.881ZM180.963 159.52V148.64H179.683V159.52H180.963ZM187.123 152.32C187.123 151.52 186.957 150.837 186.627 150.272C186.296 149.696 185.853 149.253 185.299 148.944C184.755 148.635 184.147 148.48 183.475 148.48C182.867 148.48 182.328 148.635 181.859 148.944C181.4 149.253 181.037 149.696 180.771 150.272C180.515 150.837 180.387 151.52 180.387 152.32C180.387 153.109 180.515 153.792 180.771 154.368C181.037 154.944 181.4 155.387 181.859 155.696C182.328 156.005 182.867 156.16 183.475 156.16C184.147 156.16 184.755 156.005 185.299 155.696C185.853 155.387 186.296 154.944 186.627 154.368C186.957 153.792 187.123 153.109 187.123 152.32ZM185.827 152.32C185.827 152.885 185.709 153.365 185.475 153.76C185.251 154.155 184.947 154.453 184.563 154.656C184.189 154.859 183.773 154.96 183.315 154.96C182.941 154.96 182.573 154.859 182.211 154.656C181.848 154.453 181.549 154.155 181.315 153.76C181.08 153.365 180.963 152.885 180.963 152.32C180.963 151.755 181.08 151.275 181.315 150.88C181.549 150.485 181.848 150.187 182.211 149.984C182.573 149.781 182.941 149.68 183.315 149.68C183.773 149.68 184.189 149.781 184.563 149.984C184.947 150.187 185.251 150.485 185.475 150.88C185.709 151.275 185.827 151.755 185.827 152.32ZM189.464 153.84C189.464 153.541 189.533 153.285 189.672 153.072C189.81 152.859 190.018 152.693 190.296 152.576C190.584 152.459 190.941 152.4 191.368 152.4C191.837 152.4 192.258 152.464 192.632 152.592C193.005 152.709 193.373 152.896 193.736 153.152V152.4C193.661 152.304 193.522 152.181 193.32 152.032C193.117 151.872 192.845 151.733 192.504 151.616C192.173 151.488 191.773 151.424 191.304 151.424C190.664 151.424 190.109 151.525 189.64 151.728C189.17 151.92 188.808 152.197 188.552 152.56C188.296 152.923 188.168 153.365 188.168 153.888C188.168 154.389 188.28 154.811 188.504 155.152C188.738 155.483 189.048 155.733 189.432 155.904C189.816 156.075 190.237 156.16 190.696 156.16C191.208 156.16 191.672 156.075 192.088 155.904C192.504 155.723 192.834 155.467 193.08 155.136C193.336 154.795 193.464 154.389 193.464 153.92L193.208 153.12C193.208 153.579 193.112 153.947 192.92 154.224C192.738 154.501 192.482 154.704 192.152 154.832C191.821 154.96 191.442 155.024 191.016 155.024C190.728 155.024 190.466 154.981 190.232 154.896C189.997 154.8 189.81 154.667 189.672 154.496C189.533 154.315 189.464 154.096 189.464 153.84ZM189.464 150.368C189.581 150.283 189.741 150.181 189.944 150.064C190.157 149.936 190.408 149.829 190.696 149.744C190.984 149.648 191.304 149.6 191.656 149.6C192.061 149.6 192.418 149.696 192.728 149.888C193.048 150.069 193.208 150.347 193.208 150.72V156H194.488V150.72C194.488 150.24 194.365 149.835 194.12 149.504C193.885 149.173 193.554 148.923 193.128 148.752C192.712 148.571 192.221 148.48 191.656 148.48C190.994 148.48 190.429 148.581 189.96 148.784C189.49 148.987 189.117 149.189 188.84 149.392L189.464 150.368ZM197.229 152.32C197.229 151.808 197.336 151.355 197.549 150.96C197.773 150.555 198.072 150.24 198.445 150.016C198.829 149.792 199.261 149.68 199.741 149.68C200.136 149.68 200.504 149.744 200.845 149.872C201.197 149.989 201.501 150.149 201.757 150.352C202.013 150.555 202.194 150.779 202.301 151.024V149.424C202.045 149.125 201.677 148.896 201.197 148.736C200.728 148.565 200.242 148.48 199.741 148.48C199.026 148.48 198.381 148.645 197.805 148.976C197.229 149.307 196.77 149.76 196.429 150.336C196.098 150.912 195.933 151.573 195.933 152.32C195.933 153.056 196.098 153.717 196.429 154.304C196.77 154.88 197.229 155.333 197.805 155.664C198.381 155.995 199.026 156.16 199.741 156.16C200.242 156.16 200.728 156.08 201.197 155.92C201.677 155.749 202.045 155.515 202.301 155.216V153.616C202.194 153.851 202.013 154.075 201.757 154.288C201.501 154.491 201.197 154.656 200.845 154.784C200.504 154.901 200.136 154.96 199.741 154.96C199.261 154.96 198.829 154.848 198.445 154.624C198.072 154.389 197.773 154.075 197.549 153.68C197.336 153.285 197.229 152.832 197.229 152.32ZM204.87 152.32C204.87 151.808 204.976 151.355 205.19 150.96C205.414 150.555 205.712 150.24 206.086 150.016C206.47 149.792 206.902 149.68 207.382 149.68C207.776 149.68 208.144 149.744 208.486 149.872C208.838 149.989 209.142 150.149 209.398 150.352C209.654 150.555 209.835 150.779 209.942 151.024V149.424C209.686 149.125 209.318 148.896 208.838 148.736C208.368 148.565 207.883 148.48 207.382 148.48C206.667 148.48 206.022 148.645 205.446 148.976C204.87 149.307 204.411 149.76 204.07 150.336C203.739 150.912 203.574 151.573 203.574 152.32C203.574 153.056 203.739 153.717 204.07 154.304C204.411 154.88 204.87 155.333 205.446 155.664C206.022 155.995 206.667 156.16 207.382 156.16C207.883 156.16 208.368 156.08 208.838 155.92C209.318 155.749 209.686 155.515 209.942 155.216V153.616C209.835 153.851 209.654 154.075 209.398 154.288C209.142 154.491 208.838 154.656 208.486 154.784C208.144 154.901 207.776 154.96 207.382 154.96C206.902 154.96 206.47 154.848 206.086 154.624C205.712 154.389 205.414 154.075 205.19 153.68C204.976 153.285 204.87 152.832 204.87 152.32ZM210.814 148.64V149.84H215.134V148.64H210.814ZM212.334 148.96V156H213.614V148.96H212.334ZM216.995 153.84C216.995 153.541 217.064 153.285 217.203 153.072C217.341 152.859 217.549 152.693 217.827 152.576C218.115 152.459 218.472 152.4 218.899 152.4C219.368 152.4 219.789 152.464 220.163 152.592C220.536 152.709 220.904 152.896 221.267 153.152V152.4C221.192 152.304 221.053 152.181 220.851 152.032C220.648 151.872 220.376 151.733 220.035 151.616C219.704 151.488 219.304 151.424 218.835 151.424C218.195 151.424 217.64 151.525 217.171 151.728C216.701 151.92 216.339 152.197 216.083 152.56C215.827 152.923 215.699 153.365 215.699 153.888C215.699 154.389 215.811 154.811 216.035 155.152C216.269 155.483 216.579 155.733 216.963 155.904C217.347 156.075 217.768 156.16 218.227 156.16C218.739 156.16 219.203 156.075 219.619 155.904C220.035 155.723 220.365 155.467 220.611 155.136C220.867 154.795 220.995 154.389 220.995 153.92L220.739 153.12C220.739 153.579 220.643 153.947 220.451 154.224C220.269 154.501 220.013 154.704 219.683 154.832C219.352 154.96 218.973 155.024 218.547 155.024C218.259 155.024 217.997 154.981 217.763 154.896C217.528 154.8 217.341 154.667 217.203 154.496C217.064 154.315 216.995 154.096 216.995 153.84ZM216.995 150.368C217.112 150.283 217.272 150.181 217.475 150.064C217.688 149.936 217.939 149.829 218.227 149.744C218.515 149.648 218.835 149.6 219.187 149.6C219.592 149.6 219.949 149.696 220.259 149.888C220.579 150.069 220.739 150.347 220.739 150.72V156H222.019V150.72C222.019 150.24 221.896 149.835 221.651 149.504C221.416 149.173 221.085 148.923 220.659 148.752C220.243 148.571 219.752 148.48 219.187 148.48C218.525 148.48 217.96 148.581 217.491 148.784C217.021 148.987 216.648 149.189 216.371 149.392L216.995 150.368ZM224.936 152.72H230.376V151.52H224.936V152.72ZM229.544 148.64V156H230.824V148.64H229.544ZM224.184 148.64V156H225.464V148.64H224.184ZM232.591 152.32C232.591 153.056 232.757 153.717 233.087 154.304C233.429 154.88 233.887 155.333 234.463 155.664C235.039 155.995 235.685 156.16 236.399 156.16C237.125 156.16 237.77 155.995 238.335 155.664C238.911 155.333 239.365 154.88 239.695 154.304C240.037 153.717 240.207 153.056 240.207 152.32C240.207 151.573 240.037 150.912 239.695 150.336C239.365 149.76 238.911 149.307 238.335 148.976C237.77 148.645 237.125 148.48 236.399 148.48C235.685 148.48 235.039 148.645 234.463 148.976C233.887 149.307 233.429 149.76 233.087 150.336C232.757 150.912 232.591 151.573 232.591 152.32ZM233.887 152.32C233.887 151.808 233.994 151.355 234.207 150.96C234.431 150.555 234.73 150.24 235.103 150.016C235.487 149.792 235.919 149.68 236.399 149.68C236.879 149.68 237.306 149.792 237.679 150.016C238.063 150.24 238.362 150.555 238.575 150.96C238.799 151.355 238.911 151.808 238.911 152.32C238.911 152.832 238.799 153.285 238.575 153.68C238.362 154.075 238.063 154.389 237.679 154.624C237.306 154.848 236.879 154.96 236.399 154.96C235.919 154.96 235.487 154.848 235.103 154.624C234.73 154.389 234.431 154.075 234.207 153.68C233.994 153.285 233.887 152.832 233.887 152.32ZM242.718 152.16V152.832H244.846C245.091 152.832 245.299 152.859 245.47 152.912C245.651 152.955 245.795 153.024 245.902 153.12C246.019 153.216 246.104 153.323 246.158 153.44C246.222 153.557 246.254 153.691 246.254 153.84C246.254 154.128 246.136 154.373 245.902 154.576C245.678 154.779 245.326 154.88 244.846 154.88H242.718V156H245.166C246.008 156 246.611 155.808 246.974 155.424C247.347 155.029 247.534 154.555 247.534 154C247.534 153.52 247.416 153.147 247.182 152.88C246.947 152.613 246.627 152.427 246.222 152.32C245.816 152.213 245.358 152.16 244.846 152.16H242.718ZM242.718 152.48H244.686C245.144 152.48 245.56 152.416 245.934 152.288C246.318 152.149 246.627 151.947 246.862 151.68C247.096 151.403 247.214 151.056 247.214 150.64C247.214 150.16 247.096 149.776 246.862 149.488C246.627 149.189 246.318 148.976 245.934 148.848C245.56 148.709 245.144 148.64 244.686 148.64H242.718V149.76H244.686C245.07 149.76 245.374 149.851 245.598 150.032C245.822 150.203 245.934 150.432 245.934 150.72C245.934 150.859 245.902 150.992 245.838 151.12C245.784 151.237 245.704 151.344 245.598 151.44C245.491 151.536 245.358 151.611 245.198 151.664C245.048 151.707 244.878 151.728 244.686 151.728H242.718V152.48ZM241.966 148.64V156H243.246V148.64H241.966ZM249.136 148.64V156H250.416V148.64H249.136ZM253.136 148.64L249.936 151.68L253.456 156H255.056L251.536 151.68L254.736 148.64H253.136ZM262.423 149.92L262.503 148.08L256.423 154.72L256.343 156.56L262.423 149.92ZM257.623 148.64H256.343V156.56L257.623 154.8V148.64ZM262.503 148.08L261.223 149.84V156H262.503V148.08ZM54.5288 175.32C54.5288 176.056 54.6941 176.717 55.0247 177.304C55.3661 177.88 55.8248 178.333 56.4008 178.664C56.9768 178.995 57.6221 179.16 58.3368 179.16C59.0621 179.16 59.7074 178.995 60.2728 178.664C60.8488 178.333 61.3021 177.88 61.6328 177.304C61.9741 176.717 62.1448 176.056 62.1448 175.32C62.1448 174.573 61.9741 173.912 61.6328 173.336C61.3021 172.76 60.8488 172.307 60.2728 171.976C59.7074 171.645 59.0621 171.48 58.3368 171.48C57.6221 171.48 56.9768 171.645 56.4008 171.976C55.8248 172.307 55.3661 172.76 55.0247 173.336C54.6941 173.912 54.5288 174.573 54.5288 175.32ZM55.8248 175.32C55.8248 174.808 55.9314 174.355 56.1448 173.96C56.3688 173.555 56.6674 173.24 57.0408 173.016C57.4248 172.792 57.8568 172.68 58.3368 172.68C58.8168 172.68 59.2434 172.792 59.6168 173.016C60.0008 173.24 60.2994 173.555 60.5128 173.96C60.7368 174.355 60.8488 174.808 60.8488 175.32C60.8488 175.832 60.7368 176.285 60.5128 176.68C60.2994 177.075 60.0008 177.389 59.6168 177.624C59.2434 177.848 58.8168 177.96 58.3368 177.96C57.8568 177.96 57.4248 177.848 57.0408 177.624C56.6674 177.389 56.3688 177.075 56.1448 176.68C55.9314 176.285 55.8248 175.832 55.8248 175.32ZM67.0711 172.68C67.5511 172.68 67.9778 172.792 68.3511 173.016C68.7351 173.24 69.0338 173.555 69.2471 173.96C69.4711 174.355 69.5831 174.808 69.5831 175.32C69.5831 175.832 69.4711 176.285 69.2471 176.68C69.0338 177.075 68.7351 177.389 68.3511 177.624C67.9778 177.848 67.5511 177.96 67.0711 177.96C66.5911 177.96 66.1591 177.848 65.7751 177.624C65.4018 177.389 65.1031 177.075 64.8791 176.68C64.6551 176.285 64.5431 175.832 64.5431 175.32L63.2631 174.36C63.2631 175.416 63.4285 176.301 63.7591 177.016C64.1005 177.731 64.5591 178.269 65.1351 178.632C65.7111 178.984 66.3565 179.16 67.0711 179.16C67.7965 179.16 68.4418 178.995 69.0071 178.664C69.5831 178.333 70.0365 177.88 70.3671 177.304C70.7085 176.717 70.8791 176.056 70.8791 175.32C70.8791 174.573 70.7085 173.912 70.3671 173.336C70.0365 172.76 69.5831 172.307 69.0071 171.976C68.4418 171.645 67.7965 171.48 67.0711 171.48V172.68ZM63.9671 175.32H64.5431C64.5431 174.893 64.6178 174.52 64.7671 174.2C64.9271 173.869 65.1298 173.592 65.3751 173.368C65.6311 173.144 65.9085 172.973 66.2071 172.856C66.5058 172.739 66.7938 172.68 67.0711 172.68V171.48C66.6125 171.48 66.1911 171.571 65.8071 171.752C65.4338 171.923 65.1085 172.173 64.8311 172.504C64.5538 172.835 64.3405 173.24 64.1911 173.72C64.0418 174.189 63.9671 174.723 63.9671 175.32ZM63.2631 174.36L64.3831 175.208V173.56C64.3831 173.027 64.4525 172.493 64.5911 171.96C64.7298 171.416 64.9805 170.931 65.3431 170.504C65.7165 170.077 66.2338 169.757 66.8951 169.544C67.4818 169.352 68.0045 169.112 68.4631 168.824C68.9325 168.536 69.3111 168.2 69.5991 167.816C69.8871 167.421 70.0578 166.989 70.1111 166.52H68.8471C68.7725 166.904 68.5538 167.272 68.1911 167.624C67.8391 167.965 67.3005 168.259 66.5751 168.504C65.7218 168.792 65.0498 169.208 64.5591 169.752C64.0791 170.285 63.7431 170.936 63.5511 171.704C63.3591 172.472 63.2631 173.357 63.2631 174.36ZM71.9975 175.32C71.9975 176.056 72.1628 176.717 72.4935 177.304C72.8348 177.88 73.2935 178.333 73.8695 178.664C74.4455 178.995 75.0908 179.16 75.8055 179.16C76.5308 179.16 77.1762 178.995 77.7415 178.664C78.3175 178.333 78.7708 177.88 79.1015 177.304C79.4428 176.717 79.6135 176.056 79.6135 175.32C79.6135 174.573 79.4428 173.912 79.1015 173.336C78.7708 172.76 78.3175 172.307 77.7415 171.976C77.1762 171.645 76.5308 171.48 75.8055 171.48C75.0908 171.48 74.4455 171.645 73.8695 171.976C73.2935 172.307 72.8348 172.76 72.4935 173.336C72.1628 173.912 71.9975 174.573 71.9975 175.32ZM73.2935 175.32C73.2935 174.808 73.4002 174.355 73.6135 173.96C73.8375 173.555 74.1362 173.24 74.5095 173.016C74.8935 172.792 75.3255 172.68 75.8055 172.68C76.2855 172.68 76.7122 172.792 77.0855 173.016C77.4695 173.24 77.7682 173.555 77.9815 173.96C78.2055 174.355 78.3175 174.808 78.3175 175.32C78.3175 175.832 78.2055 176.285 77.9815 176.68C77.7682 177.075 77.4695 177.389 77.0855 177.624C76.7122 177.848 76.2855 177.96 75.8055 177.96C75.3255 177.96 74.8935 177.848 74.5095 177.624C74.1362 177.389 73.8375 177.075 73.6135 176.68C73.4002 176.285 73.2935 175.832 73.2935 175.32ZM82.5719 182.52V171.64H81.2919V182.52H82.5719ZM88.7319 175.32C88.7319 174.52 88.5665 173.837 88.2359 173.272C87.9052 172.696 87.4625 172.253 86.9079 171.944C86.3639 171.635 85.7559 171.48 85.0839 171.48C84.4759 171.48 83.9372 171.635 83.4679 171.944C83.0092 172.253 82.6465 172.696 82.3799 173.272C82.1239 173.837 81.9959 174.52 81.9959 175.32C81.9959 176.109 82.1239 176.792 82.3799 177.368C82.6465 177.944 83.0092 178.387 83.4679 178.696C83.9372 179.005 84.4759 179.16 85.0839 179.16C85.7559 179.16 86.3639 179.005 86.9079 178.696C87.4625 178.387 87.9052 177.944 88.2359 177.368C88.5665 176.792 88.7319 176.109 88.7319 175.32ZM87.4359 175.32C87.4359 175.885 87.3185 176.365 87.0839 176.76C86.8599 177.155 86.5559 177.453 86.1719 177.656C85.7985 177.859 85.3825 177.96 84.9239 177.96C84.5505 177.96 84.1825 177.859 83.8199 177.656C83.4572 177.453 83.1585 177.155 82.9239 176.76C82.6892 176.365 82.5719 175.885 82.5719 175.32C82.5719 174.755 82.6892 174.275 82.9239 173.88C83.1585 173.485 83.4572 173.187 83.8199 172.984C84.1825 172.781 84.5505 172.68 84.9239 172.68C85.3825 172.68 85.7985 172.781 86.1719 172.984C86.5559 173.187 86.8599 173.485 87.0839 173.88C87.3185 174.275 87.4359 174.755 87.4359 175.32ZM96.1025 171.64H94.6625L92.3905 177.336L92.9185 177.4L90.5825 171.64H89.0625L91.8785 177.96L89.8625 182.52H91.3025L96.1025 171.64ZM100.356 173.848L102.516 178.52H103.956L100.356 171.08L96.7563 178.52H98.1963L100.356 173.848ZM103.636 179V180.44H104.916V177.8H95.7963V180.44H97.1562V179H103.636ZM106.201 175.32C106.201 176.056 106.366 176.717 106.697 177.304C107.038 177.88 107.497 178.333 108.073 178.664C108.649 178.995 109.294 179.16 110.009 179.16C110.734 179.16 111.379 178.995 111.945 178.664C112.521 178.333 112.974 177.88 113.305 177.304C113.646 176.717 113.817 176.056 113.817 175.32C113.817 174.573 113.646 173.912 113.305 173.336C112.974 172.76 112.521 172.307 111.945 171.976C111.379 171.645 110.734 171.48 110.009 171.48C109.294 171.48 108.649 171.645 108.073 171.976C107.497 172.307 107.038 172.76 106.697 173.336C106.366 173.912 106.201 174.573 106.201 175.32ZM107.497 175.32C107.497 174.808 107.603 174.355 107.817 173.96C108.041 173.555 108.339 173.24 108.713 173.016C109.097 172.792 109.529 172.68 110.009 172.68C110.489 172.68 110.915 172.792 111.289 173.016C111.673 173.24 111.971 173.555 112.185 173.96C112.409 174.355 112.521 174.808 112.521 175.32C112.521 175.832 112.409 176.285 112.185 176.68C111.971 177.075 111.673 177.389 111.289 177.624C110.915 177.848 110.489 177.96 110.009 177.96C109.529 177.96 109.097 177.848 108.713 177.624C108.339 177.389 108.041 177.075 107.817 176.68C107.603 176.285 107.497 175.832 107.497 175.32ZM116.327 175.16V175.832H118.455C118.7 175.832 118.908 175.859 119.079 175.912C119.26 175.955 119.404 176.024 119.511 176.12C119.628 176.216 119.714 176.323 119.767 176.44C119.831 176.557 119.863 176.691 119.863 176.84C119.863 177.128 119.746 177.373 119.511 177.576C119.287 177.779 118.935 177.88 118.455 177.88H116.327V179H118.775C119.618 179 120.22 178.808 120.583 178.424C120.956 178.029 121.143 177.555 121.143 177C121.143 176.52 121.026 176.147 120.791 175.88C120.556 175.613 120.236 175.427 119.831 175.32C119.426 175.213 118.967 175.16 118.455 175.16H116.327ZM116.327 175.48H118.295C118.754 175.48 119.17 175.416 119.543 175.288C119.927 175.149 120.236 174.947 120.471 174.68C120.706 174.403 120.823 174.056 120.823 173.64C120.823 173.16 120.706 172.776 120.471 172.488C120.236 172.189 119.927 171.976 119.543 171.848C119.17 171.709 118.754 171.64 118.295 171.64H116.327V172.76H118.295C118.679 172.76 118.983 172.851 119.207 173.032C119.431 173.203 119.543 173.432 119.543 173.72C119.543 173.859 119.511 173.992 119.447 174.12C119.394 174.237 119.314 174.344 119.207 174.44C119.1 174.536 118.967 174.611 118.807 174.664C118.658 174.707 118.487 174.728 118.295 174.728H116.327V175.48ZM115.575 171.64V179H116.855V171.64H115.575ZM123.401 176.84C123.401 176.541 123.47 176.285 123.609 176.072C123.748 175.859 123.956 175.693 124.233 175.576C124.521 175.459 124.878 175.4 125.305 175.4C125.774 175.4 126.196 175.464 126.569 175.592C126.942 175.709 127.31 175.896 127.673 176.152V175.4C127.598 175.304 127.46 175.181 127.257 175.032C127.054 174.872 126.782 174.733 126.441 174.616C126.11 174.488 125.71 174.424 125.241 174.424C124.601 174.424 124.046 174.525 123.577 174.728C123.108 174.92 122.745 175.197 122.489 175.56C122.233 175.923 122.105 176.365 122.105 176.888C122.105 177.389 122.217 177.811 122.441 178.152C122.676 178.483 122.985 178.733 123.369 178.904C123.753 179.075 124.174 179.16 124.633 179.16C125.145 179.16 125.609 179.075 126.025 178.904C126.441 178.723 126.772 178.467 127.017 178.136C127.273 177.795 127.401 177.389 127.401 176.92L127.145 176.12C127.145 176.579 127.049 176.947 126.857 177.224C126.676 177.501 126.42 177.704 126.089 177.832C125.758 177.96 125.38 178.024 124.953 178.024C124.665 178.024 124.404 177.981 124.169 177.896C123.934 177.8 123.748 177.667 123.609 177.496C123.47 177.315 123.401 177.096 123.401 176.84ZM123.401 173.368C123.518 173.283 123.678 173.181 123.881 173.064C124.094 172.936 124.345 172.829 124.633 172.744C124.921 172.648 125.241 172.6 125.593 172.6C125.998 172.6 126.356 172.696 126.665 172.888C126.985 173.069 127.145 173.347 127.145 173.72V179H128.425V173.72C128.425 173.24 128.302 172.835 128.057 172.504C127.822 172.173 127.492 171.923 127.065 171.752C126.649 171.571 126.158 171.48 125.593 171.48C124.932 171.48 124.366 171.581 123.897 171.784C123.428 171.987 123.054 172.189 122.777 172.392L123.401 173.368ZM131.343 175.72H136.783V174.52H131.343V175.72ZM135.951 171.64V179H137.231V171.64H135.951ZM130.591 171.64V179H131.871V171.64H130.591ZM145.798 172.92L145.878 171.08L139.798 177.72L139.718 179.56L145.798 172.92ZM140.998 171.64H139.718V179.56L140.998 177.8V171.64ZM145.878 171.08L144.598 172.84V179H145.878V171.08ZM149.412 179L152.132 175.16H150.724L148.004 179H149.412ZM154.084 179V171.64H152.804V179H154.084ZM153.332 174.936H151.044C150.735 174.936 150.474 174.899 150.26 174.824C150.058 174.739 149.903 174.616 149.796 174.456C149.69 174.296 149.636 174.093 149.636 173.848C149.636 173.603 149.69 173.4 149.796 173.24C149.903 173.08 150.058 172.963 150.26 172.888C150.474 172.803 150.735 172.76 151.044 172.76H153.332V171.64H151.044C150.543 171.64 150.084 171.715 149.668 171.864C149.263 172.013 148.943 172.248 148.708 172.568C148.474 172.888 148.356 173.315 148.356 173.848C148.356 174.371 148.474 174.797 148.708 175.128C148.943 175.448 149.263 175.683 149.668 175.832C150.084 175.981 150.543 176.056 151.044 176.056H153.332V174.936ZM166.888 171.64H160.888V179H162.168V172.84H165.608V179H166.888V171.64ZM168.654 175.32C168.654 176.056 168.819 176.717 169.15 177.304C169.491 177.88 169.95 178.333 170.526 178.664C171.102 178.995 171.747 179.16 172.462 179.16C173.187 179.16 173.832 178.995 174.398 178.664C174.974 178.333 175.427 177.88 175.758 177.304C176.099 176.717 176.27 176.056 176.27 175.32C176.27 174.573 176.099 173.912 175.758 173.336C175.427 172.76 174.974 172.307 174.398 171.976C173.832 171.645 173.187 171.48 172.462 171.48C171.747 171.48 171.102 171.645 170.526 171.976C169.95 172.307 169.491 172.76 169.15 173.336C168.819 173.912 168.654 174.573 168.654 175.32ZM169.95 175.32C169.95 174.808 170.056 174.355 170.27 173.96C170.494 173.555 170.792 173.24 171.166 173.016C171.55 172.792 171.982 172.68 172.462 172.68C172.942 172.68 173.368 172.792 173.742 173.016C174.126 173.24 174.424 173.555 174.638 173.96C174.862 174.355 174.974 174.808 174.974 175.32C174.974 175.832 174.862 176.285 174.638 176.68C174.424 177.075 174.126 177.389 173.742 177.624C173.368 177.848 172.942 177.96 172.462 177.96C171.982 177.96 171.55 177.848 171.166 177.624C170.792 177.389 170.494 177.075 170.27 176.68C170.056 176.285 169.95 175.832 169.95 175.32ZM188.825 171.64H182.825V179H184.105V172.84H187.545V179H188.825V171.64ZM192.431 182.52V171.64H191.151V182.52H192.431ZM198.591 175.32C198.591 174.52 198.426 173.837 198.095 173.272C197.765 172.696 197.322 172.253 196.767 171.944C196.223 171.635 195.615 171.48 194.943 171.48C194.335 171.48 193.797 171.635 193.327 171.944C192.869 172.253 192.506 172.696 192.239 173.272C191.983 173.837 191.855 174.52 191.855 175.32C191.855 176.109 191.983 176.792 192.239 177.368C192.506 177.944 192.869 178.387 193.327 178.696C193.797 179.005 194.335 179.16 194.943 179.16C195.615 179.16 196.223 179.005 196.767 178.696C197.322 178.387 197.765 177.944 198.095 177.368C198.426 176.792 198.591 176.109 198.591 175.32ZM197.295 175.32C197.295 175.885 197.178 176.365 196.943 176.76C196.719 177.155 196.415 177.453 196.031 177.656C195.658 177.859 195.242 177.96 194.783 177.96C194.41 177.96 194.042 177.859 193.679 177.656C193.317 177.453 193.018 177.155 192.783 176.76C192.549 176.365 192.431 175.885 192.431 175.32C192.431 174.755 192.549 174.275 192.783 173.88C193.018 173.485 193.317 173.187 193.679 172.984C194.042 172.781 194.41 172.68 194.783 172.68C195.242 172.68 195.658 172.781 196.031 172.984C196.415 173.187 196.719 173.485 196.943 173.88C197.178 174.275 197.295 174.755 197.295 175.32ZM199.716 175.32C199.716 176.056 199.882 176.717 200.212 177.304C200.554 177.88 201.012 178.333 201.588 178.664C202.164 178.995 202.81 179.16 203.524 179.16C204.25 179.16 204.895 178.995 205.46 178.664C206.036 178.333 206.49 177.88 206.82 177.304C207.162 176.717 207.332 176.056 207.332 175.32C207.332 174.573 207.162 173.912 206.82 173.336C206.49 172.76 206.036 172.307 205.46 171.976C204.895 171.645 204.25 171.48 203.524 171.48C202.81 171.48 202.164 171.645 201.588 171.976C201.012 172.307 200.554 172.76 200.212 173.336C199.882 173.912 199.716 174.573 199.716 175.32ZM201.012 175.32C201.012 174.808 201.119 174.355 201.332 173.96C201.556 173.555 201.855 173.24 202.228 173.016C202.612 172.792 203.044 172.68 203.524 172.68C204.004 172.68 204.431 172.792 204.804 173.016C205.188 173.24 205.487 173.555 205.7 173.96C205.924 174.355 206.036 174.808 206.036 175.32C206.036 175.832 205.924 176.285 205.7 176.68C205.487 177.075 205.188 177.389 204.804 177.624C204.431 177.848 204.004 177.96 203.524 177.96C203.044 177.96 202.612 177.848 202.228 177.624C201.855 177.389 201.556 177.075 201.332 176.68C201.119 176.285 201.012 175.832 201.012 175.32ZM209.267 175.64H215.555C215.565 175.576 215.571 175.512 215.571 175.448C215.571 175.384 215.571 175.32 215.571 175.256C215.571 174.477 215.427 173.811 215.139 173.256C214.851 172.691 214.445 172.253 213.923 171.944C213.4 171.635 212.792 171.48 212.099 171.48C211.469 171.48 210.899 171.608 210.387 171.864C209.885 172.12 209.475 172.477 209.155 172.936C208.835 173.395 208.621 173.928 208.515 174.536C208.493 174.664 208.477 174.792 208.467 174.92C208.456 175.048 208.451 175.181 208.451 175.32C208.451 176.056 208.6 176.717 208.899 177.304C209.208 177.88 209.624 178.333 210.147 178.664C210.68 178.995 211.277 179.16 211.939 179.16C212.579 179.16 213.112 179.085 213.539 178.936C213.965 178.776 214.328 178.557 214.627 178.28C214.925 177.992 215.197 177.661 215.443 177.288L214.403 176.632C214.243 176.899 214.051 177.133 213.827 177.336C213.603 177.528 213.347 177.683 213.059 177.8C212.781 177.907 212.461 177.96 212.099 177.96C211.619 177.96 211.203 177.859 210.851 177.656C210.499 177.453 210.227 177.155 210.035 176.76C209.843 176.365 209.747 175.885 209.747 175.32L209.779 174.84C209.779 174.381 209.88 173.987 210.083 173.656C210.296 173.315 210.579 173.053 210.931 172.872C211.283 172.691 211.672 172.6 212.099 172.6C212.525 172.6 212.883 172.685 213.171 172.856C213.469 173.016 213.699 173.245 213.859 173.544C214.029 173.832 214.136 174.168 214.179 174.552H209.267V175.64ZM217.245 171.64V179H218.525V171.64H217.245ZM221.245 171.64L218.045 174.68L221.565 179H223.165L219.645 174.68L222.845 171.64H221.245ZM223.252 171.64V172.84H227.572V171.64H223.252ZM224.772 171.96V179H226.052V171.96H224.772ZM235.181 171.64H233.741L231.469 177.336L231.997 177.4L229.661 171.64H228.141L230.957 177.96L228.941 182.52H230.381L235.181 171.64ZM235.754 178.36C235.754 178.595 235.84 178.803 236.01 178.984C236.192 179.155 236.4 179.24 236.634 179.24C236.88 179.24 237.088 179.155 237.258 178.984C237.429 178.803 237.514 178.595 237.514 178.36C237.514 178.115 237.429 177.907 237.258 177.736C237.088 177.565 236.88 177.48 236.634 177.48C236.4 177.48 236.192 177.565 236.01 177.736C235.84 177.907 235.754 178.115 235.754 178.36Z" fill="black"/>
<path d="M123.595 61.3839L120.128 53.4813V89.9124L155.725 90V86.1802L123.595 86.1082V61.3839Z" fill="black"/>
<path d="M171.277 21.0734V23.0475H174.75V15.5079L160.615 0H120.128V10.568H123.595V3.81987H156.975V21.0765L171.277 21.0734ZM160.442 5.20266L171.277 17.094V17.2567H160.442V5.20266Z" fill="black"/>
<path d="M194.885 26.2823L164.36 26.2604C164.269 26.2542 164.11 26.2416 163.903 26.2416C161.351 26.2416 158.364 27.9248 158.364 32.6707V89.975H200V32.6675C199.997 28.4378 196.652 26.639 194.885 26.2823ZM197.212 86.7714H161.146V32.6675C161.146 31.8729 161.146 29.4421 163.903 29.4421C164.036 29.4421 164.124 29.4515 164.138 29.4515L194.507 29.4608C195.024 29.5922 197.221 30.2961 197.221 32.6644V86.7714H197.212Z" fill="black"/>
<path d="M177.506 51.1694H164.386V55.1707H177.506V51.1694Z" fill="black"/>
<path d="M193.953 51.1694H180.827V55.1707H193.953V51.1694Z" fill="black"/>
<path d="M169.819 58.6432H164.539V64.7938H169.819V58.6432Z" fill="black"/>
<path d="M177.628 58.6432H172.343V64.7938H177.628V58.6432Z" fill="black"/>
<path d="M185.712 58.6432H180.43V64.7938H185.712V58.6432Z" fill="black"/>
<path d="M193.993 58.6432H188.713V64.7938H193.993V58.6432Z" fill="black"/>
<path d="M169.822 67.2872H164.539V73.4409H169.822V67.2872Z" fill="black"/>
<path d="M177.631 67.2872H172.343V73.4409H177.631V67.2872Z" fill="black"/>
<path d="M185.559 67.2872H180.273V73.4409H185.559V67.2872Z" fill="black"/>
<path d="M193.839 67.2872H188.56V73.4409H193.839V67.2872Z" fill="black"/>
<path d="M169.64 75.9343H164.36V82.0818H169.64V75.9343Z" fill="black"/>
<path d="M177.454 75.9343H172.169V82.0818H177.454V75.9343Z" fill="black"/>
<path d="M185.712 75.9343H180.43V82.0818H185.712V75.9343Z" fill="black"/>
<path d="M193.836 75.9343H188.56V82.0818H193.836V75.9343Z" fill="black"/>
<path d="M193.953 34.8105H164.36V46.6268H193.953V34.8105ZM180.467 43.8143H178.966V40.4418H177.784V39.2311C177.966 39.2373 178.145 39.2186 178.318 39.1779C178.495 39.1341 178.648 39.0653 178.79 38.9683C178.929 38.8713 179.046 38.7368 179.131 38.5741C179.219 38.4083 179.273 38.2049 179.282 37.964H180.467V43.8143ZM186.386 43.8143H182.03C182.013 43.5265 182.041 43.2668 182.103 43.0228C182.166 42.7819 182.263 42.5629 182.39 42.3658C182.496 42.2 182.618 42.0405 182.751 41.8965C182.891 41.7526 183.041 41.6181 183.195 41.493C183.351 41.3616 183.513 41.2458 183.683 41.1269C183.851 41.0081 184.016 40.8986 184.172 40.7891C184.232 40.7421 184.306 40.6921 184.385 40.6358C184.468 40.5826 184.539 40.52 184.61 40.4512C184.675 40.3824 184.735 40.3073 184.783 40.2228C184.834 40.1383 184.851 40.0414 184.851 39.9381C184.851 39.6691 184.792 39.4814 184.675 39.3781C184.559 39.2749 184.414 39.2248 184.246 39.2248C183.953 39.2248 183.757 39.3406 183.644 39.5533C183.53 39.7786 183.476 40.0664 183.487 40.423H182.126C182.106 40.0226 182.143 39.6628 182.234 39.3468C182.325 39.034 182.464 38.7649 182.652 38.5553C182.834 38.3395 183.067 38.1737 183.34 38.061C183.612 37.9484 183.916 37.8921 184.252 37.8921C184.553 37.8921 184.834 37.9296 185.084 38.0078C185.337 38.0829 185.556 38.2018 185.735 38.3489C185.914 38.5021 186.056 38.693 186.15 38.9245C186.249 39.1591 186.301 39.4313 186.301 39.7379C186.301 40.1133 186.232 40.4293 186.09 40.6858C185.951 40.9455 185.775 41.1676 185.556 41.3616C185.343 41.5587 185.104 41.7307 184.84 41.8872C184.581 42.0436 184.331 42.2063 184.095 42.3752V42.3846H186.374V43.8143H186.386ZM191.092 42.6286C191.026 42.8413 190.915 43.0353 190.753 43.2261C190.591 43.4076 190.375 43.5672 190.103 43.6923C189.827 43.8174 189.486 43.8831 189.08 43.8831C188.705 43.8831 188.386 43.8362 188.125 43.7455C187.861 43.6485 187.65 43.5327 187.483 43.3888C187.315 43.2418 187.19 43.0791 187.102 42.9039C187.011 42.7256 186.946 42.5535 186.906 42.3815C186.866 42.2094 186.846 42.053 186.846 41.9122C186.846 41.7745 186.846 41.665 186.849 41.5931H188.221C188.21 41.9091 188.278 42.1406 188.415 42.2939C188.48 42.3877 188.565 42.4565 188.67 42.4941C188.776 42.5348 188.892 42.5535 189.02 42.5535C189.225 42.5535 189.387 42.5035 189.509 42.4065C189.631 42.3095 189.688 42.1374 189.688 41.8965C189.688 41.7683 189.668 41.6619 189.628 41.5837C189.588 41.5055 189.54 41.4492 189.477 41.4022C189.415 41.3553 189.341 41.324 189.262 41.3115C189.182 41.3021 189.094 41.2896 189.017 41.2896C188.906 41.2896 188.827 41.2927 188.767 41.3053C188.707 41.3115 188.645 41.3209 188.594 41.3334V40.1915C188.645 40.1947 188.705 40.204 188.77 40.2103C188.832 40.2197 188.915 40.2259 189.014 40.2259C189.085 40.2259 189.171 40.2197 189.247 40.2103C189.327 40.1978 189.404 40.1728 189.469 40.1352C189.534 40.0945 189.591 40.0414 189.637 39.9725C189.679 39.9037 189.696 39.8099 189.696 39.7004C189.696 39.6096 189.676 39.5283 189.637 39.4626C189.597 39.3969 189.546 39.3406 189.48 39.303C189.421 39.2624 189.347 39.2373 189.27 39.2154C189.19 39.1967 189.111 39.1873 189.043 39.1873C188.946 39.1873 188.855 39.2029 188.764 39.2342C188.673 39.2655 188.602 39.3093 188.543 39.3719C188.48 39.4376 188.432 39.5064 188.392 39.6002C188.355 39.6878 188.341 39.7973 188.344 39.9193H186.985C186.991 39.5721 187.045 39.2718 187.159 39.0183C187.27 38.7649 187.423 38.5585 187.613 38.3895C187.807 38.2268 188.028 38.1048 188.275 38.0235C188.528 37.9421 188.796 37.8984 189.08 37.8984C189.446 37.8984 189.753 37.9515 190 38.0642C190.25 38.1768 190.446 38.3051 190.6 38.4615C190.751 38.621 190.859 38.7837 190.924 38.9589C190.989 39.1341 191.023 39.2811 191.023 39.4031C191.023 39.7129 190.986 39.9506 190.918 40.1164C190.85 40.2822 190.773 40.4043 190.691 40.4825C190.608 40.5607 190.529 40.6076 190.458 40.6233C190.392 40.642 190.356 40.6545 190.356 40.6608V40.6702C190.356 40.6796 190.375 40.6921 190.415 40.7015C190.455 40.7109 190.506 40.7359 190.566 40.7672C190.626 40.7984 190.694 40.8422 190.768 40.8954C190.839 40.9486 190.904 41.0237 190.964 41.1238C191.023 41.2208 191.077 41.3428 191.114 41.4961C191.154 41.64 191.174 41.8246 191.174 42.0436C191.191 42.2188 191.16 42.4159 191.092 42.6286Z" fill="black"/>
<path d="M142.346 79.0879L142.19 60.5141L126.893 25.4126L126.916 25.4033L122 14.1658L110 20.526L114.916 31.7634L114.933 31.7572L130.161 66.574L142.346 79.0879ZM135.202 66.427L135.56 62.4663L138.84 64.4998L140.454 59.5381L140.957 60.68L141.039 71.2824L138.067 72.8591L131.227 65.8701L130.534 64.2808L135.202 66.427ZM115.132 25.9601L113.313 21.8055L120.844 17.8167L122.665 21.9744L115.132 25.9601Z" fill="black"/>
<g filter="url(#filter0_f_411_61)">
<path d="M29 234H269V237H29V234Z" fill="#F9A825"/>
</g>
<defs>
<filter id="filter0_f_411_61" x="28" y="233" width="242" height="5" filterUnits="userSpaceOnUse" color-interpolation-filters="sRGB">
<feFlood flood-opacity="0" result="BackgroundImageFix"/>
<feBlend mode="normal" in="SourceGraphic" in2="BackgroundImageFix" result="shape"/>
<feGaussianBlur stdDeviation="0.5" result="effect1_foregroundBlur_411_61"/>
</filter>
</defs>
</svg>
