<svg width="444" height="358" viewBox="0 0 444 358" fill="none" xmlns="http://www.w3.org/2000/svg">
<g clip-path="url(#clip0_411_16)">
<g filter="url(#filter0_f_411_16)">
<path d="M3.34863 36.4952L3.03656 304.525L0.0365654 304.522L0.348635 36.4917L3.34863 36.4952Z" fill="#F9A825"/>
</g>
<path d="M58.54 150.54L63.1 158.7L67.66 150.54L68.7 160H70.4L68.7 145.3L63.1 155.44L57.5 145.3L55.8 160H57.5L58.54 150.54ZM81.1914 150.8V160H82.7914V150.8H81.1914ZM72.8914 150.8V160H74.4914V150.8H72.8914ZM73.8314 155.68H76.6914C77.2781 155.68 77.7181 155.807 78.0114 156.06C78.3047 156.313 78.4514 156.673 78.4514 157.14C78.4514 157.447 78.3847 157.713 78.2514 157.94C78.1181 158.153 77.9181 158.32 77.6514 158.44C77.3981 158.547 77.0781 158.6 76.6914 158.6H73.8314V160H76.6914C77.3314 160 77.9047 159.9 78.4114 159.7C78.9181 159.5 79.3181 159.187 79.6114 158.76C79.9047 158.333 80.0514 157.793 80.0514 157.14C80.0514 156.153 79.7247 155.433 79.0714 154.98C78.4314 154.513 77.6381 154.28 76.6914 154.28H73.8314V155.68ZM99.8781 152.4L99.9781 150.1L92.3781 158.4L92.2781 160.7L99.8781 152.4ZM93.8781 150.8H92.2781V160.7L93.8781 158.5V150.8ZM99.9781 150.1L98.3781 152.3V160H99.9781V150.1ZM103.997 155.4C103.997 154.76 104.13 154.193 104.397 153.7C104.677 153.193 105.05 152.8 105.517 152.52C105.997 152.24 106.537 152.1 107.137 152.1C107.63 152.1 108.09 152.18 108.517 152.34C108.957 152.487 109.337 152.687 109.657 152.94C109.977 153.193 110.203 153.473 110.337 153.78V151.78C110.017 151.407 109.557 151.12 108.957 150.92C108.37 150.707 107.763 150.6 107.137 150.6C106.243 150.6 105.437 150.807 104.717 151.22C103.997 151.633 103.423 152.2 102.997 152.92C102.583 153.64 102.377 154.467 102.377 155.4C102.377 156.32 102.583 157.147 102.997 157.88C103.423 158.6 103.997 159.167 104.717 159.58C105.437 159.993 106.243 160.2 107.137 160.2C107.763 160.2 108.37 160.1 108.957 159.9C109.557 159.687 110.017 159.393 110.337 159.02V157.02C110.203 157.313 109.977 157.593 109.657 157.86C109.337 158.113 108.957 158.32 108.517 158.48C108.09 158.627 107.63 158.7 107.137 158.7C106.537 158.7 105.997 158.56 105.517 158.28C105.05 157.987 104.677 157.593 104.397 157.1C104.13 156.607 103.997 156.04 103.997 155.4ZM112.927 150.8V160H114.527V150.8H112.927ZM117.927 150.8L113.927 154.6L118.327 160H120.327L115.927 154.6L119.927 150.8H117.927ZM123.536 164.4V150.8H121.936V164.4H123.536ZM131.236 155.4C131.236 154.4 131.029 153.547 130.616 152.84C130.203 152.12 129.649 151.567 128.956 151.18C128.276 150.793 127.516 150.6 126.676 150.6C125.916 150.6 125.243 150.793 124.656 151.18C124.083 151.567 123.629 152.12 123.296 152.84C122.976 153.547 122.816 154.4 122.816 155.4C122.816 156.387 122.976 157.24 123.296 157.96C123.629 158.68 124.083 159.233 124.656 159.62C125.243 160.007 125.916 160.2 126.676 160.2C127.516 160.2 128.276 160.007 128.956 159.62C129.649 159.233 130.203 158.68 130.616 157.96C131.029 157.24 131.236 156.387 131.236 155.4ZM129.616 155.4C129.616 156.107 129.469 156.707 129.176 157.2C128.896 157.693 128.516 158.067 128.036 158.32C127.569 158.573 127.049 158.7 126.476 158.7C126.009 158.7 125.549 158.573 125.096 158.32C124.643 158.067 124.269 157.693 123.976 157.2C123.683 156.707 123.536 156.107 123.536 155.4C123.536 154.693 123.683 154.093 123.976 153.6C124.269 153.107 124.643 152.733 125.096 152.48C125.549 152.227 126.009 152.1 126.476 152.1C127.049 152.1 127.569 152.227 128.036 152.48C128.516 152.733 128.896 153.107 129.176 153.6C129.469 154.093 129.616 154.693 129.616 155.4ZM133.862 155.8H141.722C141.736 155.72 141.742 155.64 141.742 155.56C141.742 155.48 141.742 155.4 141.742 155.32C141.742 154.347 141.562 153.513 141.202 152.82C140.842 152.113 140.336 151.567 139.682 151.18C139.029 150.793 138.269 150.6 137.402 150.6C136.616 150.6 135.902 150.76 135.262 151.08C134.636 151.4 134.122 151.847 133.722 152.42C133.322 152.993 133.056 153.66 132.922 154.42C132.896 154.58 132.876 154.74 132.862 154.9C132.849 155.06 132.842 155.227 132.842 155.4C132.842 156.32 133.029 157.147 133.402 157.88C133.789 158.6 134.309 159.167 134.962 159.58C135.629 159.993 136.376 160.2 137.202 160.2C138.002 160.2 138.669 160.107 139.202 159.92C139.736 159.72 140.189 159.447 140.562 159.1C140.936 158.74 141.276 158.327 141.582 157.86L140.282 157.04C140.082 157.373 139.842 157.667 139.562 157.92C139.282 158.16 138.962 158.353 138.602 158.5C138.256 158.633 137.856 158.7 137.402 158.7C136.802 158.7 136.282 158.573 135.842 158.32C135.402 158.067 135.062 157.693 134.822 157.2C134.582 156.707 134.462 156.107 134.462 155.4L134.502 154.8C134.502 154.227 134.629 153.733 134.882 153.32C135.149 152.893 135.502 152.567 135.942 152.34C136.382 152.113 136.869 152 137.402 152C137.936 152 138.382 152.107 138.742 152.32C139.116 152.52 139.402 152.807 139.602 153.18C139.816 153.54 139.949 153.96 140.002 154.44H133.862V155.8ZM145.075 155.9H151.875V154.4H145.075V155.9ZM150.835 150.8V160H152.435V150.8H150.835ZM144.135 150.8V160H145.735V150.8H144.135ZM156.584 155.9H163.384V154.4H156.584V155.9ZM162.344 150.8V160H163.944V150.8H162.344ZM155.644 150.8V160H157.244V150.8H155.644ZM167.372 155.8H175.232C175.246 155.72 175.252 155.64 175.252 155.56C175.252 155.48 175.252 155.4 175.252 155.32C175.252 154.347 175.072 153.513 174.712 152.82C174.352 152.113 173.846 151.567 173.192 151.18C172.539 150.793 171.779 150.6 170.912 150.6C170.126 150.6 169.412 150.76 168.772 151.08C168.146 151.4 167.632 151.847 167.232 152.42C166.832 152.993 166.566 153.66 166.432 154.42C166.406 154.58 166.386 154.74 166.372 154.9C166.359 155.06 166.352 155.227 166.352 155.4C166.352 156.32 166.539 157.147 166.912 157.88C167.299 158.6 167.819 159.167 168.472 159.58C169.139 159.993 169.886 160.2 170.712 160.2C171.512 160.2 172.179 160.107 172.712 159.92C173.246 159.72 173.699 159.447 174.072 159.1C174.446 158.74 174.786 158.327 175.092 157.86L173.792 157.04C173.592 157.373 173.352 157.667 173.072 157.92C172.792 158.16 172.472 158.353 172.112 158.5C171.766 158.633 171.366 158.7 170.912 158.7C170.312 158.7 169.792 158.573 169.352 158.32C168.912 158.067 168.572 157.693 168.332 157.2C168.092 156.707 167.972 156.107 167.972 155.4L168.012 154.8C168.012 154.227 168.139 153.733 168.392 153.32C168.659 152.893 169.012 152.567 169.452 152.34C169.892 152.113 170.379 152 170.912 152C171.446 152 171.892 152.107 172.252 152.32C172.626 152.52 172.912 152.807 173.112 153.18C173.326 153.54 173.459 153.96 173.512 154.44H167.372V155.8ZM191.341 150.8H183.841V160H185.441V152.3H189.741V160H191.341V150.8ZM193.749 155.4C193.749 156.32 193.956 157.147 194.369 157.88C194.796 158.6 195.369 159.167 196.089 159.58C196.809 159.993 197.616 160.2 198.509 160.2C199.416 160.2 200.223 159.993 200.929 159.58C201.649 159.167 202.216 158.6 202.629 157.88C203.056 157.147 203.269 156.32 203.269 155.4C203.269 154.467 203.056 153.64 202.629 152.92C202.216 152.2 201.649 151.633 200.929 151.22C200.223 150.807 199.416 150.6 198.509 150.6C197.616 150.6 196.809 150.807 196.089 151.22C195.369 151.633 194.796 152.2 194.369 152.92C193.956 153.64 193.749 154.467 193.749 155.4ZM195.369 155.4C195.369 154.76 195.503 154.193 195.769 153.7C196.049 153.193 196.423 152.8 196.889 152.52C197.369 152.24 197.909 152.1 198.509 152.1C199.109 152.1 199.643 152.24 200.109 152.52C200.589 152.8 200.963 153.193 201.229 153.7C201.509 154.193 201.649 154.76 201.649 155.4C201.649 156.04 201.509 156.607 201.229 157.1C200.963 157.593 200.589 157.987 200.109 158.28C199.643 158.56 199.109 158.7 198.509 158.7C197.909 158.7 197.369 158.56 196.889 158.28C196.423 157.987 196.049 157.593 195.769 157.1C195.503 156.607 195.369 156.04 195.369 155.4ZM213.727 150.8H205.827V156.8C205.827 157.453 205.681 157.907 205.387 158.16C205.107 158.413 204.767 158.54 204.367 158.54V160C205.061 160 205.634 159.887 206.087 159.66C206.541 159.42 206.874 159.067 207.087 158.6C207.314 158.12 207.427 157.52 207.427 156.8V152.3H212.127V160H213.727V150.8ZM217.02 150.8V160H218.62V150.8H217.02ZM217.96 155.68H220.82C221.406 155.68 221.846 155.807 222.14 156.06C222.433 156.313 222.58 156.673 222.58 157.14C222.58 157.447 222.513 157.713 222.38 157.94C222.246 158.153 222.046 158.32 221.78 158.44C221.526 158.547 221.206 158.6 220.82 158.6H217.96V160H220.82C221.46 160 222.033 159.9 222.54 159.7C223.046 159.5 223.446 159.187 223.74 158.76C224.033 158.333 224.18 157.793 224.18 157.14C224.18 156.153 223.853 155.433 223.2 154.98C222.56 154.513 221.766 154.28 220.82 154.28H217.96V155.68ZM233.987 158.5V150.8H232.387V158.5H228.487V150.8H226.887V160H239.687V161.8H241.087V158.5H239.487V150.8H237.887V158.5H233.987ZM243.714 155.8H251.574C251.587 155.72 251.594 155.64 251.594 155.56C251.594 155.48 251.594 155.4 251.594 155.32C251.594 154.347 251.414 153.513 251.054 152.82C250.694 152.113 250.187 151.567 249.534 151.18C248.88 150.793 248.12 150.6 247.254 150.6C246.467 150.6 245.754 150.76 245.114 151.08C244.487 151.4 243.974 151.847 243.574 152.42C243.174 152.993 242.907 153.66 242.774 154.42C242.747 154.58 242.727 154.74 242.714 154.9C242.7 155.06 242.694 155.227 242.694 155.4C242.694 156.32 242.88 157.147 243.254 157.88C243.64 158.6 244.16 159.167 244.814 159.58C245.48 159.993 246.227 160.2 247.054 160.2C247.854 160.2 248.52 160.107 249.054 159.92C249.587 159.72 250.04 159.447 250.414 159.1C250.787 158.74 251.127 158.327 251.434 157.86L250.134 157.04C249.934 157.373 249.694 157.667 249.414 157.92C249.134 158.16 248.814 158.353 248.454 158.5C248.107 158.633 247.707 158.7 247.254 158.7C246.654 158.7 246.134 158.573 245.694 158.32C245.254 158.067 244.914 157.693 244.674 157.2C244.434 156.707 244.314 156.107 244.314 155.4L244.354 154.8C244.354 154.227 244.48 153.733 244.734 153.32C245 152.893 245.354 152.567 245.794 152.34C246.234 152.113 246.72 152 247.254 152C247.787 152 248.234 152.107 248.594 152.32C248.967 152.52 249.254 152.807 249.454 153.18C249.667 153.54 249.8 153.96 249.854 154.44H243.714V155.8ZM254.927 155.9H261.727V154.4H254.927V155.9ZM260.687 150.8V160H262.287V150.8H260.687ZM253.987 150.8V160H255.587V150.8H253.987ZM273.795 150.8V160H275.395V150.8H273.795ZM265.495 150.8V160H267.095V150.8H265.495ZM266.435 155.68H269.295C269.882 155.68 270.322 155.807 270.615 156.06C270.909 156.313 271.055 156.673 271.055 157.14C271.055 157.447 270.989 157.713 270.855 157.94C270.722 158.153 270.522 158.32 270.255 158.44C270.002 158.547 269.682 158.6 269.295 158.6H266.435V160H269.295C269.935 160 270.509 159.9 271.015 159.7C271.522 159.5 271.922 159.187 272.215 158.76C272.509 158.333 272.655 157.793 272.655 157.14C272.655 156.153 272.329 155.433 271.675 154.98C271.035 154.513 270.242 154.28 269.295 154.28H266.435V155.68ZM56.4 179.8V189H58V179.8H56.4ZM61.4 179.8L57.4 183.6L61.8 189H63.8L59.4 183.6L63.4 179.8H61.4ZM64.4156 184.4C64.4156 185.32 64.6223 186.147 65.0356 186.88C65.4623 187.6 66.0356 188.167 66.7556 188.58C67.4756 188.993 68.2823 189.2 69.1756 189.2C70.0823 189.2 70.889 188.993 71.5956 188.58C72.3156 188.167 72.8823 187.6 73.2956 186.88C73.7223 186.147 73.9356 185.32 73.9356 184.4C73.9356 183.467 73.7223 182.64 73.2956 181.92C72.8823 181.2 72.3156 180.633 71.5956 180.22C70.889 179.807 70.0823 179.6 69.1756 179.6C68.2823 179.6 67.4756 179.807 66.7556 180.22C66.0356 180.633 65.4623 181.2 65.0356 181.92C64.6223 182.64 64.4156 183.467 64.4156 184.4ZM66.0356 184.4C66.0356 183.76 66.169 183.193 66.4356 182.7C66.7156 182.193 67.089 181.8 67.5556 181.52C68.0356 181.24 68.5756 181.1 69.1756 181.1C69.7756 181.1 70.309 181.24 70.7756 181.52C71.2556 181.8 71.629 182.193 71.8956 182.7C72.1756 183.193 72.3156 183.76 72.3156 184.4C72.3156 185.04 72.1756 185.607 71.8956 186.1C71.629 186.593 71.2556 186.987 70.7756 187.28C70.309 187.56 69.7756 187.7 69.1756 187.7C68.5756 187.7 68.0356 187.56 67.5556 187.28C67.089 186.987 66.7156 186.593 66.4356 186.1C66.169 185.607 66.0356 185.04 66.0356 184.4ZM84.3936 179.8H76.4936V185.8C76.4936 186.453 76.3469 186.907 76.0536 187.16C75.7736 187.413 75.4336 187.54 75.0336 187.54V189C75.7269 189 76.3003 188.887 76.7536 188.66C77.2069 188.42 77.5403 188.067 77.7536 187.6C77.9803 187.12 78.0936 186.52 78.0936 185.8V181.3H82.7936V189H84.3936V179.8ZM95.3859 181.4L95.4859 179.1L87.8859 187.4L87.7859 189.7L95.3859 181.4ZM89.3859 179.8H87.7859V189.7L89.3859 187.5V179.8ZM95.4859 179.1L93.8859 181.3V189H95.4859V179.1ZM101.884 186.2H105.024V184.7H101.884V186.2ZM103.884 179.8V189H105.484V179.8H103.884ZM99.8844 179.8H98.2844V182.44C98.2844 183.333 98.391 184.06 98.6044 184.62C98.8177 185.167 99.1844 185.567 99.7044 185.82C100.238 186.073 100.964 186.2 101.884 186.2V184.7C101.378 184.7 100.978 184.627 100.684 184.48C100.391 184.32 100.184 184.073 100.064 183.74C99.9444 183.407 99.8844 182.973 99.8844 182.44V179.8ZM108.911 184.8H116.771C116.785 184.72 116.791 184.64 116.791 184.56C116.791 184.48 116.791 184.4 116.791 184.32C116.791 183.347 116.611 182.513 116.251 181.82C115.891 181.113 115.385 180.567 114.731 180.18C114.078 179.793 113.318 179.6 112.451 179.6C111.665 179.6 110.951 179.76 110.311 180.08C109.685 180.4 109.171 180.847 108.771 181.42C108.371 181.993 108.105 182.66 107.971 183.42C107.945 183.58 107.925 183.74 107.911 183.9C107.898 184.06 107.891 184.227 107.891 184.4C107.891 185.32 108.078 186.147 108.451 186.88C108.838 187.6 109.358 188.167 110.011 188.58C110.678 188.993 111.425 189.2 112.251 189.2C113.051 189.2 113.718 189.107 114.251 188.92C114.785 188.72 115.238 188.447 115.611 188.1C115.985 187.74 116.325 187.327 116.631 186.86L115.331 186.04C115.131 186.373 114.891 186.667 114.611 186.92C114.331 187.16 114.011 187.353 113.651 187.5C113.305 187.633 112.905 187.7 112.451 187.7C111.851 187.7 111.331 187.573 110.891 187.32C110.451 187.067 110.111 186.693 109.871 186.2C109.631 185.707 109.511 185.107 109.511 184.4L109.551 183.8C109.551 183.227 109.678 182.733 109.931 182.32C110.198 181.893 110.551 181.567 110.991 181.34C111.431 181.113 111.918 181 112.451 181C112.985 181 113.431 181.107 113.791 181.32C114.165 181.52 114.451 181.807 114.651 182.18C114.865 182.54 114.998 182.96 115.051 183.44H108.911V184.8ZM119.904 184.4C119.904 183.76 120.038 183.193 120.304 182.7C120.584 182.193 120.958 181.8 121.424 181.52C121.904 181.24 122.444 181.1 123.044 181.1C123.538 181.1 123.998 181.18 124.424 181.34C124.864 181.487 125.244 181.687 125.564 181.94C125.884 182.193 126.111 182.473 126.244 182.78V180.78C125.924 180.407 125.464 180.12 124.864 179.92C124.278 179.707 123.671 179.6 123.044 179.6C122.151 179.6 121.344 179.807 120.624 180.22C119.904 180.633 119.331 181.2 118.904 181.92C118.491 182.64 118.284 183.467 118.284 184.4C118.284 185.32 118.491 186.147 118.904 186.88C119.331 187.6 119.904 188.167 120.624 188.58C121.344 188.993 122.151 189.2 123.044 189.2C123.671 189.2 124.278 189.1 124.864 188.9C125.464 188.687 125.924 188.393 126.244 188.02V186.02C126.111 186.313 125.884 186.593 125.564 186.86C125.244 187.113 124.864 187.32 124.424 187.48C123.998 187.627 123.538 187.7 123.044 187.7C122.444 187.7 121.904 187.56 121.424 187.28C120.958 186.987 120.584 186.593 120.304 186.1C120.038 185.607 119.904 185.04 119.904 184.4ZM127.535 179.8V181.3H132.935V179.8H127.535ZM129.435 180.2V189H131.035V180.2H129.435ZM135.681 184.2V185.04H138.341C138.647 185.04 138.907 185.073 139.121 185.14C139.347 185.193 139.527 185.28 139.661 185.4C139.807 185.52 139.914 185.653 139.981 185.8C140.061 185.947 140.101 186.113 140.101 186.3C140.101 186.66 139.954 186.967 139.661 187.22C139.381 187.473 138.941 187.6 138.341 187.6H135.681V189H138.741C139.794 189 140.547 188.76 141.001 188.28C141.467 187.787 141.701 187.193 141.701 186.5C141.701 185.9 141.554 185.433 141.261 185.1C140.967 184.767 140.567 184.533 140.061 184.4C139.554 184.267 138.981 184.2 138.341 184.2H135.681ZM135.681 184.6H138.141C138.714 184.6 139.234 184.52 139.701 184.36C140.181 184.187 140.567 183.933 140.861 183.6C141.154 183.253 141.301 182.82 141.301 182.3C141.301 181.7 141.154 181.22 140.861 180.86C140.567 180.487 140.181 180.22 139.701 180.06C139.234 179.887 138.714 179.8 138.141 179.8H135.681V181.2H138.141C138.621 181.2 139.001 181.313 139.281 181.54C139.561 181.753 139.701 182.04 139.701 182.4C139.701 182.573 139.661 182.74 139.581 182.9C139.514 183.047 139.414 183.18 139.281 183.3C139.147 183.42 138.981 183.513 138.781 183.58C138.594 183.633 138.381 183.66 138.141 183.66H135.681V184.6ZM134.741 179.8V189H136.341V179.8H134.741ZM143.203 184.4C143.203 185.32 143.41 186.147 143.823 186.88C144.25 187.6 144.823 188.167 145.543 188.58C146.263 188.993 147.07 189.2 147.963 189.2C148.87 189.2 149.676 188.993 150.383 188.58C151.103 188.167 151.67 187.6 152.083 186.88C152.51 186.147 152.723 185.32 152.723 184.4C152.723 183.467 152.51 182.64 152.083 181.92C151.67 181.2 151.103 180.633 150.383 180.22C149.676 179.807 148.87 179.6 147.963 179.6C147.07 179.6 146.263 179.807 145.543 180.22C144.823 180.633 144.25 181.2 143.823 181.92C143.41 182.64 143.203 183.467 143.203 184.4ZM144.823 184.4C144.823 183.76 144.956 183.193 145.223 182.7C145.503 182.193 145.876 181.8 146.343 181.52C146.823 181.24 147.363 181.1 147.963 181.1C148.563 181.1 149.096 181.24 149.563 181.52C150.043 181.8 150.416 182.193 150.683 182.7C150.963 183.193 151.103 183.76 151.103 184.4C151.103 185.04 150.963 185.607 150.683 186.1C150.416 186.593 150.043 186.987 149.563 187.28C149.096 187.56 148.563 187.7 147.963 187.7C147.363 187.7 146.823 187.56 146.343 187.28C145.876 186.987 145.503 186.593 145.223 186.1C144.956 185.607 144.823 185.04 144.823 184.4ZM163.861 189H165.661L163.261 179.1L162.361 181.7L163.861 189ZM159.061 187.62L159.661 189.62L163.461 182.3L163.261 179.1L159.061 187.62ZM159.661 189.62L160.261 187.62L156.121 179.1L155.921 182.3L159.661 189.62ZM153.721 189H155.521L157.021 181.7L156.121 179.1L153.721 189ZM173.566 179.8V189H175.166V179.8H173.566ZM178.566 179.8L174.566 183.6L178.966 189H180.966L176.566 183.6L180.566 179.8H178.566ZM190.734 179.8H182.834V185.8C182.834 186.453 182.688 186.907 182.394 187.16C182.114 187.413 181.774 187.54 181.374 187.54V189C182.068 189 182.641 188.887 183.094 188.66C183.548 188.42 183.881 188.067 184.094 187.6C184.321 187.12 184.434 186.52 184.434 185.8V181.3H189.134V189H190.734V179.8ZM201.727 181.4L201.827 179.1L194.227 187.4L194.127 189.7L201.727 181.4ZM195.727 179.8H194.127V189.7L195.727 187.5V179.8ZM201.827 179.1L200.227 181.3V189H201.827V179.1ZM205.345 184.8H213.205C213.218 184.72 213.225 184.64 213.225 184.56C213.225 184.48 213.225 184.4 213.225 184.32C213.225 183.347 213.045 182.513 212.685 181.82C212.325 181.113 211.818 180.567 211.165 180.18C210.512 179.793 209.752 179.6 208.885 179.6C208.098 179.6 207.385 179.76 206.745 180.08C206.118 180.4 205.605 180.847 205.205 181.42C204.805 181.993 204.538 182.66 204.405 183.42C204.378 183.58 204.358 183.74 204.345 183.9C204.332 184.06 204.325 184.227 204.325 184.4C204.325 185.32 204.512 186.147 204.885 186.88C205.272 187.6 205.792 188.167 206.445 188.58C207.112 188.993 207.858 189.2 208.685 189.2C209.485 189.2 210.152 189.107 210.685 188.92C211.218 188.72 211.672 188.447 212.045 188.1C212.418 187.74 212.758 187.327 213.065 186.86L211.765 186.04C211.565 186.373 211.325 186.667 211.045 186.92C210.765 187.16 210.445 187.353 210.085 187.5C209.738 187.633 209.338 187.7 208.885 187.7C208.285 187.7 207.765 187.573 207.325 187.32C206.885 187.067 206.545 186.693 206.305 186.2C206.065 185.707 205.945 185.107 205.945 184.4L205.985 183.8C205.985 183.227 206.112 182.733 206.365 182.32C206.632 181.893 206.985 181.567 207.425 181.34C207.865 181.113 208.352 181 208.885 181C209.418 181 209.865 181.107 210.225 181.32C210.598 181.52 210.885 181.807 211.085 182.18C211.298 182.54 211.432 182.96 211.485 183.44H205.345V184.8ZM216.558 184.9H223.358V183.4H216.558V184.9ZM222.318 179.8V189H223.918V179.8H222.318ZM215.618 179.8V189H217.218V179.8H215.618ZM225.727 179.8V181.3H231.127V179.8H225.727ZM227.627 180.2V189H229.227V180.2H227.627ZM231.839 184.4C231.839 185.32 232.046 186.147 232.459 186.88C232.886 187.6 233.459 188.167 234.179 188.58C234.899 188.993 235.706 189.2 236.599 189.2C237.506 189.2 238.312 188.993 239.019 188.58C239.739 188.167 240.306 187.6 240.719 186.88C241.146 186.147 241.359 185.32 241.359 184.4C241.359 183.467 241.146 182.64 240.719 181.92C240.306 181.2 239.739 180.633 239.019 180.22C238.312 179.807 237.506 179.6 236.599 179.6C235.706 179.6 234.899 179.807 234.179 180.22C233.459 180.633 232.886 181.2 232.459 181.92C232.046 182.64 231.839 183.467 231.839 184.4ZM233.459 184.4C233.459 183.76 233.592 183.193 233.859 182.7C234.139 182.193 234.512 181.8 234.979 181.52C235.459 181.24 235.999 181.1 236.599 181.1C237.199 181.1 237.732 181.24 238.199 181.52C238.679 181.8 239.052 182.193 239.319 182.7C239.599 183.193 239.739 183.76 239.739 184.4C239.739 185.04 239.599 185.607 239.319 186.1C239.052 186.593 238.679 186.987 238.199 187.28C237.732 187.56 237.199 187.7 236.599 187.7C235.999 187.7 235.459 187.56 234.979 187.28C234.512 186.987 234.139 186.593 233.859 186.1C233.592 185.607 233.459 185.04 233.459 184.4ZM244.697 184.2V185.04H247.357C247.664 185.04 247.924 185.073 248.137 185.14C248.364 185.193 248.544 185.28 248.677 185.4C248.824 185.52 248.93 185.653 248.997 185.8C249.077 185.947 249.117 186.113 249.117 186.3C249.117 186.66 248.97 186.967 248.677 187.22C248.397 187.473 247.957 187.6 247.357 187.6H244.697V189H247.757C248.81 189 249.564 188.76 250.017 188.28C250.484 187.787 250.717 187.193 250.717 186.5C250.717 185.9 250.57 185.433 250.277 185.1C249.984 184.767 249.584 184.533 249.077 184.4C248.57 184.267 247.997 184.2 247.357 184.2H244.697ZM244.697 184.6H247.157C247.73 184.6 248.25 184.52 248.717 184.36C249.197 184.187 249.584 183.933 249.877 183.6C250.17 183.253 250.317 182.82 250.317 182.3C250.317 181.7 250.17 181.22 249.877 180.86C249.584 180.487 249.197 180.22 248.717 180.06C248.25 179.887 247.73 179.8 247.157 179.8H244.697V181.2H247.157C247.637 181.2 248.017 181.313 248.297 181.54C248.577 181.753 248.717 182.04 248.717 182.4C248.717 182.573 248.677 182.74 248.597 182.9C248.53 183.047 248.43 183.18 248.297 183.3C248.164 183.42 247.997 183.513 247.797 183.58C247.61 183.633 247.397 183.66 247.157 183.66H244.697V184.6ZM243.757 179.8V189H245.357V179.8H243.757ZM254.48 186.8L252.72 191.98L253.88 192.4L256.08 187.4L254.48 186.8ZM265.468 179.8V189H267.068V179.8H265.468ZM270.468 179.8L266.468 183.6L270.868 189H272.868L268.468 183.6L272.468 179.8H270.468ZM273.484 184.4C273.484 185.32 273.69 186.147 274.104 186.88C274.53 187.6 275.104 188.167 275.824 188.58C276.544 188.993 277.35 189.2 278.244 189.2C279.15 189.2 279.957 188.993 280.664 188.58C281.384 188.167 281.95 187.6 282.364 186.88C282.79 186.147 283.004 185.32 283.004 184.4C283.004 183.467 282.79 182.64 282.364 181.92C281.95 181.2 281.384 180.633 280.664 180.22C279.957 179.807 279.15 179.6 278.244 179.6C277.35 179.6 276.544 179.807 275.824 180.22C275.104 180.633 274.53 181.2 274.104 181.92C273.69 182.64 273.484 183.467 273.484 184.4ZM275.104 184.4C275.104 183.76 275.237 183.193 275.504 182.7C275.784 182.193 276.157 181.8 276.624 181.52C277.104 181.24 277.644 181.1 278.244 181.1C278.844 181.1 279.377 181.24 279.844 181.52C280.324 181.8 280.697 182.193 280.964 182.7C281.244 183.193 281.384 183.76 281.384 184.4C281.384 185.04 281.244 185.607 280.964 186.1C280.697 186.593 280.324 186.987 279.844 187.28C279.377 187.56 278.844 187.7 278.244 187.7C277.644 187.7 277.104 187.56 276.624 187.28C276.157 186.987 275.784 186.593 275.504 186.1C275.237 185.607 275.104 185.04 275.104 184.4ZM284.002 179.8V181.3H289.402V179.8H284.002ZM285.902 180.2V189H287.502V180.2H285.902ZM290.114 184.4C290.114 185.32 290.321 186.147 290.734 186.88C291.161 187.6 291.734 188.167 292.454 188.58C293.174 188.993 293.981 189.2 294.874 189.2C295.781 189.2 296.587 188.993 297.294 188.58C298.014 188.167 298.581 187.6 298.994 186.88C299.421 186.147 299.634 185.32 299.634 184.4C299.634 183.467 299.421 182.64 298.994 181.92C298.581 181.2 298.014 180.633 297.294 180.22C296.587 179.807 295.781 179.6 294.874 179.6C293.981 179.6 293.174 179.807 292.454 180.22C291.734 180.633 291.161 181.2 290.734 181.92C290.321 182.64 290.114 183.467 290.114 184.4ZM291.734 184.4C291.734 183.76 291.867 183.193 292.134 182.7C292.414 182.193 292.787 181.8 293.254 181.52C293.734 181.24 294.274 181.1 294.874 181.1C295.474 181.1 296.007 181.24 296.474 181.52C296.954 181.8 297.327 182.193 297.594 182.7C297.874 183.193 298.014 183.76 298.014 184.4C298.014 185.04 297.874 185.607 297.594 186.1C297.327 186.593 296.954 186.987 296.474 187.28C296.007 187.56 295.474 187.7 294.874 187.7C294.274 187.7 293.734 187.56 293.254 187.28C292.787 186.987 292.414 186.593 292.134 186.1C291.867 185.607 291.734 185.04 291.734 184.4ZM303.532 193.4V179.8H301.932V193.4H303.532ZM311.232 184.4C311.232 183.4 311.025 182.547 310.612 181.84C310.199 181.12 309.645 180.567 308.952 180.18C308.272 179.793 307.512 179.6 306.672 179.6C305.912 179.6 305.239 179.793 304.652 180.18C304.079 180.567 303.625 181.12 303.292 181.84C302.972 182.547 302.812 183.4 302.812 184.4C302.812 185.387 302.972 186.24 303.292 186.96C303.625 187.68 304.079 188.233 304.652 188.62C305.239 189.007 305.912 189.2 306.672 189.2C307.512 189.2 308.272 189.007 308.952 188.62C309.645 188.233 310.199 187.68 310.612 186.96C311.025 186.24 311.232 185.387 311.232 184.4ZM309.612 184.4C309.612 185.107 309.465 185.707 309.172 186.2C308.892 186.693 308.512 187.067 308.032 187.32C307.565 187.573 307.045 187.7 306.472 187.7C306.005 187.7 305.545 187.573 305.092 187.32C304.639 187.067 304.265 186.693 303.972 186.2C303.679 185.707 303.532 185.107 303.532 184.4C303.532 183.693 303.679 183.093 303.972 182.6C304.265 182.107 304.639 181.733 305.092 181.48C305.545 181.227 306.005 181.1 306.472 181.1C307.045 181.1 307.565 181.227 308.032 181.48C308.512 181.733 308.892 182.107 309.172 182.6C309.465 183.093 309.612 183.693 309.612 184.4ZM321.938 179.8V189H323.538V179.8H321.938ZM313.638 179.8V189H315.238V179.8H313.638ZM314.578 184.68H317.438C318.025 184.68 318.465 184.807 318.758 185.06C319.052 185.313 319.198 185.673 319.198 186.14C319.198 186.447 319.132 186.713 318.998 186.94C318.865 187.153 318.665 187.32 318.398 187.44C318.145 187.547 317.825 187.6 317.438 187.6H314.578V189H317.438C318.078 189 318.652 188.9 319.158 188.7C319.665 188.5 320.065 188.187 320.358 187.76C320.652 187.333 320.798 186.793 320.798 186.14C320.798 185.153 320.472 184.433 319.818 183.98C319.178 183.513 318.385 183.28 317.438 183.28H314.578V184.68ZM326.949 184.8H334.809C334.822 184.72 334.829 184.64 334.829 184.56C334.829 184.48 334.829 184.4 334.829 184.32C334.829 183.347 334.649 182.513 334.289 181.82C333.929 181.113 333.422 180.567 332.769 180.18C332.116 179.793 331.356 179.6 330.489 179.6C329.702 179.6 328.989 179.76 328.349 180.08C327.722 180.4 327.209 180.847 326.809 181.42C326.409 181.993 326.142 182.66 326.009 183.42C325.982 183.58 325.962 183.74 325.949 183.9C325.936 184.06 325.929 184.227 325.929 184.4C325.929 185.32 326.116 186.147 326.489 186.88C326.876 187.6 327.396 188.167 328.049 188.58C328.716 188.993 329.462 189.2 330.289 189.2C331.089 189.2 331.756 189.107 332.289 188.92C332.822 188.72 333.276 188.447 333.649 188.1C334.022 187.74 334.362 187.327 334.669 186.86L333.369 186.04C333.169 186.373 332.929 186.667 332.649 186.92C332.369 187.16 332.049 187.353 331.689 187.5C331.342 187.633 330.942 187.7 330.489 187.7C329.889 187.7 329.369 187.573 328.929 187.32C328.489 187.067 328.149 186.693 327.909 186.2C327.669 185.707 327.549 185.107 327.549 184.4L327.589 183.8C327.589 183.227 327.716 182.733 327.969 182.32C328.236 181.893 328.589 181.567 329.029 181.34C329.469 181.113 329.956 181 330.489 181C331.022 181 331.469 181.107 331.829 181.32C332.202 181.52 332.489 181.807 332.689 182.18C332.902 182.54 333.036 182.96 333.089 183.44H326.949V184.8ZM56.4 208.8V218H58V208.8H56.4ZM61.4 208.8L57.4 212.6L61.8 218H63.8L59.4 212.6L63.4 208.8H61.4ZM66.2286 215.3C66.2286 214.927 66.3153 214.607 66.4886 214.34C66.6619 214.073 66.9219 213.867 67.2686 213.72C67.6286 213.573 68.0753 213.5 68.6086 213.5C69.1953 213.5 69.7219 213.58 70.1886 213.74C70.6553 213.887 71.1153 214.12 71.5686 214.44V213.5C71.4753 213.38 71.3019 213.227 71.0486 213.04C70.7953 212.84 70.4553 212.667 70.0286 212.52C69.6153 212.36 69.1153 212.28 68.5286 212.28C67.7286 212.28 67.0353 212.407 66.4486 212.66C65.8619 212.9 65.4086 213.247 65.0886 213.7C64.7686 214.153 64.6086 214.707 64.6086 215.36C64.6086 215.987 64.7486 216.513 65.0286 216.94C65.3219 217.353 65.7086 217.667 66.1886 217.88C66.6686 218.093 67.1953 218.2 67.7686 218.2C68.4086 218.2 68.9886 218.093 69.5086 217.88C70.0286 217.653 70.4419 217.333 70.7486 216.92C71.0686 216.493 71.2286 215.987 71.2286 215.4L70.9086 214.4C70.9086 214.973 70.7886 215.433 70.5486 215.78C70.3219 216.127 70.0019 216.38 69.5886 216.54C69.1753 216.7 68.7019 216.78 68.1686 216.78C67.8086 216.78 67.4819 216.727 67.1886 216.62C66.8953 216.5 66.6619 216.333 66.4886 216.12C66.3153 215.893 66.2286 215.62 66.2286 215.3ZM66.2286 210.96C66.3753 210.853 66.5753 210.727 66.8286 210.58C67.0953 210.42 67.4086 210.287 67.7686 210.18C68.1286 210.06 68.5286 210 68.9686 210C69.4753 210 69.9219 210.12 70.3086 210.36C70.7086 210.587 70.9086 210.933 70.9086 211.4V218H72.5086V211.4C72.5086 210.8 72.3553 210.293 72.0486 209.88C71.7553 209.467 71.3419 209.153 70.8086 208.94C70.2886 208.713 69.6753 208.6 68.9686 208.6C68.1419 208.6 67.4353 208.727 66.8486 208.98C66.2619 209.233 65.7953 209.487 65.4486 209.74L66.2286 210.96ZM85.0156 208.8L81.0156 212.6L85.4156 218H87.4156L82.8156 212.8L87.0156 208.8H85.0156ZM81.4156 208.8H79.9156V218H81.4156V208.8ZM76.3156 208.8H74.3156L78.5156 212.8L73.9156 218H75.9156L80.3156 212.6L76.3156 208.8ZM94.7172 211.56L97.4172 217.4H99.2172L94.7172 208.1L90.2172 217.4H92.0172L94.7172 211.56ZM98.8172 218V219.8H100.417V216.5H89.0172V219.8H90.7172V218H98.8172ZM111.323 208.8V218H112.923V208.8H111.323ZM103.023 208.8V218H104.623V208.8H103.023ZM103.963 213.68H106.823C107.409 213.68 107.849 213.807 108.143 214.06C108.436 214.313 108.583 214.673 108.583 215.14C108.583 215.447 108.516 215.713 108.383 215.94C108.249 216.153 108.049 216.32 107.783 216.44C107.529 216.547 107.209 216.6 106.823 216.6H103.963V218H106.823C107.463 218 108.036 217.9 108.543 217.7C109.049 217.5 109.449 217.187 109.743 216.76C110.036 216.333 110.183 215.793 110.183 215.14C110.183 214.153 109.856 213.433 109.203 212.98C108.563 212.513 107.769 212.28 106.823 212.28H103.963V213.68ZM123.813 210.4L123.913 208.1L116.313 216.4L116.213 218.7L123.813 210.4ZM117.813 208.8H116.213V218.7L117.813 216.5V208.8ZM123.913 208.1L122.313 210.3V218H123.913V208.1ZM116.953 204.1C116.953 204.553 117.067 205 117.293 205.44C117.533 205.867 117.887 206.22 118.353 206.5C118.833 206.767 119.42 206.9 120.113 206.9C120.82 206.9 121.407 206.767 121.873 206.5C122.34 206.22 122.687 205.867 122.913 205.44C123.153 205 123.273 204.553 123.273 204.1H121.853C121.853 204.273 121.807 204.48 121.713 204.72C121.62 204.947 121.447 205.153 121.193 205.34C120.94 205.513 120.58 205.6 120.113 205.6C119.647 205.6 119.287 205.513 119.033 205.34C118.78 205.153 118.607 204.947 118.513 204.72C118.42 204.48 118.373 204.273 118.373 204.1H116.953ZM138.408 211.56L141.108 217.4H142.908L138.408 208.1L133.908 217.4H135.708L138.408 211.56ZM142.508 218V219.8H144.108V216.5H132.708V219.8H134.408V218H142.508ZM146.933 213.8H154.793C154.807 213.72 154.813 213.64 154.813 213.56C154.813 213.48 154.813 213.4 154.813 213.32C154.813 212.347 154.633 211.513 154.273 210.82C153.913 210.113 153.407 209.567 152.753 209.18C152.1 208.793 151.34 208.6 150.473 208.6C149.687 208.6 148.973 208.76 148.333 209.08C147.707 209.4 147.193 209.847 146.793 210.42C146.393 210.993 146.127 211.66 145.993 212.42C145.967 212.58 145.947 212.74 145.933 212.9C145.92 213.06 145.913 213.227 145.913 213.4C145.913 214.32 146.1 215.147 146.473 215.88C146.86 216.6 147.38 217.167 148.033 217.58C148.7 217.993 149.447 218.2 150.273 218.2C151.073 218.2 151.74 218.107 152.273 217.92C152.807 217.72 153.26 217.447 153.633 217.1C154.007 216.74 154.347 216.327 154.653 215.86L153.353 215.04C153.153 215.373 152.913 215.667 152.633 215.92C152.353 216.16 152.033 216.353 151.673 216.5C151.327 216.633 150.927 216.7 150.473 216.7C149.873 216.7 149.353 216.573 148.913 216.32C148.473 216.067 148.133 215.693 147.893 215.2C147.653 214.707 147.533 214.107 147.533 213.4L147.573 212.8C147.573 212.227 147.7 211.733 147.953 211.32C148.22 210.893 148.573 210.567 149.013 210.34C149.453 210.113 149.94 210 150.473 210C151.007 210 151.453 210.107 151.813 210.32C152.187 210.52 152.473 210.807 152.673 211.18C152.887 211.54 153.02 211.96 153.073 212.44H146.933V213.8ZM158.146 213.9H164.946V212.4H158.146V213.9ZM163.906 208.8V218H165.506V208.8H163.906ZM157.206 208.8V218H158.806V208.8H157.206ZM168.715 208.8V218H170.315V208.8H168.715ZM169.655 213.68H172.515C173.102 213.68 173.542 213.807 173.835 214.06C174.128 214.313 174.275 214.673 174.275 215.14C174.275 215.447 174.208 215.713 174.075 215.94C173.942 216.153 173.742 216.32 173.475 216.44C173.222 216.547 172.902 216.6 172.515 216.6H169.655V218H172.515C173.155 218 173.728 217.9 174.235 217.7C174.742 217.5 175.142 217.187 175.435 216.76C175.728 216.333 175.875 215.793 175.875 215.14C175.875 214.153 175.548 213.433 174.895 212.98C174.255 212.513 173.462 212.28 172.515 212.28H169.655V213.68ZM189.779 211.56L192.479 217.4H194.279L189.779 208.1L185.279 217.4H187.079L189.779 211.56ZM193.879 218V219.8H195.479V216.5H184.079V219.8H185.779V218H193.879ZM197.284 213.4C197.284 214.32 197.491 215.147 197.904 215.88C198.331 216.6 198.904 217.167 199.624 217.58C200.344 217.993 201.151 218.2 202.044 218.2C202.951 218.2 203.758 217.993 204.464 217.58C205.184 217.167 205.751 216.6 206.164 215.88C206.591 215.147 206.804 214.32 206.804 213.4C206.804 212.467 206.591 211.64 206.164 210.92C205.751 210.2 205.184 209.633 204.464 209.22C203.758 208.807 202.951 208.6 202.044 208.6C201.151 208.6 200.344 208.807 199.624 209.22C198.904 209.633 198.331 210.2 197.904 210.92C197.491 211.64 197.284 212.467 197.284 213.4ZM198.904 213.4C198.904 212.76 199.038 212.193 199.304 211.7C199.584 211.193 199.958 210.8 200.424 210.52C200.904 210.24 201.444 210.1 202.044 210.1C202.644 210.1 203.178 210.24 203.644 210.52C204.124 210.8 204.498 211.193 204.764 211.7C205.044 212.193 205.184 212.76 205.184 213.4C205.184 214.04 205.044 214.607 204.764 215.1C204.498 215.593 204.124 215.987 203.644 216.28C203.178 216.56 202.644 216.7 202.044 216.7C201.444 216.7 200.904 216.56 200.424 216.28C199.958 215.987 199.584 215.593 199.304 215.1C199.038 214.607 198.904 214.04 198.904 213.4ZM210.142 213.2V214.04H212.802C213.109 214.04 213.369 214.073 213.582 214.14C213.809 214.193 213.989 214.28 214.122 214.4C214.269 214.52 214.376 214.653 214.442 214.8C214.522 214.947 214.562 215.113 214.562 215.3C214.562 215.66 214.416 215.967 214.122 216.22C213.842 216.473 213.402 216.6 212.802 216.6H210.142V218H213.202C214.256 218 215.009 217.76 215.462 217.28C215.929 216.787 216.162 216.193 216.162 215.5C216.162 214.9 216.016 214.433 215.722 214.1C215.429 213.767 215.029 213.533 214.522 213.4C214.016 213.267 213.442 213.2 212.802 213.2H210.142ZM210.142 213.6H212.602C213.176 213.6 213.696 213.52 214.162 213.36C214.642 213.187 215.029 212.933 215.322 212.6C215.616 212.253 215.762 211.82 215.762 211.3C215.762 210.7 215.616 210.22 215.322 209.86C215.029 209.487 214.642 209.22 214.162 209.06C213.696 208.887 213.176 208.8 212.602 208.8H210.142V210.2H212.602C213.082 210.2 213.462 210.313 213.742 210.54C214.022 210.753 214.162 211.04 214.162 211.4C214.162 211.573 214.122 211.74 214.042 211.9C213.976 212.047 213.876 212.18 213.742 212.3C213.609 212.42 213.442 212.513 213.242 212.58C213.056 212.633 212.842 212.66 212.602 212.66H210.142V213.6ZM209.202 208.8V218H210.802V208.8H209.202ZM218.685 213.8H226.545C226.558 213.72 226.565 213.64 226.565 213.56C226.565 213.48 226.565 213.4 226.565 213.32C226.565 212.347 226.385 211.513 226.025 210.82C225.665 210.113 225.158 209.567 224.505 209.18C223.852 208.793 223.092 208.6 222.225 208.6C221.438 208.6 220.725 208.76 220.085 209.08C219.458 209.4 218.945 209.847 218.545 210.42C218.145 210.993 217.878 211.66 217.745 212.42C217.718 212.58 217.698 212.74 217.685 212.9C217.672 213.06 217.665 213.227 217.665 213.4C217.665 214.32 217.852 215.147 218.225 215.88C218.612 216.6 219.132 217.167 219.785 217.58C220.452 217.993 221.198 218.2 222.025 218.2C222.825 218.2 223.492 218.107 224.025 217.92C224.558 217.72 225.012 217.447 225.385 217.1C225.758 216.74 226.098 216.327 226.405 215.86L225.105 215.04C224.905 215.373 224.665 215.667 224.385 215.92C224.105 216.16 223.785 216.353 223.425 216.5C223.078 216.633 222.678 216.7 222.225 216.7C221.625 216.7 221.105 216.573 220.665 216.32C220.225 216.067 219.885 215.693 219.645 215.2C219.405 214.707 219.285 214.107 219.285 213.4L219.325 212.8C219.325 212.227 219.452 211.733 219.705 211.32C219.972 210.893 220.325 210.567 220.765 210.34C221.205 210.113 221.692 210 222.225 210C222.758 210 223.205 210.107 223.565 210.32C223.938 210.52 224.225 210.807 224.425 211.18C224.638 211.54 224.772 211.96 224.825 212.44H218.685V213.8ZM230.458 222.4V208.8H228.858V222.4H230.458ZM238.158 213.4C238.158 212.4 237.951 211.547 237.538 210.84C237.124 210.12 236.571 209.567 235.878 209.18C235.198 208.793 234.438 208.6 233.598 208.6C232.838 208.6 232.164 208.793 231.578 209.18C231.004 209.567 230.551 210.12 230.218 210.84C229.898 211.547 229.738 212.4 229.738 213.4C229.738 214.387 229.898 215.24 230.218 215.96C230.551 216.68 231.004 217.233 231.578 217.62C232.164 218.007 232.838 218.2 233.598 218.2C234.438 218.2 235.198 218.007 235.878 217.62C236.571 217.233 237.124 216.68 237.538 215.96C237.951 215.24 238.158 214.387 238.158 213.4ZM236.538 213.4C236.538 214.107 236.391 214.707 236.098 215.2C235.818 215.693 235.438 216.067 234.958 216.32C234.491 216.573 233.971 216.7 233.398 216.7C232.931 216.7 232.471 216.573 232.018 216.32C231.564 216.067 231.191 215.693 230.898 215.2C230.604 214.707 230.458 214.107 230.458 213.4C230.458 212.693 230.604 212.093 230.898 211.6C231.191 211.107 231.564 210.733 232.018 210.48C232.471 210.227 232.931 210.1 233.398 210.1C233.971 210.1 234.491 210.227 234.958 210.48C235.438 210.733 235.818 211.107 236.098 211.6C236.391 212.093 236.538 212.693 236.538 213.4ZM241.884 218L245.284 213.2H243.524L240.124 218H241.884ZM247.724 218V208.8H246.124V218H247.724ZM246.784 212.92H243.924C243.537 212.92 243.211 212.873 242.944 212.78C242.691 212.673 242.497 212.52 242.364 212.32C242.231 212.12 242.164 211.867 242.164 211.56C242.164 211.253 242.231 211 242.364 210.8C242.497 210.6 242.691 210.453 242.944 210.36C243.211 210.253 243.537 210.2 243.924 210.2H246.784V208.8H243.924C243.297 208.8 242.724 208.893 242.204 209.08C241.697 209.267 241.297 209.56 241.004 209.96C240.711 210.36 240.564 210.893 240.564 211.56C240.564 212.213 240.711 212.747 241.004 213.16C241.297 213.56 241.697 213.853 242.204 214.04C242.724 214.227 243.297 214.32 243.924 214.32H246.784V212.92ZM251.372 213.9H254.772V212.4H251.372V213.9ZM250.432 208.8V218H252.032V208.8H250.432ZM253.632 213.4C253.632 214.32 253.839 215.147 254.252 215.88C254.679 216.6 255.252 217.167 255.972 217.58C256.692 217.993 257.499 218.2 258.392 218.2C259.299 218.2 260.105 217.993 260.812 217.58C261.532 217.167 262.099 216.6 262.512 215.88C262.939 215.147 263.152 214.32 263.152 213.4C263.152 212.467 262.939 211.64 262.512 210.92C262.099 210.2 261.532 209.633 260.812 209.22C260.105 208.807 259.299 208.6 258.392 208.6C257.499 208.6 256.692 208.807 255.972 209.22C255.252 209.633 254.679 210.2 254.252 210.92C253.839 211.64 253.632 212.467 253.632 213.4ZM255.252 213.4C255.252 212.76 255.385 212.193 255.652 211.7C255.932 211.193 256.305 210.8 256.772 210.52C257.252 210.24 257.792 210.1 258.392 210.1C258.992 210.1 259.525 210.24 259.992 210.52C260.472 210.8 260.845 211.193 261.112 211.7C261.392 212.193 261.532 212.76 261.532 213.4C261.532 214.04 261.392 214.607 261.112 215.1C260.845 215.593 260.472 215.987 259.992 216.28C259.525 216.56 258.992 216.7 258.392 216.7C257.792 216.7 257.252 216.56 256.772 216.28C256.305 215.987 255.932 215.593 255.652 215.1C255.385 214.607 255.252 214.04 255.252 213.4ZM264.154 208.8V210.3H269.554V208.8H264.154ZM266.054 209.2V218H267.654V209.2H266.054ZM278.495 213.9H285.295V212.4H278.495V213.9ZM284.255 208.8V218H285.855V208.8H284.255ZM277.555 208.8V218H279.155V208.8H277.555ZM289.784 215.3C289.784 214.927 289.871 214.607 290.044 214.34C290.217 214.073 290.477 213.867 290.824 213.72C291.184 213.573 291.631 213.5 292.164 213.5C292.751 213.5 293.277 213.58 293.744 213.74C294.211 213.887 294.671 214.12 295.124 214.44V213.5C295.031 213.38 294.857 213.227 294.604 213.04C294.351 212.84 294.011 212.667 293.584 212.52C293.171 212.36 292.671 212.28 292.084 212.28C291.284 212.28 290.591 212.407 290.004 212.66C289.417 212.9 288.964 213.247 288.644 213.7C288.324 214.153 288.164 214.707 288.164 215.36C288.164 215.987 288.304 216.513 288.584 216.94C288.877 217.353 289.264 217.667 289.744 217.88C290.224 218.093 290.751 218.2 291.324 218.2C291.964 218.2 292.544 218.093 293.064 217.88C293.584 217.653 293.997 217.333 294.304 216.92C294.624 216.493 294.784 215.987 294.784 215.4L294.464 214.4C294.464 214.973 294.344 215.433 294.104 215.78C293.877 216.127 293.557 216.38 293.144 216.54C292.731 216.7 292.257 216.78 291.724 216.78C291.364 216.78 291.037 216.727 290.744 216.62C290.451 216.5 290.217 216.333 290.044 216.12C289.871 215.893 289.784 215.62 289.784 215.3ZM289.784 210.96C289.931 210.853 290.131 210.727 290.384 210.58C290.651 210.42 290.964 210.287 291.324 210.18C291.684 210.06 292.084 210 292.524 210C293.031 210 293.477 210.12 293.864 210.36C294.264 210.587 294.464 210.933 294.464 211.4V218H296.064V211.4C296.064 210.8 295.911 210.293 295.604 209.88C295.311 209.467 294.897 209.153 294.364 208.94C293.844 208.713 293.231 208.6 292.524 208.6C291.697 208.6 290.991 208.727 290.404 208.98C289.817 209.233 289.351 209.487 289.004 209.74L289.784 210.96ZM307.711 218H309.511L307.111 208.1L306.211 210.7L307.711 218ZM302.911 216.62L303.511 218.62L307.311 211.3L307.111 208.1L302.911 216.62ZM303.511 218.62L304.111 216.62L299.971 208.1L299.771 211.3L303.511 218.62ZM297.571 218H299.371L300.871 210.7L299.971 208.1L297.571 218ZM58 251.4V237.8H56.4V251.4H58ZM65.7 242.4C65.7 241.4 65.4933 240.547 65.08 239.84C64.6667 239.12 64.1133 238.567 63.42 238.18C62.74 237.793 61.98 237.6 61.14 237.6C60.38 237.6 59.7067 237.793 59.12 238.18C58.5467 238.567 58.0933 239.12 57.76 239.84C57.44 240.547 57.28 241.4 57.28 242.4C57.28 243.387 57.44 244.24 57.76 244.96C58.0933 245.68 58.5467 246.233 59.12 246.62C59.7067 247.007 60.38 247.2 61.14 247.2C61.98 247.2 62.74 247.007 63.42 246.62C64.1133 246.233 64.6667 245.68 65.08 244.96C65.4933 244.24 65.7 243.387 65.7 242.4ZM64.08 242.4C64.08 243.107 63.9333 243.707 63.64 244.2C63.36 244.693 62.98 245.067 62.5 245.32C62.0333 245.573 61.5133 245.7 60.94 245.7C60.4733 245.7 60.0133 245.573 59.56 245.32C59.1067 245.067 58.7333 244.693 58.44 244.2C58.1467 243.707 58 243.107 58 242.4C58 241.693 58.1467 241.093 58.44 240.6C58.7333 240.107 59.1067 239.733 59.56 239.48C60.0133 239.227 60.4733 239.1 60.94 239.1C61.5133 239.1 62.0333 239.227 62.5 239.48C62.98 239.733 63.36 240.107 63.64 240.6C63.9333 241.093 64.08 241.693 64.08 242.4ZM68.3262 242.8H76.1863C76.1996 242.72 76.2063 242.64 76.2063 242.56C76.2063 242.48 76.2063 242.4 76.2063 242.32C76.2063 241.347 76.0263 240.513 75.6662 239.82C75.3063 239.113 74.7996 238.567 74.1462 238.18C73.4929 237.793 72.7329 237.6 71.8663 237.6C71.0796 237.6 70.3662 237.76 69.7262 238.08C69.0996 238.4 68.5862 238.847 68.1862 239.42C67.7862 239.993 67.5196 240.66 67.3862 241.42C67.3596 241.58 67.3396 241.74 67.3262 241.9C67.3129 242.06 67.3062 242.227 67.3062 242.4C67.3062 243.32 67.4929 244.147 67.8662 244.88C68.2529 245.6 68.7729 246.167 69.4262 246.58C70.0929 246.993 70.8396 247.2 71.6663 247.2C72.4663 247.2 73.1329 247.107 73.6663 246.92C74.1996 246.72 74.6529 246.447 75.0263 246.1C75.3996 245.74 75.7396 245.327 76.0463 244.86L74.7462 244.04C74.5463 244.373 74.3063 244.667 74.0263 244.92C73.7463 245.16 73.4263 245.353 73.0663 245.5C72.7196 245.633 72.3196 245.7 71.8663 245.7C71.2663 245.7 70.7462 245.573 70.3062 245.32C69.8662 245.067 69.5262 244.693 69.2862 244.2C69.0462 243.707 68.9262 243.107 68.9262 242.4L68.9662 241.8C68.9662 241.227 69.0929 240.733 69.3462 240.32C69.6129 239.893 69.9662 239.567 70.4063 239.34C70.8462 239.113 71.3329 239 71.8663 239C72.3996 239 72.8462 239.107 73.2063 239.32C73.5796 239.52 73.8663 239.807 74.0663 240.18C74.2796 240.54 74.4129 240.96 74.4662 241.44H68.3262V242.8ZM85.6992 245.5V237.8H84.0992V245.5H80.1992V237.8H78.5992V247H91.1992V237.8H89.5992V245.5H85.6992ZM94.6247 242.8H102.485C102.498 242.72 102.505 242.64 102.505 242.56C102.505 242.48 102.505 242.4 102.505 242.32C102.505 241.347 102.325 240.513 101.965 239.82C101.605 239.113 101.098 238.567 100.445 238.18C99.7914 237.793 99.0314 237.6 98.1647 237.6C97.378 237.6 96.6647 237.76 96.0247 238.08C95.398 238.4 94.8847 238.847 94.4847 239.42C94.0847 239.993 93.818 240.66 93.6847 241.42C93.658 241.58 93.638 241.74 93.6247 241.9C93.6114 242.06 93.6047 242.227 93.6047 242.4C93.6047 243.32 93.7914 244.147 94.1647 244.88C94.5514 245.6 95.0714 246.167 95.7247 246.58C96.3914 246.993 97.138 247.2 97.9647 247.2C98.7647 247.2 99.4314 247.107 99.9647 246.92C100.498 246.72 100.951 246.447 101.325 246.1C101.698 245.74 102.038 245.327 102.345 244.86L101.045 244.04C100.845 244.373 100.605 244.667 100.325 244.92C100.045 245.16 99.7247 245.353 99.3647 245.5C99.018 245.633 98.618 245.7 98.1647 245.7C97.5647 245.7 97.0447 245.573 96.6047 245.32C96.1647 245.067 95.8247 244.693 95.5847 244.2C95.3447 243.707 95.2247 243.107 95.2247 242.4L95.2647 241.8C95.2647 241.227 95.3914 240.733 95.6447 240.32C95.9114 239.893 96.2647 239.567 96.7047 239.34C97.1447 239.113 97.6314 239 98.1647 239C98.698 239 99.1447 239.107 99.5047 239.32C99.878 239.52 100.165 239.807 100.365 240.18C100.578 240.54 100.711 240.96 100.765 241.44H94.6247V242.8ZM105.838 242.9H112.638V241.4H105.838V242.9ZM111.598 237.8V247H113.198V237.8H111.598ZM104.898 237.8V247H106.498V237.8H104.898ZM124.106 239.4L124.206 237.1L116.606 245.4L116.506 247.7L124.106 239.4ZM118.106 237.8H116.506V247.7L118.106 245.5V237.8ZM124.206 237.1L122.606 239.3V247H124.206V237.1ZM128.825 247L132.225 242.2H130.465L127.065 247H128.825ZM134.665 247V237.8H133.065V247H134.665ZM133.725 241.92H130.865C130.478 241.92 130.151 241.873 129.885 241.78C129.631 241.673 129.438 241.52 129.305 241.32C129.171 241.12 129.105 240.867 129.105 240.56C129.105 240.253 129.171 240 129.305 239.8C129.438 239.6 129.631 239.453 129.885 239.36C130.151 239.253 130.478 239.2 130.865 239.2H133.725V237.8H130.865C130.238 237.8 129.665 237.893 129.145 238.08C128.638 238.267 128.238 238.56 127.945 238.96C127.651 239.36 127.505 239.893 127.505 240.56C127.505 241.213 127.651 241.747 127.945 242.16C128.238 242.56 128.638 242.853 129.145 243.04C129.665 243.227 130.238 243.32 130.865 243.32H133.725V241.92ZM151.069 237.8H143.569V247H145.169V239.3H149.469V247H151.069V237.8ZM153.477 242.4C153.477 243.32 153.683 244.147 154.097 244.88C154.523 245.6 155.097 246.167 155.817 246.58C156.537 246.993 157.343 247.2 158.237 247.2C159.143 247.2 159.95 246.993 160.657 246.58C161.377 246.167 161.943 245.6 162.357 244.88C162.783 244.147 162.997 243.32 162.997 242.4C162.997 241.467 162.783 240.64 162.357 239.92C161.943 239.2 161.377 238.633 160.657 238.22C159.95 237.807 159.143 237.6 158.237 237.6C157.343 237.6 156.537 237.807 155.817 238.22C155.097 238.633 154.523 239.2 154.097 239.92C153.683 240.64 153.477 241.467 153.477 242.4ZM155.097 242.4C155.097 241.76 155.23 241.193 155.497 240.7C155.777 240.193 156.15 239.8 156.617 239.52C157.097 239.24 157.637 239.1 158.237 239.1C158.837 239.1 159.37 239.24 159.837 239.52C160.317 239.8 160.69 240.193 160.957 240.7C161.237 241.193 161.377 241.76 161.377 242.4C161.377 243.04 161.237 243.607 160.957 244.1C160.69 244.593 160.317 244.987 159.837 245.28C159.37 245.56 158.837 245.7 158.237 245.7C157.637 245.7 157.097 245.56 156.617 245.28C156.15 244.987 155.777 244.593 155.497 244.1C155.23 243.607 155.097 243.04 155.097 242.4ZM170.791 242.4C170.791 243.32 170.997 244.147 171.411 244.88C171.837 245.6 172.411 246.167 173.131 246.58C173.851 246.993 174.657 247.2 175.551 247.2C176.457 247.2 177.264 246.993 177.971 246.58C178.691 246.167 179.257 245.6 179.671 244.88C180.097 244.147 180.311 243.32 180.311 242.4C180.311 241.467 180.097 240.64 179.671 239.92C179.257 239.2 178.691 238.633 177.971 238.22C177.264 237.807 176.457 237.6 175.551 237.6C174.657 237.6 173.851 237.807 173.131 238.22C172.411 238.633 171.837 239.2 171.411 239.92C170.997 240.64 170.791 241.467 170.791 242.4ZM172.411 242.4C172.411 241.76 172.544 241.193 172.811 240.7C173.091 240.193 173.464 239.8 173.931 239.52C174.411 239.24 174.951 239.1 175.551 239.1C176.151 239.1 176.684 239.24 177.151 239.52C177.631 239.8 178.004 240.193 178.271 240.7C178.551 241.193 178.691 241.76 178.691 242.4C178.691 243.04 178.551 243.607 178.271 244.1C178.004 244.593 177.631 244.987 177.151 245.28C176.684 245.56 176.151 245.7 175.551 245.7C174.951 245.7 174.411 245.56 173.931 245.28C173.464 244.987 173.091 244.593 172.811 244.1C172.544 243.607 172.411 243.04 172.411 242.4ZM190.209 237.8H182.709V247H184.309V239.3H188.609V247H190.209V237.8ZM194.136 244.3C194.136 243.927 194.223 243.607 194.396 243.34C194.57 243.073 194.83 242.867 195.176 242.72C195.536 242.573 195.983 242.5 196.516 242.5C197.103 242.5 197.63 242.58 198.096 242.74C198.563 242.887 199.023 243.12 199.476 243.44V242.5C199.383 242.38 199.21 242.227 198.956 242.04C198.703 241.84 198.363 241.667 197.936 241.52C197.523 241.36 197.023 241.28 196.436 241.28C195.636 241.28 194.943 241.407 194.356 241.66C193.77 241.9 193.316 242.247 192.996 242.7C192.676 243.153 192.516 243.707 192.516 244.36C192.516 244.987 192.656 245.513 192.936 245.94C193.23 246.353 193.616 246.667 194.096 246.88C194.576 247.093 195.103 247.2 195.676 247.2C196.316 247.2 196.896 247.093 197.416 246.88C197.936 246.653 198.35 246.333 198.656 245.92C198.976 245.493 199.136 244.987 199.136 244.4L198.816 243.4C198.816 243.973 198.696 244.433 198.456 244.78C198.23 245.127 197.91 245.38 197.496 245.54C197.083 245.7 196.61 245.78 196.076 245.78C195.716 245.78 195.39 245.727 195.096 245.62C194.803 245.5 194.57 245.333 194.396 245.12C194.223 244.893 194.136 244.62 194.136 244.3ZM194.136 239.96C194.283 239.853 194.483 239.727 194.736 239.58C195.003 239.42 195.316 239.287 195.676 239.18C196.036 239.06 196.436 239 196.876 239C197.383 239 197.83 239.12 198.216 239.36C198.616 239.587 198.816 239.933 198.816 240.4V247H200.416V240.4C200.416 239.8 200.263 239.293 199.956 238.88C199.663 238.467 199.25 238.153 198.716 237.94C198.196 237.713 197.583 237.6 196.876 237.6C196.05 237.6 195.343 237.727 194.756 237.98C194.17 238.233 193.703 238.487 193.356 238.74L194.136 239.96ZM211.383 237.8H203.483V243.8C203.483 244.453 203.337 244.907 203.043 245.16C202.763 245.413 202.423 245.54 202.023 245.54V247C202.717 247 203.29 246.887 203.743 246.66C204.197 246.42 204.53 246.067 204.743 245.6C204.97 245.12 205.083 244.52 205.083 243.8V239.3H209.783V247H211.383V237.8ZM221.976 237.8H220.176L217.336 244.92L217.996 245L215.076 237.8H213.176L216.696 245.7L214.176 251.4H215.976L221.976 237.8ZM227.644 239.1C228.244 239.1 228.778 239.24 229.244 239.52C229.724 239.8 230.098 240.193 230.364 240.7C230.644 241.193 230.784 241.76 230.784 242.4C230.784 243.04 230.644 243.607 230.364 244.1C230.098 244.593 229.724 244.987 229.244 245.28C228.778 245.56 228.244 245.7 227.644 245.7C227.044 245.7 226.504 245.56 226.024 245.28C225.558 244.987 225.184 244.593 224.904 244.1C224.624 243.607 224.484 243.04 224.484 242.4L222.884 241.2C222.884 242.52 223.091 243.627 223.504 244.52C223.931 245.413 224.504 246.087 225.224 246.54C225.944 246.98 226.751 247.2 227.644 247.2C228.551 247.2 229.358 246.993 230.064 246.58C230.784 246.167 231.351 245.6 231.764 244.88C232.191 244.147 232.404 243.32 232.404 242.4C232.404 241.467 232.191 240.64 231.764 239.92C231.351 239.2 230.784 238.633 230.064 238.22C229.358 237.807 228.551 237.6 227.644 237.6V239.1ZM223.764 242.4H224.484C224.484 241.867 224.578 241.4 224.764 241C224.964 240.587 225.218 240.24 225.524 239.96C225.844 239.68 226.191 239.467 226.564 239.32C226.938 239.173 227.298 239.1 227.644 239.1V237.6C227.071 237.6 226.544 237.713 226.064 237.94C225.598 238.153 225.191 238.467 224.844 238.88C224.498 239.293 224.231 239.8 224.044 240.4C223.858 240.987 223.764 241.653 223.764 242.4ZM222.884 241.2L224.284 242.26V240.2C224.284 239.533 224.371 238.867 224.544 238.2C224.718 237.52 225.031 236.913 225.484 236.38C225.951 235.847 226.598 235.447 227.424 235.18C228.158 234.94 228.811 234.64 229.384 234.28C229.971 233.92 230.444 233.5 230.804 233.02C231.164 232.527 231.378 231.987 231.444 231.4H229.864C229.771 231.88 229.498 232.34 229.044 232.78C228.604 233.207 227.931 233.573 227.024 233.88C225.958 234.24 225.118 234.76 224.504 235.44C223.904 236.107 223.484 236.92 223.244 237.88C223.004 238.84 222.884 239.947 222.884 241.2ZM234.702 237.8V247H236.302V237.8H234.702ZM239.702 237.8L235.702 241.6L240.102 247H242.102L237.702 241.6L241.702 237.8H239.702ZM243.738 242.8H251.598C251.611 242.72 251.618 242.64 251.618 242.56C251.618 242.48 251.618 242.4 251.618 242.32C251.618 241.347 251.438 240.513 251.078 239.82C250.718 239.113 250.211 238.567 249.558 238.18C248.905 237.793 248.145 237.6 247.278 237.6C246.491 237.6 245.778 237.76 245.138 238.08C244.511 238.4 243.998 238.847 243.598 239.42C243.198 239.993 242.931 240.66 242.798 241.42C242.771 241.58 242.751 241.74 242.738 241.9C242.725 242.06 242.718 242.227 242.718 242.4C242.718 243.32 242.905 244.147 243.278 244.88C243.665 245.6 244.185 246.167 244.838 246.58C245.505 246.993 246.251 247.2 247.078 247.2C247.878 247.2 248.545 247.107 249.078 246.92C249.611 246.72 250.065 246.447 250.438 246.1C250.811 245.74 251.151 245.327 251.458 244.86L250.158 244.04C249.958 244.373 249.718 244.667 249.438 244.92C249.158 245.16 248.838 245.353 248.478 245.5C248.131 245.633 247.731 245.7 247.278 245.7C246.678 245.7 246.158 245.573 245.718 245.32C245.278 245.067 244.938 244.693 244.698 244.2C244.458 243.707 244.338 243.107 244.338 242.4L244.378 241.8C244.378 241.227 244.505 240.733 244.758 240.32C245.025 239.893 245.378 239.567 245.818 239.34C246.258 239.113 246.745 239 247.278 239C247.811 239 248.258 239.107 248.618 239.32C248.991 239.52 249.278 239.807 249.478 240.18C249.691 240.54 249.825 240.96 249.878 241.44H243.738V242.8ZM265.207 240.56L267.907 246.4H269.707L265.207 237.1L260.707 246.4H262.507L265.207 240.56ZM269.307 247V248.8H270.907V245.5H259.507V248.8H261.207V247H269.307ZM281.572 237.8H273.672V243.8C273.672 244.453 273.526 244.907 273.232 245.16C272.952 245.413 272.612 245.54 272.212 245.54V247C272.906 247 273.479 246.887 273.932 246.66C274.386 246.42 274.719 246.067 274.932 245.6C275.159 245.12 275.272 244.52 275.272 243.8V239.3H279.972V247H281.572V237.8ZM286.185 247L289.585 242.2H287.825L284.425 247H286.185ZM292.025 247V237.8H290.425V247H292.025ZM291.085 241.92H288.225C287.838 241.92 287.512 241.873 287.245 241.78C286.992 241.673 286.798 241.52 286.665 241.32C286.532 241.12 286.465 240.867 286.465 240.56C286.465 240.253 286.532 240 286.665 239.8C286.798 239.6 286.992 239.453 287.245 239.36C287.512 239.253 287.838 239.2 288.225 239.2H291.085V237.8H288.225C287.598 237.8 287.025 237.893 286.505 238.08C285.998 238.267 285.598 238.56 285.305 238.96C285.012 239.36 284.865 239.893 284.865 240.56C284.865 241.213 285.012 241.747 285.305 242.16C285.598 242.56 285.998 242.853 286.505 243.04C287.025 243.227 287.598 243.32 288.225 243.32H291.085V241.92ZM63.8 266.8H62L59.16 273.92L59.82 274L56.9 266.8H55L58.52 274.7L56 280.4H57.8L63.8 266.8ZM69.3172 269.56L72.0172 275.4H73.8172L69.3172 266.1L64.8172 275.4H66.6172L69.3172 269.56ZM73.4172 276V277.8H75.0172V274.5H63.6172V277.8H65.3172V276H73.4172ZM76.8227 271.4C76.8227 272.32 77.0293 273.147 77.4427 273.88C77.8693 274.6 78.4427 275.167 79.1627 275.58C79.8827 275.993 80.6893 276.2 81.5827 276.2C82.4893 276.2 83.296 275.993 84.0027 275.58C84.7227 275.167 85.2893 274.6 85.7027 273.88C86.1293 273.147 86.3427 272.32 86.3427 271.4C86.3427 270.467 86.1293 269.64 85.7027 268.92C85.2893 268.2 84.7227 267.633 84.0027 267.22C83.296 266.807 82.4893 266.6 81.5827 266.6C80.6893 266.6 79.8827 266.807 79.1627 267.22C78.4427 267.633 77.8693 268.2 77.4427 268.92C77.0293 269.64 76.8227 270.467 76.8227 271.4ZM78.4427 271.4C78.4427 270.76 78.576 270.193 78.8427 269.7C79.1227 269.193 79.496 268.8 79.9627 268.52C80.4427 268.24 80.9827 268.1 81.5827 268.1C82.1827 268.1 82.716 268.24 83.1827 268.52C83.6627 268.8 84.036 269.193 84.3027 269.7C84.5827 270.193 84.7227 270.76 84.7227 271.4C84.7227 272.04 84.5827 272.607 84.3027 273.1C84.036 273.593 83.6627 273.987 83.1827 274.28C82.716 274.56 82.1827 274.7 81.5827 274.7C80.9827 274.7 80.4427 274.56 79.9627 274.28C79.496 273.987 79.1227 273.593 78.8427 273.1C78.576 272.607 78.4427 272.04 78.4427 271.4ZM89.6806 271.2V272.04H92.3406C92.6473 272.04 92.9073 272.073 93.1206 272.14C93.3473 272.193 93.5273 272.28 93.6606 272.4C93.8073 272.52 93.914 272.653 93.9806 272.8C94.0606 272.947 94.1006 273.113 94.1006 273.3C94.1006 273.66 93.954 273.967 93.6606 274.22C93.3806 274.473 92.9406 274.6 92.3406 274.6H89.6806V276H92.7406C93.794 276 94.5473 275.76 95.0006 275.28C95.4673 274.787 95.7006 274.193 95.7006 273.5C95.7006 272.9 95.554 272.433 95.2606 272.1C94.9673 271.767 94.5673 271.533 94.0606 271.4C93.554 271.267 92.9806 271.2 92.3406 271.2H89.6806ZM89.6806 271.6H92.1406C92.714 271.6 93.234 271.52 93.7006 271.36C94.1806 271.187 94.5673 270.933 94.8606 270.6C95.154 270.253 95.3006 269.82 95.3006 269.3C95.3006 268.7 95.154 268.22 94.8606 267.86C94.5673 267.487 94.1806 267.22 93.7006 267.06C93.234 266.887 92.714 266.8 92.1406 266.8H89.6806V268.2H92.1406C92.6206 268.2 93.0006 268.313 93.2806 268.54C93.5606 268.753 93.7006 269.04 93.7006 269.4C93.7006 269.573 93.6606 269.74 93.5806 269.9C93.514 270.047 93.414 270.18 93.2806 270.3C93.1473 270.42 92.9806 270.513 92.7806 270.58C92.594 270.633 92.3806 270.66 92.1406 270.66H89.6806V271.6ZM88.7406 266.8V276H90.3406V266.8H88.7406ZM106.063 266.8H98.1631V272.8C98.1631 273.453 98.0165 273.907 97.7231 274.16C97.4431 274.413 97.1031 274.54 96.7031 274.54V276C97.3965 276 97.9698 275.887 98.4231 275.66C98.8765 275.42 99.2098 275.067 99.4231 274.6C99.6498 274.12 99.7631 273.52 99.7631 272.8V268.3H104.463V276H106.063V266.8ZM109.575 271.8H117.435C117.449 271.72 117.455 271.64 117.455 271.56C117.455 271.48 117.455 271.4 117.455 271.32C117.455 270.347 117.275 269.513 116.915 268.82C116.555 268.113 116.049 267.567 115.395 267.18C114.742 266.793 113.982 266.6 113.115 266.6C112.329 266.6 111.615 266.76 110.975 267.08C110.349 267.4 109.835 267.847 109.435 268.42C109.035 268.993 108.769 269.66 108.635 270.42C108.609 270.58 108.589 270.74 108.575 270.9C108.562 271.06 108.555 271.227 108.555 271.4C108.555 272.32 108.742 273.147 109.115 273.88C109.502 274.6 110.022 275.167 110.675 275.58C111.342 275.993 112.089 276.2 112.915 276.2C113.715 276.2 114.382 276.107 114.915 275.92C115.449 275.72 115.902 275.447 116.275 275.1C116.649 274.74 116.989 274.327 117.295 273.86L115.995 273.04C115.795 273.373 115.555 273.667 115.275 273.92C114.995 274.16 114.675 274.353 114.315 274.5C113.969 274.633 113.569 274.7 113.115 274.7C112.515 274.7 111.995 274.573 111.555 274.32C111.115 274.067 110.775 273.693 110.535 273.2C110.295 272.707 110.175 272.107 110.175 271.4L110.215 270.8C110.215 270.227 110.342 269.733 110.595 269.32C110.862 268.893 111.215 268.567 111.655 268.34C112.095 268.113 112.582 268 113.115 268C113.649 268 114.095 268.107 114.455 268.32C114.829 268.52 115.115 268.807 115.315 269.18C115.529 269.54 115.662 269.96 115.715 270.44H109.575V271.8ZM118.448 266.8V268.3H123.848V266.8H118.448ZM120.348 267.2V276H121.948V267.2H120.348ZM126.594 271.2V272.04H129.254C129.561 272.04 129.821 272.073 130.034 272.14C130.261 272.193 130.441 272.28 130.574 272.4C130.721 272.52 130.827 272.653 130.894 272.8C130.974 272.947 131.014 273.113 131.014 273.3C131.014 273.66 130.867 273.967 130.574 274.22C130.294 274.473 129.854 274.6 129.254 274.6H126.594V276H129.654C130.707 276 131.461 275.76 131.914 275.28C132.381 274.787 132.614 274.193 132.614 273.5C132.614 272.9 132.467 272.433 132.174 272.1C131.881 271.767 131.481 271.533 130.974 271.4C130.467 271.267 129.894 271.2 129.254 271.2H126.594ZM126.594 271.6H129.054C129.627 271.6 130.147 271.52 130.614 271.36C131.094 271.187 131.481 270.933 131.774 270.6C132.067 270.253 132.214 269.82 132.214 269.3C132.214 268.7 132.067 268.22 131.774 267.86C131.481 267.487 131.094 267.22 130.614 267.06C130.147 266.887 129.627 266.8 129.054 266.8H126.594V268.2H129.054C129.534 268.2 129.914 268.313 130.194 268.54C130.474 268.753 130.614 269.04 130.614 269.4C130.614 269.573 130.574 269.74 130.494 269.9C130.427 270.047 130.327 270.18 130.194 270.3C130.061 270.42 129.894 270.513 129.694 270.58C129.507 270.633 129.294 270.66 129.054 270.66H126.594V271.6ZM125.654 266.8V276H127.254V266.8H125.654ZM134.116 271.4C134.116 272.32 134.323 273.147 134.736 273.88C135.163 274.6 135.736 275.167 136.456 275.58C137.176 275.993 137.983 276.2 138.876 276.2C139.783 276.2 140.59 275.993 141.296 275.58C142.016 275.167 142.583 274.6 142.996 273.88C143.423 273.147 143.636 272.32 143.636 271.4C143.636 270.467 143.423 269.64 142.996 268.92C142.583 268.2 142.016 267.633 141.296 267.22C140.59 266.807 139.783 266.6 138.876 266.6C137.983 266.6 137.176 266.807 136.456 267.22C135.736 267.633 135.163 268.2 134.736 268.92C134.323 269.64 134.116 270.467 134.116 271.4ZM135.736 271.4C135.736 270.76 135.87 270.193 136.136 269.7C136.416 269.193 136.79 268.8 137.256 268.52C137.736 268.24 138.276 268.1 138.876 268.1C139.476 268.1 140.01 268.24 140.476 268.52C140.956 268.8 141.33 269.193 141.596 269.7C141.876 270.193 142.016 270.76 142.016 271.4C142.016 272.04 141.876 272.607 141.596 273.1C141.33 273.593 140.956 273.987 140.476 274.28C140.01 274.56 139.476 274.7 138.876 274.7C138.276 274.7 137.736 274.56 137.256 274.28C136.79 273.987 136.416 273.593 136.136 273.1C135.87 272.607 135.736 272.04 135.736 271.4ZM147.534 280.4V266.8H145.934V280.4H147.534ZM155.234 271.4C155.234 270.4 155.028 269.547 154.614 268.84C154.201 268.12 153.648 267.567 152.954 267.18C152.274 266.793 151.514 266.6 150.674 266.6C149.914 266.6 149.241 266.793 148.654 267.18C148.081 267.567 147.628 268.12 147.294 268.84C146.974 269.547 146.814 270.4 146.814 271.4C146.814 272.387 146.974 273.24 147.294 273.96C147.628 274.68 148.081 275.233 148.654 275.62C149.241 276.007 149.914 276.2 150.674 276.2C151.514 276.2 152.274 276.007 152.954 275.62C153.648 275.233 154.201 274.68 154.614 273.96C155.028 273.24 155.234 272.387 155.234 271.4ZM153.614 271.4C153.614 272.107 153.468 272.707 153.174 273.2C152.894 273.693 152.514 274.067 152.034 274.32C151.568 274.573 151.048 274.7 150.474 274.7C150.008 274.7 149.548 274.573 149.094 274.32C148.641 274.067 148.268 273.693 147.974 273.2C147.681 272.707 147.534 272.107 147.534 271.4C147.534 270.693 147.681 270.093 147.974 269.6C148.268 269.107 148.641 268.733 149.094 268.48C149.548 268.227 150.008 268.1 150.474 268.1C151.048 268.1 151.568 268.227 152.034 268.48C152.514 268.733 152.894 269.107 153.174 269.6C153.468 270.093 153.614 270.693 153.614 271.4ZM157.861 271.8H165.721C165.734 271.72 165.741 271.64 165.741 271.56C165.741 271.48 165.741 271.4 165.741 271.32C165.741 270.347 165.561 269.513 165.201 268.82C164.841 268.113 164.334 267.567 163.681 267.18C163.027 266.793 162.267 266.6 161.401 266.6C160.614 266.6 159.901 266.76 159.261 267.08C158.634 267.4 158.121 267.847 157.721 268.42C157.321 268.993 157.054 269.66 156.921 270.42C156.894 270.58 156.874 270.74 156.861 270.9C156.847 271.06 156.841 271.227 156.841 271.4C156.841 272.32 157.027 273.147 157.401 273.88C157.787 274.6 158.307 275.167 158.961 275.58C159.627 275.993 160.374 276.2 161.201 276.2C162.001 276.2 162.667 276.107 163.201 275.92C163.734 275.72 164.187 275.447 164.561 275.1C164.934 274.74 165.274 274.327 165.581 273.86L164.281 273.04C164.081 273.373 163.841 273.667 163.561 273.92C163.281 274.16 162.961 274.353 162.601 274.5C162.254 274.633 161.854 274.7 161.401 274.7C160.801 274.7 160.281 274.573 159.841 274.32C159.401 274.067 159.061 273.693 158.821 273.2C158.581 272.707 158.461 272.107 158.461 271.4L158.501 270.8C158.501 270.227 158.627 269.733 158.881 269.32C159.147 268.893 159.501 268.567 159.941 268.34C160.381 268.113 160.867 268 161.401 268C161.934 268 162.381 268.107 162.741 268.32C163.114 268.52 163.401 268.807 163.601 269.18C163.814 269.54 163.947 269.96 164.001 270.44H157.861V271.8ZM169.074 271.9H175.874V270.4H169.074V271.9ZM174.834 266.8V276H176.434V266.8H174.834ZM168.134 266.8V276H169.734V266.8H168.134ZM187.342 268.4L187.442 266.1L179.842 274.4L179.742 276.7L187.342 268.4ZM181.342 266.8H179.742V276.7L181.342 274.5V266.8ZM187.442 266.1L185.842 268.3V276H187.442V266.1ZM192.061 276L195.461 271.2H193.701L190.301 276H192.061ZM197.901 276V266.8H196.301V276H197.901ZM196.961 270.92H194.101C193.714 270.92 193.387 270.873 193.121 270.78C192.867 270.673 192.674 270.52 192.541 270.32C192.407 270.12 192.341 269.867 192.341 269.56C192.341 269.253 192.407 269 192.541 268.8C192.674 268.6 192.867 268.453 193.121 268.36C193.387 268.253 193.714 268.2 194.101 268.2H196.961V266.8H194.101C193.474 266.8 192.901 266.893 192.381 267.08C191.874 267.267 191.474 267.56 191.181 267.96C190.887 268.36 190.741 268.893 190.741 269.56C190.741 270.213 190.887 270.747 191.181 271.16C191.474 271.56 191.874 271.853 192.381 272.04C192.901 272.227 193.474 272.32 194.101 272.32H196.961V270.92ZM214.505 268.4L214.605 266.1L207.005 274.4L206.905 276.7L214.505 268.4ZM208.505 266.8H206.905V276.7L208.505 274.5V266.8ZM214.605 266.1L213.005 268.3V276H214.605V266.1ZM222.803 266.8L220.603 270L218.403 266.8H216.603L219.743 271.26L216.403 276H218.203L220.603 272.52L223.003 276H224.803L221.463 271.26L224.603 266.8H222.803ZM232.598 266.8V276H234.198V266.8H232.598ZM237.598 266.8L233.598 270.6L237.998 276H239.998L235.598 270.6L239.598 266.8H237.598ZM240.613 271.4C240.613 272.32 240.82 273.147 241.233 273.88C241.66 274.6 242.233 275.167 242.953 275.58C243.673 275.993 244.48 276.2 245.373 276.2C246.28 276.2 247.087 275.993 247.793 275.58C248.513 275.167 249.08 274.6 249.493 273.88C249.92 273.147 250.133 272.32 250.133 271.4C250.133 270.467 249.92 269.64 249.493 268.92C249.08 268.2 248.513 267.633 247.793 267.22C247.087 266.807 246.28 266.6 245.373 266.6C244.48 266.6 243.673 266.807 242.953 267.22C242.233 267.633 241.66 268.2 241.233 268.92C240.82 269.64 240.613 270.467 240.613 271.4ZM242.233 271.4C242.233 270.76 242.367 270.193 242.633 269.7C242.913 269.193 243.287 268.8 243.753 268.52C244.233 268.24 244.773 268.1 245.373 268.1C245.973 268.1 246.507 268.24 246.973 268.52C247.453 268.8 247.827 269.193 248.093 269.7C248.373 270.193 248.513 270.76 248.513 271.4C248.513 272.04 248.373 272.607 248.093 273.1C247.827 273.593 247.453 273.987 246.973 274.28C246.507 274.56 245.973 274.7 245.373 274.7C244.773 274.7 244.233 274.56 243.753 274.28C243.287 273.987 242.913 273.593 242.633 273.1C242.367 272.607 242.233 272.04 242.233 271.4ZM253.471 271.9H260.271V270.4H253.471V271.9ZM259.231 266.8V276H260.831V266.8H259.231ZM252.531 266.8V276H254.131V266.8H252.531ZM263.94 266.8V276H265.54V266.8H263.94ZM268.94 266.8L264.94 270.6L269.34 276H271.34L266.94 270.6L270.94 266.8H268.94ZM274.548 280.4V266.8H272.948V280.4H274.548ZM282.248 271.4C282.248 270.4 282.042 269.547 281.628 268.84C281.215 268.12 280.662 267.567 279.968 267.18C279.288 266.793 278.528 266.6 277.688 266.6C276.928 266.6 276.255 266.793 275.668 267.18C275.095 267.567 274.642 268.12 274.308 268.84C273.988 269.547 273.828 270.4 273.828 271.4C273.828 272.387 273.988 273.24 274.308 273.96C274.642 274.68 275.095 275.233 275.668 275.62C276.255 276.007 276.928 276.2 277.688 276.2C278.528 276.2 279.288 276.007 279.968 275.62C280.662 275.233 281.215 274.68 281.628 273.96C282.042 273.24 282.248 272.387 282.248 271.4ZM280.628 271.4C280.628 272.107 280.482 272.707 280.188 273.2C279.908 273.693 279.528 274.067 279.048 274.32C278.582 274.573 278.062 274.7 277.488 274.7C277.022 274.7 276.562 274.573 276.108 274.32C275.655 274.067 275.282 273.693 274.988 273.2C274.695 272.707 274.548 272.107 274.548 271.4C274.548 270.693 274.695 270.093 274.988 269.6C275.282 269.107 275.655 268.733 276.108 268.48C276.562 268.227 277.022 268.1 277.488 268.1C278.062 268.1 278.582 268.227 279.048 268.48C279.528 268.733 279.908 269.107 280.188 269.6C280.482 270.093 280.628 270.693 280.628 271.4ZM284.875 271.8H292.735C292.748 271.72 292.755 271.64 292.755 271.56C292.755 271.48 292.755 271.4 292.755 271.32C292.755 270.347 292.575 269.513 292.215 268.82C291.855 268.113 291.348 267.567 290.695 267.18C290.041 266.793 289.281 266.6 288.415 266.6C287.628 266.6 286.915 266.76 286.275 267.08C285.648 267.4 285.135 267.847 284.735 268.42C284.335 268.993 284.068 269.66 283.935 270.42C283.908 270.58 283.888 270.74 283.875 270.9C283.861 271.06 283.855 271.227 283.855 271.4C283.855 272.32 284.041 273.147 284.415 273.88C284.801 274.6 285.321 275.167 285.975 275.58C286.641 275.993 287.388 276.2 288.215 276.2C289.015 276.2 289.681 276.107 290.215 275.92C290.748 275.72 291.201 275.447 291.575 275.1C291.948 274.74 292.288 274.327 292.595 273.86L291.295 273.04C291.095 273.373 290.855 273.667 290.575 273.92C290.295 274.16 289.975 274.353 289.615 274.5C289.268 274.633 288.868 274.7 288.415 274.7C287.815 274.7 287.295 274.573 286.855 274.32C286.415 274.067 286.075 273.693 285.835 273.2C285.595 272.707 285.475 272.107 285.475 271.4L285.515 270.8C285.515 270.227 285.641 269.733 285.895 269.32C286.161 268.893 286.515 268.567 286.955 268.34C287.395 268.113 287.881 268 288.415 268C288.948 268 289.395 268.107 289.755 268.32C290.128 268.52 290.415 268.807 290.615 269.18C290.828 269.54 290.961 269.96 291.015 270.44H284.875V271.8ZM293.748 266.8V268.3H299.148V266.8H293.748ZM295.648 267.2V276H297.248V267.2H295.648ZM301.893 271.9H308.693V270.4H301.893V271.9ZM307.653 266.8V276H309.253V266.8H307.653ZM300.953 266.8V276H302.553V266.8H300.953ZM320.762 266.8V276H322.362V266.8H320.762ZM312.462 266.8V276H314.062V266.8H312.462ZM313.402 271.68H316.262C316.848 271.68 317.288 271.807 317.582 272.06C317.875 272.313 318.022 272.673 318.022 273.14C318.022 273.447 317.955 273.713 317.822 273.94C317.688 274.153 317.488 274.32 317.222 274.44C316.968 274.547 316.648 274.6 316.262 274.6H313.402V276H316.262C316.902 276 317.475 275.9 317.982 275.7C318.488 275.5 318.888 275.187 319.182 274.76C319.475 274.333 319.622 273.793 319.622 273.14C319.622 272.153 319.295 271.433 318.642 270.98C318.002 270.513 317.208 270.28 316.262 270.28H313.402V271.68ZM330.452 266.8L328.252 270L326.052 266.8H324.252L327.392 271.26L324.052 276H325.852L328.252 272.52L330.652 276H332.452L329.112 271.26L332.252 266.8H330.452ZM64 295.8H56.5V305H58.1V297.3H62.4V305H64V295.8ZM66.4078 300.4C66.4078 301.32 66.6145 302.147 67.0278 302.88C67.4545 303.6 68.0278 304.167 68.7478 304.58C69.4678 304.993 70.2745 305.2 71.1678 305.2C72.0745 305.2 72.8811 304.993 73.5878 304.58C74.3078 304.167 74.8745 303.6 75.2878 302.88C75.7145 302.147 75.9278 301.32 75.9278 300.4C75.9278 299.467 75.7145 298.64 75.2878 297.92C74.8745 297.2 74.3078 296.633 73.5878 296.22C72.8811 295.807 72.0745 295.6 71.1678 295.6C70.2745 295.6 69.4678 295.807 68.7478 296.22C68.0278 296.633 67.4545 297.2 67.0278 297.92C66.6145 298.64 66.4078 299.467 66.4078 300.4ZM68.0278 300.4C68.0278 299.76 68.1611 299.193 68.4278 298.7C68.7078 298.193 69.0811 297.8 69.5478 297.52C70.0278 297.24 70.5678 297.1 71.1678 297.1C71.7678 297.1 72.3011 297.24 72.7678 297.52C73.2478 297.8 73.6211 298.193 73.8878 298.7C74.1678 299.193 74.3078 299.76 74.3078 300.4C74.3078 301.04 74.1678 301.607 73.8878 302.1C73.6211 302.593 73.2478 302.987 72.7678 303.28C72.3011 303.56 71.7678 303.7 71.1678 303.7C70.5678 303.7 70.0278 303.56 69.5478 303.28C69.0811 302.987 68.7078 302.593 68.4278 302.1C68.1611 301.607 68.0278 301.04 68.0278 300.4ZM76.9258 295.8V297.3H82.3258V295.8H76.9258ZM78.8258 296.2V305H80.4258V296.2H78.8258ZM85.6313 309.4V295.8H84.0313V309.4H85.6313ZM93.3313 300.4C93.3313 299.4 93.1246 298.547 92.7113 297.84C92.2979 297.12 91.7446 296.567 91.0513 296.18C90.3713 295.793 89.6113 295.6 88.7713 295.6C88.0113 295.6 87.3379 295.793 86.7513 296.18C86.1779 296.567 85.7246 297.12 85.3913 297.84C85.0713 298.547 84.9113 299.4 84.9113 300.4C84.9113 301.387 85.0713 302.24 85.3913 302.96C85.7246 303.68 86.1779 304.233 86.7513 304.62C87.3379 305.007 88.0113 305.2 88.7713 305.2C89.6113 305.2 90.3713 305.007 91.0513 304.62C91.7446 304.233 92.2979 303.68 92.7113 302.96C93.1246 302.24 93.3313 301.387 93.3313 300.4ZM91.7113 300.4C91.7113 301.107 91.5646 301.707 91.2713 302.2C90.9913 302.693 90.6113 303.067 90.1313 303.32C89.6646 303.573 89.1446 303.7 88.5713 303.7C88.1046 303.7 87.6446 303.573 87.1913 303.32C86.7379 303.067 86.3646 302.693 86.0713 302.2C85.7779 301.707 85.6313 301.107 85.6313 300.4C85.6313 299.693 85.7779 299.093 86.0713 298.6C86.3646 298.107 86.7379 297.733 87.1913 297.48C87.6446 297.227 88.1046 297.1 88.5713 297.1C89.1446 297.1 89.6646 297.227 90.1313 297.48C90.6113 297.733 90.9913 298.107 91.2713 298.6C91.5646 299.093 91.7113 299.693 91.7113 300.4ZM95.9575 300.8H103.817C103.831 300.72 103.837 300.64 103.837 300.56C103.837 300.48 103.837 300.4 103.837 300.32C103.837 299.347 103.657 298.513 103.297 297.82C102.937 297.113 102.431 296.567 101.777 296.18C101.124 295.793 100.364 295.6 99.4975 295.6C98.7108 295.6 97.9975 295.76 97.3575 296.08C96.7308 296.4 96.2175 296.847 95.8175 297.42C95.4175 297.993 95.1508 298.66 95.0175 299.42C94.9908 299.58 94.9708 299.74 94.9575 299.9C94.9442 300.06 94.9375 300.227 94.9375 300.4C94.9375 301.32 95.1242 302.147 95.4975 302.88C95.8842 303.6 96.4042 304.167 97.0575 304.58C97.7242 304.993 98.4708 305.2 99.2975 305.2C100.097 305.2 100.764 305.107 101.297 304.92C101.831 304.72 102.284 304.447 102.657 304.1C103.031 303.74 103.371 303.327 103.677 302.86L102.377 302.04C102.177 302.373 101.937 302.667 101.657 302.92C101.377 303.16 101.057 303.353 100.697 303.5C100.351 303.633 99.9508 303.7 99.4975 303.7C98.8975 303.7 98.3775 303.573 97.9375 303.32C97.4975 303.067 97.1575 302.693 96.9175 302.2C96.6775 301.707 96.5575 301.107 96.5575 300.4L96.5975 299.8C96.5975 299.227 96.7242 298.733 96.9775 298.32C97.2442 297.893 97.5975 297.567 98.0375 297.34C98.4775 297.113 98.9642 297 99.4975 297C100.031 297 100.477 297.107 100.837 297.32C101.211 297.52 101.497 297.807 101.697 298.18C101.911 298.54 102.044 298.96 102.097 299.44H95.9575V300.8ZM110.19 297.1C110.79 297.1 111.324 297.24 111.79 297.52C112.27 297.8 112.644 298.193 112.91 298.7C113.19 299.193 113.33 299.76 113.33 300.4C113.33 301.04 113.19 301.607 112.91 302.1C112.644 302.593 112.27 302.987 111.79 303.28C111.324 303.56 110.79 303.7 110.19 303.7C109.59 303.7 109.05 303.56 108.57 303.28C108.104 302.987 107.73 302.593 107.45 302.1C107.17 301.607 107.03 301.04 107.03 300.4L105.43 299.2C105.43 300.52 105.637 301.627 106.05 302.52C106.477 303.413 107.05 304.087 107.77 304.54C108.49 304.98 109.297 305.2 110.19 305.2C111.097 305.2 111.904 304.993 112.61 304.58C113.33 304.167 113.897 303.6 114.31 302.88C114.737 302.147 114.95 301.32 114.95 300.4C114.95 299.467 114.737 298.64 114.31 297.92C113.897 297.2 113.33 296.633 112.61 296.22C111.904 295.807 111.097 295.6 110.19 295.6V297.1ZM106.31 300.4H107.03C107.03 299.867 107.124 299.4 107.31 299C107.51 298.587 107.764 298.24 108.07 297.96C108.39 297.68 108.737 297.467 109.11 297.32C109.484 297.173 109.844 297.1 110.19 297.1V295.6C109.617 295.6 109.09 295.713 108.61 295.94C108.144 296.153 107.737 296.467 107.39 296.88C107.044 297.293 106.777 297.8 106.59 298.4C106.404 298.987 106.31 299.653 106.31 300.4ZM105.43 299.2L106.83 300.26V298.2C106.83 297.533 106.917 296.867 107.09 296.2C107.264 295.52 107.577 294.913 108.03 294.38C108.497 293.847 109.144 293.447 109.97 293.18C110.704 292.94 111.357 292.64 111.93 292.28C112.517 291.92 112.99 291.5 113.35 291.02C113.71 290.527 113.924 289.987 113.99 289.4H112.41C112.317 289.88 112.044 290.34 111.59 290.78C111.15 291.207 110.477 291.573 109.57 291.88C108.504 292.24 107.664 292.76 107.05 293.44C106.45 294.107 106.03 294.92 105.79 295.88C105.55 296.84 105.43 297.947 105.43 299.2ZM118.288 300.9H125.088V299.4H118.288V300.9ZM124.048 295.8V305H125.648V295.8H124.048ZM117.348 295.8V305H118.948V295.8H117.348ZM128.057 300.4C128.057 301.32 128.264 302.147 128.677 302.88C129.104 303.6 129.677 304.167 130.397 304.58C131.117 304.993 131.924 305.2 132.817 305.2C133.724 305.2 134.53 304.993 135.237 304.58C135.957 304.167 136.524 303.6 136.937 302.88C137.364 302.147 137.577 301.32 137.577 300.4C137.577 299.467 137.364 298.64 136.937 297.92C136.524 297.2 135.957 296.633 135.237 296.22C134.53 295.807 133.724 295.6 132.817 295.6C131.924 295.6 131.117 295.807 130.397 296.22C129.677 296.633 129.104 297.2 128.677 297.92C128.264 298.64 128.057 299.467 128.057 300.4ZM129.677 300.4C129.677 299.76 129.81 299.193 130.077 298.7C130.357 298.193 130.73 297.8 131.197 297.52C131.677 297.24 132.217 297.1 132.817 297.1C133.417 297.1 133.95 297.24 134.417 297.52C134.897 297.8 135.27 298.193 135.537 298.7C135.817 299.193 135.957 299.76 135.957 300.4C135.957 301.04 135.817 301.607 135.537 302.1C135.27 302.593 134.897 302.987 134.417 303.28C133.95 303.56 133.417 303.7 132.817 303.7C132.217 303.7 131.677 303.56 131.197 303.28C130.73 302.987 130.357 302.593 130.077 302.1C129.81 301.607 129.677 301.04 129.677 300.4ZM140.695 300.4C140.695 299.76 140.828 299.193 141.095 298.7C141.375 298.193 141.748 297.8 142.215 297.52C142.695 297.24 143.235 297.1 143.835 297.1C144.328 297.1 144.788 297.18 145.215 297.34C145.655 297.487 146.035 297.687 146.355 297.94C146.675 298.193 146.902 298.473 147.035 298.78V296.78C146.715 296.407 146.255 296.12 145.655 295.92C145.068 295.707 144.462 295.6 143.835 295.6C142.942 295.6 142.135 295.807 141.415 296.22C140.695 296.633 140.122 297.2 139.695 297.92C139.282 298.64 139.075 299.467 139.075 300.4C139.075 301.32 139.282 302.147 139.695 302.88C140.122 303.6 140.695 304.167 141.415 304.58C142.135 304.993 142.942 305.2 143.835 305.2C144.462 305.2 145.068 305.1 145.655 304.9C146.255 304.687 146.715 304.393 147.035 304.02V302.02C146.902 302.313 146.675 302.593 146.355 302.86C146.035 303.113 145.655 303.32 145.215 303.48C144.788 303.627 144.328 303.7 143.835 303.7C143.235 303.7 142.695 303.56 142.215 303.28C141.748 302.987 141.375 302.593 141.095 302.1C140.828 301.607 140.695 301.04 140.695 300.4ZM148.326 295.8V297.3H153.726V295.8H148.326ZM150.226 296.2V305H151.826V296.2H150.226ZM155.458 300.8H163.318C163.332 300.72 163.338 300.64 163.338 300.56C163.338 300.48 163.338 300.4 163.338 300.32C163.338 299.347 163.158 298.513 162.798 297.82C162.438 297.113 161.932 296.567 161.278 296.18C160.625 295.793 159.865 295.6 158.998 295.6C158.212 295.6 157.498 295.76 156.858 296.08C156.232 296.4 155.718 296.847 155.318 297.42C154.918 297.993 154.652 298.66 154.518 299.42C154.492 299.58 154.472 299.74 154.458 299.9C154.445 300.06 154.438 300.227 154.438 300.4C154.438 301.32 154.625 302.147 154.998 302.88C155.385 303.6 155.905 304.167 156.558 304.58C157.225 304.993 157.972 305.2 158.798 305.2C159.598 305.2 160.265 305.107 160.798 304.92C161.332 304.72 161.785 304.447 162.158 304.1C162.532 303.74 162.872 303.327 163.178 302.86L161.878 302.04C161.678 302.373 161.438 302.667 161.158 302.92C160.878 303.16 160.558 303.353 160.198 303.5C159.852 303.633 159.452 303.7 158.998 303.7C158.398 303.7 157.878 303.573 157.438 303.32C156.998 303.067 156.658 302.693 156.418 302.2C156.178 301.707 156.058 301.107 156.058 300.4L156.098 299.8C156.098 299.227 156.225 298.733 156.478 298.32C156.745 297.893 157.098 297.567 157.538 297.34C157.978 297.113 158.465 297 158.998 297C159.532 297 159.978 297.107 160.338 297.32C160.712 297.52 160.998 297.807 161.198 298.18C161.412 298.54 161.545 298.96 161.598 299.44H155.458V300.8ZM173.431 297.4L173.531 295.1L165.931 303.4L165.831 305.7L173.431 297.4ZM167.431 295.8H165.831V305.7L167.431 303.5V295.8ZM173.531 295.1L171.931 297.3V305H173.531V295.1ZM166.571 291.1C166.571 291.553 166.685 292 166.911 292.44C167.151 292.867 167.505 293.22 167.971 293.5C168.451 293.767 169.038 293.9 169.731 293.9C170.438 293.9 171.025 293.767 171.491 293.5C171.958 293.22 172.305 292.867 172.531 292.44C172.771 292 172.891 291.553 172.891 291.1H171.471C171.471 291.273 171.425 291.48 171.331 291.72C171.238 291.947 171.065 292.153 170.811 292.34C170.558 292.513 170.198 292.6 169.731 292.6C169.265 292.6 168.905 292.513 168.651 292.34C168.398 292.153 168.225 291.947 168.131 291.72C168.038 291.48 167.991 291.273 167.991 291.1H166.571ZM177.23 304.2C177.23 304.493 177.336 304.753 177.55 304.98C177.776 305.193 178.036 305.3 178.33 305.3C178.636 305.3 178.896 305.193 179.11 304.98C179.323 304.753 179.43 304.493 179.43 304.2C179.43 303.893 179.323 303.633 179.11 303.42C178.896 303.207 178.636 303.1 178.33 303.1C178.036 303.1 177.776 303.207 177.55 303.42C177.336 303.633 177.23 303.893 177.23 304.2ZM183.426 304.2C183.426 304.493 183.532 304.753 183.746 304.98C183.972 305.193 184.232 305.3 184.526 305.3C184.832 305.3 185.092 305.193 185.306 304.98C185.519 304.753 185.626 304.493 185.626 304.2C185.626 303.893 185.519 303.633 185.306 303.42C185.092 303.207 184.832 303.1 184.526 303.1C184.232 303.1 183.972 303.207 183.746 303.42C183.532 303.633 183.426 303.893 183.426 304.2ZM189.622 304.2C189.622 304.493 189.729 304.753 189.942 304.98C190.169 305.193 190.429 305.3 190.722 305.3C191.029 305.3 191.289 305.193 191.502 304.98C191.715 304.753 191.822 304.493 191.822 304.2C191.822 303.893 191.715 303.633 191.502 303.42C191.289 303.207 191.029 303.1 190.722 303.1C190.429 303.1 190.169 303.207 189.942 303.42C189.729 303.633 189.622 303.893 189.622 304.2Z" fill="black"/>
<path d="M59.352 52.128L70.424 49.376V84H80.856V38.368L59.352 42.72V52.128ZM126.283 69.664C126.283 66.5493 125.643 63.904 124.363 61.728C123.083 59.552 121.397 57.888 119.307 56.736C117.259 55.584 115.04 55.008 112.651 55.008C111.243 55.008 109.877 55.136 108.555 55.392C107.275 55.6053 106.037 55.9893 104.843 56.544L107.403 48.544H125.323V39.2H99.4665L93.1945 65.056C94.7305 64.288 96.2238 63.712 97.6745 63.328C99.1678 62.9013 100.597 62.624 101.963 62.496C103.371 62.3253 104.651 62.24 105.803 62.24C107.296 62.24 108.683 62.4533 109.963 62.88C111.285 63.3067 112.352 63.9893 113.163 64.928C114.016 65.824 114.443 67.0187 114.443 68.512C114.443 69.92 114.101 71.1147 113.419 72.096C112.736 73.0773 111.755 73.8027 110.475 74.272C109.195 74.7413 107.637 74.976 105.803 74.976C104.736 74.976 103.541 74.784 102.219 74.4C100.896 73.9733 99.5732 73.4187 98.2505 72.736C96.9705 72.0107 95.7118 71.136 94.4745 70.112L90.2505 79.008C91.6585 80.0747 93.2158 81.056 94.9225 81.952C96.6292 82.8053 98.5918 83.488 100.811 84C103.029 84.5547 105.504 84.832 108.235 84.832C110.411 84.832 112.544 84.5547 114.635 84C116.768 83.4027 118.709 82.4853 120.458 81.248C122.251 80.0107 123.659 78.432 124.683 76.512C125.749 74.592 126.283 72.3093 126.283 69.664ZM141.805 61.6C141.805 59.5093 141.997 57.6107 142.381 55.904C142.765 54.1547 143.319 52.6827 144.045 51.488C144.77 50.2507 145.623 49.312 146.605 48.672C147.629 47.9893 148.759 47.648 149.997 47.648C151.234 47.648 152.343 47.9893 153.325 48.672C154.349 49.312 155.223 50.2507 155.949 51.488C156.674 52.6827 157.229 54.1547 157.613 55.904C157.997 57.6107 158.189 59.5093 158.189 61.6C158.189 63.6907 157.997 65.6107 157.613 67.36C157.229 69.0667 156.674 70.5387 155.949 71.776C155.223 72.9707 154.349 73.9093 153.325 74.592C152.343 75.232 151.234 75.552 149.997 75.552C148.759 75.552 147.629 75.232 146.605 74.592C145.623 73.9093 144.77 72.9707 144.045 71.776C143.319 70.5387 142.765 69.0667 142.381 67.36C141.997 65.6107 141.805 63.6907 141.805 61.6ZM131.373 61.6C131.373 66.464 132.141 70.624 133.677 74.08C135.255 77.536 137.453 80.2027 140.269 82.08C143.085 83.9147 146.327 84.832 149.997 84.832C153.837 84.832 157.143 83.9147 159.917 82.08C162.69 80.2027 164.823 77.536 166.317 74.08C167.853 70.624 168.621 66.464 168.621 61.6C168.621 56.736 167.853 52.576 166.317 49.12C164.823 45.664 162.69 43.0187 159.917 41.184C157.143 39.3067 153.837 38.368 149.997 38.368C146.327 38.368 143.085 39.3067 140.269 41.184C137.453 43.0187 135.255 45.664 133.677 49.12C132.141 52.576 131.373 56.736 131.373 61.6ZM184.18 61.6C184.18 59.5093 184.372 57.6107 184.756 55.904C185.14 54.1547 185.694 52.6827 186.42 51.488C187.145 50.2507 187.998 49.312 188.98 48.672C190.004 47.9893 191.134 47.648 192.372 47.648C193.609 47.648 194.718 47.9893 195.7 48.672C196.724 49.312 197.598 50.2507 198.324 51.488C199.049 52.6827 199.604 54.1547 199.988 55.904C200.372 57.6107 200.564 59.5093 200.564 61.6C200.564 63.6907 200.372 65.6107 199.988 67.36C199.604 69.0667 199.049 70.5387 198.324 71.776C197.598 72.9707 196.724 73.9093 195.7 74.592C194.718 75.232 193.609 75.552 192.372 75.552C191.134 75.552 190.004 75.232 188.98 74.592C187.998 73.9093 187.145 72.9707 186.42 71.776C185.694 70.5387 185.14 69.0667 184.756 67.36C184.372 65.6107 184.18 63.6907 184.18 61.6ZM173.748 61.6C173.748 66.464 174.516 70.624 176.052 74.08C177.63 77.536 179.828 80.2027 182.644 82.08C185.46 83.9147 188.702 84.832 192.372 84.832C196.212 84.832 199.518 83.9147 202.292 82.08C205.065 80.2027 207.198 77.536 208.692 74.08C210.228 70.624 210.996 66.464 210.996 61.6C210.996 56.736 210.228 52.576 208.692 49.12C207.198 45.664 205.065 43.0187 202.292 41.184C199.518 39.3067 196.212 38.368 192.372 38.368C188.702 38.368 185.46 39.3067 182.644 41.184C179.828 43.0187 177.63 45.664 176.052 49.12C174.516 52.576 173.748 56.736 173.748 61.6ZM217.723 71.456H252.539V62.112H217.723V71.456ZM230.139 49.44V84.128H240.123V49.44H230.139Z" fill="black"/>
<path d="M70.776 108.2V125H74.976V108.2H70.776ZM80.688 108.2L73.8 116.192L80.88 125H85.8L78.624 116.072L85.44 108.2H80.688ZM102.341 108.2H88.5413V118.136C88.5413 118.648 88.4853 119.12 88.3733 119.552C88.2613 119.984 88.0933 120.352 87.8693 120.656C87.6613 120.944 87.3973 121.168 87.0773 121.328C86.7733 121.488 86.4213 121.568 86.0213 121.568V125C87.5733 125 88.8373 124.744 89.8133 124.232C90.7893 123.704 91.5013 122.912 91.9492 121.856C92.4133 120.784 92.6453 119.464 92.6453 117.896V111.824H98.2133V125H102.341V108.2ZM121.41 112.424L121.53 107.36L106.146 120.776L106.026 125.84L121.41 112.424ZM109.914 108.2H106.026V125.84L109.914 121.856V108.2ZM121.53 107.36L117.618 111.488V125H121.53V107.36ZM127.769 125H136.241V121.664H127.769V125ZM127.769 111.536H136.241V108.2H127.769V111.536ZM127.769 117.8H135.761V114.536H127.769V117.8ZM125.081 108.2V125H128.969V108.2H125.081ZM140.67 117.968H153.39V114.32H140.67V117.968ZM150.822 108.2V125H154.878V108.2H150.822ZM139.542 108.2V125H143.598V108.2H139.542ZM156.729 111.824H161.337V125H165.393V111.824H170.025V108.2H156.729V111.824ZM174.003 116.6C174.003 115.608 174.195 114.736 174.579 113.984C174.979 113.216 175.531 112.616 176.235 112.184C176.955 111.752 177.795 111.536 178.755 111.536C179.731 111.536 180.571 111.752 181.275 112.184C181.979 112.616 182.523 113.216 182.907 113.984C183.291 114.736 183.483 115.608 183.483 116.6C183.483 117.592 183.283 118.472 182.883 119.24C182.499 119.992 181.947 120.584 181.227 121.016C180.523 121.448 179.699 121.664 178.755 121.664C177.795 121.664 176.955 121.448 176.235 121.016C175.531 120.584 174.979 119.992 174.579 119.24C174.195 118.472 174.003 117.592 174.003 116.6ZM169.707 116.6C169.707 117.896 169.923 119.088 170.355 120.176C170.803 121.264 171.427 122.208 172.227 123.008C173.043 123.808 174.003 124.432 175.107 124.88C176.211 125.312 177.427 125.528 178.755 125.528C180.067 125.528 181.275 125.312 182.379 124.88C183.483 124.432 184.435 123.808 185.235 123.008C186.051 122.208 186.675 121.264 187.107 120.176C187.555 119.088 187.779 117.896 187.779 116.6C187.779 115.304 187.555 114.12 187.107 113.048C186.659 111.976 186.027 111.048 185.211 110.264C184.395 109.48 183.435 108.88 182.331 108.464C181.243 108.032 180.051 107.816 178.755 107.816C177.475 107.816 176.283 108.032 175.179 108.464C174.075 108.88 173.115 109.48 172.299 110.264C171.483 111.048 170.843 111.976 170.379 113.048C169.931 114.12 169.707 115.304 169.707 116.6ZM193.402 116.648H196.546C197.714 116.648 198.738 116.488 199.618 116.168C200.514 115.832 201.218 115.352 201.73 114.728C202.258 114.104 202.522 113.352 202.522 112.472C202.522 111.512 202.258 110.72 201.73 110.096C201.218 109.456 200.514 108.984 199.618 108.68C198.738 108.36 197.714 108.2 196.546 108.2H190.378V125H196.954C198.282 125 199.434 124.84 200.41 124.52C201.386 124.184 202.138 123.672 202.666 122.984C203.21 122.296 203.482 121.392 203.482 120.272C203.482 119.424 203.29 118.704 202.906 118.112C202.538 117.504 202.042 117.008 201.418 116.624C200.794 116.224 200.098 115.936 199.33 115.76C198.562 115.584 197.77 115.496 196.954 115.496H193.402V117.704H196.498C196.898 117.704 197.258 117.744 197.578 117.824C197.914 117.888 198.21 118 198.466 118.16C198.722 118.32 198.922 118.528 199.066 118.784C199.21 119.04 199.282 119.344 199.282 119.696C199.282 120.24 199.154 120.672 198.898 120.992C198.658 121.296 198.33 121.52 197.914 121.664C197.498 121.792 197.026 121.856 196.498 121.856H194.434V111.344H196.114C196.818 111.344 197.362 111.488 197.746 111.776C198.13 112.064 198.322 112.496 198.322 113.072C198.322 113.456 198.234 113.784 198.058 114.056C197.882 114.312 197.626 114.512 197.29 114.656C196.97 114.8 196.578 114.872 196.114 114.872H193.402V116.648Z" fill="black"/>
</g>
<defs>
<filter id="filter0_f_411_16" x="-0.963867" y="35.4917" width="5.3125" height="270.034" filterUnits="userSpaceOnUse" color-interpolation-filters="sRGB">
<feFlood flood-opacity="0" result="BackgroundImageFix"/>
<feBlend mode="normal" in="SourceGraphic" in2="BackgroundImageFix" result="shape"/>
<feGaussianBlur stdDeviation="0.5" result="effect1_foregroundBlur_411_16"/>
</filter>
<clipPath id="clip0_411_16">
<rect width="444" height="358" fill="white"/>
</clipPath>
</defs>
</svg>
