<svg width="310" height="297" viewBox="0 0 310 297" fill="none" xmlns="http://www.w3.org/2000/svg">
<g clip-path="url(#clip0_411_47)">
<path d="M37.1666 130.26L39.7766 137.46H43.2866L37.1666 124.77L31.0286 137.46H34.5386L37.1666 130.26ZM41.3066 138V139.98H44.3306V135.39H29.9846V139.98H33.0086V138H41.3066ZM45.7137 133.86C45.7137 134.724 45.9177 135.48 46.3257 136.128C46.7337 136.776 47.2977 137.28 48.0177 137.64C48.7377 138 49.5477 138.18 50.4477 138.18C51.3477 138.18 52.1517 138 52.8597 137.64C53.5797 137.28 54.1437 136.776 54.5517 136.128C54.9717 135.48 55.1817 134.724 55.1817 133.86C55.1817 132.984 54.9717 132.222 54.5517 131.574C54.1437 130.926 53.5797 130.422 52.8597 130.062C52.1517 129.702 51.3477 129.522 50.4477 129.522C49.5477 129.522 48.7377 129.702 48.0177 130.062C47.2977 130.422 46.7337 130.926 46.3257 131.574C45.9177 132.222 45.7137 132.984 45.7137 133.86ZM48.5037 133.86C48.5037 133.428 48.5937 133.056 48.7737 132.744C48.9537 132.432 49.1877 132.192 49.4757 132.024C49.7637 131.856 50.0877 131.772 50.4477 131.772C50.7957 131.772 51.1137 131.856 51.4017 132.024C51.7017 132.192 51.9357 132.432 52.1037 132.744C52.2837 133.056 52.3737 133.428 52.3737 133.86C52.3737 134.292 52.2837 134.664 52.1037 134.976C51.9357 135.276 51.7017 135.51 51.4017 135.678C51.1137 135.846 50.7957 135.93 50.4477 135.93C50.0877 135.93 49.7637 135.846 49.4757 135.678C49.1877 135.51 48.9537 135.276 48.7737 134.976C48.5937 134.664 48.5037 134.292 48.5037 133.86ZM59.1029 133.86C59.1029 133.452 59.1989 133.086 59.3909 132.762C59.5829 132.438 59.8469 132.18 60.1829 131.988C60.5309 131.796 60.9029 131.7 61.2989 131.7C61.5989 131.7 61.9049 131.748 62.2169 131.844C62.5289 131.94 62.8169 132.078 63.0809 132.258C63.3569 132.438 63.5789 132.66 63.7469 132.924V130.26C63.4589 130.056 63.0989 129.888 62.6669 129.756C62.2349 129.612 61.7069 129.54 61.0829 129.54C60.1709 129.54 59.3489 129.72 58.6169 130.08C57.8969 130.44 57.3269 130.944 56.9069 131.592C56.4989 132.228 56.2949 132.984 56.2949 133.86C56.2949 134.724 56.4989 135.48 56.9069 136.128C57.3269 136.776 57.8969 137.28 58.6169 137.64C59.3489 138 60.1709 138.18 61.0829 138.18C61.7069 138.18 62.2349 138.114 62.6669 137.982C63.0989 137.838 63.4589 137.652 63.7469 137.424V134.778C63.5789 135.042 63.3629 135.264 63.0989 135.444C62.8469 135.624 62.5649 135.768 62.2529 135.876C61.9529 135.972 61.6349 136.02 61.2989 136.02C60.9029 136.02 60.5309 135.93 60.1829 135.75C59.8469 135.57 59.5829 135.324 59.3909 135.012C59.1989 134.688 59.1029 134.304 59.1029 133.86ZM64.7394 129.72V131.97H70.5534V129.72H64.7394ZM66.3414 130.08V138H68.9514V130.08H66.3414ZM73.8116 135.534C73.8116 135.306 73.8656 135.114 73.9736 134.958C74.0936 134.802 74.2616 134.682 74.4776 134.598C74.7056 134.502 74.9756 134.454 75.2876 134.454C75.7556 134.454 76.1516 134.514 76.4756 134.634C76.8116 134.742 77.1356 134.91 77.4476 135.138V133.86C77.3276 133.728 77.1236 133.596 76.8356 133.464C76.5596 133.32 76.2296 133.206 75.8456 133.122C75.4736 133.026 75.0776 132.978 74.6576 132.978C73.9376 132.978 73.3076 133.086 72.7676 133.302C72.2276 133.518 71.8076 133.824 71.5076 134.22C71.2196 134.616 71.0756 135.09 71.0756 135.642C71.0756 136.182 71.2016 136.644 71.4536 137.028C71.7176 137.4 72.0776 137.688 72.5336 137.892C72.9896 138.084 73.5056 138.18 74.0816 138.18C74.6576 138.18 75.1736 138.084 75.6296 137.892C76.0976 137.688 76.4636 137.4 76.7276 137.028C77.0036 136.644 77.1416 136.188 77.1416 135.66L76.8536 134.652C76.8536 135.096 76.7696 135.444 76.6016 135.696C76.4336 135.948 76.2056 136.128 75.9176 136.236C75.6416 136.344 75.3356 136.398 74.9996 136.398C74.7956 136.398 74.5976 136.368 74.4056 136.308C74.2256 136.236 74.0816 136.14 73.9736 136.02C73.8656 135.888 73.8116 135.726 73.8116 135.534ZM72.7496 132.276C72.8816 132.192 73.0796 132.096 73.3436 131.988C73.6076 131.868 73.9136 131.766 74.2616 131.682C74.6216 131.598 74.9996 131.556 75.3956 131.556C75.8516 131.556 76.2056 131.664 76.4576 131.88C76.7216 132.084 76.8536 132.36 76.8536 132.708V138H79.4636V132.168C79.4636 131.592 79.2956 131.106 78.9596 130.71C78.6356 130.314 78.1796 130.014 77.5916 129.81C77.0156 129.594 76.3556 129.486 75.6116 129.486C74.8676 129.486 74.1656 129.588 73.5056 129.792C72.8576 129.996 72.2996 130.212 71.8316 130.44L72.7496 132.276ZM83.3506 133.68V134.652H85.7446C85.9366 134.652 86.0986 134.676 86.2306 134.724C86.3626 134.772 86.4646 134.832 86.5366 134.904C86.6206 134.976 86.6806 135.06 86.7166 135.156C86.7526 135.252 86.7706 135.354 86.7706 135.462C86.7706 135.666 86.6926 135.858 86.5366 136.038C86.3926 136.206 86.1286 136.29 85.7446 136.29H83.3506V138H86.6626C87.6106 138 88.2886 137.784 88.6966 137.352C89.1166 136.908 89.3266 136.374 89.3266 135.75C89.3266 135.21 89.1946 134.79 88.9306 134.49C88.6666 134.19 88.3066 133.98 87.8506 133.86C87.3946 133.74 86.8786 133.68 86.3026 133.68H83.3506ZM83.3506 134.04H86.1226C86.6386 134.04 87.1066 133.968 87.5266 133.824C87.9586 133.668 88.3066 133.44 88.5706 133.14C88.8346 132.828 88.9666 132.438 88.9666 131.97C88.9666 131.43 88.8346 130.998 88.5706 130.674C88.3066 130.338 87.9586 130.098 87.5266 129.954C87.1066 129.798 86.6386 129.72 86.1226 129.72H83.3506V131.43H85.5646C85.8406 131.43 86.0506 131.508 86.1946 131.664C86.3386 131.808 86.4106 131.988 86.4106 132.204C86.4106 132.3 86.3926 132.396 86.3566 132.492C86.3206 132.588 86.2666 132.672 86.1946 132.744C86.1226 132.816 86.0326 132.876 85.9246 132.924C85.8286 132.96 85.7086 132.978 85.5646 132.978H83.3506V134.04ZM81.7846 129.72V138H84.3946V129.72H81.7846ZM90.918 129.72V138H93.528V129.72H90.918ZM96.534 129.72L92.988 133.14L96.948 138H100.152L96.246 133.14L99.792 129.72H96.534ZM103.431 135.534C103.431 135.306 103.485 135.114 103.593 134.958C103.713 134.802 103.881 134.682 104.097 134.598C104.325 134.502 104.595 134.454 104.907 134.454C105.375 134.454 105.771 134.514 106.095 134.634C106.431 134.742 106.755 134.91 107.067 135.138V133.86C106.947 133.728 106.743 133.596 106.455 133.464C106.179 133.32 105.849 133.206 105.465 133.122C105.093 133.026 104.697 132.978 104.277 132.978C103.557 132.978 102.927 133.086 102.387 133.302C101.847 133.518 101.427 133.824 101.127 134.22C100.839 134.616 100.695 135.09 100.695 135.642C100.695 136.182 100.821 136.644 101.073 137.028C101.337 137.4 101.697 137.688 102.153 137.892C102.609 138.084 103.125 138.18 103.701 138.18C104.277 138.18 104.793 138.084 105.249 137.892C105.717 137.688 106.083 137.4 106.347 137.028C106.623 136.644 106.761 136.188 106.761 135.66L106.473 134.652C106.473 135.096 106.389 135.444 106.221 135.696C106.053 135.948 105.825 136.128 105.537 136.236C105.261 136.344 104.955 136.398 104.619 136.398C104.415 136.398 104.217 136.368 104.025 136.308C103.845 136.236 103.701 136.14 103.593 136.02C103.485 135.888 103.431 135.726 103.431 135.534ZM102.369 132.276C102.501 132.192 102.699 132.096 102.963 131.988C103.227 131.868 103.533 131.766 103.881 131.682C104.241 131.598 104.619 131.556 105.015 131.556C105.471 131.556 105.825 131.664 106.077 131.88C106.341 132.084 106.473 132.36 106.473 132.708V138H109.083V132.168C109.083 131.592 108.915 131.106 108.579 130.71C108.255 130.314 107.799 130.014 107.211 129.81C106.635 129.594 105.975 129.486 105.231 129.486C104.487 129.486 103.785 129.588 103.125 129.792C102.477 129.996 101.919 130.212 101.451 130.44L102.369 132.276ZM118.366 133.68V134.652H120.76C120.952 134.652 121.114 134.676 121.246 134.724C121.378 134.772 121.48 134.832 121.552 134.904C121.636 134.976 121.696 135.06 121.732 135.156C121.768 135.252 121.786 135.354 121.786 135.462C121.786 135.666 121.708 135.858 121.552 136.038C121.408 136.206 121.144 136.29 120.76 136.29H118.366V138H121.678C122.626 138 123.304 137.784 123.712 137.352C124.132 136.908 124.342 136.374 124.342 135.75C124.342 135.21 124.21 134.79 123.946 134.49C123.682 134.19 123.322 133.98 122.866 133.86C122.41 133.74 121.894 133.68 121.318 133.68H118.366ZM118.366 134.04H121.138C121.654 134.04 122.122 133.968 122.542 133.824C122.974 133.668 123.322 133.44 123.586 133.14C123.85 132.828 123.982 132.438 123.982 131.97C123.982 131.43 123.85 130.998 123.586 130.674C123.322 130.338 122.974 130.098 122.542 129.954C122.122 129.798 121.654 129.72 121.138 129.72H118.366V131.43H120.58C120.856 131.43 121.066 131.508 121.21 131.664C121.354 131.808 121.426 131.988 121.426 132.204C121.426 132.3 121.408 132.396 121.372 132.492C121.336 132.588 121.282 132.672 121.21 132.744C121.138 132.816 121.048 132.876 120.94 132.924C120.844 132.96 120.724 132.978 120.58 132.978H118.366V134.04ZM116.8 129.72V138H119.41V129.72H116.8ZM136.586 132.996L138.566 137.46L141.194 136.902L136.586 129.09L131.978 136.902L134.606 137.46L136.586 132.996ZM139.61 138V139.62H142.166V135.858H131.006V139.62H133.652V138H139.61ZM145.084 134.436H152.644C152.668 134.292 152.68 134.16 152.68 134.04C152.68 133.908 152.68 133.806 152.68 133.734C152.68 132.858 152.506 132.108 152.158 131.484C151.822 130.86 151.324 130.38 150.664 130.044C150.004 129.708 149.188 129.54 148.216 129.54C147.316 129.54 146.542 129.684 145.894 129.972C145.258 130.26 144.748 130.662 144.364 131.178C143.992 131.694 143.746 132.294 143.626 132.978C143.602 133.122 143.584 133.266 143.572 133.41C143.56 133.554 143.554 133.704 143.554 133.86C143.554 134.688 143.734 135.432 144.094 136.092C144.466 136.74 145 137.25 145.696 137.622C146.404 137.994 147.256 138.18 148.252 138.18C149.056 138.18 149.734 138.084 150.286 137.892C150.85 137.688 151.324 137.406 151.708 137.046C152.092 136.674 152.422 136.236 152.698 135.732L150.268 135.138C150.136 135.366 149.974 135.564 149.782 135.732C149.59 135.888 149.362 136.008 149.098 136.092C148.846 136.176 148.552 136.218 148.216 136.218C147.868 136.218 147.544 136.14 147.244 135.984C146.956 135.828 146.722 135.576 146.542 135.228C146.374 134.88 146.29 134.424 146.29 133.86L146.326 133.428C146.326 132.984 146.404 132.612 146.56 132.312C146.716 132 146.926 131.766 147.19 131.61C147.466 131.442 147.79 131.358 148.162 131.358C148.486 131.358 148.756 131.424 148.972 131.556C149.2 131.676 149.374 131.85 149.494 132.078C149.626 132.306 149.716 132.588 149.764 132.924H145.084V134.436ZM155.239 134.652H161.935V132.618H155.239V134.652ZM160.711 129.72V138H163.321V129.72H160.711ZM154.393 129.72V138H157.021V129.72H154.393ZM165.593 129.72V138H168.311V129.72H165.593ZM167.717 134.274H169.805C170.117 134.274 170.351 134.352 170.507 134.508C170.675 134.652 170.759 134.844 170.759 135.084C170.759 135.252 170.717 135.402 170.633 135.534C170.561 135.654 170.453 135.744 170.309 135.804C170.177 135.864 170.009 135.894 169.805 135.894H167.717V138H170.291C170.867 138 171.383 137.886 171.839 137.658C172.295 137.418 172.655 137.076 172.919 136.632C173.183 136.188 173.315 135.672 173.315 135.084C173.315 134.196 173.021 133.548 172.433 133.14C171.857 132.72 171.143 132.51 170.291 132.51H167.717V134.274ZM180.186 133.86C180.186 134.724 180.39 135.48 180.798 136.128C181.206 136.776 181.77 137.28 182.49 137.64C183.21 138 184.02 138.18 184.92 138.18C185.82 138.18 186.624 138 187.332 137.64C188.052 137.28 188.616 136.776 189.024 136.128C189.444 135.48 189.654 134.724 189.654 133.86C189.654 132.984 189.444 132.222 189.024 131.574C188.616 130.926 188.052 130.422 187.332 130.062C186.624 129.702 185.82 129.522 184.92 129.522C184.02 129.522 183.21 129.702 182.49 130.062C181.77 130.422 181.206 130.926 180.798 131.574C180.39 132.222 180.186 132.984 180.186 133.86ZM182.976 133.86C182.976 133.428 183.066 133.056 183.246 132.744C183.426 132.432 183.66 132.192 183.948 132.024C184.236 131.856 184.56 131.772 184.92 131.772C185.268 131.772 185.586 131.856 185.874 132.024C186.174 132.192 186.408 132.432 186.576 132.744C186.756 133.056 186.846 133.428 186.846 133.86C186.846 134.292 186.756 134.664 186.576 134.976C186.408 135.276 186.174 135.51 185.874 135.678C185.586 135.846 185.268 135.93 184.92 135.93C184.56 135.93 184.236 135.846 183.948 135.678C183.66 135.51 183.426 135.276 183.246 134.976C183.066 134.664 182.976 134.292 182.976 133.86ZM195.826 131.772C196.174 131.772 196.492 131.856 196.78 132.024C197.08 132.192 197.314 132.432 197.482 132.744C197.662 133.056 197.752 133.428 197.752 133.86C197.752 134.292 197.662 134.664 197.482 134.976C197.302 135.276 197.068 135.51 196.78 135.678C196.492 135.846 196.168 135.93 195.808 135.93C195.46 135.93 195.136 135.846 194.836 135.678C194.548 135.51 194.314 135.276 194.134 134.976C193.954 134.664 193.864 134.292 193.864 133.86L190.858 132.78C190.858 133.968 191.068 134.964 191.488 135.768C191.92 136.572 192.508 137.178 193.252 137.586C194.008 137.982 194.86 138.18 195.808 138.18C196.78 138.18 197.614 137.994 198.31 137.622C199.018 137.25 199.564 136.74 199.948 136.092C200.344 135.432 200.542 134.688 200.542 133.86C200.542 133.02 200.35 132.276 199.966 131.628C199.594 130.98 199.066 130.47 198.382 130.098C197.71 129.726 196.93 129.54 196.042 129.54L195.826 131.772ZM192.658 133.86H193.864C193.864 133.524 193.918 133.23 194.026 132.978C194.134 132.714 194.278 132.492 194.458 132.312C194.65 132.132 194.866 132 195.106 131.916C195.346 131.82 195.586 131.772 195.826 131.772L196.042 129.54C195.526 129.54 195.058 129.642 194.638 129.846C194.23 130.038 193.876 130.32 193.576 130.692C193.276 131.064 193.048 131.52 192.892 132.06C192.736 132.588 192.658 133.188 192.658 133.86ZM190.858 132.78L193.684 133.842L193.234 131.88C193.234 131.28 193.312 130.716 193.468 130.188C193.636 129.648 193.924 129.168 194.332 128.748C194.752 128.328 195.328 127.98 196.06 127.704C196.72 127.452 197.308 127.14 197.824 126.768C198.352 126.384 198.778 125.952 199.102 125.472C199.426 124.992 199.618 124.488 199.678 123.96H197.068C196.984 124.392 196.72 124.77 196.276 125.094C195.844 125.418 195.22 125.748 194.404 126.084C193.468 126.468 192.742 126.972 192.226 127.596C191.71 128.208 191.35 128.946 191.146 129.81C190.954 130.662 190.858 131.652 190.858 132.78ZM204.941 141.96V129.72H202.223V141.96H204.941ZM211.709 133.86C211.709 132.888 211.517 132.078 211.133 131.43C210.761 130.77 210.275 130.272 209.675 129.936C209.087 129.6 208.451 129.432 207.767 129.432C207.047 129.432 206.423 129.618 205.895 129.99C205.379 130.35 204.983 130.86 204.707 131.52C204.431 132.18 204.293 132.96 204.293 133.86C204.293 134.748 204.431 135.528 204.707 136.2C204.983 136.86 205.379 137.376 205.895 137.748C206.423 138.108 207.047 138.288 207.767 138.288C208.451 138.288 209.087 138.12 209.675 137.784C210.275 137.448 210.761 136.95 211.133 136.29C211.517 135.63 211.709 134.82 211.709 133.86ZM208.847 133.86C208.847 134.292 208.757 134.658 208.577 134.958C208.397 135.258 208.157 135.486 207.857 135.642C207.557 135.798 207.227 135.876 206.867 135.876C206.555 135.876 206.249 135.804 205.949 135.66C205.661 135.504 205.421 135.276 205.229 134.976C205.037 134.676 204.941 134.304 204.941 133.86C204.941 133.416 205.037 133.044 205.229 132.744C205.421 132.444 205.661 132.222 205.949 132.078C206.249 131.922 206.555 131.844 206.867 131.844C207.227 131.844 207.557 131.922 207.857 132.078C208.157 132.234 208.397 132.462 208.577 132.762C208.757 133.062 208.847 133.428 208.847 133.86ZM215.456 135.534C215.456 135.306 215.51 135.114 215.618 134.958C215.738 134.802 215.906 134.682 216.122 134.598C216.35 134.502 216.62 134.454 216.932 134.454C217.4 134.454 217.796 134.514 218.12 134.634C218.456 134.742 218.78 134.91 219.092 135.138V133.86C218.972 133.728 218.768 133.596 218.48 133.464C218.204 133.32 217.874 133.206 217.49 133.122C217.118 133.026 216.722 132.978 216.302 132.978C215.582 132.978 214.952 133.086 214.412 133.302C213.872 133.518 213.452 133.824 213.152 134.22C212.864 134.616 212.72 135.09 212.72 135.642C212.72 136.182 212.846 136.644 213.098 137.028C213.362 137.4 213.722 137.688 214.178 137.892C214.634 138.084 215.15 138.18 215.726 138.18C216.302 138.18 216.818 138.084 217.274 137.892C217.742 137.688 218.108 137.4 218.372 137.028C218.648 136.644 218.786 136.188 218.786 135.66L218.498 134.652C218.498 135.096 218.414 135.444 218.246 135.696C218.078 135.948 217.85 136.128 217.562 136.236C217.286 136.344 216.98 136.398 216.644 136.398C216.44 136.398 216.242 136.368 216.05 136.308C215.87 136.236 215.726 136.14 215.618 136.02C215.51 135.888 215.456 135.726 215.456 135.534ZM214.394 132.276C214.526 132.192 214.724 132.096 214.988 131.988C215.252 131.868 215.558 131.766 215.906 131.682C216.266 131.598 216.644 131.556 217.04 131.556C217.496 131.556 217.85 131.664 218.102 131.88C218.366 132.084 218.498 132.36 218.498 132.708V138H221.108V132.168C221.108 131.592 220.94 131.106 220.604 130.71C220.28 130.314 219.824 130.014 219.236 129.81C218.66 129.594 218 129.486 217.256 129.486C216.512 129.486 215.81 129.588 215.15 129.792C214.502 129.996 213.944 130.212 213.476 130.44L214.394 132.276ZM230.917 135.75V129.72H228.307V135.75H225.769V129.72H223.141V138H234.949V139.836H237.487V135.75H236.047V129.72H233.437V135.75H230.917ZM239.953 134.436H247.513C247.537 134.292 247.549 134.16 247.549 134.04C247.549 133.908 247.549 133.806 247.549 133.734C247.549 132.858 247.375 132.108 247.027 131.484C246.691 130.86 246.193 130.38 245.533 130.044C244.873 129.708 244.057 129.54 243.085 129.54C242.185 129.54 241.411 129.684 240.763 129.972C240.127 130.26 239.617 130.662 239.233 131.178C238.861 131.694 238.615 132.294 238.495 132.978C238.471 133.122 238.453 133.266 238.441 133.41C238.429 133.554 238.423 133.704 238.423 133.86C238.423 134.688 238.603 135.432 238.963 136.092C239.335 136.74 239.869 137.25 240.565 137.622C241.273 137.994 242.125 138.18 243.121 138.18C243.925 138.18 244.603 138.084 245.155 137.892C245.719 137.688 246.193 137.406 246.577 137.046C246.961 136.674 247.291 136.236 247.567 135.732L245.137 135.138C245.005 135.366 244.843 135.564 244.651 135.732C244.459 135.888 244.231 136.008 243.967 136.092C243.715 136.176 243.421 136.218 243.085 136.218C242.737 136.218 242.413 136.14 242.113 135.984C241.825 135.828 241.591 135.576 241.411 135.228C241.243 134.88 241.159 134.424 241.159 133.86L241.195 133.428C241.195 132.984 241.273 132.612 241.429 132.312C241.585 132 241.795 131.766 242.059 131.61C242.335 131.442 242.659 131.358 243.031 131.358C243.355 131.358 243.625 131.424 243.841 131.556C244.069 131.676 244.243 131.85 244.363 132.078C244.495 132.306 244.585 132.588 244.633 132.924H239.953V134.436ZM250.108 134.652H256.804V132.618H250.108V134.652ZM255.58 129.72V138H258.19V129.72H255.58ZM249.262 129.72V138H251.89V129.72H249.262ZM268.724 132.06L268.814 129.09L260.462 135.66L260.372 138.63L268.724 132.06ZM263 129.72H260.372V138.63L263 136.092V129.72ZM268.814 129.09L266.204 131.628V138H268.814V129.09ZM273.473 138L275.741 134.238H273.149L270.665 138H273.473ZM278.999 138V129.72H276.281V138H278.999ZM277.217 133.212H275.021C274.793 133.212 274.595 133.194 274.427 133.158C274.271 133.11 274.151 133.038 274.067 132.942C273.983 132.834 273.941 132.702 273.941 132.546C273.941 132.378 273.983 132.246 274.067 132.15C274.151 132.054 274.271 131.988 274.427 131.952C274.595 131.904 274.793 131.88 275.021 131.88H277.217V129.72H274.643C274.079 129.72 273.533 129.81 273.005 129.99C272.489 130.158 272.069 130.428 271.745 130.8C271.433 131.172 271.277 131.676 271.277 132.312C271.277 132.936 271.433 133.452 271.745 133.86C272.069 134.256 272.489 134.55 273.005 134.742C273.533 134.934 274.079 135.03 274.643 135.03H277.217V133.212Z" fill="black"/>
<path d="M45.0891 164.08V174H46.4491V162.8H37.5691V174H38.9291V164.08H45.0891ZM50.1266 177.52V166.64H48.8466V177.52H50.1266ZM56.2866 170.32C56.2866 169.52 56.1212 168.837 55.7906 168.272C55.4599 167.696 55.0172 167.253 54.4626 166.944C53.9186 166.635 53.3106 166.48 52.6386 166.48C52.0306 166.48 51.4919 166.635 51.0226 166.944C50.5639 167.253 50.2012 167.696 49.9346 168.272C49.6786 168.837 49.5506 169.52 49.5506 170.32C49.5506 171.109 49.6786 171.792 49.9346 172.368C50.2012 172.944 50.5639 173.387 51.0226 173.696C51.4919 174.005 52.0306 174.16 52.6386 174.16C53.3106 174.16 53.9186 174.005 54.4626 173.696C55.0172 173.387 55.4599 172.944 55.7906 172.368C56.1212 171.792 56.2866 171.109 56.2866 170.32ZM54.9906 170.32C54.9906 170.885 54.8732 171.365 54.6386 171.76C54.4146 172.155 54.1106 172.453 53.7266 172.656C53.3532 172.859 52.9372 172.96 52.4786 172.96C52.1052 172.96 51.7372 172.859 51.3746 172.656C51.0119 172.453 50.7132 172.155 50.4786 171.76C50.2439 171.365 50.1266 170.885 50.1266 170.32C50.1266 169.755 50.2439 169.275 50.4786 168.88C50.7132 168.485 51.0119 168.187 51.3746 167.984C51.7372 167.781 52.1052 167.68 52.4786 167.68C52.9372 167.68 53.3532 167.781 53.7266 167.984C54.1106 168.187 54.4146 168.485 54.6386 168.88C54.8732 169.275 54.9906 169.755 54.9906 170.32ZM64.2116 167.92L64.2916 166.08L58.2116 172.72L58.1316 174.56L64.2116 167.92ZM59.4116 166.64H58.1316V174.56L59.4116 172.8V166.64ZM64.2916 166.08L63.0116 167.84V174H64.2916V166.08ZM70.9272 170.32C70.9272 171.056 71.0925 171.717 71.4232 172.304C71.7645 172.88 72.2232 173.333 72.7992 173.664C73.3752 173.995 74.0205 174.16 74.7352 174.16C75.4605 174.16 76.1059 173.995 76.6712 173.664C77.2472 173.333 77.7005 172.88 78.0312 172.304C78.3725 171.717 78.5432 171.056 78.5432 170.32C78.5432 169.573 78.3725 168.912 78.0312 168.336C77.7005 167.76 77.2472 167.307 76.6712 166.976C76.1059 166.645 75.4605 166.48 74.7352 166.48C74.0205 166.48 73.3752 166.645 72.7992 166.976C72.2232 167.307 71.7645 167.76 71.4232 168.336C71.0925 168.912 70.9272 169.573 70.9272 170.32ZM72.2232 170.32C72.2232 169.808 72.3299 169.355 72.5432 168.96C72.7672 168.555 73.0659 168.24 73.4392 168.016C73.8232 167.792 74.2552 167.68 74.7352 167.68C75.2152 167.68 75.6419 167.792 76.0152 168.016C76.3992 168.24 76.6979 168.555 76.9112 168.96C77.1352 169.355 77.2472 169.808 77.2472 170.32C77.2472 170.832 77.1352 171.285 76.9112 171.68C76.6979 172.075 76.3992 172.389 76.0152 172.624C75.6419 172.848 75.2152 172.96 74.7352 172.96C74.2552 172.96 73.8232 172.848 73.4392 172.624C73.0659 172.389 72.7672 172.075 72.5432 171.68C72.3299 171.285 72.2232 170.832 72.2232 170.32ZM83.4696 167.68C83.9496 167.68 84.3762 167.792 84.7496 168.016C85.1336 168.24 85.4322 168.555 85.6456 168.96C85.8696 169.355 85.9816 169.808 85.9816 170.32C85.9816 170.832 85.8696 171.285 85.6456 171.68C85.4322 172.075 85.1336 172.389 84.7496 172.624C84.3762 172.848 83.9496 172.96 83.4696 172.96C82.9896 172.96 82.5576 172.848 82.1736 172.624C81.8002 172.389 81.5016 172.075 81.2776 171.68C81.0536 171.285 80.9416 170.832 80.9416 170.32L79.6616 169.36C79.6616 170.416 79.8269 171.301 80.1576 172.016C80.4989 172.731 80.9576 173.269 81.5336 173.632C82.1096 173.984 82.7549 174.16 83.4696 174.16C84.1949 174.16 84.8402 173.995 85.4056 173.664C85.9816 173.333 86.4349 172.88 86.7656 172.304C87.1069 171.717 87.2776 171.056 87.2776 170.32C87.2776 169.573 87.1069 168.912 86.7656 168.336C86.4349 167.76 85.9816 167.307 85.4056 166.976C84.8402 166.645 84.1949 166.48 83.4696 166.48V167.68ZM80.3656 170.32H80.9416C80.9416 169.893 81.0162 169.52 81.1656 169.2C81.3256 168.869 81.5282 168.592 81.7736 168.368C82.0296 168.144 82.3069 167.973 82.6056 167.856C82.9042 167.739 83.1922 167.68 83.4696 167.68V166.48C83.0109 166.48 82.5896 166.571 82.2056 166.752C81.8322 166.923 81.5069 167.173 81.2296 167.504C80.9522 167.835 80.7389 168.24 80.5896 168.72C80.4402 169.189 80.3656 169.723 80.3656 170.32ZM79.6616 169.36L80.7816 170.208V168.56C80.7816 168.027 80.8509 167.493 80.9896 166.96C81.1282 166.416 81.3789 165.931 81.7416 165.504C82.1149 165.077 82.6322 164.757 83.2936 164.544C83.8802 164.352 84.4029 164.112 84.8616 163.824C85.3309 163.536 85.7096 163.2 85.9976 162.816C86.2856 162.421 86.4562 161.989 86.5096 161.52H85.2456C85.1709 161.904 84.9522 162.272 84.5896 162.624C84.2376 162.965 83.6989 163.259 82.9736 163.504C82.1202 163.792 81.4482 164.208 80.9576 164.752C80.4776 165.285 80.1416 165.936 79.9496 166.704C79.7576 167.472 79.6616 168.357 79.6616 169.36ZM90.2359 177.52V166.64H88.9559V177.52H90.2359ZM96.3959 170.32C96.3959 169.52 96.2306 168.837 95.8999 168.272C95.5693 167.696 95.1266 167.253 94.5719 166.944C94.0279 166.635 93.4199 166.48 92.7479 166.48C92.1399 166.48 91.6013 166.635 91.1319 166.944C90.6733 167.253 90.3106 167.696 90.0439 168.272C89.7879 168.837 89.6599 169.52 89.6599 170.32C89.6599 171.109 89.7879 171.792 90.0439 172.368C90.3106 172.944 90.6733 173.387 91.1319 173.696C91.6013 174.005 92.1399 174.16 92.7479 174.16C93.4199 174.16 94.0279 174.005 94.5719 173.696C95.1266 173.387 95.5693 172.944 95.8999 172.368C96.2306 171.792 96.3959 171.109 96.3959 170.32ZM95.0999 170.32C95.0999 170.885 94.9826 171.365 94.7479 171.76C94.5239 172.155 94.2199 172.453 93.8359 172.656C93.4626 172.859 93.0466 172.96 92.5879 172.96C92.2146 172.96 91.8466 172.859 91.4839 172.656C91.1213 172.453 90.8226 172.155 90.5879 171.76C90.3533 171.365 90.2359 170.885 90.2359 170.32C90.2359 169.755 90.3533 169.275 90.5879 168.88C90.8226 168.485 91.1213 168.187 91.4839 167.984C91.8466 167.781 92.2146 167.68 92.5879 167.68C93.0466 167.68 93.4626 167.781 93.8359 167.984C94.2199 168.187 94.5239 168.485 94.7479 168.88C94.9826 169.275 95.0999 169.755 95.0999 170.32ZM98.7369 171.84C98.7369 171.541 98.8063 171.285 98.9449 171.072C99.0836 170.859 99.2916 170.693 99.5689 170.576C99.8569 170.459 100.214 170.4 100.641 170.4C101.11 170.4 101.532 170.464 101.905 170.592C102.278 170.709 102.646 170.896 103.009 171.152V170.4C102.934 170.304 102.796 170.181 102.593 170.032C102.39 169.872 102.118 169.733 101.777 169.616C101.446 169.488 101.046 169.424 100.577 169.424C99.9369 169.424 99.3823 169.525 98.9129 169.728C98.4436 169.92 98.0809 170.197 97.8249 170.56C97.5689 170.923 97.4409 171.365 97.4409 171.888C97.4409 172.389 97.5529 172.811 97.7769 173.152C98.0116 173.483 98.3209 173.733 98.7049 173.904C99.0889 174.075 99.5103 174.16 99.9689 174.16C100.481 174.16 100.945 174.075 101.361 173.904C101.777 173.723 102.108 173.467 102.353 173.136C102.609 172.795 102.737 172.389 102.737 171.92L102.481 171.12C102.481 171.579 102.385 171.947 102.193 172.224C102.012 172.501 101.756 172.704 101.425 172.832C101.094 172.96 100.716 173.024 100.289 173.024C100.001 173.024 99.7396 172.981 99.5049 172.896C99.2703 172.8 99.0836 172.667 98.9449 172.496C98.8063 172.315 98.7369 172.096 98.7369 171.84ZM98.7369 168.368C98.8543 168.283 99.0143 168.181 99.2169 168.064C99.4303 167.936 99.6809 167.829 99.9689 167.744C100.257 167.648 100.577 167.6 100.929 167.6C101.334 167.6 101.692 167.696 102.001 167.888C102.321 168.069 102.481 168.347 102.481 168.72V174H103.761V168.72C103.761 168.24 103.638 167.835 103.393 167.504C103.158 167.173 102.828 166.923 102.401 166.752C101.985 166.571 101.494 166.48 100.929 166.48C100.268 166.48 99.7023 166.581 99.2329 166.784C98.7636 166.987 98.3903 167.189 98.1129 167.392L98.7369 168.368ZM111.607 172.8V166.64H110.327V172.8H107.207V166.64H105.927V174H116.167V175.44H117.287V172.8H116.007V166.64H114.727V172.8H111.607ZM119.228 170.64H125.516C125.526 170.576 125.532 170.512 125.532 170.448C125.532 170.384 125.532 170.32 125.532 170.256C125.532 169.477 125.388 168.811 125.1 168.256C124.812 167.691 124.406 167.253 123.884 166.944C123.361 166.635 122.753 166.48 122.06 166.48C121.43 166.48 120.86 166.608 120.348 166.864C119.846 167.12 119.436 167.477 119.116 167.936C118.796 168.395 118.582 168.928 118.476 169.536C118.454 169.664 118.438 169.792 118.428 169.92C118.417 170.048 118.412 170.181 118.412 170.32C118.412 171.056 118.561 171.717 118.86 172.304C119.169 172.88 119.585 173.333 120.108 173.664C120.641 173.995 121.238 174.16 121.9 174.16C122.54 174.16 123.073 174.085 123.5 173.936C123.926 173.776 124.289 173.557 124.588 173.28C124.886 172.992 125.158 172.661 125.404 172.288L124.364 171.632C124.204 171.899 124.012 172.133 123.788 172.336C123.564 172.528 123.308 172.683 123.02 172.8C122.742 172.907 122.422 172.96 122.06 172.96C121.58 172.96 121.164 172.859 120.812 172.656C120.46 172.453 120.188 172.155 119.996 171.76C119.804 171.365 119.708 170.885 119.708 170.32L119.74 169.84C119.74 169.381 119.841 168.987 120.044 168.656C120.257 168.315 120.54 168.053 120.892 167.872C121.244 167.691 121.633 167.6 122.06 167.6C122.486 167.6 122.844 167.685 123.132 167.856C123.43 168.016 123.66 168.245 123.82 168.544C123.99 168.832 124.097 169.168 124.14 169.552H119.228V170.64ZM128.038 170.72H133.478V169.52H128.038V170.72ZM132.646 166.64V174H133.926V166.64H132.646ZM127.286 166.64V174H128.566V166.64H127.286ZM142.493 167.92L142.573 166.08L136.493 172.72L136.413 174.56L142.493 167.92ZM137.693 166.64H136.413V174.56L137.693 172.8V166.64ZM142.573 166.08L141.293 167.84V174H142.573V166.08ZM151.212 167.92L151.292 166.08L145.212 172.72L145.132 174.56L151.212 167.92ZM146.412 166.64H145.132V174.56L146.412 172.8V166.64ZM151.292 166.08L150.012 167.84V174H151.292V166.08ZM162.567 168.848L164.727 173.52H166.167L162.567 166.08L158.967 173.52H160.407L162.567 168.848ZM165.847 174V175.44H167.127V172.8H158.007V175.44H159.367V174H165.847ZM168.412 170.32C168.412 171.056 168.577 171.717 168.908 172.304C169.249 172.88 169.708 173.333 170.284 173.664C170.86 173.995 171.505 174.16 172.22 174.16C172.945 174.16 173.59 173.995 174.156 173.664C174.732 173.333 175.185 172.88 175.516 172.304C175.857 171.717 176.028 171.056 176.028 170.32C176.028 169.573 175.857 168.912 175.516 168.336C175.185 167.76 174.732 167.307 174.156 166.976C173.59 166.645 172.945 166.48 172.22 166.48C171.505 166.48 170.86 166.645 170.284 166.976C169.708 167.307 169.249 167.76 168.908 168.336C168.577 168.912 168.412 169.573 168.412 170.32ZM169.708 170.32C169.708 169.808 169.814 169.355 170.028 168.96C170.252 168.555 170.55 168.24 170.924 168.016C171.308 167.792 171.74 167.68 172.22 167.68C172.7 167.68 173.126 167.792 173.5 168.016C173.884 168.24 174.182 168.555 174.396 168.96C174.62 169.355 174.732 169.808 174.732 170.32C174.732 170.832 174.62 171.285 174.396 171.68C174.182 172.075 173.884 172.389 173.5 172.624C173.126 172.848 172.7 172.96 172.22 172.96C171.74 172.96 171.308 172.848 170.924 172.624C170.55 172.389 170.252 172.075 170.028 171.68C169.814 171.285 169.708 170.832 169.708 170.32ZM182.663 165.008L185.143 164.272V174H186.503V162.64L182.663 163.6V165.008ZM188.906 174H196.81V172.72H191.706L195.274 169.088C195.711 168.64 196.069 168.133 196.346 167.568C196.623 167.003 196.762 166.432 196.762 165.856C196.762 165.515 196.693 165.157 196.554 164.784C196.415 164.411 196.202 164.064 195.914 163.744C195.626 163.413 195.258 163.147 194.81 162.944C194.362 162.731 193.829 162.624 193.21 162.624C192.442 162.624 191.781 162.795 191.226 163.136C190.682 163.467 190.266 163.936 189.978 164.544C189.69 165.141 189.546 165.84 189.546 166.64H190.906C190.906 166.075 190.997 165.589 191.178 165.184C191.359 164.768 191.621 164.453 191.962 164.24C192.314 164.016 192.73 163.904 193.21 163.904C193.551 163.904 193.855 163.963 194.122 164.08C194.389 164.197 194.613 164.352 194.794 164.544C194.986 164.736 195.13 164.949 195.226 165.184C195.322 165.419 195.37 165.659 195.37 165.904C195.37 166.203 195.322 166.491 195.226 166.768C195.141 167.035 195.007 167.301 194.826 167.568C194.655 167.824 194.447 168.085 194.202 168.352L188.906 174ZM206.172 171.76H208.684V170.56H206.172V171.76ZM207.772 166.64V174H209.052V166.64H207.772ZM204.572 166.64H203.292V168.752C203.292 169.467 203.378 170.048 203.548 170.496C203.719 170.933 204.012 171.253 204.428 171.456C204.855 171.659 205.436 171.76 206.172 171.76V170.56C205.767 170.56 205.447 170.501 205.212 170.384C204.978 170.256 204.812 170.059 204.716 169.792C204.62 169.525 204.572 169.179 204.572 168.752V166.64ZM212.034 171.84C212.034 171.541 212.103 171.285 212.242 171.072C212.38 170.859 212.588 170.693 212.866 170.576C213.154 170.459 213.511 170.4 213.938 170.4C214.407 170.4 214.828 170.464 215.202 170.592C215.575 170.709 215.943 170.896 216.306 171.152V170.4C216.231 170.304 216.092 170.181 215.89 170.032C215.687 169.872 215.415 169.733 215.074 169.616C214.743 169.488 214.343 169.424 213.874 169.424C213.234 169.424 212.679 169.525 212.21 169.728C211.74 169.92 211.378 170.197 211.122 170.56C210.866 170.923 210.738 171.365 210.738 171.888C210.738 172.389 210.85 172.811 211.074 173.152C211.308 173.483 211.618 173.733 212.002 173.904C212.386 174.075 212.807 174.16 213.266 174.16C213.778 174.16 214.242 174.075 214.658 173.904C215.074 173.723 215.404 173.467 215.65 173.136C215.906 172.795 216.034 172.389 216.034 171.92L215.778 171.12C215.778 171.579 215.682 171.947 215.49 172.224C215.308 172.501 215.052 172.704 214.722 172.832C214.391 172.96 214.012 173.024 213.586 173.024C213.298 173.024 213.036 172.981 212.802 172.896C212.567 172.8 212.38 172.667 212.242 172.496C212.103 172.315 212.034 172.096 212.034 171.84ZM212.034 168.368C212.151 168.283 212.311 168.181 212.514 168.064C212.727 167.936 212.978 167.829 213.266 167.744C213.554 167.648 213.874 167.6 214.226 167.6C214.631 167.6 214.988 167.696 215.298 167.888C215.618 168.069 215.778 168.347 215.778 168.72V174H217.058V168.72C217.058 168.24 216.935 167.835 216.69 167.504C216.455 167.173 216.124 166.923 215.698 166.752C215.282 166.571 214.791 166.48 214.226 166.48C213.564 166.48 212.999 166.581 212.53 166.784C212.06 166.987 211.687 167.189 211.41 167.392L212.034 168.368ZM219.799 170.32C219.799 169.808 219.906 169.355 220.119 168.96C220.343 168.555 220.642 168.24 221.015 168.016C221.399 167.792 221.831 167.68 222.311 167.68C222.706 167.68 223.074 167.744 223.415 167.872C223.767 167.989 224.071 168.149 224.327 168.352C224.583 168.555 224.765 168.779 224.871 169.024V167.424C224.615 167.125 224.247 166.896 223.767 166.736C223.298 166.565 222.813 166.48 222.311 166.48C221.597 166.48 220.951 166.645 220.375 166.976C219.799 167.307 219.341 167.76 218.999 168.336C218.669 168.912 218.503 169.573 218.503 170.32C218.503 171.056 218.669 171.717 218.999 172.304C219.341 172.88 219.799 173.333 220.375 173.664C220.951 173.995 221.597 174.16 222.311 174.16C222.813 174.16 223.298 174.08 223.767 173.92C224.247 173.749 224.615 173.515 224.871 173.216V171.616C224.765 171.851 224.583 172.075 224.327 172.288C224.071 172.491 223.767 172.656 223.415 172.784C223.074 172.901 222.706 172.96 222.311 172.96C221.831 172.96 221.399 172.848 221.015 172.624C220.642 172.389 220.343 172.075 220.119 171.68C219.906 171.285 219.799 170.832 219.799 170.32ZM226.224 170.32C226.224 171.056 226.389 171.717 226.72 172.304C227.061 172.88 227.52 173.333 228.096 173.664C228.672 173.995 229.317 174.16 230.032 174.16C230.757 174.16 231.403 173.995 231.968 173.664C232.544 173.333 232.997 172.88 233.328 172.304C233.669 171.717 233.84 171.056 233.84 170.32C233.84 169.573 233.669 168.912 233.328 168.336C232.997 167.76 232.544 167.307 231.968 166.976C231.403 166.645 230.757 166.48 230.032 166.48C229.317 166.48 228.672 166.645 228.096 166.976C227.52 167.307 227.061 167.76 226.72 168.336C226.389 168.912 226.224 169.573 226.224 170.32ZM227.52 170.32C227.52 169.808 227.627 169.355 227.84 168.96C228.064 168.555 228.363 168.24 228.736 168.016C229.12 167.792 229.552 167.68 230.032 167.68C230.512 167.68 230.939 167.792 231.312 168.016C231.696 168.24 231.995 168.555 232.208 168.96C232.432 169.355 232.544 169.808 232.544 170.32C232.544 170.832 232.432 171.285 232.208 171.68C231.995 172.075 231.696 172.389 231.312 172.624C230.939 172.848 230.512 172.96 230.032 172.96C229.552 172.96 229.12 172.848 228.736 172.624C228.363 172.389 228.064 172.075 227.84 171.68C227.627 171.285 227.52 170.832 227.52 170.32ZM236.35 170.16V170.832H238.478C238.724 170.832 238.932 170.859 239.102 170.912C239.284 170.955 239.428 171.024 239.534 171.12C239.652 171.216 239.737 171.323 239.79 171.44C239.854 171.557 239.886 171.691 239.886 171.84C239.886 172.128 239.769 172.373 239.534 172.576C239.31 172.779 238.958 172.88 238.478 172.88H236.35V174H238.798C239.641 174 240.244 173.808 240.606 173.424C240.98 173.029 241.166 172.555 241.166 172C241.166 171.52 241.049 171.147 240.814 170.88C240.58 170.613 240.26 170.427 239.854 170.32C239.449 170.213 238.99 170.16 238.478 170.16H236.35ZM236.35 170.48H238.318C238.777 170.48 239.193 170.416 239.566 170.288C239.95 170.149 240.26 169.947 240.494 169.68C240.729 169.403 240.846 169.056 240.846 168.64C240.846 168.16 240.729 167.776 240.494 167.488C240.26 167.189 239.95 166.976 239.566 166.848C239.193 166.709 238.777 166.64 238.318 166.64H236.35V167.76H238.318C238.702 167.76 239.006 167.851 239.23 168.032C239.454 168.203 239.566 168.432 239.566 168.72C239.566 168.859 239.534 168.992 239.47 169.12C239.417 169.237 239.337 169.344 239.23 169.44C239.124 169.536 238.99 169.611 238.83 169.664C238.681 169.707 238.51 169.728 238.318 169.728H236.35V170.48ZM235.598 166.64V174H236.878V166.64H235.598ZM251.645 168.848L253.805 173.52H255.245L251.645 166.08L248.045 173.52H249.485L251.645 168.848ZM254.925 174V175.44H256.205V172.8H247.085V175.44H248.445V174H254.925ZM258.882 170.72H264.322V169.52H258.882V170.72ZM263.49 166.64V174H264.77V166.64H263.49ZM258.13 166.64V174H259.41V166.64H258.13ZM268.233 174L270.953 170.16H269.545L266.825 174H268.233ZM272.905 174V166.64H271.625V174H272.905ZM272.153 169.936H269.865C269.555 169.936 269.294 169.899 269.081 169.824C268.878 169.739 268.723 169.616 268.617 169.456C268.51 169.296 268.457 169.093 268.457 168.848C268.457 168.603 268.51 168.4 268.617 168.24C268.723 168.08 268.878 167.963 269.081 167.888C269.294 167.803 269.555 167.76 269.865 167.76H272.153V166.64H269.865C269.363 166.64 268.905 166.715 268.489 166.864C268.083 167.013 267.763 167.248 267.529 167.568C267.294 167.888 267.177 168.315 267.177 168.848C267.177 169.371 267.294 169.797 267.529 170.128C267.763 170.448 268.083 170.683 268.489 170.832C268.905 170.981 269.363 171.056 269.865 171.056H272.153V169.936Z" fill="black"/>
<path d="M198.652 25.9771L185.624 11.0442C184.576 9.95541 183.228 9.33308 181.88 9.33308H166.905V6.0665C166.905 2.64443 164.359 0 161.215 0H115.84C112.546 0.000182287 110 2.64443 110 6.06668V43.5545V46.6656V59.8874C110 62.8428 112.396 65.3317 115.241 65.3317H117.593C118.309 70.6463 122.639 74.6648 127.97 74.6648C133.301 74.6648 137.632 70.6463 138.347 65.3317H163.91H166.905H171.504C172.219 70.6463 176.549 74.6648 181.88 74.6648C187.211 74.6648 191.542 70.6463 192.257 65.3317H199.85H200V29.5549C200 28.1549 199.551 26.9104 198.652 25.9771ZM196.256 27.9994C196.706 28.3106 196.855 28.9327 196.855 29.3994V34.2214H174.393V18.6663H188.02L196.256 27.9994ZM112.995 32.666H133.96C134.859 32.666 135.458 32.0438 135.458 31.1105C135.458 30.1772 134.859 29.5551 133.96 29.5551H112.995V24.8885H127.97C128.869 24.8885 129.468 24.2664 129.468 23.3331C129.468 22.3998 128.869 21.7776 127.97 21.7776H112.995V6.06668C112.995 4.35556 114.193 3.11127 115.84 3.11127H161.065C162.712 3.11127 163.91 4.51123 163.91 6.06668V9.33326V43.5545H112.995V32.666ZM127.97 71.5537C123.777 71.5537 120.482 68.1317 120.482 63.7761C120.482 59.4207 123.777 55.9985 127.97 55.9985C132.163 55.9985 135.458 59.4205 135.458 63.7761C135.458 68.1317 132.163 71.5537 127.97 71.5537ZM163.91 62.2206H138.347C137.676 57.2371 133.826 53.3951 128.953 52.9357C128.918 52.9322 128.882 52.9304 128.846 52.9273C128.723 52.9171 128.601 52.9065 128.477 52.9005C128.309 52.8921 128.14 52.8874 127.97 52.8874C127.8 52.8874 127.631 52.8921 127.463 52.9005C127.34 52.9065 127.217 52.9169 127.094 52.9273C127.059 52.9304 127.022 52.9322 126.987 52.9357C122.114 53.3951 118.264 57.2371 117.593 62.2206H115.241C114.043 62.2206 112.995 61.1318 112.995 59.8874V46.6656H163.91V62.2206ZM181.88 71.5537C177.687 71.5537 174.393 68.1317 174.393 63.7761C174.393 59.4207 177.687 55.9985 181.88 55.9985C186.073 55.9985 189.368 59.4205 189.368 63.7761C189.368 68.1317 186.073 71.5537 181.88 71.5537ZM192.257 62.2206C191.587 57.2371 187.736 53.3951 182.864 52.9357C182.828 52.9322 182.792 52.9304 182.756 52.9273C182.633 52.9171 182.511 52.9065 182.387 52.9005C182.219 52.8921 182.05 52.8874 181.88 52.8874C181.71 52.8874 181.542 52.8921 181.374 52.9005C181.25 52.9065 181.127 52.9169 181.005 52.9273C180.969 52.9304 180.933 52.9322 180.897 52.9357C176.024 53.3951 172.174 57.2371 171.503 62.2206H166.905V46.6656V43.5545V12.4442H181.88C182.329 12.4442 182.928 12.7553 183.378 13.0663L185.524 15.5551H173.943C172.596 15.5551 171.398 16.7995 171.398 18.1995V34.6879C171.398 36.0878 172.596 37.3323 173.943 37.3323H196.855V45.1099H189.368C188.469 45.1099 187.87 45.7321 187.87 46.6654C187.87 47.5987 188.469 48.2208 189.368 48.2208H196.855V62.2205H192.257V62.2206Z" fill="black"/>
<path d="M127.972 60.6653C126.324 60.6653 124.977 62.0652 124.977 63.7764C124.977 65.4875 126.324 66.8875 127.972 66.8875C129.619 66.8875 130.967 65.4875 130.967 63.7764C130.967 62.0652 129.619 60.6653 127.972 60.6653Z" fill="black"/>
<path d="M181.881 60.6653C180.233 60.6653 178.886 62.0652 178.886 63.7764C178.886 65.4875 180.233 66.8875 181.881 66.8875C183.528 66.8875 184.876 65.4875 184.876 63.7764C184.876 62.0652 183.528 60.6653 181.881 60.6653Z" fill="black"/>
<g filter="url(#filter0_f_411_47)">
<path d="M30 237H270V240H30V237Z" fill="#F9A825"/>
</g>
</g>
<defs>
<filter id="filter0_f_411_47" x="29" y="236" width="242" height="5" filterUnits="userSpaceOnUse" color-interpolation-filters="sRGB">
<feFlood flood-opacity="0" result="BackgroundImageFix"/>
<feBlend mode="normal" in="SourceGraphic" in2="BackgroundImageFix" result="shape"/>
<feGaussianBlur stdDeviation="0.5" result="effect1_foregroundBlur_411_47"/>
</filter>
<clipPath id="clip0_411_47">
<rect width="310" height="297" fill="white"/>
</clipPath>
</defs>
</svg>
