<svg width="60" height="60" viewBox="0 0 60 60" fill="none" xmlns="http://www.w3.org/2000/svg">
<path d="M42.4894 12.6997C42.4357 12.6997 42.382 12.6997 42.3282 12.6795L15.7571 2.93226L15.6854 3.17492L15.5601 2.95248L2.36405 12.2548C2.23871 12.3357 2.09547 12.3761 1.95223 12.3357C1.80899 12.2952 1.70156 12.1941 1.61204 12.0728C1.54042 11.9312 1.50461 11.7695 1.54042 11.6077C1.57623 11.4459 1.66575 11.3246 1.79109 11.2437L15.1483 1.82002C15.2378 1.75935 15.3273 1.73913 15.4169 1.71891L15.5064 1.43579L15.6496 1.69869C15.7392 1.67846 15.8287 1.67846 15.9361 1.71891L42.6684 11.5268C42.8117 11.5672 42.9191 11.6886 42.9728 11.8301C43.0444 11.9717 43.0444 12.1335 43.0086 12.2952C42.937 12.5379 42.7222 12.6997 42.4894 12.6997V12.6997Z" fill="#FF8A00"/>
<path d="M49.9554 17.3913C50.0628 17.3913 50.1345 17.4722 50.1345 17.5935V26.8959C50.1345 27.0172 50.0628 27.0981 49.9554 27.0981C49.848 27.0981 49.7764 27.0172 49.7764 26.8959V17.5935C49.7764 17.4722 49.848 17.3913 49.9554 17.3913Z" fill="url(#paint0_linear_466_344)"/>
<path d="M49.9551 27.5025C49.6507 27.5025 49.418 27.2396 49.418 26.8959V17.5935C49.418 17.2498 49.6507 16.9869 49.9551 16.9869C50.2595 16.9869 50.4923 17.2498 50.4923 17.5935V26.8959C50.4923 27.2396 50.2595 27.5025 49.9551 27.5025Z" fill="url(#paint1_linear_466_344)"/>
<path d="M15.452 23.7816L13.4287 21.4965L15.452 19.2113L17.4753 21.4965L15.452 23.7816ZM14.4493 21.4965L15.4699 22.6491L16.4905 21.4965L15.4699 20.3438L14.4493 21.4965V21.4965Z" fill="#F9A825"/>
<path d="M15.452 27.2194L13.4287 24.9343L15.452 22.6491L17.4753 24.9343L15.452 27.2194ZM14.4493 24.9343L15.4699 26.087L16.4905 24.9343L15.4699 23.7816L14.4493 24.9343V24.9343Z" fill="#F9A825"/>
<path d="M15.5775 0.404449C15.9714 0.404449 16.2937 0.768453 16.2937 1.21335C16.2937 1.65824 15.9714 2.02224 15.5775 2.02224C15.1836 2.02224 14.8613 1.65824 14.8613 1.21335C14.8613 0.768453 15.1836 0.404449 15.5775 0.404449Z" fill="#FF8A00"/>
<path d="M15.5772 2.42669C14.9864 2.42669 14.5029 1.88069 14.5029 1.21335C14.5029 0.546006 14.9864 0 15.5772 0C16.1681 0 16.6515 0.546006 16.6515 1.21335C16.6515 1.88069 16.1681 2.42669 15.5772 2.42669ZM15.5772 0.808898C15.3803 0.808898 15.2191 0.9909 15.2191 1.21335C15.2191 1.43579 15.3803 1.6178 15.5772 1.6178C15.7742 1.6178 15.9353 1.43579 15.9353 1.21335C15.9353 0.9909 15.7742 0.808898 15.5772 0.808898Z" fill="#FF8A00"/>
<path d="M15.5773 2.02224L17.7259 14.7624H13.4287L15.5773 2.02224Z" fill="#F9A825"/>
<path d="M18.1557 15.1668H12.999L15.2193 1.94135H15.9355L18.1557 15.1668ZM13.8585 14.3579H17.2962L15.5774 4.18605L13.8585 14.3579Z" fill="#FF8A00"/>
<path d="M13.7873 28.9181C13.3934 28.9181 13.0711 28.5541 13.0711 28.1092V20.0202H12.3549C11.961 20.0202 11.6387 19.6562 11.6387 19.2113C11.6387 18.7664 11.961 18.4024 12.3549 18.4024H13.0711V17.5935H12.3549C11.961 17.5935 11.6387 17.2295 11.6387 16.7846C11.6387 16.3397 11.961 15.9757 12.3549 15.9757H13.0711V14.3579C13.0711 13.913 13.3934 13.549 13.7873 13.549C14.1812 13.549 14.5035 13.913 14.5035 14.3579V15.9757H16.6521V14.3579C16.6521 13.913 16.9744 13.549 17.3683 13.549C17.7622 13.549 18.0845 13.913 18.0845 14.3579V15.9757H18.8007C19.1946 15.9757 19.5169 16.3397 19.5169 16.7846C19.5169 17.2295 19.1946 17.5935 18.8007 17.5935H18.0845V18.4024H18.8007C19.1946 18.4024 19.5169 18.7664 19.5169 19.2113C19.5169 19.6562 19.1946 20.0202 18.8007 20.0202H18.0845V26.4914C18.0845 26.9363 17.7622 27.3003 17.3683 27.3003C16.9744 27.3003 16.6521 26.9363 16.6521 26.4914V20.0202H14.5035V28.1092C14.5035 28.5541 14.1812 28.9181 13.7873 28.9181ZM13.7873 19.2113V28.1092V19.2113ZM13.7873 19.2113H17.3683V26.4914V16.7846V19.2113H13.7873ZM12.3549 19.2113H13.7873H12.3549ZM14.5035 18.4024H16.6521V17.5935H14.5035V18.4024ZM12.3549 16.7846H13.7873H12.3549Z" fill="url(#paint2_linear_466_344)"/>
<path d="M57.2963 15.1668H3.58102C3.18711 15.1668 2.86482 14.8028 2.86482 14.3579C2.86482 13.913 3.18711 13.549 3.58102 13.549H57.2963C57.6902 13.549 58.0125 13.913 58.0125 14.3579C58.0125 14.8028 57.6902 15.1668 57.2963 15.1668ZM54.4315 12.7401H0.716204C0.322292 12.7401 0 12.3761 0 11.9312C0 11.4863 0.322292 11.1223 0.716204 11.1223H54.4315C54.8254 11.1223 55.1477 11.4863 55.1477 11.9312C55.1477 12.3761 54.8254 12.7401 54.4315 12.7401Z" fill="#F9A825"/>
<path d="M47.2699 15.5713H52.6414C52.7488 15.5713 52.8205 15.6522 52.8205 15.7735C52.8205 15.8948 52.7488 15.9757 52.6414 15.9757H47.2699C47.1624 15.9757 47.0908 15.8948 47.0908 15.7735C47.0908 15.6522 47.1624 15.5713 47.2699 15.5713ZM47.9861 16.3802H51.9252C52.0326 16.3802 52.1042 16.4611 52.1042 16.5824C52.1042 16.7037 52.0326 16.7846 51.9252 16.7846H47.9861C47.8786 16.7846 47.807 16.7037 47.807 16.5824C47.807 16.4611 47.8786 16.3802 47.9861 16.3802ZM48.7023 17.1891H51.209C51.3164 17.1891 51.388 17.27 51.388 17.3913C51.388 17.5126 51.3164 17.5935 51.209 17.5935H48.7023C48.5948 17.5935 48.5232 17.5126 48.5232 17.3913C48.5232 17.27 48.5948 17.1891 48.7023 17.1891Z" fill="#EBEBEB"/>
<path d="M51.2087 17.998H48.702C48.3976 17.998 48.1648 17.7351 48.1648 17.3913C48.1648 17.3104 48.1827 17.2497 48.2006 17.1891H47.9858C47.6814 17.1891 47.4486 16.9262 47.4486 16.5824C47.4486 16.5015 47.4665 16.4408 47.4844 16.3802H47.2696C46.9652 16.3802 46.7324 16.1173 46.7324 15.7735C46.7324 15.4297 46.9652 15.1668 47.2696 15.1668H52.6411C52.9455 15.1668 53.1783 15.4297 53.1783 15.7735C53.1783 16.1173 52.9455 16.3802 52.6411 16.3802H52.4262C52.4441 16.4408 52.4621 16.5015 52.4621 16.5824C52.4621 16.9262 52.2293 17.1891 51.9249 17.1891H51.71C51.7279 17.2497 51.7459 17.3104 51.7459 17.3913C51.7459 17.7351 51.5131 17.998 51.2087 17.998Z" fill="#F9A825"/>
<path d="M22.0234 38.2204H29.1855V47.9272H22.0234V38.2204Z" fill="#F9A825"/>
<path d="M32.0498 38.2204H39.2118V47.9272H32.0498V38.2204Z" fill="#F9A825"/>
<path d="M55.1502 34.8412H48.3105C48.1135 34.8412 47.9345 34.9221 47.8091 35.0839C47.6838 35.2254 47.5943 35.4277 47.5943 35.6501V46.9747C47.5943 47.4196 47.9166 47.7836 48.3105 47.7836C48.7044 47.7836 49.0267 47.4196 49.0267 46.9747V36.459H59.0535C59.1968 36.459 59.3221 36.3781 59.3758 36.2366C59.4832 36.0343 59.4116 35.7714 59.2326 35.6501L30.4054 17.0455L1.56024 35.6501C1.4349 35.731 1.36328 35.8726 1.36328 36.0141C1.36328 36.2568 1.54233 36.4388 1.73929 36.4388H11.7841V46.9545C11.7841 47.3993 12.1063 47.7634 12.5003 47.7634C12.8942 47.7634 13.2165 47.3993 13.2165 46.9545V35.6299C13.2165 35.4074 13.1448 35.2052 13.0016 35.0637C12.8763 34.9221 12.6972 34.821 12.5003 34.821H5.66051L30.4054 18.6632L55.1502 34.8412Z" fill="#F9A825"/>
<mask id="mask0_466_344" style="mask-type:alpha" maskUnits="userSpaceOnUse" x="1" y="22" width="22" height="26">
<path d="M1.61133 22.0425H22.0231V47.9272H1.61133V22.0425Z" fill="white"/>
</mask>
<g mask="url(#mask0_466_344)">
<path d="M55.1323 35.523H48.2926C48.0956 35.523 47.9166 35.6039 47.7912 35.7657C47.6659 35.9073 47.5764 36.1095 47.5764 36.3319V47.6565C47.5764 48.1014 47.8987 48.4654 48.2926 48.4654C48.6865 48.4654 49.0088 48.1014 49.0088 47.6565V37.1408H59.0356C59.1789 37.1408 59.3042 37.0599 59.3579 36.9184C59.4654 36.7162 59.3937 36.4533 59.2147 36.3319L30.3875 17.7273L1.56024 36.3319C1.4349 36.4128 1.36328 36.5544 1.36328 36.6959C1.36328 36.9386 1.54233 37.1206 1.73929 37.1206H11.7661V47.6363C11.7661 48.0812 12.0884 48.4452 12.4824 48.4452C12.8763 48.4452 13.1986 48.0812 13.1986 47.6363V36.3117C13.1986 36.0893 13.1269 35.887 12.9837 35.7455C12.8584 35.6039 12.6793 35.5028 12.4824 35.5028H5.6426L30.3875 19.3248L55.1323 35.523Z" fill="#FF8A00"/>
</g>
<defs>
<linearGradient id="paint0_linear_466_344" x1="49.9554" y1="17.3913" x2="49.9554" y2="27.0981" gradientUnits="userSpaceOnUse">
<stop stop-color="#F9A825"/>
<stop offset="0.0001" stop-color="white" stop-opacity="0.236364"/>
<stop offset="0.286458" stop-color="#F9A825"/>
</linearGradient>
<linearGradient id="paint1_linear_466_344" x1="49.9551" y1="16.9869" x2="49.9551" y2="27.5025" gradientUnits="userSpaceOnUse">
<stop stop-color="#F9A825"/>
<stop offset="0.0001" stop-color="white" stop-opacity="0.236364"/>
<stop offset="0.286458" stop-color="#F9A825"/>
</linearGradient>
<linearGradient id="paint2_linear_466_344" x1="15.5778" y1="13.549" x2="15.5778" y2="28.9181" gradientUnits="userSpaceOnUse">
<stop stop-color="#F9A825"/>
<stop offset="0.270833" stop-color="#F9A825"/>
</linearGradient>
</defs>
</svg>
