<svg width="95" height="88" viewBox="0 0 95 88" fill="none" xmlns="http://www.w3.org/2000/svg">
<path d="M69.3174 18.6262C69.2386 18.6262 69.1598 18.6262 69.081 18.5966L30.11 4.30064L30.0049 4.65656L29.8211 4.3303L10.4669 17.9737C10.2831 18.0924 10.073 18.1517 9.86288 18.0924C9.6528 18.033 9.49523 17.8847 9.36393 17.7068C9.25889 17.4992 9.20636 17.2619 9.25889 17.0246C9.31141 16.7873 9.44271 16.6094 9.62654 16.4907L29.2171 2.66936C29.3484 2.58038 29.4797 2.55073 29.611 2.52107L29.7423 2.10583L29.9524 2.49141C30.0837 2.46175 30.215 2.46175 30.3726 2.52107L69.58 16.906C69.7901 16.9653 69.9476 17.1432 70.0264 17.3509C70.1315 17.5585 70.1315 17.7958 70.0789 18.033C69.9739 18.3889 69.6588 18.6262 69.3174 18.6262Z" fill="#8E8E8E"/>
<path d="M80.2675 25.5072C80.4251 25.5072 80.5301 25.6259 80.5301 25.8038V39.4473C80.5301 39.6252 80.4251 39.7438 80.2675 39.7438C80.1099 39.7438 80.0049 39.6252 80.0049 39.4473V25.8038C80.0049 25.6259 80.1099 25.5072 80.2675 25.5072Z" fill="url(#paint0_linear_407_220)"/>
<path d="M80.2673 40.337C79.8209 40.337 79.4795 39.9515 79.4795 39.4473V25.8038C79.4795 25.2996 79.8209 24.9141 80.2673 24.9141C80.7138 24.9141 81.0551 25.2996 81.0551 25.8038V39.4473C81.0551 39.9515 80.7138 40.337 80.2673 40.337Z" fill="url(#paint1_linear_407_220)"/>
<path d="M29.6628 34.8797L26.6953 31.5281L29.6628 28.1766L32.6303 31.5281L29.6628 34.8797ZM28.1922 31.5281L29.689 33.2187L31.1859 31.5281L29.689 29.8375L28.1922 31.5281Z" fill="white"/>
<path d="M29.6628 39.9218L26.6953 36.5703L29.6628 33.2187L32.6303 36.5703L29.6628 39.9218ZM28.1922 36.5703L29.689 38.2609L31.1859 36.5703L29.689 34.8797L28.1922 36.5703Z" fill="white"/>
<path d="M29.8473 0.593192C30.425 0.593192 30.8977 1.12706 30.8977 1.77958C30.8977 2.43209 30.425 2.96596 29.8473 2.96596C29.2696 2.96596 28.7969 2.43209 28.7969 1.77958C28.7969 1.12706 29.2696 0.593192 29.8473 0.593192Z" fill="#8E8E8E"/>
<path d="M29.8471 3.55915C28.9805 3.55915 28.2715 2.75834 28.2715 1.77958C28.2715 0.800809 28.9805 0 29.8471 0C30.7137 0 31.4228 0.800809 31.4228 1.77958C31.4228 2.75834 30.7137 3.55915 29.8471 3.55915ZM29.8471 1.18638C29.5583 1.18638 29.3219 1.45332 29.3219 1.77958C29.3219 2.10583 29.5583 2.37277 29.8471 2.37277C30.136 2.37277 30.3723 2.10583 30.3723 1.77958C30.3723 1.45332 30.136 1.18638 29.8471 1.18638Z" fill="#8E8E8E"/>
<path d="M29.8466 2.96596L32.9979 21.6515H26.6953L29.8466 2.96596Z" fill="#D9D9D9"/>
<path d="M33.6285 22.2447H26.0654L29.3218 2.84732H30.3722L33.6285 22.2447ZM27.3259 21.0583H32.368L29.847 6.13954L27.3259 21.0583Z" fill="#8E8E8E"/>
<path d="M27.2206 42.4132C26.6429 42.4132 26.1702 41.8793 26.1702 41.2268V29.363H25.1198C24.542 29.363 24.0693 28.8291 24.0693 28.1766C24.0693 27.5241 24.542 26.9902 25.1198 26.9902H26.1702V25.8038H25.1198C24.542 25.8038 24.0693 25.27 24.0693 24.6175C24.0693 23.9649 24.542 23.4311 25.1198 23.4311H26.1702V21.0583C26.1702 20.4058 26.6429 19.8719 27.2206 19.8719C27.7984 19.8719 28.2711 20.4058 28.2711 21.0583V23.4311H31.4224V21.0583C31.4224 20.4058 31.8951 19.8719 32.4728 19.8719C33.0505 19.8719 33.5232 20.4058 33.5232 21.0583V23.4311H34.5737C35.1514 23.4311 35.6241 23.9649 35.6241 24.6175C35.6241 25.27 35.1514 25.8038 34.5737 25.8038H33.5232V26.9902H34.5737C35.1514 26.9902 35.6241 27.5241 35.6241 28.1766C35.6241 28.8291 35.1514 29.363 34.5737 29.363H33.5232V38.8541C33.5232 39.5066 33.0505 40.0404 32.4728 40.0404C31.8951 40.0404 31.4224 39.5066 31.4224 38.8541V29.363H28.2711V41.2268C28.2711 41.8793 27.7984 42.4132 27.2206 42.4132ZM27.2206 28.1766V41.2268V28.1766ZM27.2206 28.1766H32.4728V38.8541V24.6175V28.1766H27.2206ZM25.1198 28.1766H27.2206H25.1198ZM28.2711 26.9902H31.4224V25.8038H28.2711V26.9902ZM25.1198 24.6175H27.2206H25.1198Z" fill="url(#paint2_linear_407_220)"/>
<path d="M91.0346 22.2447H12.2522C11.6744 22.2447 11.2017 21.7108 11.2017 21.0583C11.2017 20.4058 11.6744 19.8719 12.2522 19.8719H91.0346C91.6124 19.8719 92.0851 20.4058 92.0851 21.0583C92.0851 21.7108 91.6124 22.2447 91.0346 22.2447ZM86.8329 18.6855H8.05043C7.47269 18.6855 7 18.1517 7 17.4992C7 16.8466 7.47269 16.3128 8.05043 16.3128H86.8329C87.4106 16.3128 87.8833 16.8466 87.8833 17.4992C87.8833 18.1517 87.4106 18.6855 86.8329 18.6855Z" fill="#D9D9D9"/>
<path d="M76.329 22.8379H84.2073C84.3648 22.8379 84.4699 22.9565 84.4699 23.1345C84.4699 23.3124 84.3648 23.4311 84.2073 23.4311H76.329C76.1714 23.4311 76.0664 23.3124 76.0664 23.1345C76.0664 22.9565 76.1714 22.8379 76.329 22.8379ZM77.3794 24.0243H83.1568C83.3144 24.0243 83.4194 24.1429 83.4194 24.3209C83.4194 24.4988 83.3144 24.6175 83.1568 24.6175H77.3794C77.2219 24.6175 77.1168 24.4988 77.1168 24.3209C77.1168 24.1429 77.2219 24.0243 77.3794 24.0243ZM78.4299 25.2106H82.1064C82.264 25.2106 82.369 25.3293 82.369 25.5072C82.369 25.6852 82.264 25.8038 82.1064 25.8038H78.4299C78.2723 25.8038 78.1673 25.6852 78.1673 25.5072C78.1673 25.3293 78.2723 25.2106 78.4299 25.2106Z" fill="#EBEBEB"/>
<path d="M82.1062 26.397H78.4297C77.9833 26.397 77.6419 26.0115 77.6419 25.5072C77.6419 25.3886 77.6681 25.2996 77.6944 25.2106H77.3793C76.9328 25.2106 76.5914 24.8251 76.5914 24.3209C76.5914 24.2022 76.6177 24.1132 76.644 24.0243H76.3288C75.8824 24.0243 75.541 23.6387 75.541 23.1345C75.541 22.6303 75.8824 22.2447 76.3288 22.2447H84.2071C84.6535 22.2447 84.9949 22.6303 84.9949 23.1345C84.9949 23.6387 84.6535 24.0243 84.2071 24.0243H83.892C83.9182 24.1132 83.9445 24.2022 83.9445 24.3209C83.9445 24.8251 83.6031 25.2106 83.1567 25.2106H82.8415C82.8678 25.2996 82.894 25.3886 82.894 25.5072C82.894 26.0115 82.5527 26.397 82.1062 26.397Z" fill="#EBEBEB"/>
<path d="M39.3008 56.0566H49.8051V70.2932H39.3008V56.0566Z" fill="white"/>
<path d="M54.0068 56.0566H64.5112V70.2932H54.0068V56.0566Z" fill="white"/>
<path d="M87.8875 51.1004H77.8559C77.567 51.1004 77.3044 51.2191 77.1206 51.4564C76.9367 51.664 76.8054 51.9606 76.8054 52.2868V68.8962C76.8054 69.5487 77.2781 70.0826 77.8559 70.0826C78.4336 70.0826 78.9063 69.5487 78.9063 68.8962V53.4732H93.6124C93.8224 53.4732 94.0063 53.3546 94.0851 53.147C94.2426 52.8504 94.1376 52.4648 93.875 52.2868L51.5951 25L9.28887 52.2868C9.10504 52.4055 9 52.6131 9 52.8207C9 53.1766 9.26261 53.4435 9.55148 53.4435H24.2838V68.8665C24.2838 69.519 24.7565 70.0529 25.3342 70.0529C25.912 70.0529 26.3847 69.519 26.3847 68.8665V52.2572C26.3847 51.9309 26.2796 51.6343 26.0695 51.4267C25.8857 51.2191 25.6231 51.0708 25.3342 51.0708H15.3026L51.5951 27.3728L87.8875 51.1004Z" fill="white"/>
<mask id="mask0_407_220" style="mask-type:alpha" maskUnits="userSpaceOnUse" x="9" y="32" width="31" height="39">
<path d="M9.36328 32.329H39.3006V70.2932H9.36328V32.329Z" fill="white"/>
</mask>
<g mask="url(#mask0_407_220)">
<path d="M87.8613 52.1004H77.8296C77.5407 52.1004 77.2781 52.2191 77.0943 52.4564C76.9105 52.664 76.7792 52.9606 76.7792 53.2868V69.8962C76.7792 70.5487 77.2519 71.0826 77.8296 71.0826C78.4074 71.0826 78.8801 70.5487 78.8801 69.8962V54.4732H93.5861C93.7962 54.4732 93.98 54.3546 94.0588 54.147C94.2164 53.8504 94.1113 53.4648 93.8487 53.2868L51.5688 26L9.28887 53.2868C9.10504 53.4055 9 53.6131 9 53.8207C9 54.1766 9.26261 54.4436 9.55148 54.4436H24.2575V69.8665C24.2575 70.5191 24.7302 71.0529 25.308 71.0529C25.8857 71.0529 26.3584 70.5191 26.3584 69.8665V53.2572C26.3584 52.9309 26.2534 52.6343 26.0433 52.4267C25.8594 52.2191 25.5968 52.0708 25.308 52.0708H15.2763L51.5688 28.3431L87.8613 52.1004Z" fill="#8E8E8E"/>
</g>
<path d="M9.95 76.75C9.95 75.93 10.13 75.215 10.49 74.605C10.86 73.985 11.34 73.5 11.93 73.15C12.52 72.8 13.16 72.625 13.85 72.625C14.35 72.625 14.805 72.69 15.215 72.82C15.635 72.95 16.015 73.135 16.355 73.375C16.695 73.605 16.985 73.875 17.225 74.185V72.505C16.785 72.115 16.305 71.825 15.785 71.635C15.265 71.445 14.62 71.35 13.85 71.35C13.12 71.35 12.435 71.485 11.795 71.755C11.165 72.015 10.61 72.39 10.13 72.88C9.65 73.36 9.275 73.93 9.005 74.59C8.735 75.25 8.6 75.97 8.6 76.75C8.6 77.53 8.735 78.25 9.005 78.91C9.275 79.57 9.65 80.145 10.13 80.635C10.61 81.115 11.165 81.49 11.795 81.76C12.435 82.02 13.12 82.15 13.85 82.15C14.62 82.15 15.265 82.055 15.785 81.865C16.305 81.675 16.785 81.385 17.225 80.995V79.315C16.985 79.625 16.695 79.9 16.355 80.14C16.015 80.37 15.635 80.55 15.215 80.68C14.805 80.81 14.35 80.875 13.85 80.875C13.16 80.875 12.52 80.7 11.93 80.35C11.34 80 10.86 79.515 10.49 78.895C10.13 78.275 9.95 77.56 9.95 76.75ZM21.0586 78.85H26.9536C26.9636 78.79 26.9686 78.73 26.9686 78.67C26.9686 78.61 26.9686 78.55 26.9686 78.49C26.9686 77.76 26.8336 77.135 26.5636 76.615C26.2936 76.085 25.9136 75.675 25.4236 75.385C24.9336 75.095 24.3636 74.95 23.7136 74.95C23.1236 74.95 22.5886 75.07 22.1086 75.31C21.6386 75.55 21.2536 75.885 20.9536 76.315C20.6536 76.745 20.4536 77.245 20.3536 77.815C20.3336 77.935 20.3186 78.055 20.3086 78.175C20.2986 78.295 20.2936 78.42 20.2936 78.55C20.2936 79.24 20.4336 79.86 20.7136 80.41C21.0036 80.95 21.3936 81.375 21.8836 81.685C22.3836 81.995 22.9436 82.15 23.5636 82.15C24.1636 82.15 24.6636 82.08 25.0636 81.94C25.4636 81.79 25.8036 81.585 26.0836 81.325C26.3636 81.055 26.6186 80.745 26.8486 80.395L25.8736 79.78C25.7236 80.03 25.5436 80.25 25.3336 80.44C25.1236 80.62 24.8836 80.765 24.6136 80.875C24.3536 80.975 24.0536 81.025 23.7136 81.025C23.2636 81.025 22.8736 80.93 22.5436 80.74C22.2136 80.55 21.9586 80.27 21.7786 79.9C21.5986 79.53 21.5086 79.08 21.5086 78.55L21.5386 78.1C21.5386 77.67 21.6336 77.3 21.8236 76.99C22.0236 76.67 22.2886 76.425 22.6186 76.255C22.9486 76.085 23.3136 76 23.7136 76C24.1136 76 24.4486 76.08 24.7186 76.24C24.9986 76.39 25.2136 76.605 25.3636 76.885C25.5236 77.155 25.6236 77.47 25.6636 77.83H21.0586V78.85ZM30.8183 78.4V79.03H32.8133C33.0433 79.03 33.2383 79.055 33.3983 79.105C33.5683 79.145 33.7033 79.21 33.8033 79.3C33.9133 79.39 33.9933 79.49 34.0433 79.6C34.1033 79.71 34.1333 79.835 34.1333 79.975C34.1333 80.245 34.0233 80.475 33.8033 80.665C33.5933 80.855 33.2633 80.95 32.8133 80.95H30.8183V82H33.1133C33.9033 82 34.4683 81.82 34.8083 81.46C35.1583 81.09 35.3333 80.645 35.3333 80.125C35.3333 79.675 35.2233 79.325 35.0033 79.075C34.7833 78.825 34.4833 78.65 34.1033 78.55C33.7233 78.45 33.2933 78.4 32.8133 78.4H30.8183ZM30.8183 78.7H32.6633C33.0933 78.7 33.4833 78.64 33.8333 78.52C34.1933 78.39 34.4833 78.2 34.7033 77.95C34.9233 77.69 35.0333 77.365 35.0333 76.975C35.0333 76.525 34.9233 76.165 34.7033 75.895C34.4833 75.615 34.1933 75.415 33.8333 75.295C33.4833 75.165 33.0933 75.1 32.6633 75.1H30.8183V76.15H32.6633C33.0233 76.15 33.3083 76.235 33.5183 76.405C33.7283 76.565 33.8333 76.78 33.8333 77.05C33.8333 77.18 33.8033 77.305 33.7433 77.425C33.6933 77.535 33.6183 77.635 33.5183 77.725C33.4183 77.815 33.2933 77.885 33.1433 77.935C33.0033 77.975 32.8433 77.995 32.6633 77.995H30.8183V78.7ZM30.1133 75.1V82H31.3133V75.1H30.1133ZM38.5752 78.85H44.4702C44.4802 78.79 44.4852 78.73 44.4852 78.67C44.4852 78.61 44.4852 78.55 44.4852 78.49C44.4852 77.76 44.3502 77.135 44.0802 76.615C43.8102 76.085 43.4302 75.675 42.9402 75.385C42.4502 75.095 41.8802 74.95 41.2302 74.95C40.6402 74.95 40.1052 75.07 39.6252 75.31C39.1552 75.55 38.7702 75.885 38.4702 76.315C38.1702 76.745 37.9702 77.245 37.8702 77.815C37.8502 77.935 37.8352 78.055 37.8252 78.175C37.8152 78.295 37.8102 78.42 37.8102 78.55C37.8102 79.24 37.9502 79.86 38.2302 80.41C38.5202 80.95 38.9102 81.375 39.4002 81.685C39.9002 81.995 40.4602 82.15 41.0802 82.15C41.6802 82.15 42.1802 82.08 42.5802 81.94C42.9802 81.79 43.3202 81.585 43.6002 81.325C43.8802 81.055 44.1352 80.745 44.3652 80.395L43.3902 79.78C43.2402 80.03 43.0602 80.25 42.8502 80.44C42.6402 80.62 42.4002 80.765 42.1302 80.875C41.8702 80.975 41.5702 81.025 41.2302 81.025C40.7802 81.025 40.3902 80.93 40.0602 80.74C39.7302 80.55 39.4752 80.27 39.2952 79.9C39.1152 79.53 39.0252 79.08 39.0252 78.55L39.0552 78.1C39.0552 77.67 39.1502 77.3 39.3402 76.99C39.5402 76.67 39.8052 76.425 40.1352 76.255C40.4652 76.085 40.8302 76 41.2302 76C41.6302 76 41.9652 76.08 42.2352 76.24C42.5152 76.39 42.7302 76.605 42.8802 76.885C43.0402 77.155 43.1402 77.47 43.1802 77.83H38.5752V78.85ZM48.7549 85.3V75.1H47.5549V85.3H48.7549ZM54.5299 78.55C54.5299 77.8 54.3749 77.16 54.0649 76.63C53.7549 76.09 53.3399 75.675 52.8199 75.385C52.3099 75.095 51.7399 74.95 51.1099 74.95C50.5399 74.95 50.0349 75.095 49.5949 75.385C49.1649 75.675 48.8249 76.09 48.5749 76.63C48.3349 77.16 48.2149 77.8 48.2149 78.55C48.2149 79.29 48.3349 79.93 48.5749 80.47C48.8249 81.01 49.1649 81.425 49.5949 81.715C50.0349 82.005 50.5399 82.15 51.1099 82.15C51.7399 82.15 52.3099 82.005 52.8199 81.715C53.3399 81.425 53.7549 81.01 54.0649 80.47C54.3749 79.93 54.5299 79.29 54.5299 78.55ZM53.3149 78.55C53.3149 79.08 53.2049 79.53 52.9849 79.9C52.7749 80.27 52.4899 80.55 52.1299 80.74C51.7799 80.93 51.3899 81.025 50.9599 81.025C50.6099 81.025 50.2649 80.93 49.9249 80.74C49.5849 80.55 49.3049 80.27 49.0849 79.9C48.8649 79.53 48.7549 79.08 48.7549 78.55C48.7549 78.02 48.8649 77.57 49.0849 77.2C49.3049 76.83 49.5849 76.55 49.9249 76.36C50.2649 76.17 50.6099 76.075 50.9599 76.075C51.3899 76.075 51.7799 76.17 52.1299 76.36C52.4899 76.55 52.7749 76.83 52.9849 77.2C53.2049 77.57 53.3149 78.02 53.3149 78.55ZM58.6746 82L61.2246 78.4H59.9046L57.3546 82H58.6746ZM63.0546 82V75.1H61.8546V82H63.0546ZM62.3496 78.19H60.2046C59.9146 78.19 59.6696 78.155 59.4696 78.085C59.2796 78.005 59.1346 77.89 59.0346 77.74C58.9346 77.59 58.8846 77.4 58.8846 77.17C58.8846 76.94 58.9346 76.75 59.0346 76.6C59.1346 76.45 59.2796 76.34 59.4696 76.27C59.6696 76.19 59.9146 76.15 60.2046 76.15H62.3496V75.1H60.2046C59.7346 75.1 59.3046 75.17 58.9146 75.31C58.5346 75.45 58.2346 75.67 58.0146 75.97C57.7946 76.27 57.6846 76.67 57.6846 77.17C57.6846 77.66 57.7946 78.06 58.0146 78.37C58.2346 78.67 58.5346 78.89 58.9146 79.03C59.3046 79.17 59.7346 79.24 60.2046 79.24H62.3496V78.19ZM67.1405 78.925H72.2405V77.8H67.1405V78.925ZM71.4605 75.1V82H72.6605V75.1H71.4605ZM66.4355 75.1V82H67.6355V75.1H66.4355ZM82.192 76.3L82.267 74.575L76.567 80.8L76.492 82.525L82.192 76.3ZM77.692 75.1H76.492V82.525L77.692 80.875V75.1ZM82.267 74.575L81.067 76.225V82H82.267V74.575ZM86.8708 76.9H94.0708V75.7H86.8708V76.9ZM93.2158 71.5V82H94.4908V71.5H93.2158ZM86.1658 71.5V82H87.4408V71.5H86.1658Z" fill="white"/>
<defs>
<linearGradient id="paint0_linear_407_220" x1="80.2675" y1="25.5072" x2="80.2675" y2="39.7438" gradientUnits="userSpaceOnUse">
<stop stop-color="white" stop-opacity="0"/>
<stop offset="0.0001" stop-color="white" stop-opacity="0.236364"/>
<stop offset="0.286458" stop-color="white"/>
</linearGradient>
<linearGradient id="paint1_linear_407_220" x1="80.2673" y1="24.9141" x2="80.2673" y2="40.337" gradientUnits="userSpaceOnUse">
<stop stop-color="white" stop-opacity="0"/>
<stop offset="0.0001" stop-color="white" stop-opacity="0.236364"/>
<stop offset="0.286458" stop-color="white"/>
</linearGradient>
<linearGradient id="paint2_linear_407_220" x1="29.8467" y1="19.8719" x2="29.8467" y2="42.4132" gradientUnits="userSpaceOnUse">
<stop stop-color="white" stop-opacity="0"/>
<stop offset="0.270833" stop-color="white"/>
</linearGradient>
</defs>
</svg>
