<svg width="409" height="358" viewBox="0 0 409 358" fill="none" xmlns="http://www.w3.org/2000/svg">
<g clip-path="url(#clip0_411_11)">
<g filter="url(#filter0_f_411_11)">
<path d="M3.24316 29.0035L2.91663 309.454L-0.083364 309.45L0.243166 29L3.24316 29.0035Z" fill="#F9A825"/>
</g>
<path d="M50.54 157.2H60.14V155.6H50.54V157.2ZM59 150V164H60.7V150H59ZM49.6 150V164H51.3V150H49.6ZM64.7169 161.3C64.7169 160.927 64.8035 160.607 64.9769 160.34C65.1502 160.073 65.4102 159.867 65.7569 159.72C66.1169 159.573 66.5635 159.5 67.0969 159.5C67.6835 159.5 68.2102 159.58 68.6769 159.74C69.1435 159.887 69.6035 160.12 70.0569 160.44V159.5C69.9635 159.38 69.7902 159.227 69.5369 159.04C69.2835 158.84 68.9435 158.667 68.5169 158.52C68.1035 158.36 67.6035 158.28 67.0169 158.28C66.2169 158.28 65.5235 158.407 64.9369 158.66C64.3502 158.9 63.8969 159.247 63.5769 159.7C63.2569 160.153 63.0969 160.707 63.0969 161.36C63.0969 161.987 63.2369 162.513 63.5169 162.94C63.8102 163.353 64.1969 163.667 64.6769 163.88C65.1569 164.093 65.6835 164.2 66.2569 164.2C66.8969 164.2 67.4769 164.093 67.9969 163.88C68.5169 163.653 68.9302 163.333 69.2369 162.92C69.5569 162.493 69.7169 161.987 69.7169 161.4L69.3969 160.4C69.3969 160.973 69.2769 161.433 69.0369 161.78C68.8102 162.127 68.4902 162.38 68.0769 162.54C67.6635 162.7 67.1902 162.78 66.6569 162.78C66.2969 162.78 65.9702 162.727 65.6769 162.62C65.3835 162.5 65.1502 162.333 64.9769 162.12C64.8035 161.893 64.7169 161.62 64.7169 161.3ZM64.7169 156.96C64.8635 156.853 65.0635 156.727 65.3169 156.58C65.5835 156.42 65.8969 156.287 66.2569 156.18C66.6169 156.06 67.0169 156 67.4569 156C67.9635 156 68.4102 156.12 68.7969 156.36C69.1969 156.587 69.3969 156.933 69.3969 157.4V164H70.9969V157.4C70.9969 156.8 70.8435 156.293 70.5369 155.88C70.2435 155.467 69.8302 155.153 69.2969 154.94C68.7769 154.713 68.1635 154.6 67.4569 154.6C66.6302 154.6 65.9235 154.727 65.3369 154.98C64.7502 155.233 64.2835 155.487 63.9369 155.74L64.7169 156.96ZM81.0039 162.5V154.8H79.4039V162.5H75.5039V154.8H73.9039V164H86.5039V154.8H84.9039V162.5H81.0039ZM90.4294 161.3C90.4294 160.927 90.516 160.607 90.6894 160.34C90.8627 160.073 91.1227 159.867 91.4694 159.72C91.8294 159.573 92.276 159.5 92.8094 159.5C93.396 159.5 93.9227 159.58 94.3894 159.74C94.856 159.887 95.316 160.12 95.7694 160.44V159.5C95.676 159.38 95.5027 159.227 95.2494 159.04C94.996 158.84 94.656 158.667 94.2294 158.52C93.816 158.36 93.316 158.28 92.7294 158.28C91.9294 158.28 91.236 158.407 90.6494 158.66C90.0627 158.9 89.6094 159.247 89.2894 159.7C88.9694 160.153 88.8094 160.707 88.8094 161.36C88.8094 161.987 88.9494 162.513 89.2294 162.94C89.5227 163.353 89.9094 163.667 90.3894 163.88C90.8694 164.093 91.396 164.2 91.9694 164.2C92.6094 164.2 93.1894 164.093 93.7094 163.88C94.2294 163.653 94.6427 163.333 94.9494 162.92C95.2694 162.493 95.4294 161.987 95.4294 161.4L95.1094 160.4C95.1094 160.973 94.9894 161.433 94.7494 161.78C94.5227 162.127 94.2027 162.38 93.7894 162.54C93.376 162.7 92.9027 162.78 92.3694 162.78C92.0094 162.78 91.6827 162.727 91.3894 162.62C91.096 162.5 90.8627 162.333 90.6894 162.12C90.516 161.893 90.4294 161.62 90.4294 161.3ZM90.4294 156.96C90.576 156.853 90.776 156.727 91.0294 156.58C91.296 156.42 91.6094 156.287 91.9694 156.18C92.3294 156.06 92.7294 156 93.1694 156C93.676 156 94.1227 156.12 94.5094 156.36C94.9094 156.587 95.1094 156.933 95.1094 157.4V164H96.7094V157.4C96.7094 156.8 96.556 156.293 96.2494 155.88C95.956 155.467 95.5427 155.153 95.0094 154.94C94.4894 154.713 93.876 154.6 93.1694 154.6C92.3427 154.6 91.636 154.727 91.0494 154.98C90.4627 155.233 89.996 155.487 89.6494 155.74L90.4294 156.96ZM113.113 154.8H111.313L108.473 161.92L109.133 162L106.213 154.8H104.312L107.833 162.7L105.313 168.4H107.113L113.113 154.8ZM115.248 159.4C115.248 158.76 115.381 158.193 115.648 157.7C115.928 157.193 116.301 156.8 116.768 156.52C117.248 156.24 117.788 156.1 118.388 156.1C118.881 156.1 119.341 156.18 119.768 156.34C120.208 156.487 120.588 156.687 120.908 156.94C121.228 157.193 121.455 157.473 121.588 157.78V155.78C121.268 155.407 120.808 155.12 120.208 154.92C119.621 154.707 119.015 154.6 118.388 154.6C117.495 154.6 116.688 154.807 115.968 155.22C115.248 155.633 114.675 156.2 114.248 156.92C113.835 157.64 113.628 158.467 113.628 159.4C113.628 160.32 113.835 161.147 114.248 161.88C114.675 162.6 115.248 163.167 115.968 163.58C116.688 163.993 117.495 164.2 118.388 164.2C119.015 164.2 119.621 164.1 120.208 163.9C120.808 163.687 121.268 163.393 121.588 163.02V161.02C121.455 161.313 121.228 161.593 120.908 161.86C120.588 162.113 120.208 162.32 119.768 162.48C119.341 162.627 118.881 162.7 118.388 162.7C117.788 162.7 117.248 162.56 116.768 162.28C116.301 161.987 115.928 161.593 115.648 161.1C115.381 160.607 115.248 160.04 115.248 159.4ZM132.339 154.8H124.439V160.8C124.439 161.453 124.292 161.907 123.999 162.16C123.719 162.413 123.379 162.54 122.979 162.54V164C123.672 164 124.246 163.887 124.699 163.66C125.152 163.42 125.486 163.067 125.699 162.6C125.926 162.12 126.039 161.52 126.039 160.8V156.3H130.739V164H132.339V154.8ZM142.931 154.8H141.131L138.291 161.92L138.951 162L136.031 154.8H134.131L137.651 162.7L135.131 168.4H136.931L142.931 154.8ZM144.74 154.8V164H146.34V156.3H149.64V154.8H144.74ZM152.161 161.3C152.161 160.927 152.248 160.607 152.421 160.34C152.595 160.073 152.855 159.867 153.201 159.72C153.561 159.573 154.008 159.5 154.541 159.5C155.128 159.5 155.655 159.58 156.121 159.74C156.588 159.887 157.048 160.12 157.501 160.44V159.5C157.408 159.38 157.235 159.227 156.981 159.04C156.728 158.84 156.388 158.667 155.961 158.52C155.548 158.36 155.048 158.28 154.461 158.28C153.661 158.28 152.968 158.407 152.381 158.66C151.795 158.9 151.341 159.247 151.021 159.7C150.701 160.153 150.541 160.707 150.541 161.36C150.541 161.987 150.681 162.513 150.961 162.94C151.255 163.353 151.641 163.667 152.121 163.88C152.601 164.093 153.128 164.2 153.701 164.2C154.341 164.2 154.921 164.093 155.441 163.88C155.961 163.653 156.375 163.333 156.681 162.92C157.001 162.493 157.161 161.987 157.161 161.4L156.841 160.4C156.841 160.973 156.721 161.433 156.481 161.78C156.255 162.127 155.935 162.38 155.521 162.54C155.108 162.7 154.635 162.78 154.101 162.78C153.741 162.78 153.415 162.727 153.121 162.62C152.828 162.5 152.595 162.333 152.421 162.12C152.248 161.893 152.161 161.62 152.161 161.3ZM152.161 156.96C152.308 156.853 152.508 156.727 152.761 156.58C153.028 156.42 153.341 156.287 153.701 156.18C154.061 156.06 154.461 156 154.901 156C155.408 156 155.855 156.12 156.241 156.36C156.641 156.587 156.841 156.933 156.841 157.4V164H158.441V157.4C158.441 156.8 158.288 156.293 157.981 155.88C157.688 155.467 157.275 155.153 156.741 154.94C156.221 154.713 155.608 154.6 154.901 154.6C154.075 154.6 153.368 154.727 152.781 154.98C152.195 155.233 151.728 155.487 151.381 155.74L152.161 156.96ZM175.245 156.4L175.345 154.1L167.745 162.4L167.645 164.7L175.245 156.4ZM169.245 154.8H167.645V164.7L169.245 162.5V154.8ZM175.345 154.1L173.745 156.3V164H175.345V154.1ZM179.583 159.9H186.383V158.4H179.583V159.9ZM185.343 154.8V164H186.943V154.8H185.343ZM178.643 154.8V164H180.243V154.8H178.643ZM199.752 154.8L195.752 158.6L200.152 164H202.152L197.552 158.8L201.752 154.8H199.752ZM196.152 154.8H194.652V164H196.152V154.8ZM191.052 154.8H189.052L193.252 158.8L188.652 164H190.652L195.052 158.6L191.052 154.8ZM203.775 159.8H211.635C211.648 159.72 211.655 159.64 211.655 159.56C211.655 159.48 211.655 159.4 211.655 159.32C211.655 158.347 211.475 157.513 211.115 156.82C210.755 156.113 210.248 155.567 209.595 155.18C208.941 154.793 208.181 154.6 207.315 154.6C206.528 154.6 205.815 154.76 205.175 155.08C204.548 155.4 204.035 155.847 203.635 156.42C203.235 156.993 202.968 157.66 202.835 158.42C202.808 158.58 202.788 158.74 202.775 158.9C202.761 159.06 202.755 159.227 202.755 159.4C202.755 160.32 202.941 161.147 203.315 161.88C203.701 162.6 204.221 163.167 204.875 163.58C205.541 163.993 206.288 164.2 207.115 164.2C207.915 164.2 208.581 164.107 209.115 163.92C209.648 163.72 210.101 163.447 210.475 163.1C210.848 162.74 211.188 162.327 211.495 161.86L210.195 161.04C209.995 161.373 209.755 161.667 209.475 161.92C209.195 162.16 208.875 162.353 208.515 162.5C208.168 162.633 207.768 162.7 207.315 162.7C206.715 162.7 206.195 162.573 205.755 162.32C205.315 162.067 204.975 161.693 204.735 161.2C204.495 160.707 204.375 160.107 204.375 159.4L204.415 158.8C204.415 158.227 204.541 157.733 204.795 157.32C205.061 156.893 205.415 156.567 205.855 156.34C206.295 156.113 206.781 156 207.315 156C207.848 156 208.295 156.107 208.655 156.32C209.028 156.52 209.315 156.807 209.515 157.18C209.728 157.54 209.861 157.96 209.915 158.44H203.775V159.8ZM214.988 159.9H221.788V158.4H214.988V159.9ZM220.748 154.8V164H222.348V154.8H220.748ZM214.048 154.8V164H215.648V154.8H214.048ZM225.776 159.8H233.636C233.65 159.72 233.656 159.64 233.656 159.56C233.656 159.48 233.656 159.4 233.656 159.32C233.656 158.347 233.476 157.513 233.116 156.82C232.756 156.113 232.25 155.567 231.596 155.18C230.943 154.793 230.183 154.6 229.316 154.6C228.53 154.6 227.816 154.76 227.176 155.08C226.55 155.4 226.036 155.847 225.636 156.42C225.236 156.993 224.97 157.66 224.836 158.42C224.81 158.58 224.79 158.74 224.776 158.9C224.763 159.06 224.756 159.227 224.756 159.4C224.756 160.32 224.943 161.147 225.316 161.88C225.703 162.6 226.223 163.167 226.876 163.58C227.543 163.993 228.29 164.2 229.116 164.2C229.916 164.2 230.583 164.107 231.116 163.92C231.65 163.72 232.103 163.447 232.476 163.1C232.85 162.74 233.19 162.327 233.496 161.86L232.196 161.04C231.996 161.373 231.756 161.667 231.476 161.92C231.196 162.16 230.876 162.353 230.516 162.5C230.17 162.633 229.77 162.7 229.316 162.7C228.716 162.7 228.196 162.573 227.756 162.32C227.316 162.067 226.976 161.693 226.736 161.2C226.496 160.707 226.376 160.107 226.376 159.4L226.416 158.8C226.416 158.227 226.543 157.733 226.796 157.32C227.063 156.893 227.416 156.567 227.856 156.34C228.296 156.113 228.783 156 229.316 156C229.85 156 230.296 156.107 230.656 156.32C231.03 156.52 231.316 156.807 231.516 157.18C231.73 157.54 231.863 157.96 231.916 158.44H225.776V159.8ZM237.549 168.4V154.8H235.949V168.4H237.549ZM245.249 159.4C245.249 158.4 245.043 157.547 244.629 156.84C244.216 156.12 243.663 155.567 242.969 155.18C242.289 154.793 241.529 154.6 240.689 154.6C239.929 154.6 239.256 154.793 238.669 155.18C238.096 155.567 237.643 156.12 237.309 156.84C236.989 157.547 236.829 158.4 236.829 159.4C236.829 160.387 236.989 161.24 237.309 161.96C237.643 162.68 238.096 163.233 238.669 163.62C239.256 164.007 239.929 164.2 240.689 164.2C241.529 164.2 242.289 164.007 242.969 163.62C243.663 163.233 244.216 162.68 244.629 161.96C245.043 161.24 245.249 160.387 245.249 159.4ZM243.629 159.4C243.629 160.107 243.483 160.707 243.189 161.2C242.909 161.693 242.529 162.067 242.049 162.32C241.583 162.573 241.063 162.7 240.489 162.7C240.023 162.7 239.563 162.573 239.109 162.32C238.656 162.067 238.283 161.693 237.989 161.2C237.696 160.707 237.549 160.107 237.549 159.4C237.549 158.693 237.696 158.093 237.989 157.6C238.283 157.107 238.656 156.733 239.109 156.48C239.563 156.227 240.023 156.1 240.489 156.1C241.063 156.1 241.583 156.227 242.049 156.48C242.529 156.733 242.909 157.107 243.189 157.6C243.483 158.093 243.629 158.693 243.629 159.4ZM248.595 159.9H255.395V158.4H248.595V159.9ZM254.355 154.8V164H255.955V154.8H254.355ZM247.655 154.8V164H249.255V154.8H247.655ZM258.364 159.4C258.364 160.32 258.571 161.147 258.984 161.88C259.411 162.6 259.984 163.167 260.704 163.58C261.424 163.993 262.231 164.2 263.124 164.2C264.031 164.2 264.837 163.993 265.544 163.58C266.264 163.167 266.831 162.6 267.244 161.88C267.671 161.147 267.884 160.32 267.884 159.4C267.884 158.467 267.671 157.64 267.244 156.92C266.831 156.2 266.264 155.633 265.544 155.22C264.837 154.807 264.031 154.6 263.124 154.6C262.231 154.6 261.424 154.807 260.704 155.22C259.984 155.633 259.411 156.2 258.984 156.92C258.571 157.64 258.364 158.467 258.364 159.4ZM259.984 159.4C259.984 158.76 260.117 158.193 260.384 157.7C260.664 157.193 261.037 156.8 261.504 156.52C261.984 156.24 262.524 156.1 263.124 156.1C263.724 156.1 264.257 156.24 264.724 156.52C265.204 156.8 265.577 157.193 265.844 157.7C266.124 158.193 266.264 158.76 266.264 159.4C266.264 160.04 266.124 160.607 265.844 161.1C265.577 161.593 265.204 161.987 264.724 162.28C264.257 162.56 263.724 162.7 263.124 162.7C262.524 162.7 261.984 162.56 261.504 162.28C261.037 161.987 260.664 161.593 260.384 161.1C260.117 160.607 259.984 160.04 259.984 159.4ZM270.382 154.8V164H271.982V156.3H275.282V154.8H270.382ZM275.991 159.4C275.991 160.32 276.197 161.147 276.611 161.88C277.037 162.6 277.611 163.167 278.331 163.58C279.051 163.993 279.857 164.2 280.751 164.2C281.657 164.2 282.464 163.993 283.171 163.58C283.891 163.167 284.457 162.6 284.871 161.88C285.297 161.147 285.511 160.32 285.511 159.4C285.511 158.467 285.297 157.64 284.871 156.92C284.457 156.2 283.891 155.633 283.171 155.22C282.464 154.807 281.657 154.6 280.751 154.6C279.857 154.6 279.051 154.807 278.331 155.22C277.611 155.633 277.037 156.2 276.611 156.92C276.197 157.64 275.991 158.467 275.991 159.4ZM277.611 159.4C277.611 158.76 277.744 158.193 278.011 157.7C278.291 157.193 278.664 156.8 279.131 156.52C279.611 156.24 280.151 156.1 280.751 156.1C281.351 156.1 281.884 156.24 282.351 156.52C282.831 156.8 283.204 157.193 283.471 157.7C283.751 158.193 283.891 158.76 283.891 159.4C283.891 160.04 283.751 160.607 283.471 161.1C283.204 161.593 282.831 161.987 282.351 162.28C281.884 162.56 281.351 162.7 280.751 162.7C280.151 162.7 279.611 162.56 279.131 162.28C278.664 161.987 278.291 161.593 278.011 161.1C277.744 160.607 277.611 160.04 277.611 159.4ZM295.605 168.4V154.8H294.005V168.4H295.605ZM303.305 159.4C303.305 158.4 303.098 157.547 302.685 156.84C302.271 156.12 301.718 155.567 301.025 155.18C300.345 154.793 299.585 154.6 298.745 154.6C297.985 154.6 297.311 154.793 296.725 155.18C296.151 155.567 295.698 156.12 295.365 156.84C295.045 157.547 294.885 158.4 294.885 159.4C294.885 160.387 295.045 161.24 295.365 161.96C295.698 162.68 296.151 163.233 296.725 163.62C297.311 164.007 297.985 164.2 298.745 164.2C299.585 164.2 300.345 164.007 301.025 163.62C301.718 163.233 302.271 162.68 302.685 161.96C303.098 161.24 303.305 160.387 303.305 159.4ZM301.685 159.4C301.685 160.107 301.538 160.707 301.245 161.2C300.965 161.693 300.585 162.067 300.105 162.32C299.638 162.573 299.118 162.7 298.545 162.7C298.078 162.7 297.618 162.573 297.165 162.32C296.711 162.067 296.338 161.693 296.045 161.2C295.751 160.707 295.605 160.107 295.605 159.4C295.605 158.693 295.751 158.093 296.045 157.6C296.338 157.107 296.711 156.733 297.165 156.48C297.618 156.227 298.078 156.1 298.545 156.1C299.118 156.1 299.638 156.227 300.105 156.48C300.585 156.733 300.965 157.107 301.245 157.6C301.538 158.093 301.685 158.693 301.685 159.4ZM306.431 161.3C306.431 160.927 306.518 160.607 306.691 160.34C306.864 160.073 307.124 159.867 307.471 159.72C307.831 159.573 308.278 159.5 308.811 159.5C309.398 159.5 309.924 159.58 310.391 159.74C310.858 159.887 311.318 160.12 311.771 160.44V159.5C311.678 159.38 311.504 159.227 311.251 159.04C310.998 158.84 310.658 158.667 310.231 158.52C309.818 158.36 309.318 158.28 308.731 158.28C307.931 158.28 307.238 158.407 306.651 158.66C306.064 158.9 305.611 159.247 305.291 159.7C304.971 160.153 304.811 160.707 304.811 161.36C304.811 161.987 304.951 162.513 305.231 162.94C305.524 163.353 305.911 163.667 306.391 163.88C306.871 164.093 307.398 164.2 307.971 164.2C308.611 164.2 309.191 164.093 309.711 163.88C310.231 163.653 310.644 163.333 310.951 162.92C311.271 162.493 311.431 161.987 311.431 161.4L311.111 160.4C311.111 160.973 310.991 161.433 310.751 161.78C310.524 162.127 310.204 162.38 309.791 162.54C309.378 162.7 308.904 162.78 308.371 162.78C308.011 162.78 307.684 162.727 307.391 162.62C307.098 162.5 306.864 162.333 306.691 162.12C306.518 161.893 306.431 161.62 306.431 161.3ZM306.431 156.96C306.578 156.853 306.778 156.727 307.031 156.58C307.298 156.42 307.611 156.287 307.971 156.18C308.331 156.06 308.731 156 309.171 156C309.678 156 310.124 156.12 310.511 156.36C310.911 156.587 311.111 156.933 311.111 157.4V164H312.711V157.4C312.711 156.8 312.558 156.293 312.251 155.88C311.958 155.467 311.544 155.153 311.011 154.94C310.491 154.713 309.878 154.6 309.171 154.6C308.344 154.6 307.638 154.727 307.051 154.98C306.464 155.233 305.998 155.487 305.651 155.74L306.431 156.96ZM316.338 159.4C316.338 158.76 316.471 158.193 316.738 157.7C317.018 157.193 317.391 156.8 317.858 156.52C318.338 156.24 318.878 156.1 319.478 156.1C319.971 156.1 320.431 156.18 320.858 156.34C321.298 156.487 321.678 156.687 321.998 156.94C322.318 157.193 322.545 157.473 322.678 157.78V155.78C322.358 155.407 321.898 155.12 321.298 154.92C320.711 154.707 320.105 154.6 319.478 154.6C318.585 154.6 317.778 154.807 317.058 155.22C316.338 155.633 315.765 156.2 315.338 156.92C314.925 157.64 314.718 158.467 314.718 159.4C314.718 160.32 314.925 161.147 315.338 161.88C315.765 162.6 316.338 163.167 317.058 163.58C317.778 163.993 318.585 164.2 319.478 164.2C320.105 164.2 320.711 164.1 321.298 163.9C321.898 163.687 322.358 163.393 322.678 163.02V161.02C322.545 161.313 322.318 161.593 321.998 161.86C321.678 162.113 321.298 162.32 320.858 162.48C320.431 162.627 319.971 162.7 319.478 162.7C318.878 162.7 318.338 162.56 317.858 162.28C317.391 161.987 317.018 161.593 316.738 161.1C316.471 160.607 316.338 160.04 316.338 159.4ZM328.469 161.2H331.609V159.7H328.469V161.2ZM330.469 154.8V164H332.069V154.8H330.469ZM326.469 154.8H324.869V157.44C324.869 158.333 324.975 159.06 325.189 159.62C325.402 160.167 325.769 160.567 326.289 160.82C326.822 161.073 327.549 161.2 328.469 161.2V159.7C327.962 159.7 327.562 159.627 327.269 159.48C326.975 159.32 326.769 159.073 326.649 158.74C326.529 158.407 326.469 157.973 326.469 157.44V154.8ZM335.496 159.8H343.356C343.369 159.72 343.376 159.64 343.376 159.56C343.376 159.48 343.376 159.4 343.376 159.32C343.376 158.347 343.196 157.513 342.836 156.82C342.476 156.113 341.969 155.567 341.316 155.18C340.662 154.793 339.902 154.6 339.036 154.6C338.249 154.6 337.536 154.76 336.896 155.08C336.269 155.4 335.756 155.847 335.356 156.42C334.956 156.993 334.689 157.66 334.556 158.42C334.529 158.58 334.509 158.74 334.496 158.9C334.482 159.06 334.476 159.227 334.476 159.4C334.476 160.32 334.662 161.147 335.036 161.88C335.422 162.6 335.942 163.167 336.596 163.58C337.262 163.993 338.009 164.2 338.836 164.2C339.636 164.2 340.302 164.107 340.836 163.92C341.369 163.72 341.822 163.447 342.196 163.1C342.569 162.74 342.909 162.327 343.216 161.86L341.916 161.04C341.716 161.373 341.476 161.667 341.196 161.92C340.916 162.16 340.596 162.353 340.236 162.5C339.889 162.633 339.489 162.7 339.036 162.7C338.436 162.7 337.916 162.573 337.476 162.32C337.036 162.067 336.696 161.693 336.456 161.2C336.216 160.707 336.096 160.107 336.096 159.4L336.136 158.8C336.136 158.227 336.262 157.733 336.516 157.32C336.782 156.893 337.136 156.567 337.576 156.34C338.016 156.113 338.502 156 339.036 156C339.569 156 340.016 156.107 340.376 156.32C340.749 156.52 341.036 156.807 341.236 157.18C341.449 157.54 341.582 157.96 341.636 158.44H335.496V159.8ZM339.936 152.3C339.936 152.593 340.042 152.853 340.256 153.08C340.482 153.293 340.742 153.4 341.036 153.4C341.342 153.4 341.602 153.293 341.816 153.08C342.029 152.853 342.136 152.593 342.136 152.3C342.136 151.993 342.029 151.733 341.816 151.52C341.602 151.307 341.342 151.2 341.036 151.2C340.742 151.2 340.482 151.307 340.256 151.52C340.042 151.733 339.936 151.993 339.936 152.3ZM335.936 152.3C335.936 152.593 336.042 152.853 336.256 153.08C336.482 153.293 336.742 153.4 337.036 153.4C337.342 153.4 337.602 153.293 337.816 153.08C338.029 152.853 338.136 152.593 338.136 152.3C338.136 151.993 338.029 151.733 337.816 151.52C337.602 151.307 337.342 151.2 337.036 151.2C336.742 151.2 336.482 151.307 336.256 151.52C336.042 151.733 335.936 151.993 335.936 152.3ZM344.369 154.8V156.3H349.769V154.8H344.369ZM346.269 155.2V164H347.869V155.2H346.269ZM352.294 161.3C352.294 160.927 352.381 160.607 352.554 160.34C352.728 160.073 352.988 159.867 353.334 159.72C353.694 159.573 354.141 159.5 354.674 159.5C355.261 159.5 355.788 159.58 356.254 159.74C356.721 159.887 357.181 160.12 357.634 160.44V159.5C357.541 159.38 357.368 159.227 357.114 159.04C356.861 158.84 356.521 158.667 356.094 158.52C355.681 158.36 355.181 158.28 354.594 158.28C353.794 158.28 353.101 158.407 352.514 158.66C351.928 158.9 351.474 159.247 351.154 159.7C350.834 160.153 350.674 160.707 350.674 161.36C350.674 161.987 350.814 162.513 351.094 162.94C351.388 163.353 351.774 163.667 352.254 163.88C352.734 164.093 353.261 164.2 353.834 164.2C354.474 164.2 355.054 164.093 355.574 163.88C356.094 163.653 356.508 163.333 356.814 162.92C357.134 162.493 357.294 161.987 357.294 161.4L356.974 160.4C356.974 160.973 356.854 161.433 356.614 161.78C356.388 162.127 356.068 162.38 355.654 162.54C355.241 162.7 354.768 162.78 354.234 162.78C353.874 162.78 353.548 162.727 353.254 162.62C352.961 162.5 352.728 162.333 352.554 162.12C352.381 161.893 352.294 161.62 352.294 161.3ZM352.294 156.96C352.441 156.853 352.641 156.727 352.894 156.58C353.161 156.42 353.474 156.287 353.834 156.18C354.194 156.06 354.594 156 355.034 156C355.541 156 355.988 156.12 356.374 156.36C356.774 156.587 356.974 156.933 356.974 157.4V164H358.574V157.4C358.574 156.8 358.421 156.293 358.114 155.88C357.821 155.467 357.408 155.153 356.874 154.94C356.354 154.713 355.741 154.6 355.034 154.6C354.208 154.6 353.501 154.727 352.914 154.98C352.328 155.233 351.861 155.487 351.514 155.74L352.294 156.96ZM56.8 183.8H55L52.16 190.92L52.82 191L49.9 183.8H48L51.52 191.7L49 197.4H50.8L56.8 183.8ZM68.7141 183.8L64.7141 187.6L69.1141 193H71.1141L66.5141 187.8L70.7141 183.8H68.7141ZM65.1141 183.8H63.6141V193H65.1141V183.8ZM60.0141 183.8H58.0141L62.2141 187.8L57.6141 193H59.6141L64.0141 187.6L60.0141 183.8ZM72.7372 188.8H80.5972C80.6105 188.72 80.6172 188.64 80.6172 188.56C80.6172 188.48 80.6172 188.4 80.6172 188.32C80.6172 187.347 80.4372 186.513 80.0772 185.82C79.7172 185.113 79.2105 184.567 78.5572 184.18C77.9039 183.793 77.1439 183.6 76.2772 183.6C75.4905 183.6 74.7772 183.76 74.1372 184.08C73.5105 184.4 72.9972 184.847 72.5972 185.42C72.1972 185.993 71.9305 186.66 71.7972 187.42C71.7705 187.58 71.7505 187.74 71.7372 187.9C71.7239 188.06 71.7172 188.227 71.7172 188.4C71.7172 189.32 71.9039 190.147 72.2772 190.88C72.6639 191.6 73.1839 192.167 73.8372 192.58C74.5039 192.993 75.2505 193.2 76.0772 193.2C76.8772 193.2 77.5439 193.107 78.0772 192.92C78.6105 192.72 79.0639 192.447 79.4372 192.1C79.8105 191.74 80.1505 191.327 80.4572 190.86L79.1572 190.04C78.9572 190.373 78.7172 190.667 78.4372 190.92C78.1572 191.16 77.8372 191.353 77.4772 191.5C77.1305 191.633 76.7305 191.7 76.2772 191.7C75.6772 191.7 75.1572 191.573 74.7172 191.32C74.2772 191.067 73.9372 190.693 73.6972 190.2C73.4572 189.707 73.3372 189.107 73.3372 188.4L73.3772 187.8C73.3772 187.227 73.5039 186.733 73.7572 186.32C74.0239 185.893 74.3772 185.567 74.8172 185.34C75.2572 185.113 75.7439 185 76.2772 185C76.8105 185 77.2572 185.107 77.6172 185.32C77.9905 185.52 78.2772 185.807 78.4772 186.18C78.6905 186.54 78.8239 186.96 78.8772 187.44H72.7372V188.8ZM96.7062 183.8H89.2062V193H90.8062V185.3H95.1062V193H96.7062V183.8ZM99.1141 188.4C99.1141 189.32 99.3207 190.147 99.7341 190.88C100.161 191.6 100.734 192.167 101.454 192.58C102.174 192.993 102.981 193.2 103.874 193.2C104.781 193.2 105.587 192.993 106.294 192.58C107.014 192.167 107.581 191.6 107.994 190.88C108.421 190.147 108.634 189.32 108.634 188.4C108.634 187.467 108.421 186.64 107.994 185.92C107.581 185.2 107.014 184.633 106.294 184.22C105.587 183.807 104.781 183.6 103.874 183.6C102.981 183.6 102.174 183.807 101.454 184.22C100.734 184.633 100.161 185.2 99.7341 185.92C99.3207 186.64 99.1141 187.467 99.1141 188.4ZM100.734 188.4C100.734 187.76 100.867 187.193 101.134 186.7C101.414 186.193 101.787 185.8 102.254 185.52C102.734 185.24 103.274 185.1 103.874 185.1C104.474 185.1 105.007 185.24 105.474 185.52C105.954 185.8 106.327 186.193 106.594 186.7C106.874 187.193 107.014 187.76 107.014 188.4C107.014 189.04 106.874 189.607 106.594 190.1C106.327 190.593 105.954 190.987 105.474 191.28C105.007 191.56 104.474 191.7 103.874 191.7C103.274 191.7 102.734 191.56 102.254 191.28C101.787 190.987 101.414 190.593 101.134 190.1C100.867 189.607 100.734 189.04 100.734 188.4ZM119.772 193H121.572L119.172 183.1L118.272 185.7L119.772 193ZM114.972 191.62L115.572 193.62L119.372 186.3L119.172 183.1L114.972 191.62ZM115.572 193.62L116.172 191.62L112.032 183.1L111.832 186.3L115.572 193.62ZM109.632 193H111.432L112.932 185.7L112.032 183.1L109.632 193ZM122.58 188.4C122.58 189.32 122.787 190.147 123.2 190.88C123.627 191.6 124.2 192.167 124.92 192.58C125.64 192.993 126.447 193.2 127.34 193.2C128.247 193.2 129.054 192.993 129.76 192.58C130.48 192.167 131.047 191.6 131.46 190.88C131.887 190.147 132.1 189.32 132.1 188.4C132.1 187.467 131.887 186.64 131.46 185.92C131.047 185.2 130.48 184.633 129.76 184.22C129.054 183.807 128.247 183.6 127.34 183.6C126.447 183.6 125.64 183.807 124.92 184.22C124.2 184.633 123.627 185.2 123.2 185.92C122.787 186.64 122.58 187.467 122.58 188.4ZM124.2 188.4C124.2 187.76 124.334 187.193 124.6 186.7C124.88 186.193 125.254 185.8 125.72 185.52C126.2 185.24 126.74 185.1 127.34 185.1C127.94 185.1 128.474 185.24 128.94 185.52C129.42 185.8 129.794 186.193 130.06 186.7C130.34 187.193 130.48 187.76 130.48 188.4C130.48 189.04 130.34 189.607 130.06 190.1C129.794 190.593 129.42 190.987 128.94 191.28C128.474 191.56 127.94 191.7 127.34 191.7C126.74 191.7 126.2 191.56 125.72 191.28C125.254 190.987 124.88 190.593 124.6 190.1C124.334 189.607 124.2 189.04 124.2 188.4ZM134.598 183.8V193H136.198V185.3H139.498V183.8H134.598ZM149.36 183.8H141.46V189.8C141.46 190.453 141.313 190.907 141.02 191.16C140.74 191.413 140.4 191.54 140 191.54V193C140.693 193 141.267 192.887 141.72 192.66C142.173 192.42 142.507 192.067 142.72 191.6C142.947 191.12 143.06 190.52 143.06 189.8V185.3H147.76V193H149.36V183.8ZM153.372 190.3C153.372 189.927 153.459 189.607 153.632 189.34C153.806 189.073 154.066 188.867 154.412 188.72C154.772 188.573 155.219 188.5 155.752 188.5C156.339 188.5 156.866 188.58 157.332 188.74C157.799 188.887 158.259 189.12 158.712 189.44V188.5C158.619 188.38 158.446 188.227 158.192 188.04C157.939 187.84 157.599 187.667 157.172 187.52C156.759 187.36 156.259 187.28 155.672 187.28C154.872 187.28 154.179 187.407 153.592 187.66C153.006 187.9 152.552 188.247 152.232 188.7C151.912 189.153 151.752 189.707 151.752 190.36C151.752 190.987 151.892 191.513 152.172 191.94C152.466 192.353 152.852 192.667 153.332 192.88C153.812 193.093 154.339 193.2 154.912 193.2C155.552 193.2 156.132 193.093 156.652 192.88C157.172 192.653 157.586 192.333 157.892 191.92C158.212 191.493 158.372 190.987 158.372 190.4L158.052 189.4C158.052 189.973 157.932 190.433 157.692 190.78C157.466 191.127 157.146 191.38 156.732 191.54C156.319 191.7 155.846 191.78 155.312 191.78C154.952 191.78 154.626 191.727 154.332 191.62C154.039 191.5 153.806 191.333 153.632 191.12C153.459 190.893 153.372 190.62 153.372 190.3ZM153.372 185.96C153.519 185.853 153.719 185.727 153.972 185.58C154.239 185.42 154.552 185.287 154.912 185.18C155.272 185.06 155.672 185 156.112 185C156.619 185 157.066 185.12 157.452 185.36C157.852 185.587 158.052 185.933 158.052 186.4V193H159.652V186.4C159.652 185.8 159.499 185.293 159.192 184.88C158.899 184.467 158.486 184.153 157.952 183.94C157.432 183.713 156.819 183.6 156.112 183.6C155.286 183.6 154.579 183.727 153.992 183.98C153.406 184.233 152.939 184.487 152.592 184.74L153.372 185.96ZM169.695 188.2V189.04H172.355C172.662 189.04 172.922 189.073 173.135 189.14C173.362 189.193 173.542 189.28 173.675 189.4C173.822 189.52 173.929 189.653 173.995 189.8C174.075 189.947 174.115 190.113 174.115 190.3C174.115 190.66 173.969 190.967 173.675 191.22C173.395 191.473 172.955 191.6 172.355 191.6H169.695V193H172.755C173.809 193 174.562 192.76 175.015 192.28C175.482 191.787 175.715 191.193 175.715 190.5C175.715 189.9 175.569 189.433 175.275 189.1C174.982 188.767 174.582 188.533 174.075 188.4C173.569 188.267 172.995 188.2 172.355 188.2H169.695ZM169.695 188.6H172.155C172.729 188.6 173.249 188.52 173.715 188.36C174.195 188.187 174.582 187.933 174.875 187.6C175.169 187.253 175.315 186.82 175.315 186.3C175.315 185.7 175.169 185.22 174.875 184.86C174.582 184.487 174.195 184.22 173.715 184.06C173.249 183.887 172.729 183.8 172.155 183.8H169.695V185.2H172.155C172.635 185.2 173.015 185.313 173.295 185.54C173.575 185.753 173.715 186.04 173.715 186.4C173.715 186.573 173.675 186.74 173.595 186.9C173.529 187.047 173.429 187.18 173.295 187.3C173.162 187.42 172.995 187.513 172.795 187.58C172.609 187.633 172.395 187.66 172.155 187.66H169.695V188.6ZM168.755 183.8V193H170.355V183.8H168.755ZM184.934 188.4C184.934 187.76 185.067 187.193 185.334 186.7C185.614 186.193 185.987 185.8 186.454 185.52C186.934 185.24 187.474 185.1 188.074 185.1C188.567 185.1 189.027 185.18 189.454 185.34C189.894 185.487 190.274 185.687 190.594 185.94C190.914 186.193 191.141 186.473 191.274 186.78V184.78C190.954 184.407 190.494 184.12 189.894 183.92C189.307 183.707 188.701 183.6 188.074 183.6C187.181 183.6 186.374 183.807 185.654 184.22C184.934 184.633 184.361 185.2 183.934 185.92C183.521 186.64 183.314 187.467 183.314 188.4C183.314 189.32 183.521 190.147 183.934 190.88C184.361 191.6 184.934 192.167 185.654 192.58C186.374 192.993 187.181 193.2 188.074 193.2C188.701 193.2 189.307 193.1 189.894 192.9C190.494 192.687 190.954 192.393 191.274 192.02V190.02C191.141 190.313 190.914 190.593 190.594 190.86C190.274 191.113 189.894 191.32 189.454 191.48C189.027 191.627 188.567 191.7 188.074 191.7C187.474 191.7 186.934 191.56 186.454 191.28C185.987 190.987 185.614 190.593 185.334 190.1C185.067 189.607 184.934 189.04 184.934 188.4ZM193.165 188.4C193.165 189.32 193.372 190.147 193.785 190.88C194.212 191.6 194.785 192.167 195.505 192.58C196.225 192.993 197.032 193.2 197.925 193.2C198.832 193.2 199.638 192.993 200.345 192.58C201.065 192.167 201.632 191.6 202.045 190.88C202.472 190.147 202.685 189.32 202.685 188.4C202.685 187.467 202.472 186.64 202.045 185.92C201.632 185.2 201.065 184.633 200.345 184.22C199.638 183.807 198.832 183.6 197.925 183.6C197.032 183.6 196.225 183.807 195.505 184.22C194.785 184.633 194.212 185.2 193.785 185.92C193.372 186.64 193.165 187.467 193.165 188.4ZM194.785 188.4C194.785 187.76 194.918 187.193 195.185 186.7C195.465 186.193 195.838 185.8 196.305 185.52C196.785 185.24 197.325 185.1 197.925 185.1C198.525 185.1 199.058 185.24 199.525 185.52C200.005 185.8 200.378 186.193 200.645 186.7C200.925 187.193 201.065 187.76 201.065 188.4C201.065 189.04 200.925 189.607 200.645 190.1C200.378 190.593 200.005 190.987 199.525 191.28C199.058 191.56 198.525 191.7 197.925 191.7C197.325 191.7 196.785 191.56 196.305 191.28C195.838 190.987 195.465 190.593 195.185 190.1C194.918 189.607 194.785 189.04 194.785 188.4ZM208.343 188.4C209.396 188.4 210.216 188.18 210.803 187.74C211.403 187.3 211.703 186.747 211.703 186.08C211.703 185.627 211.563 185.213 211.283 184.84C211.016 184.467 210.643 184.167 210.163 183.94C209.683 183.713 209.143 183.6 208.543 183.6C207.903 183.6 207.329 183.733 206.823 184C206.316 184.253 205.916 184.6 205.623 185.04C205.329 185.48 205.183 185.96 205.183 186.48H206.803C206.803 186.267 206.863 186.053 206.983 185.84C207.103 185.613 207.289 185.427 207.543 185.28C207.809 185.12 208.143 185.04 208.543 185.04C209.023 185.04 209.396 185.147 209.663 185.36C209.929 185.56 210.063 185.84 210.063 186.2C210.063 186.533 209.929 186.82 209.663 187.06C209.396 187.287 208.956 187.4 208.343 187.4V188.4ZM208.503 193.2C209.156 193.2 209.756 193.087 210.303 192.86C210.849 192.62 211.283 192.287 211.603 191.86C211.936 191.42 212.103 190.9 212.103 190.3C212.103 189.433 211.763 188.8 211.083 188.4C210.403 188 209.489 187.8 208.343 187.8V188.8C208.809 188.8 209.203 188.86 209.523 188.98C209.856 189.1 210.103 189.273 210.263 189.5C210.436 189.727 210.523 190 210.523 190.32C210.523 190.613 210.443 190.873 210.283 191.1C210.123 191.327 209.889 191.5 209.583 191.62C209.289 191.74 208.929 191.8 208.503 191.8C207.809 191.8 207.309 191.627 207.003 191.28C206.696 190.933 206.496 190.54 206.403 190.1H204.783C204.889 190.993 205.263 191.733 205.903 192.32C206.556 192.907 207.423 193.2 208.503 193.2ZM219.697 186.56L222.397 192.4H224.197L219.697 183.1L215.197 192.4H216.997L219.697 186.56ZM223.797 193V194.8H225.397V191.5H213.997V194.8H215.697V193H223.797ZM228.722 190.3C228.722 189.927 228.809 189.607 228.982 189.34C229.156 189.073 229.416 188.867 229.762 188.72C230.122 188.573 230.569 188.5 231.102 188.5C231.689 188.5 232.216 188.58 232.682 188.74C233.149 188.887 233.609 189.12 234.062 189.44V188.5C233.969 188.38 233.796 188.227 233.542 188.04C233.289 187.84 232.949 187.667 232.522 187.52C232.109 187.36 231.609 187.28 231.022 187.28C230.222 187.28 229.529 187.407 228.942 187.66C228.356 187.9 227.902 188.247 227.582 188.7C227.262 189.153 227.102 189.707 227.102 190.36C227.102 190.987 227.242 191.513 227.522 191.94C227.816 192.353 228.202 192.667 228.682 192.88C229.162 193.093 229.689 193.2 230.262 193.2C230.902 193.2 231.482 193.093 232.002 192.88C232.522 192.653 232.936 192.333 233.242 191.92C233.562 191.493 233.722 190.987 233.722 190.4L233.402 189.4C233.402 189.973 233.282 190.433 233.042 190.78C232.816 191.127 232.496 191.38 232.082 191.54C231.669 191.7 231.196 191.78 230.662 191.78C230.302 191.78 229.976 191.727 229.682 191.62C229.389 191.5 229.156 191.333 228.982 191.12C228.809 190.893 228.722 190.62 228.722 190.3ZM228.722 185.96C228.869 185.853 229.069 185.727 229.322 185.58C229.589 185.42 229.902 185.287 230.262 185.18C230.622 185.06 231.022 185 231.462 185C231.969 185 232.416 185.12 232.802 185.36C233.202 185.587 233.402 185.933 233.402 186.4V193H235.002V186.4C235.002 185.8 234.849 185.293 234.542 184.88C234.249 184.467 233.836 184.153 233.302 183.94C232.782 183.713 232.169 183.6 231.462 183.6C230.636 183.6 229.929 183.727 229.342 183.98C228.756 184.233 228.289 184.487 227.942 184.74L228.722 185.96ZM238.849 188.9H245.649V187.4H238.849V188.9ZM244.609 183.8V193H246.209V183.8H244.609ZM237.909 183.8V193H239.509V183.8H237.909ZM257.118 185.4L257.218 183.1L249.618 191.4L249.518 193.7L257.118 185.4ZM251.118 183.8H249.518V193.7L251.118 191.5V183.8ZM257.218 183.1L255.618 185.3V193H257.218V183.1ZM268.216 185.4L268.316 183.1L260.716 191.4L260.616 193.7L268.216 185.4ZM262.216 183.8H260.616V193.7L262.216 191.5V183.8ZM268.316 183.1L266.716 185.3V193H268.316V183.1ZM281.771 185.1C282.371 185.1 282.904 185.24 283.371 185.52C283.851 185.8 284.224 186.193 284.491 186.7C284.771 187.193 284.911 187.76 284.911 188.4C284.911 189.04 284.771 189.607 284.491 190.1C284.224 190.593 283.851 190.987 283.371 191.28C282.904 191.56 282.371 191.7 281.771 191.7C281.171 191.7 280.631 191.56 280.151 191.28C279.684 190.987 279.311 190.593 279.031 190.1C278.751 189.607 278.611 189.04 278.611 188.4L277.011 187.2C277.011 188.52 277.218 189.627 277.631 190.52C278.058 191.413 278.631 192.087 279.351 192.54C280.071 192.98 280.878 193.2 281.771 193.2C282.678 193.2 283.484 192.993 284.191 192.58C284.911 192.167 285.478 191.6 285.891 190.88C286.318 190.147 286.531 189.32 286.531 188.4C286.531 187.467 286.318 186.64 285.891 185.92C285.478 185.2 284.911 184.633 284.191 184.22C283.484 183.807 282.678 183.6 281.771 183.6V185.1ZM277.891 188.4H278.611C278.611 187.867 278.704 187.4 278.891 187C279.091 186.587 279.344 186.24 279.651 185.96C279.971 185.68 280.318 185.467 280.691 185.32C281.064 185.173 281.424 185.1 281.771 185.1V183.6C281.198 183.6 280.671 183.713 280.191 183.94C279.724 184.153 279.318 184.467 278.971 184.88C278.624 185.293 278.358 185.8 278.171 186.4C277.984 186.987 277.891 187.653 277.891 188.4ZM277.011 187.2L278.411 188.26V186.2C278.411 185.533 278.498 184.867 278.671 184.2C278.844 183.52 279.158 182.913 279.611 182.38C280.078 181.847 280.724 181.447 281.551 181.18C282.284 180.94 282.938 180.64 283.511 180.28C284.098 179.92 284.571 179.5 284.931 179.02C285.291 178.527 285.504 177.987 285.571 177.4H283.991C283.898 177.88 283.624 178.34 283.171 178.78C282.731 179.207 282.058 179.573 281.151 179.88C280.084 180.24 279.244 180.76 278.631 181.44C278.031 182.107 277.611 182.92 277.371 183.88C277.131 184.84 277.011 185.947 277.011 187.2ZM288.129 188.4C288.129 189.32 288.336 190.147 288.749 190.88C289.176 191.6 289.749 192.167 290.469 192.58C291.189 192.993 291.996 193.2 292.889 193.2C293.796 193.2 294.602 192.993 295.309 192.58C296.029 192.167 296.596 191.6 297.009 190.88C297.436 190.147 297.649 189.32 297.649 188.4C297.649 187.467 297.436 186.64 297.009 185.92C296.596 185.2 296.029 184.633 295.309 184.22C294.602 183.807 293.796 183.6 292.889 183.6C291.996 183.6 291.189 183.807 290.469 184.22C289.749 184.633 289.176 185.2 288.749 185.92C288.336 186.64 288.129 187.467 288.129 188.4ZM289.749 188.4C289.749 187.76 289.882 187.193 290.149 186.7C290.429 186.193 290.802 185.8 291.269 185.52C291.749 185.24 292.289 185.1 292.889 185.1C293.489 185.1 294.022 185.24 294.489 185.52C294.969 185.8 295.342 186.193 295.609 186.7C295.889 187.193 296.029 187.76 296.029 188.4C296.029 189.04 295.889 189.607 295.609 190.1C295.342 190.593 294.969 190.987 294.489 191.28C294.022 191.56 293.489 191.7 292.889 191.7C292.289 191.7 291.749 191.56 291.269 191.28C290.802 190.987 290.429 190.593 290.149 190.1C289.882 189.607 289.749 189.04 289.749 188.4ZM308.107 183.8H300.207V189.8C300.207 190.453 300.06 190.907 299.767 191.16C299.487 191.413 299.147 191.54 298.747 191.54V193C299.44 193 300.014 192.887 300.467 192.66C300.92 192.42 301.254 192.067 301.467 191.6C301.694 191.12 301.807 190.52 301.807 189.8V185.3H306.507V193H308.107V183.8ZM311.619 188.8H319.479C319.493 188.72 319.499 188.64 319.499 188.56C319.499 188.48 319.499 188.4 319.499 188.32C319.499 187.347 319.319 186.513 318.959 185.82C318.599 185.113 318.093 184.567 317.439 184.18C316.786 183.793 316.026 183.6 315.159 183.6C314.373 183.6 313.659 183.76 313.019 184.08C312.393 184.4 311.879 184.847 311.479 185.42C311.079 185.993 310.813 186.66 310.679 187.42C310.653 187.58 310.633 187.74 310.619 187.9C310.606 188.06 310.599 188.227 310.599 188.4C310.599 189.32 310.786 190.147 311.159 190.88C311.546 191.6 312.066 192.167 312.719 192.58C313.386 192.993 314.133 193.2 314.959 193.2C315.759 193.2 316.426 193.107 316.959 192.92C317.493 192.72 317.946 192.447 318.319 192.1C318.693 191.74 319.033 191.327 319.339 190.86L318.039 190.04C317.839 190.373 317.599 190.667 317.319 190.92C317.039 191.16 316.719 191.353 316.359 191.5C316.013 191.633 315.613 191.7 315.159 191.7C314.559 191.7 314.039 191.573 313.599 191.32C313.159 191.067 312.819 190.693 312.579 190.2C312.339 189.707 312.219 189.107 312.219 188.4L312.259 187.8C312.259 187.227 312.386 186.733 312.639 186.32C312.906 185.893 313.259 185.567 313.699 185.34C314.139 185.113 314.626 185 315.159 185C315.693 185 316.139 185.107 316.499 185.32C316.873 185.52 317.159 185.807 317.359 186.18C317.573 186.54 317.706 186.96 317.759 187.44H311.619V188.8ZM322.112 188.8H329.972C329.986 188.72 329.992 188.64 329.992 188.56C329.992 188.48 329.992 188.4 329.992 188.32C329.992 187.347 329.812 186.513 329.452 185.82C329.092 185.113 328.586 184.567 327.932 184.18C327.279 183.793 326.519 183.6 325.652 183.6C324.866 183.6 324.152 183.76 323.512 184.08C322.886 184.4 322.372 184.847 321.972 185.42C321.572 185.993 321.306 186.66 321.172 187.42C321.146 187.58 321.126 187.74 321.112 187.9C321.099 188.06 321.092 188.227 321.092 188.4C321.092 189.32 321.279 190.147 321.652 190.88C322.039 191.6 322.559 192.167 323.212 192.58C323.879 192.993 324.626 193.2 325.452 193.2C326.252 193.2 326.919 193.107 327.452 192.92C327.986 192.72 328.439 192.447 328.812 192.1C329.186 191.74 329.526 191.327 329.832 190.86L328.532 190.04C328.332 190.373 328.092 190.667 327.812 190.92C327.532 191.16 327.212 191.353 326.852 191.5C326.506 191.633 326.106 191.7 325.652 191.7C325.052 191.7 324.532 191.573 324.092 191.32C323.652 191.067 323.312 190.693 323.072 190.2C322.832 189.707 322.712 189.107 322.712 188.4L322.752 187.8C322.752 187.227 322.879 186.733 323.132 186.32C323.399 185.893 323.752 185.567 324.192 185.34C324.632 185.113 325.119 185 325.652 185C326.186 185 326.632 185.107 326.992 185.32C327.366 185.52 327.652 185.807 327.852 186.18C328.066 186.54 328.199 186.96 328.252 187.44H322.112V188.8ZM337.481 190.2H348.141V188.7H345.281H344.941H340.281L344.241 182.78V189.26V189.48V193H345.941V179H345.241L337.481 190.2ZM351.441 186C351.441 185.187 351.521 184.44 351.681 183.76C351.841 183.067 352.075 182.473 352.381 181.98C352.688 181.473 353.055 181.087 353.481 180.82C353.921 180.54 354.408 180.4 354.941 180.4C355.488 180.4 355.975 180.54 356.401 180.82C356.828 181.087 357.195 181.473 357.501 181.98C357.808 182.473 358.041 183.067 358.201 183.76C358.361 184.44 358.441 185.187 358.441 186C358.441 186.813 358.361 187.567 358.201 188.26C358.041 188.94 357.808 189.533 357.501 190.04C357.195 190.533 356.828 190.92 356.401 191.2C355.975 191.467 355.488 191.6 354.941 191.6C354.408 191.6 353.921 191.467 353.481 191.2C353.055 190.92 352.688 190.533 352.381 190.04C352.075 189.533 351.841 188.94 351.681 188.26C351.521 187.567 351.441 186.813 351.441 186ZM349.741 186C349.741 187.4 349.961 188.64 350.401 189.72C350.841 190.8 351.448 191.653 352.221 192.28C353.008 192.893 353.915 193.2 354.941 193.2C355.968 193.2 356.868 192.893 357.641 192.28C358.428 191.653 359.041 190.8 359.481 189.72C359.921 188.64 360.141 187.4 360.141 186C360.141 184.6 359.921 183.36 359.481 182.28C359.041 181.2 358.428 180.353 357.641 179.74C356.868 179.113 355.968 178.8 354.941 178.8C353.915 178.8 353.008 179.113 352.221 179.74C351.448 180.353 350.841 181.2 350.401 182.28C349.961 183.36 349.741 184.6 349.741 186ZM57 212.8H49.5V222H51.1V214.3H55.4V222H57V212.8ZM61.7078 226.4V212.8H60.1078V226.4H61.7078ZM69.4078 217.4C69.4078 216.4 69.2011 215.547 68.7878 214.84C68.3745 214.12 67.8211 213.567 67.1278 213.18C66.4478 212.793 65.6878 212.6 64.8478 212.6C64.0878 212.6 63.4145 212.793 62.8278 213.18C62.2545 213.567 61.8011 214.12 61.4678 214.84C61.1478 215.547 60.9878 216.4 60.9878 217.4C60.9878 218.387 61.1478 219.24 61.4678 219.96C61.8011 220.68 62.2545 221.233 62.8278 221.62C63.4145 222.007 64.0878 222.2 64.8478 222.2C65.6878 222.2 66.4478 222.007 67.1278 221.62C67.8211 221.233 68.3745 220.68 68.7878 219.96C69.2011 219.24 69.4078 218.387 69.4078 217.4ZM67.7878 217.4C67.7878 218.107 67.6411 218.707 67.3478 219.2C67.0678 219.693 66.6878 220.067 66.2078 220.32C65.7411 220.573 65.2211 220.7 64.6478 220.7C64.1811 220.7 63.7211 220.573 63.2678 220.32C62.8145 220.067 62.4411 219.693 62.1478 219.2C61.8545 218.707 61.7078 218.107 61.7078 217.4C61.7078 216.693 61.8545 216.093 62.1478 215.6C62.4411 215.107 62.8145 214.733 63.2678 214.48C63.7211 214.227 64.1811 214.1 64.6478 214.1C65.2211 214.1 65.7411 214.227 66.2078 214.48C66.6878 214.733 67.0678 215.107 67.3478 215.6C67.6411 216.093 67.7878 216.693 67.7878 217.4ZM71.0141 217.4C71.0141 218.32 71.2207 219.147 71.6341 219.88C72.0607 220.6 72.6341 221.167 73.3541 221.58C74.0741 221.993 74.8807 222.2 75.7741 222.2C76.6807 222.2 77.4874 221.993 78.1941 221.58C78.9141 221.167 79.4807 220.6 79.8941 219.88C80.3207 219.147 80.5341 218.32 80.5341 217.4C80.5341 216.467 80.3207 215.64 79.8941 214.92C79.4807 214.2 78.9141 213.633 78.1941 213.22C77.4874 212.807 76.6807 212.6 75.7741 212.6C74.8807 212.6 74.0741 212.807 73.3541 213.22C72.6341 213.633 72.0607 214.2 71.6341 214.92C71.2207 215.64 71.0141 216.467 71.0141 217.4ZM72.6341 217.4C72.6341 216.76 72.7674 216.193 73.0341 215.7C73.3141 215.193 73.6874 214.8 74.1541 214.52C74.6341 214.24 75.1741 214.1 75.7741 214.1C76.3741 214.1 76.9074 214.24 77.3741 214.52C77.8541 214.8 78.2274 215.193 78.4941 215.7C78.7741 216.193 78.9141 216.76 78.9141 217.4C78.9141 218.04 78.7741 218.607 78.4941 219.1C78.2274 219.593 77.8541 219.987 77.3741 220.28C76.9074 220.56 76.3741 220.7 75.7741 220.7C75.1741 220.7 74.6341 220.56 74.1541 220.28C73.6874 219.987 73.3141 219.593 73.0341 219.1C72.7674 218.607 72.6341 218.04 72.6341 217.4ZM84.172 216.66V218.14H88.772L90.172 216.66H84.172ZM88.772 217.4C88.772 218.04 88.632 218.607 88.352 219.1C88.0854 219.593 87.712 219.987 87.232 220.28C86.7654 220.56 86.232 220.7 85.632 220.7C85.1387 220.7 84.672 220.627 84.232 220.48C83.8054 220.32 83.432 220.113 83.112 219.86C82.8054 219.593 82.5787 219.313 82.432 219.02V221.02C82.752 221.393 83.2054 221.687 83.792 221.9C84.392 222.1 85.0054 222.2 85.632 222.2C86.5387 222.2 87.3454 221.993 88.052 221.58C88.772 221.167 89.3387 220.6 89.752 219.88C90.1787 219.147 90.392 218.32 90.392 217.4C90.392 216.467 90.1787 215.64 89.752 214.92C89.3387 214.2 88.772 213.633 88.052 213.22C87.3454 212.807 86.5387 212.6 85.632 212.6C85.0054 212.6 84.392 212.707 83.792 212.92C83.2054 213.12 82.752 213.407 82.432 213.78V215.78C82.5787 215.473 82.8054 215.193 83.112 214.94C83.432 214.687 83.8054 214.487 84.232 214.34C84.672 214.18 85.1387 214.1 85.632 214.1C86.232 214.1 86.7654 214.24 87.232 214.52C87.712 214.8 88.0854 215.193 88.352 215.7C88.632 216.193 88.772 216.76 88.772 217.4ZM92.5828 212.8V222H94.1828V212.8H92.5828ZM97.5828 212.8L93.5828 216.6L97.9828 222H99.9828L95.5828 216.6L99.5828 212.8H97.5828ZM100.291 212.8V214.3H105.691V212.8H100.291ZM102.191 213.2V222H103.791V213.2H102.191ZM106.404 217.4C106.404 218.32 106.611 219.147 107.024 219.88C107.451 220.6 108.024 221.167 108.744 221.58C109.464 221.993 110.271 222.2 111.164 222.2C112.071 222.2 112.877 221.993 113.584 221.58C114.304 221.167 114.871 220.6 115.284 219.88C115.711 219.147 115.924 218.32 115.924 217.4C115.924 216.467 115.711 215.64 115.284 214.92C114.871 214.2 114.304 213.633 113.584 213.22C112.877 212.807 112.071 212.6 111.164 212.6C110.271 212.6 109.464 212.807 108.744 213.22C108.024 213.633 107.451 214.2 107.024 214.92C106.611 215.64 106.404 216.467 106.404 217.4ZM108.024 217.4C108.024 216.76 108.157 216.193 108.424 215.7C108.704 215.193 109.077 214.8 109.544 214.52C110.024 214.24 110.564 214.1 111.164 214.1C111.764 214.1 112.297 214.24 112.764 214.52C113.244 214.8 113.617 215.193 113.884 215.7C114.164 216.193 114.304 216.76 114.304 217.4C114.304 218.04 114.164 218.607 113.884 219.1C113.617 219.593 113.244 219.987 112.764 220.28C112.297 220.56 111.764 220.7 111.164 220.7C110.564 220.7 110.024 220.56 109.544 220.28C109.077 219.987 108.704 219.593 108.424 219.1C108.157 218.607 108.024 218.04 108.024 217.4ZM119.262 217.2V218.04H121.922C122.229 218.04 122.489 218.073 122.702 218.14C122.929 218.193 123.109 218.28 123.242 218.4C123.389 218.52 123.495 218.653 123.562 218.8C123.642 218.947 123.682 219.113 123.682 219.3C123.682 219.66 123.535 219.967 123.242 220.22C122.962 220.473 122.522 220.6 121.922 220.6H119.262V222H122.322C123.375 222 124.129 221.76 124.582 221.28C125.049 220.787 125.282 220.193 125.282 219.5C125.282 218.9 125.135 218.433 124.842 218.1C124.549 217.767 124.149 217.533 123.642 217.4C123.135 217.267 122.562 217.2 121.922 217.2H119.262ZM119.262 217.6H121.722C122.295 217.6 122.815 217.52 123.282 217.36C123.762 217.187 124.149 216.933 124.442 216.6C124.735 216.253 124.882 215.82 124.882 215.3C124.882 214.7 124.735 214.22 124.442 213.86C124.149 213.487 123.762 213.22 123.282 213.06C122.815 212.887 122.295 212.8 121.722 212.8H119.262V214.2H121.722C122.202 214.2 122.582 214.313 122.862 214.54C123.142 214.753 123.282 215.04 123.282 215.4C123.282 215.573 123.242 215.74 123.162 215.9C123.095 216.047 122.995 216.18 122.862 216.3C122.729 216.42 122.562 216.513 122.362 216.58C122.175 216.633 121.962 216.66 121.722 216.66H119.262V217.6ZM118.322 212.8V222H119.922V212.8H118.322ZM129.044 219.8L127.284 224.98L128.444 225.4L130.644 220.4L129.044 219.8ZM141.073 217.2V218.04H143.733C144.039 218.04 144.299 218.073 144.513 218.14C144.739 218.193 144.919 218.28 145.053 218.4C145.199 218.52 145.306 218.653 145.373 218.8C145.453 218.947 145.493 219.113 145.493 219.3C145.493 219.66 145.346 219.967 145.053 220.22C144.773 220.473 144.333 220.6 143.733 220.6H141.073V222H144.133C145.186 222 145.939 221.76 146.393 221.28C146.859 220.787 147.093 220.193 147.093 219.5C147.093 218.9 146.946 218.433 146.653 218.1C146.359 217.767 145.959 217.533 145.453 217.4C144.946 217.267 144.373 217.2 143.733 217.2H141.073ZM141.073 217.6H143.533C144.106 217.6 144.626 217.52 145.093 217.36C145.573 217.187 145.959 216.933 146.253 216.6C146.546 216.253 146.693 215.82 146.693 215.3C146.693 214.7 146.546 214.22 146.253 213.86C145.959 213.487 145.573 213.22 145.093 213.06C144.626 212.887 144.106 212.8 143.533 212.8H141.073V214.2H143.533C144.013 214.2 144.393 214.313 144.673 214.54C144.953 214.753 145.093 215.04 145.093 215.4C145.093 215.573 145.053 215.74 144.973 215.9C144.906 216.047 144.806 216.18 144.673 216.3C144.539 216.42 144.373 216.513 144.173 216.58C143.986 216.633 143.773 216.66 143.533 216.66H141.073V217.6ZM140.133 212.8V222H141.733V212.8H140.133ZM149.295 212.8V222H150.895V212.8H149.295ZM154.295 212.8L150.295 216.6L154.695 222H156.695L152.295 216.6L156.295 212.8H154.295ZM166.464 212.8H158.564V218.8C158.564 219.453 158.417 219.907 158.124 220.16C157.844 220.413 157.504 220.54 157.104 220.54V222C157.797 222 158.371 221.887 158.824 221.66C159.277 221.42 159.611 221.067 159.824 220.6C160.051 220.12 160.164 219.52 160.164 218.8V214.3H164.864V222H166.464V212.8ZM170.696 217.9H174.096V216.4H170.696V217.9ZM169.756 212.8V222H171.356V212.8H169.756ZM172.956 217.4C172.956 218.32 173.163 219.147 173.576 219.88C174.003 220.6 174.576 221.167 175.296 221.58C176.016 221.993 176.823 222.2 177.716 222.2C178.623 222.2 179.43 221.993 180.136 221.58C180.856 221.167 181.423 220.6 181.836 219.88C182.263 219.147 182.476 218.32 182.476 217.4C182.476 216.467 182.263 215.64 181.836 214.92C181.423 214.2 180.856 213.633 180.136 213.22C179.43 212.807 178.623 212.6 177.716 212.6C176.823 212.6 176.016 212.807 175.296 213.22C174.576 213.633 174.003 214.2 173.576 214.92C173.163 215.64 172.956 216.467 172.956 217.4ZM174.576 217.4C174.576 216.76 174.71 216.193 174.976 215.7C175.256 215.193 175.63 214.8 176.096 214.52C176.576 214.24 177.116 214.1 177.716 214.1C178.316 214.1 178.85 214.24 179.316 214.52C179.796 214.8 180.17 215.193 180.436 215.7C180.716 216.193 180.856 216.76 180.856 217.4C180.856 218.04 180.716 218.607 180.436 219.1C180.17 219.593 179.796 219.987 179.316 220.28C178.85 220.56 178.316 220.7 177.716 220.7C177.116 220.7 176.576 220.56 176.096 220.28C175.63 219.987 175.256 219.593 174.976 219.1C174.71 218.607 174.576 218.04 174.576 217.4ZM187.978 219.2H191.118V217.7H187.978V219.2ZM189.978 212.8V222H191.578V212.8H189.978ZM185.978 212.8H184.378V215.44C184.378 216.333 184.485 217.06 184.698 217.62C184.911 218.167 185.278 218.567 185.798 218.82C186.331 219.073 187.058 219.2 187.978 219.2V217.7C187.471 217.7 187.071 217.627 186.778 217.48C186.485 217.32 186.278 217.073 186.158 216.74C186.038 216.407 185.978 215.973 185.978 215.44V212.8ZM195.505 219.3C195.505 218.927 195.592 218.607 195.765 218.34C195.938 218.073 196.198 217.867 196.545 217.72C196.905 217.573 197.352 217.5 197.885 217.5C198.472 217.5 198.998 217.58 199.465 217.74C199.932 217.887 200.392 218.12 200.845 218.44V217.5C200.752 217.38 200.578 217.227 200.325 217.04C200.072 216.84 199.732 216.667 199.305 216.52C198.892 216.36 198.392 216.28 197.805 216.28C197.005 216.28 196.312 216.407 195.725 216.66C195.138 216.9 194.685 217.247 194.365 217.7C194.045 218.153 193.885 218.707 193.885 219.36C193.885 219.987 194.025 220.513 194.305 220.94C194.598 221.353 194.985 221.667 195.465 221.88C195.945 222.093 196.472 222.2 197.045 222.2C197.685 222.2 198.265 222.093 198.785 221.88C199.305 221.653 199.718 221.333 200.025 220.92C200.345 220.493 200.505 219.987 200.505 219.4L200.185 218.4C200.185 218.973 200.065 219.433 199.825 219.78C199.598 220.127 199.278 220.38 198.865 220.54C198.452 220.7 197.978 220.78 197.445 220.78C197.085 220.78 196.758 220.727 196.465 220.62C196.172 220.5 195.938 220.333 195.765 220.12C195.592 219.893 195.505 219.62 195.505 219.3ZM195.505 214.96C195.652 214.853 195.852 214.727 196.105 214.58C196.372 214.42 196.685 214.287 197.045 214.18C197.405 214.06 197.805 214 198.245 214C198.752 214 199.198 214.12 199.585 214.36C199.985 214.587 200.185 214.933 200.185 215.4V222H201.785V215.4C201.785 214.8 201.632 214.293 201.325 213.88C201.032 213.467 200.618 213.153 200.085 212.94C199.565 212.713 198.952 212.6 198.245 212.6C197.418 212.6 196.712 212.727 196.125 212.98C195.538 213.233 195.072 213.487 194.725 213.74L195.505 214.96ZM206.012 222L209.412 217.2H207.652L204.252 222H206.012ZM211.852 222V212.8H210.252V222H211.852ZM210.912 216.92H208.052C207.666 216.92 207.339 216.873 207.072 216.78C206.819 216.673 206.626 216.52 206.492 216.32C206.359 216.12 206.292 215.867 206.292 215.56C206.292 215.253 206.359 215 206.492 214.8C206.626 214.6 206.819 214.453 207.072 214.36C207.339 214.253 207.666 214.2 208.052 214.2H210.912V212.8H208.052C207.426 212.8 206.852 212.893 206.332 213.08C205.826 213.267 205.426 213.56 205.132 213.96C204.839 214.36 204.692 214.893 204.692 215.56C204.692 216.213 204.839 216.747 205.132 217.16C205.426 217.56 205.826 217.853 206.332 218.04C206.852 218.227 207.426 218.32 208.052 218.32H210.912V216.92ZM223.856 219.2H226.996V217.7H223.856V219.2ZM225.856 212.8V222H227.456V212.8H225.856ZM221.856 212.8H220.256V215.44C220.256 216.333 220.363 217.06 220.576 217.62C220.79 218.167 221.156 218.567 221.676 218.82C222.21 219.073 222.936 219.2 223.856 219.2V217.7C223.35 217.7 222.95 217.627 222.656 217.48C222.363 217.32 222.156 217.073 222.036 216.74C221.916 216.407 221.856 215.973 221.856 215.44V212.8ZM231.383 219.3C231.383 218.927 231.47 218.607 231.643 218.34C231.817 218.073 232.077 217.867 232.423 217.72C232.783 217.573 233.23 217.5 233.763 217.5C234.35 217.5 234.877 217.58 235.343 217.74C235.81 217.887 236.27 218.12 236.723 218.44V217.5C236.63 217.38 236.457 217.227 236.203 217.04C235.95 216.84 235.61 216.667 235.183 216.52C234.77 216.36 234.27 216.28 233.683 216.28C232.883 216.28 232.19 216.407 231.603 216.66C231.017 216.9 230.563 217.247 230.243 217.7C229.923 218.153 229.763 218.707 229.763 219.36C229.763 219.987 229.903 220.513 230.183 220.94C230.477 221.353 230.863 221.667 231.343 221.88C231.823 222.093 232.35 222.2 232.923 222.2C233.563 222.2 234.143 222.093 234.663 221.88C235.183 221.653 235.597 221.333 235.903 220.92C236.223 220.493 236.383 219.987 236.383 219.4L236.063 218.4C236.063 218.973 235.943 219.433 235.703 219.78C235.477 220.127 235.157 220.38 234.743 220.54C234.33 220.7 233.857 220.78 233.323 220.78C232.963 220.78 232.637 220.727 232.343 220.62C232.05 220.5 231.817 220.333 231.643 220.12C231.47 219.893 231.383 219.62 231.383 219.3ZM231.383 214.96C231.53 214.853 231.73 214.727 231.983 214.58C232.25 214.42 232.563 214.287 232.923 214.18C233.283 214.06 233.683 214 234.123 214C234.63 214 235.077 214.12 235.463 214.36C235.863 214.587 236.063 214.933 236.063 215.4V222H237.663V215.4C237.663 214.8 237.51 214.293 237.203 213.88C236.91 213.467 236.497 213.153 235.963 212.94C235.443 212.713 234.83 212.6 234.123 212.6C233.297 212.6 232.59 212.727 232.003 212.98C231.417 213.233 230.95 213.487 230.603 213.74L231.383 214.96ZM241.29 217.4C241.29 216.76 241.424 216.193 241.69 215.7C241.97 215.193 242.344 214.8 242.81 214.52C243.29 214.24 243.83 214.1 244.43 214.1C244.924 214.1 245.384 214.18 245.81 214.34C246.25 214.487 246.63 214.687 246.95 214.94C247.27 215.193 247.497 215.473 247.63 215.78V213.78C247.31 213.407 246.85 213.12 246.25 212.92C245.664 212.707 245.057 212.6 244.43 212.6C243.537 212.6 242.73 212.807 242.01 213.22C241.29 213.633 240.717 214.2 240.29 214.92C239.877 215.64 239.67 216.467 239.67 217.4C239.67 218.32 239.877 219.147 240.29 219.88C240.717 220.6 241.29 221.167 242.01 221.58C242.73 221.993 243.537 222.2 244.43 222.2C245.057 222.2 245.664 222.1 246.25 221.9C246.85 221.687 247.31 221.393 247.63 221.02V219.02C247.497 219.313 247.27 219.593 246.95 219.86C246.63 220.113 246.25 220.32 245.81 220.48C245.384 220.627 244.924 220.7 244.43 220.7C243.83 220.7 243.29 220.56 242.81 220.28C242.344 219.987 241.97 219.593 241.69 219.1C241.424 218.607 241.29 218.04 241.29 217.4ZM248.921 212.8V214.3H254.321V212.8H248.921ZM250.821 213.2V222H252.421V213.2H250.821ZM257.067 217.9H263.867V216.4H257.067V217.9ZM262.827 212.8V222H264.427V212.8H262.827ZM256.127 212.8V222H257.727V212.8H256.127ZM275.935 212.8V222H277.535V212.8H275.935ZM267.635 212.8V222H269.235V212.8H267.635ZM268.575 217.68H271.435C272.022 217.68 272.462 217.807 272.755 218.06C273.048 218.313 273.195 218.673 273.195 219.14C273.195 219.447 273.128 219.713 272.995 219.94C272.862 220.153 272.662 220.32 272.395 220.44C272.142 220.547 271.822 220.6 271.435 220.6H268.575V222H271.435C272.075 222 272.648 221.9 273.155 221.7C273.662 221.5 274.062 221.187 274.355 220.76C274.648 220.333 274.795 219.793 274.795 219.14C274.795 218.153 274.468 217.433 273.815 216.98C273.175 216.513 272.382 216.28 271.435 216.28H268.575V217.68ZM280.946 217.8H288.806C288.819 217.72 288.826 217.64 288.826 217.56C288.826 217.48 288.826 217.4 288.826 217.32C288.826 216.347 288.646 215.513 288.286 214.82C287.926 214.113 287.419 213.567 286.766 213.18C286.112 212.793 285.352 212.6 284.486 212.6C283.699 212.6 282.986 212.76 282.346 213.08C281.719 213.4 281.206 213.847 280.806 214.42C280.406 214.993 280.139 215.66 280.006 216.42C279.979 216.58 279.959 216.74 279.946 216.9C279.932 217.06 279.926 217.227 279.926 217.4C279.926 218.32 280.112 219.147 280.486 219.88C280.872 220.6 281.392 221.167 282.046 221.58C282.712 221.993 283.459 222.2 284.286 222.2C285.086 222.2 285.752 222.107 286.286 221.92C286.819 221.72 287.272 221.447 287.646 221.1C288.019 220.74 288.359 220.327 288.666 219.86L287.366 219.04C287.166 219.373 286.926 219.667 286.646 219.92C286.366 220.16 286.046 220.353 285.686 220.5C285.339 220.633 284.939 220.7 284.486 220.7C283.886 220.7 283.366 220.573 282.926 220.32C282.486 220.067 282.146 219.693 281.906 219.2C281.666 218.707 281.546 218.107 281.546 217.4L281.586 216.8C281.586 216.227 281.712 215.733 281.966 215.32C282.232 214.893 282.586 214.567 283.026 214.34C283.466 214.113 283.952 214 284.486 214C285.019 214 285.466 214.107 285.826 214.32C286.199 214.52 286.486 214.807 286.686 215.18C286.899 215.54 287.032 215.96 287.086 216.44H280.946V217.8ZM302.415 215.56L305.115 221.4H306.915L302.415 212.1L297.915 221.4H299.715L302.415 215.56ZM306.515 222V223.8H308.115V220.5H296.715V223.8H298.415V222H306.515ZM309.92 217.4C309.92 218.32 310.127 219.147 310.54 219.88C310.967 220.6 311.54 221.167 312.26 221.58C312.98 221.993 313.787 222.2 314.68 222.2C315.587 222.2 316.394 221.993 317.1 221.58C317.82 221.167 318.387 220.6 318.8 219.88C319.227 219.147 319.44 218.32 319.44 217.4C319.44 216.467 319.227 215.64 318.8 214.92C318.387 214.2 317.82 213.633 317.1 213.22C316.394 212.807 315.587 212.6 314.68 212.6C313.787 212.6 312.98 212.807 312.26 213.22C311.54 213.633 310.967 214.2 310.54 214.92C310.127 215.64 309.92 216.467 309.92 217.4ZM311.54 217.4C311.54 216.76 311.674 216.193 311.94 215.7C312.22 215.193 312.594 214.8 313.06 214.52C313.54 214.24 314.08 214.1 314.68 214.1C315.28 214.1 315.814 214.24 316.28 214.52C316.76 214.8 317.134 215.193 317.4 215.7C317.68 216.193 317.82 216.76 317.82 217.4C317.82 218.04 317.68 218.607 317.4 219.1C317.134 219.593 316.76 219.987 316.28 220.28C315.814 220.56 315.28 220.7 314.68 220.7C314.08 220.7 313.54 220.56 313.06 220.28C312.594 219.987 312.22 219.593 311.94 219.1C311.674 218.607 311.54 218.04 311.54 217.4ZM330.578 222H332.378L329.978 212.1L329.078 214.7L330.578 222ZM325.778 220.62L326.378 222.62L330.178 215.3L329.978 212.1L325.778 220.62ZM326.378 222.62L326.978 220.62L322.838 212.1L322.638 215.3L326.378 222.62ZM320.438 222H322.238L323.738 214.7L322.838 212.1L320.438 222ZM334.907 219.3C334.907 218.927 334.993 218.607 335.167 218.34C335.34 218.073 335.6 217.867 335.947 217.72C336.307 217.573 336.753 217.5 337.287 217.5C337.873 217.5 338.4 217.58 338.867 217.74C339.333 217.887 339.793 218.12 340.247 218.44V217.5C340.153 217.38 339.98 217.227 339.727 217.04C339.473 216.84 339.133 216.667 338.707 216.52C338.293 216.36 337.793 216.28 337.207 216.28C336.407 216.28 335.713 216.407 335.127 216.66C334.54 216.9 334.087 217.247 333.767 217.7C333.447 218.153 333.287 218.707 333.287 219.36C333.287 219.987 333.427 220.513 333.707 220.94C334 221.353 334.387 221.667 334.867 221.88C335.347 222.093 335.873 222.2 336.447 222.2C337.087 222.2 337.667 222.093 338.187 221.88C338.707 221.653 339.12 221.333 339.427 220.92C339.747 220.493 339.907 219.987 339.907 219.4L339.587 218.4C339.587 218.973 339.467 219.433 339.227 219.78C339 220.127 338.68 220.38 338.267 220.54C337.853 220.7 337.38 220.78 336.847 220.78C336.487 220.78 336.16 220.727 335.867 220.62C335.573 220.5 335.34 220.333 335.167 220.12C334.993 219.893 334.907 219.62 334.907 219.3ZM334.907 214.96C335.053 214.853 335.253 214.727 335.507 214.58C335.773 214.42 336.087 214.287 336.447 214.18C336.807 214.06 337.207 214 337.647 214C338.153 214 338.6 214.12 338.987 214.36C339.387 214.587 339.587 214.933 339.587 215.4V222H341.187V215.4C341.187 214.8 341.033 214.293 340.727 213.88C340.433 213.467 340.02 213.153 339.487 212.94C338.967 212.713 338.353 212.6 337.647 212.6C336.82 212.6 336.113 212.727 335.527 212.98C334.94 213.233 334.473 213.487 334.127 213.74L334.907 214.96ZM357.99 214.4L358.09 212.1L350.49 220.4L350.39 222.7L357.99 214.4ZM351.99 212.8H350.39V222.7L351.99 220.5V212.8ZM358.09 212.1L356.49 214.3V222H358.09V212.1ZM49.6 241.8V251H51.2V243.3H54.5V241.8H49.6ZM55.2086 246.4C55.2086 247.32 55.4153 248.147 55.8286 248.88C56.2553 249.6 56.8286 250.167 57.5486 250.58C58.2686 250.993 59.0753 251.2 59.9686 251.2C60.8753 251.2 61.6819 250.993 62.3886 250.58C63.1086 250.167 63.6753 249.6 64.0886 248.88C64.5153 248.147 64.7286 247.32 64.7286 246.4C64.7286 245.467 64.5153 244.64 64.0886 243.92C63.6753 243.2 63.1086 242.633 62.3886 242.22C61.6819 241.807 60.8753 241.6 59.9686 241.6C59.0753 241.6 58.2686 241.807 57.5486 242.22C56.8286 242.633 56.2553 243.2 55.8286 243.92C55.4153 244.64 55.2086 245.467 55.2086 246.4ZM56.8286 246.4C56.8286 245.76 56.9619 245.193 57.2286 244.7C57.5086 244.193 57.8819 243.8 58.3486 243.52C58.8286 243.24 59.3686 243.1 59.9686 243.1C60.5686 243.1 61.1019 243.24 61.5686 243.52C62.0486 243.8 62.4219 244.193 62.6886 244.7C62.9686 245.193 63.1086 245.76 63.1086 246.4C63.1086 247.04 62.9686 247.607 62.6886 248.1C62.4219 248.593 62.0486 248.987 61.5686 249.28C61.1019 249.56 60.5686 249.7 59.9686 249.7C59.3686 249.7 58.8286 249.56 58.3486 249.28C57.8819 248.987 57.5086 248.593 57.2286 248.1C56.9619 247.607 56.8286 247.04 56.8286 246.4ZM67.8466 246.4C67.8466 245.76 67.9799 245.193 68.2466 244.7C68.5266 244.193 68.8999 243.8 69.3666 243.52C69.8466 243.24 70.3866 243.1 70.9866 243.1C71.4799 243.1 71.9399 243.18 72.3666 243.34C72.8066 243.487 73.1866 243.687 73.5066 243.94C73.8266 244.193 74.0532 244.473 74.1866 244.78V242.78C73.8666 242.407 73.4066 242.12 72.8066 241.92C72.2199 241.707 71.6132 241.6 70.9866 241.6C70.0932 241.6 69.2866 241.807 68.5666 242.22C67.8466 242.633 67.2732 243.2 66.8466 243.92C66.4332 244.64 66.2266 245.467 66.2266 246.4C66.2266 247.32 66.4332 248.147 66.8466 248.88C67.2732 249.6 67.8466 250.167 68.5666 250.58C69.2866 250.993 70.0932 251.2 70.9866 251.2C71.6132 251.2 72.2199 251.1 72.8066 250.9C73.4066 250.687 73.8666 250.393 74.1866 250.02V248.02C74.0532 248.313 73.8266 248.593 73.5066 248.86C73.1866 249.113 72.8066 249.32 72.3666 249.48C71.9399 249.627 71.4799 249.7 70.9866 249.7C70.3866 249.7 69.8466 249.56 69.3666 249.28C68.8999 248.987 68.5266 248.593 68.2466 248.1C67.9799 247.607 67.8466 247.04 67.8466 246.4ZM84.1773 241.8H82.3773L79.5373 248.92L80.1973 249L77.2773 241.8H75.3773L78.8973 249.7L76.3773 255.4H78.1773L84.1773 241.8ZM89.6945 244.56L92.3945 250.4H94.1945L89.6945 241.1L85.1945 250.4H86.9945L89.6945 244.56ZM93.7945 251V252.8H95.3945V249.5H83.9945V252.8H85.6945V251H93.7945ZM98.72 248.3C98.72 247.927 98.8067 247.607 98.98 247.34C99.1533 247.073 99.4133 246.867 99.76 246.72C100.12 246.573 100.567 246.5 101.1 246.5C101.687 246.5 102.213 246.58 102.68 246.74C103.147 246.887 103.607 247.12 104.06 247.44V246.5C103.967 246.38 103.793 246.227 103.54 246.04C103.287 245.84 102.947 245.667 102.52 245.52C102.107 245.36 101.607 245.28 101.02 245.28C100.22 245.28 99.5267 245.407 98.94 245.66C98.3533 245.9 97.9 246.247 97.58 246.7C97.26 247.153 97.1 247.707 97.1 248.36C97.1 248.987 97.24 249.513 97.52 249.94C97.8133 250.353 98.2 250.667 98.68 250.88C99.16 251.093 99.6867 251.2 100.26 251.2C100.9 251.2 101.48 251.093 102 250.88C102.52 250.653 102.933 250.333 103.24 249.92C103.56 249.493 103.72 248.987 103.72 248.4L103.4 247.4C103.4 247.973 103.28 248.433 103.04 248.78C102.813 249.127 102.493 249.38 102.08 249.54C101.667 249.7 101.193 249.78 100.66 249.78C100.3 249.78 99.9733 249.727 99.68 249.62C99.3867 249.5 99.1533 249.333 98.98 249.12C98.8067 248.893 98.72 248.62 98.72 248.3ZM98.72 243.96C98.8667 243.853 99.0667 243.727 99.32 243.58C99.5867 243.42 99.9 243.287 100.26 243.18C100.62 243.06 101.02 243 101.46 243C101.967 243 102.413 243.12 102.8 243.36C103.2 243.587 103.4 243.933 103.4 244.4V251H105V244.4C105 243.8 104.847 243.293 104.54 242.88C104.247 242.467 103.833 242.153 103.3 241.94C102.78 241.713 102.167 241.6 101.46 241.6C100.633 241.6 99.9267 241.727 99.34 241.98C98.7533 242.233 98.2867 242.487 97.94 242.74L98.72 243.96ZM109.407 255.4V241.8H107.807V255.4H109.407ZM117.107 246.4C117.107 245.4 116.9 244.547 116.487 243.84C116.074 243.12 115.52 242.567 114.827 242.18C114.147 241.793 113.387 241.6 112.547 241.6C111.787 241.6 111.114 241.793 110.527 242.18C109.954 242.567 109.5 243.12 109.167 243.84C108.847 244.547 108.687 245.4 108.687 246.4C108.687 247.387 108.847 248.24 109.167 248.96C109.5 249.68 109.954 250.233 110.527 250.62C111.114 251.007 111.787 251.2 112.547 251.2C113.387 251.2 114.147 251.007 114.827 250.62C115.52 250.233 116.074 249.68 116.487 248.96C116.9 248.24 117.107 247.387 117.107 246.4ZM115.487 246.4C115.487 247.107 115.34 247.707 115.047 248.2C114.767 248.693 114.387 249.067 113.907 249.32C113.44 249.573 112.92 249.7 112.347 249.7C111.88 249.7 111.42 249.573 110.967 249.32C110.514 249.067 110.14 248.693 109.847 248.2C109.554 247.707 109.407 247.107 109.407 246.4C109.407 245.693 109.554 245.093 109.847 244.6C110.14 244.107 110.514 243.733 110.967 243.48C111.42 243.227 111.88 243.1 112.347 243.1C112.92 243.1 113.44 243.227 113.907 243.48C114.387 243.733 114.767 244.107 115.047 244.6C115.34 245.093 115.487 245.693 115.487 246.4ZM120.233 246.4C120.233 245.76 120.367 245.193 120.633 244.7C120.913 244.193 121.287 243.8 121.753 243.52C122.233 243.24 122.773 243.1 123.373 243.1C123.867 243.1 124.327 243.18 124.753 243.34C125.193 243.487 125.573 243.687 125.893 243.94C126.213 244.193 126.44 244.473 126.573 244.78V242.78C126.253 242.407 125.793 242.12 125.193 241.92C124.607 241.707 124 241.6 123.373 241.6C122.48 241.6 121.673 241.807 120.953 242.22C120.233 242.633 119.66 243.2 119.233 243.92C118.82 244.64 118.613 245.467 118.613 246.4C118.613 247.32 118.82 248.147 119.233 248.88C119.66 249.6 120.233 250.167 120.953 250.58C121.673 250.993 122.48 251.2 123.373 251.2C124 251.2 124.607 251.1 125.193 250.9C125.793 250.687 126.253 250.393 126.573 250.02V248.02C126.44 248.313 126.213 248.593 125.893 248.86C125.573 249.113 125.193 249.32 124.753 249.48C124.327 249.627 123.867 249.7 123.373 249.7C122.773 249.7 122.233 249.56 121.753 249.28C121.287 248.987 120.913 248.593 120.633 248.1C120.367 247.607 120.233 247.04 120.233 246.4ZM127.864 241.8V243.3H133.264V241.8H127.864ZM129.764 242.2V251H131.364V242.2H129.764ZM136.01 246.2V247.04H138.67C138.976 247.04 139.236 247.073 139.45 247.14C139.676 247.193 139.856 247.28 139.99 247.4C140.136 247.52 140.243 247.653 140.31 247.8C140.39 247.947 140.43 248.113 140.43 248.3C140.43 248.66 140.283 248.967 139.99 249.22C139.71 249.473 139.27 249.6 138.67 249.6H136.01V251H139.07C140.123 251 140.876 250.76 141.33 250.28C141.796 249.787 142.03 249.193 142.03 248.5C142.03 247.9 141.883 247.433 141.59 247.1C141.296 246.767 140.896 246.533 140.39 246.4C139.883 246.267 139.31 246.2 138.67 246.2H136.01ZM136.01 246.6H138.47C139.043 246.6 139.563 246.52 140.03 246.36C140.51 246.187 140.896 245.933 141.19 245.6C141.483 245.253 141.63 244.82 141.63 244.3C141.63 243.7 141.483 243.22 141.19 242.86C140.896 242.487 140.51 242.22 140.03 242.06C139.563 241.887 139.043 241.8 138.47 241.8H136.01V243.2H138.47C138.95 243.2 139.33 243.313 139.61 243.54C139.89 243.753 140.03 244.04 140.03 244.4C140.03 244.573 139.99 244.74 139.91 244.9C139.843 245.047 139.743 245.18 139.61 245.3C139.476 245.42 139.31 245.513 139.11 245.58C138.923 245.633 138.71 245.66 138.47 245.66H136.01V246.6ZM135.07 241.8V251H136.67V241.8H135.07ZM144.552 246.8H152.412C152.425 246.72 152.432 246.64 152.432 246.56C152.432 246.48 152.432 246.4 152.432 246.32C152.432 245.347 152.252 244.513 151.892 243.82C151.532 243.113 151.025 242.567 150.372 242.18C149.719 241.793 148.959 241.6 148.092 241.6C147.305 241.6 146.592 241.76 145.952 242.08C145.325 242.4 144.812 242.847 144.412 243.42C144.012 243.993 143.745 244.66 143.612 245.42C143.585 245.58 143.565 245.74 143.552 245.9C143.539 246.06 143.532 246.227 143.532 246.4C143.532 247.32 143.719 248.147 144.092 248.88C144.479 249.6 144.999 250.167 145.652 250.58C146.319 250.993 147.065 251.2 147.892 251.2C148.692 251.2 149.359 251.107 149.892 250.92C150.425 250.72 150.879 250.447 151.252 250.1C151.625 249.74 151.965 249.327 152.272 248.86L150.972 248.04C150.772 248.373 150.532 248.667 150.252 248.92C149.972 249.16 149.652 249.353 149.292 249.5C148.945 249.633 148.545 249.7 148.092 249.7C147.492 249.7 146.972 249.573 146.532 249.32C146.092 249.067 145.752 248.693 145.512 248.2C145.272 247.707 145.152 247.107 145.152 246.4L145.192 245.8C145.192 245.227 145.319 244.733 145.572 244.32C145.839 243.893 146.192 243.567 146.632 243.34C147.072 243.113 147.559 243 148.092 243C148.625 243 149.072 243.107 149.432 243.32C149.805 243.52 150.092 243.807 150.292 244.18C150.505 244.54 150.639 244.96 150.692 245.44H144.552V246.8ZM155.765 246.9H162.565V245.4H155.765V246.9ZM161.525 241.8V251H163.125V241.8H161.525ZM154.825 241.8V251H156.425V241.8H154.825ZM167.274 246.9H174.074V245.4H167.274V246.9ZM173.034 241.8V251H174.634V241.8H173.034ZM166.334 241.8V251H167.934V241.8H166.334ZM186.142 241.8V251H187.742V241.8H186.142ZM177.842 241.8V251H179.442V241.8H177.842ZM178.782 246.68H181.642C182.229 246.68 182.669 246.807 182.962 247.06C183.256 247.313 183.402 247.673 183.402 248.14C183.402 248.447 183.336 248.713 183.202 248.94C183.069 249.153 182.869 249.32 182.602 249.44C182.349 249.547 182.029 249.6 181.642 249.6H178.782V251H181.642C182.282 251 182.856 250.9 183.362 250.7C183.869 250.5 184.269 250.187 184.562 249.76C184.856 249.333 185.002 248.793 185.002 248.14C185.002 247.153 184.676 246.433 184.022 245.98C183.382 245.513 182.589 245.28 181.642 245.28H178.782V246.68ZM191.153 246.8H199.013C199.026 246.72 199.033 246.64 199.033 246.56C199.033 246.48 199.033 246.4 199.033 246.32C199.033 245.347 198.853 244.513 198.493 243.82C198.133 243.113 197.626 242.567 196.973 242.18C196.319 241.793 195.559 241.6 194.693 241.6C193.906 241.6 193.193 241.76 192.553 242.08C191.926 242.4 191.413 242.847 191.013 243.42C190.613 243.993 190.346 244.66 190.213 245.42C190.186 245.58 190.166 245.74 190.153 245.9C190.139 246.06 190.133 246.227 190.133 246.4C190.133 247.32 190.319 248.147 190.693 248.88C191.079 249.6 191.599 250.167 192.253 250.58C192.919 250.993 193.666 251.2 194.493 251.2C195.293 251.2 195.959 251.107 196.493 250.92C197.026 250.72 197.479 250.447 197.853 250.1C198.226 249.74 198.566 249.327 198.873 248.86L197.573 248.04C197.373 248.373 197.133 248.667 196.853 248.92C196.573 249.16 196.253 249.353 195.893 249.5C195.546 249.633 195.146 249.7 194.693 249.7C194.093 249.7 193.573 249.573 193.133 249.32C192.693 249.067 192.353 248.693 192.113 248.2C191.873 247.707 191.753 247.107 191.753 246.4L191.793 245.8C191.793 245.227 191.919 244.733 192.173 244.32C192.439 243.893 192.793 243.567 193.233 243.34C193.673 243.113 194.159 243 194.693 243C195.226 243 195.673 243.107 196.033 243.32C196.406 243.52 196.693 243.807 196.893 244.18C197.106 244.54 197.239 244.96 197.293 245.44H191.153V246.8ZM206.822 246.4C206.822 247.32 207.029 248.147 207.442 248.88C207.869 249.6 208.442 250.167 209.162 250.58C209.882 250.993 210.689 251.2 211.582 251.2C212.489 251.2 213.295 250.993 214.002 250.58C214.722 250.167 215.289 249.6 215.702 248.88C216.129 248.147 216.342 247.32 216.342 246.4C216.342 245.467 216.129 244.64 215.702 243.92C215.289 243.2 214.722 242.633 214.002 242.22C213.295 241.807 212.489 241.6 211.582 241.6C210.689 241.6 209.882 241.807 209.162 242.22C208.442 242.633 207.869 243.2 207.442 243.92C207.029 244.64 206.822 245.467 206.822 246.4ZM208.442 246.4C208.442 245.76 208.575 245.193 208.842 244.7C209.122 244.193 209.495 243.8 209.962 243.52C210.442 243.24 210.982 243.1 211.582 243.1C212.182 243.1 212.715 243.24 213.182 243.52C213.662 243.8 214.035 244.193 214.302 244.7C214.582 245.193 214.722 245.76 214.722 246.4C214.722 247.04 214.582 247.607 214.302 248.1C214.035 248.593 213.662 248.987 213.182 249.28C212.715 249.56 212.182 249.7 211.582 249.7C210.982 249.7 210.442 249.56 209.962 249.28C209.495 248.987 209.122 248.593 208.842 248.1C208.575 247.607 208.442 247.04 208.442 246.4ZM222.7 243.1C223.3 243.1 223.833 243.24 224.3 243.52C224.78 243.8 225.153 244.193 225.42 244.7C225.7 245.193 225.84 245.76 225.84 246.4C225.84 247.04 225.7 247.607 225.42 248.1C225.153 248.593 224.78 248.987 224.3 249.28C223.833 249.56 223.3 249.7 222.7 249.7C222.1 249.7 221.56 249.56 221.08 249.28C220.613 248.987 220.24 248.593 219.96 248.1C219.68 247.607 219.54 247.04 219.54 246.4L217.94 245.2C217.94 246.52 218.147 247.627 218.56 248.52C218.987 249.413 219.56 250.087 220.28 250.54C221 250.98 221.807 251.2 222.7 251.2C223.607 251.2 224.413 250.993 225.12 250.58C225.84 250.167 226.407 249.6 226.82 248.88C227.247 248.147 227.46 247.32 227.46 246.4C227.46 245.467 227.247 244.64 226.82 243.92C226.407 243.2 225.84 242.633 225.12 242.22C224.413 241.807 223.607 241.6 222.7 241.6V243.1ZM218.82 246.4H219.54C219.54 245.867 219.633 245.4 219.82 245C220.02 244.587 220.273 244.24 220.58 243.96C220.9 243.68 221.247 243.467 221.62 243.32C221.993 243.173 222.353 243.1 222.7 243.1V241.6C222.127 241.6 221.6 241.713 221.12 241.94C220.653 242.153 220.247 242.467 219.9 242.88C219.553 243.293 219.287 243.8 219.1 244.4C218.913 244.987 218.82 245.653 218.82 246.4ZM217.94 245.2L219.34 246.26V244.2C219.34 243.533 219.427 242.867 219.6 242.2C219.773 241.52 220.087 240.913 220.54 240.38C221.007 239.847 221.653 239.447 222.48 239.18C223.213 238.94 223.867 238.64 224.44 238.28C225.027 237.92 225.5 237.5 225.86 237.02C226.22 236.527 226.433 235.987 226.5 235.4H224.92C224.827 235.88 224.553 236.34 224.1 236.78C223.66 237.207 222.987 237.573 222.08 237.88C221.013 238.24 220.173 238.76 219.56 239.44C218.96 240.107 218.54 240.92 218.3 241.88C218.06 242.84 217.94 243.947 217.94 245.2ZM232.698 246.68H235.558C236.144 246.68 236.584 246.807 236.878 247.06C237.171 247.313 237.318 247.673 237.318 248.14C237.318 248.447 237.251 248.713 237.118 248.94C236.984 249.153 236.784 249.32 236.518 249.44C236.264 249.547 235.944 249.6 235.558 249.6H232.698V251H235.558C236.198 251 236.771 250.9 237.278 250.7C237.784 250.5 238.184 250.187 238.478 249.76C238.771 249.333 238.918 248.793 238.918 248.14C238.918 247.153 238.591 246.433 237.938 245.98C237.298 245.513 236.504 245.28 235.558 245.28H232.698V246.68ZM231.758 243.3V251H233.358V241.8H228.458V243.3H231.758ZM241.84 246.8H249.7C249.714 246.72 249.72 246.64 249.72 246.56C249.72 246.48 249.72 246.4 249.72 246.32C249.72 245.347 249.54 244.513 249.18 243.82C248.82 243.113 248.314 242.567 247.66 242.18C247.007 241.793 246.247 241.6 245.38 241.6C244.594 241.6 243.88 241.76 243.24 242.08C242.614 242.4 242.1 242.847 241.7 243.42C241.3 243.993 241.034 244.66 240.9 245.42C240.874 245.58 240.854 245.74 240.84 245.9C240.827 246.06 240.82 246.227 240.82 246.4C240.82 247.32 241.007 248.147 241.38 248.88C241.767 249.6 242.287 250.167 242.94 250.58C243.607 250.993 244.354 251.2 245.18 251.2C245.98 251.2 246.647 251.107 247.18 250.92C247.714 250.72 248.167 250.447 248.54 250.1C248.914 249.74 249.254 249.327 249.56 248.86L248.26 248.04C248.06 248.373 247.82 248.667 247.54 248.92C247.26 249.16 246.94 249.353 246.58 249.5C246.234 249.633 245.834 249.7 245.38 249.7C244.78 249.7 244.26 249.573 243.82 249.32C243.38 249.067 243.04 248.693 242.8 248.2C242.56 247.707 242.44 247.107 242.44 246.4L242.48 245.8C242.48 245.227 242.607 244.733 242.86 244.32C243.127 243.893 243.48 243.567 243.92 243.34C244.36 243.113 244.847 243 245.38 243C245.914 243 246.36 243.107 246.72 243.32C247.094 243.52 247.38 243.807 247.58 244.18C247.794 244.54 247.927 244.96 247.98 245.44H241.84V246.8ZM252.013 241.8V251H253.613V241.8H252.013ZM257.013 241.8L253.013 245.6L257.413 251H259.413L255.013 245.6L259.013 241.8H257.013ZM259.722 241.8V243.3H265.122V241.8H259.722ZM261.622 242.2V251H263.222V242.2H261.622ZM275.227 241.8V251H276.827V241.8H275.227ZM266.927 241.8V251H268.527V241.8H266.927ZM267.867 246.68H270.727C271.314 246.68 271.754 246.807 272.047 247.06C272.341 247.313 272.487 247.673 272.487 248.14C272.487 248.447 272.421 248.713 272.287 248.94C272.154 249.153 271.954 249.32 271.687 249.44C271.434 249.547 271.114 249.6 270.727 249.6H267.867V251H270.727C271.367 251 271.941 250.9 272.447 250.7C272.954 250.5 273.354 250.187 273.647 249.76C273.941 249.333 274.087 248.793 274.087 248.14C274.087 247.153 273.761 246.433 273.107 245.98C272.467 245.513 271.674 245.28 270.727 245.28H267.867V246.68ZM280.418 250.2C280.418 250.493 280.525 250.753 280.738 250.98C280.965 251.193 281.225 251.3 281.518 251.3C281.825 251.3 282.085 251.193 282.298 250.98C282.511 250.753 282.618 250.493 282.618 250.2C282.618 249.893 282.511 249.633 282.298 249.42C282.085 249.207 281.825 249.1 281.518 249.1C281.225 249.1 280.965 249.207 280.738 249.42C280.525 249.633 280.418 249.893 280.418 250.2ZM286.614 250.2C286.614 250.493 286.721 250.753 286.934 250.98C287.161 251.193 287.421 251.3 287.714 251.3C288.021 251.3 288.281 251.193 288.494 250.98C288.707 250.753 288.814 250.493 288.814 250.2C288.814 249.893 288.707 249.633 288.494 249.42C288.281 249.207 288.021 249.1 287.714 249.1C287.421 249.1 287.161 249.207 286.934 249.42C286.721 249.633 286.614 249.893 286.614 250.2ZM292.81 250.2C292.81 250.493 292.917 250.753 293.13 250.98C293.357 251.193 293.617 251.3 293.91 251.3C294.217 251.3 294.477 251.193 294.69 250.98C294.903 250.753 295.01 250.493 295.01 250.2C295.01 249.893 294.903 249.633 294.69 249.42C294.477 249.207 294.217 249.1 293.91 249.1C293.617 249.1 293.357 249.207 293.13 249.42C292.917 249.633 292.81 249.893 292.81 250.2Z" fill="black"/>
<path d="M55.896 76.064H96.984V66.848H87.832L86.744 68.256H70.232L79.896 54.88V72.032L78.68 72.736V84H89.944V39.2H81.88L55.896 76.064ZM112.68 61.6C112.68 59.5093 112.872 57.6107 113.256 55.904C113.64 54.1547 114.194 52.6827 114.92 51.488C115.645 50.2507 116.498 49.312 117.48 48.672C118.504 47.9893 119.634 47.648 120.872 47.648C122.109 47.648 123.218 47.9893 124.2 48.672C125.224 49.312 126.098 50.2507 126.824 51.488C127.549 52.6827 128.104 54.1547 128.488 55.904C128.872 57.6107 129.064 59.5093 129.064 61.6C129.064 63.6907 128.872 65.6107 128.488 67.36C128.104 69.0667 127.549 70.5387 126.824 71.776C126.098 72.9707 125.224 73.9093 124.2 74.592C123.218 75.232 122.109 75.552 120.872 75.552C119.634 75.552 118.504 75.232 117.48 74.592C116.498 73.9093 115.645 72.9707 114.92 71.776C114.194 70.5387 113.64 69.0667 113.256 67.36C112.872 65.6107 112.68 63.6907 112.68 61.6ZM102.248 61.6C102.248 66.464 103.016 70.624 104.552 74.08C106.13 77.536 108.328 80.2027 111.144 82.08C113.96 83.9147 117.202 84.832 120.872 84.832C124.712 84.832 128.018 83.9147 130.792 82.08C133.565 80.2027 135.698 77.536 137.192 74.08C138.728 70.624 139.496 66.464 139.496 61.6C139.496 56.736 138.728 52.576 137.192 49.12C135.698 45.664 133.565 43.0187 130.792 41.184C128.018 39.3067 124.712 38.368 120.872 38.368C117.202 38.368 113.96 39.3067 111.144 41.184C108.328 43.0187 106.13 45.664 104.552 49.12C103.016 52.576 102.248 56.736 102.248 61.6ZM146.223 71.456H181.039V62.112H146.223V71.456ZM158.639 49.44V84.128H168.623V49.44H158.639Z" fill="black"/>
<path d="M81.456 111.824V125H85.584V108.2H70.92V125H75.048V111.824H81.456ZM89.2916 108.2V125H93.3476V108.2H89.2916ZM91.8356 111.536H95.1236C95.9396 111.536 96.5796 111.72 97.0436 112.088C97.5076 112.456 97.7396 112.992 97.7396 113.696C97.7396 114.384 97.5076 114.912 97.0436 115.28C96.5796 115.648 95.9396 115.832 95.1236 115.832H91.8356V119.168H95.1236C96.5476 119.168 97.7396 118.952 98.6996 118.52C99.6756 118.072 100.412 117.44 100.908 116.624C101.404 115.792 101.652 114.816 101.652 113.696C101.652 112.544 101.404 111.56 100.908 110.744C100.412 109.928 99.6756 109.304 98.6996 108.872C97.7396 108.424 96.5476 108.2 95.1236 108.2H91.8356V111.536ZM107.581 116.6C107.581 115.608 107.773 114.736 108.157 113.984C108.557 113.216 109.109 112.616 109.813 112.184C110.533 111.752 111.373 111.536 112.333 111.536C113.309 111.536 114.149 111.752 114.853 112.184C115.557 112.616 116.101 113.216 116.485 113.984C116.869 114.736 117.061 115.608 117.061 116.6C117.061 117.592 116.861 118.472 116.461 119.24C116.077 119.992 115.525 120.584 114.805 121.016C114.101 121.448 113.277 121.664 112.333 121.664C111.373 121.664 110.533 121.448 109.813 121.016C109.109 120.584 108.557 119.992 108.157 119.24C107.773 118.472 107.581 117.592 107.581 116.6ZM103.285 116.6C103.285 117.896 103.501 119.088 103.933 120.176C104.381 121.264 105.005 122.208 105.805 123.008C106.621 123.808 107.581 124.432 108.685 124.88C109.789 125.312 111.005 125.528 112.333 125.528C113.645 125.528 114.853 125.312 115.957 124.88C117.061 124.432 118.013 123.808 118.813 123.008C119.629 122.208 120.253 121.264 120.685 120.176C121.133 119.088 121.357 117.896 121.357 116.6C121.357 115.304 121.133 114.12 120.685 113.048C120.237 111.976 119.605 111.048 118.789 110.264C117.973 109.48 117.013 108.88 115.909 108.464C114.821 108.032 113.629 107.816 112.333 107.816C111.053 107.816 109.861 108.032 108.757 108.464C107.653 108.88 106.693 109.48 105.877 110.264C105.061 111.048 104.421 111.976 103.957 113.048C103.509 114.12 103.285 115.304 103.285 116.6ZM125.468 118.232H134.42V114.968H125.468V118.232ZM134.204 116.6C134.204 117.624 133.932 118.52 133.388 119.288C132.86 120.04 132.172 120.632 131.324 121.064C130.492 121.48 129.628 121.688 128.732 121.688C127.948 121.688 127.228 121.592 126.572 121.4C125.932 121.192 125.372 120.944 124.892 120.656C124.428 120.352 124.036 120.048 123.716 119.744V123.68C124.388 124.208 125.124 124.624 125.924 124.928C126.74 125.232 127.756 125.384 128.972 125.384C130.316 125.384 131.548 125.176 132.668 124.76C133.804 124.344 134.78 123.744 135.596 122.96C136.412 122.176 137.044 121.248 137.492 120.176C137.956 119.104 138.188 117.912 138.188 116.6C138.188 115.288 137.956 114.096 137.492 113.024C137.044 111.952 136.412 111.024 135.596 110.24C134.78 109.456 133.804 108.856 132.668 108.44C131.548 108.024 130.316 107.816 128.972 107.816C127.756 107.816 126.74 107.968 125.924 108.272C125.124 108.576 124.388 108.992 123.716 109.52V113.456C124.036 113.152 124.428 112.856 124.892 112.568C125.372 112.264 125.932 112.016 126.572 111.824C127.228 111.616 127.948 111.512 128.732 111.512C129.628 111.512 130.492 111.72 131.324 112.136C132.172 112.552 132.86 113.144 133.388 113.912C133.932 114.664 134.204 115.56 134.204 116.6ZM140.784 108.2V125H144.984V108.2H140.784ZM150.696 108.2L143.808 116.192L150.888 125H155.808L148.632 116.072L155.448 108.2H150.696ZM156.612 111.824H161.22V125H165.276V111.824H169.908V108.2H156.612V111.824ZM173.885 116.6C173.885 115.608 174.077 114.736 174.461 113.984C174.861 113.216 175.413 112.616 176.117 112.184C176.837 111.752 177.677 111.536 178.637 111.536C179.613 111.536 180.453 111.752 181.157 112.184C181.861 112.616 182.405 113.216 182.789 113.984C183.173 114.736 183.365 115.608 183.365 116.6C183.365 117.592 183.165 118.472 182.765 119.24C182.381 119.992 181.829 120.584 181.109 121.016C180.405 121.448 179.581 121.664 178.637 121.664C177.677 121.664 176.837 121.448 176.117 121.016C175.413 120.584 174.861 119.992 174.461 119.24C174.077 118.472 173.885 117.592 173.885 116.6ZM169.589 116.6C169.589 117.896 169.805 119.088 170.237 120.176C170.685 121.264 171.309 122.208 172.109 123.008C172.925 123.808 173.885 124.432 174.989 124.88C176.093 125.312 177.309 125.528 178.637 125.528C179.949 125.528 181.157 125.312 182.261 124.88C183.365 124.432 184.317 123.808 185.117 123.008C185.933 122.208 186.557 121.264 186.989 120.176C187.437 119.088 187.661 117.896 187.661 116.6C187.661 115.304 187.437 114.12 186.989 113.048C186.541 111.976 185.909 111.048 185.093 110.264C184.277 109.48 183.317 108.88 182.213 108.464C181.125 108.032 179.933 107.816 178.637 107.816C177.357 107.816 176.165 108.032 175.061 108.464C173.957 108.88 172.997 109.48 172.181 110.264C171.365 111.048 170.725 111.976 170.261 113.048C169.813 114.12 169.589 115.304 169.589 116.6ZM193.284 116.648H196.428C197.596 116.648 198.62 116.488 199.5 116.168C200.396 115.832 201.1 115.352 201.612 114.728C202.14 114.104 202.404 113.352 202.404 112.472C202.404 111.512 202.14 110.72 201.612 110.096C201.1 109.456 200.396 108.984 199.5 108.68C198.62 108.36 197.596 108.2 196.428 108.2H190.26V125H196.836C198.164 125 199.316 124.84 200.292 124.52C201.268 124.184 202.02 123.672 202.548 122.984C203.092 122.296 203.364 121.392 203.364 120.272C203.364 119.424 203.172 118.704 202.788 118.112C202.42 117.504 201.924 117.008 201.3 116.624C200.676 116.224 199.98 115.936 199.212 115.76C198.444 115.584 197.652 115.496 196.836 115.496H193.284V117.704H196.38C196.78 117.704 197.14 117.744 197.46 117.824C197.796 117.888 198.092 118 198.348 118.16C198.604 118.32 198.804 118.528 198.948 118.784C199.092 119.04 199.164 119.344 199.164 119.696C199.164 120.24 199.036 120.672 198.78 120.992C198.54 121.296 198.212 121.52 197.796 121.664C197.38 121.792 196.908 121.856 196.38 121.856H194.316V111.344H195.996C196.7 111.344 197.244 111.488 197.628 111.776C198.012 112.064 198.204 112.496 198.204 113.072C198.204 113.456 198.116 113.784 197.94 114.056C197.764 114.312 197.508 114.512 197.172 114.656C196.852 114.8 196.46 114.872 195.996 114.872H193.284V116.648Z" fill="black"/>
</g>
<defs>
<filter id="filter0_f_411_11" x="-1.08301" y="28" width="5.32617" height="282.454" filterUnits="userSpaceOnUse" color-interpolation-filters="sRGB">
<feFlood flood-opacity="0" result="BackgroundImageFix"/>
<feBlend mode="normal" in="SourceGraphic" in2="BackgroundImageFix" result="shape"/>
<feGaussianBlur stdDeviation="0.5" result="effect1_foregroundBlur_411_11"/>
</filter>
<clipPath id="clip0_411_11">
<rect width="409" height="358" fill="white"/>
</clipPath>
</defs>
</svg>
