<svg width="310" height="297" viewBox="0 0 310 297" fill="none" xmlns="http://www.w3.org/2000/svg">
<g clip-path="url(#clip0_411_31)">
<path d="M139.98 41.3819C139.98 42.1843 140.294 42.9374 140.861 43.5029L141.921 44.5633C143.339 45.9792 145.22 46.7594 147.224 46.7594C149.228 46.7594 151.11 45.9794 152.528 44.5633L159.999 37.0918C162.959 39.5638 166.653 40.9092 170.553 40.9092H170.561C174.969 40.9062 179.118 39.1857 182.24 36.0628C182.826 35.4764 182.826 34.5268 182.24 33.9418C181.653 33.3553 180.705 33.3553 180.119 33.9418C177.563 36.4979 174.167 37.9078 170.559 37.9094H170.555C166.95 37.9094 163.562 36.5054 161.013 33.957C160.427 33.372 159.477 33.372 158.892 33.957L150.405 42.4424C148.707 44.1418 145.742 44.1418 144.043 42.4424L142.982 41.3819L161.013 23.3506C162.695 21.6691 164.292 21.6691 166.316 21.6691C168.482 21.6691 171.18 21.6691 173.741 19.1087L177.983 14.8652C178.569 14.2788 178.569 13.3292 177.983 12.7442C177.398 12.1576 176.448 12.1576 175.862 12.7442L171.62 16.9877C169.937 18.6692 168.339 18.6692 166.316 18.6692C164.15 18.6692 161.453 18.6692 158.892 21.2296L140.862 39.2594C140.294 39.8264 139.98 40.5795 139.98 41.3819Z" fill="black"/>
<path d="M129.5 16.5001C131.154 16.5001 132.5 15.1547 132.5 13.5001C132.5 11.8457 131.155 10.5001 129.5 10.5001C127.846 10.5001 126.5 11.8455 126.5 13.5001C126.5 15.1547 127.846 16.5001 129.5 16.5001Z" fill="black"/>
<path d="M144.042 21.2296L148.284 25.4716C148.578 25.7656 148.962 25.911 149.345 25.911C149.729 25.911 150.113 25.7655 150.405 25.4716C150.992 24.8866 150.992 23.937 150.405 23.3506L146.163 19.1087C145.578 18.5223 144.629 18.5223 144.042 19.1087C143.457 19.6937 143.457 20.6431 144.042 21.2296Z" fill="black"/>
<path d="M192.5 10.5002C194.153 10.5002 195.5 9.15477 195.5 7.50016C195.5 5.84572 194.153 4.50012 192.5 4.50012C190.847 4.50012 189.5 5.84554 189.5 7.50016C189.5 9.1546 190.847 10.5002 192.5 10.5002Z" fill="black"/>
<path d="M195.939 31.9395C193.502 34.3771 192.665 38.3474 191.856 42.1875C191.139 45.5955 190.397 49.122 188.591 50.928L186.468 53.049C185.883 53.6355 185.883 54.5849 186.468 55.1699C186.762 55.464 187.146 55.6094 187.53 55.6094C187.913 55.6094 188.297 55.4638 188.591 55.1699L190.712 53.049C193.148 50.613 193.983 46.6441 194.792 42.8056C195.51 39.3945 196.254 35.8681 198.06 34.0607C198.647 33.4757 198.647 32.5261 198.06 31.9397C197.474 31.353 196.526 31.353 195.939 31.9395Z" fill="black"/>
<path d="M205.56 31.9396L181.12 7.50017L186.06 2.56076C186.646 1.97418 186.646 1.0262 186.06 0.439801C185.473 -0.1466 184.525 -0.1466 183.939 0.439801L177.939 6.4397C177.352 7.02627 177.352 7.97425 177.939 8.56065L203.439 34.0605C203.731 34.353 204.115 34.5 204.499 34.5C204.883 34.5 205.267 34.353 205.56 34.0605C206.146 33.4739 206.146 32.526 205.56 31.9396Z" fill="black"/>
<path d="M171.62 44.5634C171.033 43.9784 170.085 43.9784 169.499 44.5634C168.913 45.1499 168.913 46.0993 169.499 46.6859L185.408 62.5949C186.578 63.7648 186.578 65.6684 185.408 66.8384C184.241 68.0054 182.336 68.0068 181.164 66.8384L165.255 50.928C164.669 50.3414 163.719 50.3414 163.134 50.928C162.548 51.5146 162.548 52.464 163.134 53.049L183.287 73.2012C184.457 74.3712 184.457 76.2747 183.287 77.4432C182.117 78.6116 180.215 78.6147 179.043 77.4446L159.953 58.3528C159.366 57.7662 158.417 57.7662 157.832 58.3528C157.245 58.9378 157.245 59.8873 157.832 60.4737L174.801 77.4432C175.971 78.6131 175.971 80.5167 174.801 81.6867C173.668 82.8206 171.694 82.8206 170.56 81.6853L168.437 79.5643H168.435L154.649 65.7779C154.062 65.1915 153.113 65.1915 152.528 65.7779C151.942 66.3629 151.942 67.3124 152.528 67.8988L166.316 81.6867C166.883 82.2537 167.195 83.0066 167.195 83.8092C167.195 84.6102 166.883 85.3633 166.316 85.9302C165.149 87.0972 163.244 87.1001 162.074 85.9286L136.561 60.4393C132.671 56.5498 131.827 51.6464 131.081 47.3189C130.454 43.6785 129.862 40.2404 127.561 37.9394C126.974 37.3529 126.026 37.3529 125.44 37.9394C124.853 38.526 124.853 39.474 125.44 40.0604C127.067 41.6879 127.558 44.5333 128.125 47.8288C128.905 52.3588 129.877 57.9972 134.44 62.5602L159.953 88.0511C161.121 89.2195 162.658 89.8061 164.195 89.8061C165.731 89.8045 167.268 89.2195 168.437 88.0511C169.289 87.1977 169.854 86.1341 170.082 84.9762C172.281 86.0367 175.145 85.5883 176.922 83.8078C177.776 82.9544 178.34 81.8893 178.568 80.7313C180.798 81.8023 183.561 81.4109 185.408 79.5643C187.748 77.2259 187.748 73.4203 185.408 71.0803L184.839 70.5102C185.825 70.2478 186.758 69.7303 187.53 68.9593C189.869 66.6193 189.869 62.8123 187.53 60.4739L171.62 44.5634Z" fill="black"/>
<path d="M144.061 12.4396L135.061 3.43969C134.474 2.85311 133.526 2.85311 132.94 3.43969C132.353 4.02609 132.353 4.97425 132.94 5.56065L140.879 13.5001L116.44 37.9395C115.853 38.5261 115.853 39.474 116.44 40.0604C116.732 40.3529 117.116 40.4999 117.5 40.4999C117.884 40.4999 118.268 40.3529 118.561 40.0604L144.061 14.5608C144.647 13.9742 144.647 13.0262 144.061 12.4396Z" fill="black"/>
<path d="M152.892 86.722C152.057 87.1601 150.63 87.2125 149.345 85.93C148.059 84.6429 148.07 83.1476 148.487 82.4965C148.901 81.8515 148.763 80.9995 148.164 80.5181C147.569 80.0366 146.706 80.0816 146.163 80.626C144.992 81.796 143.087 81.7944 141.92 80.626C140.751 79.456 140.751 77.5525 141.92 76.3825C142.214 76.09 142.359 75.7059 142.359 75.322C142.359 74.9381 142.214 74.5554 141.92 74.2615C141.335 73.6765 140.385 73.6765 139.799 74.2615L138.738 75.322C137.57 76.492 135.665 76.492 134.496 75.322C133.328 74.152 133.328 72.2485 134.496 71.0801L135.557 70.0196C136.091 69.4872 136.145 68.6411 135.686 68.0442C135.227 67.4473 134.394 67.2838 133.745 67.6601C132.929 68.131 131.493 68.0757 130.254 66.8382C128.938 65.5212 128.943 64.0617 129.368 63.4467C129.839 62.7657 129.666 61.8313 128.985 61.3602C128.303 60.8877 127.37 61.0601 126.899 61.7427C125.686 63.5006 125.718 66.5441 128.133 68.9591C129.084 69.9087 130.119 70.4756 131.14 70.7472C130.797 71.5092 130.617 72.3417 130.617 73.2012C130.617 74.8033 131.241 76.3108 132.375 77.4432C133.914 78.9837 136.091 79.5101 138.066 79.0227C138.183 80.3817 138.761 81.7091 139.799 82.7471C141.291 84.2381 143.376 84.7781 145.299 84.3701C145.485 85.6122 146.087 86.9126 147.224 88.0511C148.611 89.4371 150.231 89.9921 151.71 89.9921C152.66 89.9921 153.551 89.7625 154.284 89.3786C155.018 88.9945 155.301 88.0886 154.916 87.3536C154.532 86.6215 153.623 86.3366 152.892 86.722Z" fill="black"/>
</g>
<path d="M49.9806 124.7C49.9806 123.92 50.1546 123.254 50.5026 122.702C50.8506 122.15 51.3066 121.73 51.8706 121.442C52.4466 121.154 53.0766 121.01 53.7606 121.01C54.3606 121.01 54.8886 121.088 55.3446 121.244C55.8006 121.388 56.2086 121.592 56.5686 121.856C56.9286 122.108 57.2466 122.378 57.5226 122.666V119.39C57.0186 118.994 56.4666 118.682 55.8666 118.454C55.2666 118.226 54.5046 118.112 53.5806 118.112C52.5726 118.112 51.6426 118.268 50.7906 118.58C49.9386 118.892 49.2066 119.342 48.5946 119.93C47.9826 120.518 47.5086 121.214 47.1726 122.018C46.8366 122.822 46.6686 123.716 46.6686 124.7C46.6686 125.684 46.8366 126.578 47.1726 127.382C47.5086 128.186 47.9826 128.882 48.5946 129.47C49.2066 130.058 49.9386 130.508 50.7906 130.82C51.6426 131.132 52.5726 131.288 53.5806 131.288C54.5046 131.288 55.2666 131.174 55.8666 130.946C56.4666 130.718 57.0186 130.406 57.5226 130.01V126.734C57.2466 127.022 56.9286 127.292 56.5686 127.544C56.2086 127.796 55.8006 128 55.3446 128.156C54.8886 128.312 54.3606 128.39 53.7606 128.39C53.0766 128.39 52.4466 128.246 51.8706 127.958C51.3066 127.67 50.8506 127.25 50.5026 126.698C50.1546 126.134 49.9806 125.468 49.9806 124.7ZM61.8457 128.534C61.8457 128.306 61.8997 128.114 62.0077 127.958C62.1277 127.802 62.2957 127.682 62.5117 127.598C62.7397 127.502 63.0097 127.454 63.3217 127.454C63.7897 127.454 64.1857 127.514 64.5097 127.634C64.8457 127.742 65.1697 127.91 65.4817 128.138V126.86C65.3617 126.728 65.1577 126.596 64.8697 126.464C64.5937 126.32 64.2637 126.206 63.8797 126.122C63.5077 126.026 63.1117 125.978 62.6917 125.978C61.9717 125.978 61.3417 126.086 60.8017 126.302C60.2617 126.518 59.8417 126.824 59.5417 127.22C59.2537 127.616 59.1097 128.09 59.1097 128.642C59.1097 129.182 59.2357 129.644 59.4877 130.028C59.7517 130.4 60.1117 130.688 60.5677 130.892C61.0237 131.084 61.5397 131.18 62.1157 131.18C62.6917 131.18 63.2077 131.084 63.6637 130.892C64.1317 130.688 64.4977 130.4 64.7617 130.028C65.0377 129.644 65.1757 129.188 65.1757 128.66L64.8877 127.652C64.8877 128.096 64.8037 128.444 64.6357 128.696C64.4677 128.948 64.2397 129.128 63.9517 129.236C63.6757 129.344 63.3697 129.398 63.0337 129.398C62.8297 129.398 62.6317 129.368 62.4397 129.308C62.2597 129.236 62.1157 129.14 62.0077 129.02C61.8997 128.888 61.8457 128.726 61.8457 128.534ZM60.7837 125.276C60.9157 125.192 61.1137 125.096 61.3777 124.988C61.6417 124.868 61.9477 124.766 62.2957 124.682C62.6557 124.598 63.0337 124.556 63.4297 124.556C63.8857 124.556 64.2397 124.664 64.4917 124.88C64.7557 125.084 64.8877 125.36 64.8877 125.708V131H67.4977V125.168C67.4977 124.592 67.3297 124.106 66.9937 123.71C66.6697 123.314 66.2137 123.014 65.6257 122.81C65.0497 122.594 64.3897 122.486 63.6457 122.486C62.9017 122.486 62.1997 122.588 61.5397 122.792C60.8917 122.996 60.3337 123.212 59.8657 123.44L60.7837 125.276ZM77.4688 131H80.2048L77.7028 122.09L76.3348 125.33L77.4688 131ZM73.8148 128.642L74.3548 131.558L77.8828 125.762L77.7028 122.09L73.8148 128.642ZM74.3548 131.558L74.8948 128.642L71.0608 122.09L70.8808 125.762L74.3548 131.558ZM68.5588 131H71.2948L72.4288 125.33L71.0608 122.09L68.5588 131ZM83.4668 128.534C83.4668 128.306 83.5208 128.114 83.6288 127.958C83.7488 127.802 83.9168 127.682 84.1328 127.598C84.3608 127.502 84.6308 127.454 84.9428 127.454C85.4108 127.454 85.8068 127.514 86.1308 127.634C86.4668 127.742 86.7908 127.91 87.1028 128.138V126.86C86.9828 126.728 86.7788 126.596 86.4908 126.464C86.2148 126.32 85.8848 126.206 85.5008 126.122C85.1288 126.026 84.7328 125.978 84.3128 125.978C83.5928 125.978 82.9628 126.086 82.4228 126.302C81.8828 126.518 81.4628 126.824 81.1628 127.22C80.8748 127.616 80.7308 128.09 80.7308 128.642C80.7308 129.182 80.8568 129.644 81.1088 130.028C81.3728 130.4 81.7328 130.688 82.1888 130.892C82.6448 131.084 83.1608 131.18 83.7368 131.18C84.3128 131.18 84.8288 131.084 85.2848 130.892C85.7528 130.688 86.1188 130.4 86.3828 130.028C86.6588 129.644 86.7968 129.188 86.7968 128.66L86.5088 127.652C86.5088 128.096 86.4248 128.444 86.2568 128.696C86.0888 128.948 85.8608 129.128 85.5728 129.236C85.2968 129.344 84.9908 129.398 84.6548 129.398C84.4508 129.398 84.2528 129.368 84.0608 129.308C83.8808 129.236 83.7368 129.14 83.6288 129.02C83.5208 128.888 83.4668 128.726 83.4668 128.534ZM82.4048 125.276C82.5368 125.192 82.7348 125.096 82.9988 124.988C83.2628 124.868 83.5688 124.766 83.9168 124.682C84.2768 124.598 84.6548 124.556 85.0508 124.556C85.5068 124.556 85.8608 124.664 86.1128 124.88C86.3768 125.084 86.5088 125.36 86.5088 125.708V131H89.1188V125.168C89.1188 124.592 88.9508 124.106 88.6148 123.71C88.2908 123.314 87.8348 123.014 87.2468 122.81C86.6708 122.594 86.0108 122.486 85.2668 122.486C84.5228 122.486 83.8208 122.588 83.1608 122.792C82.5128 122.996 81.9548 123.212 81.4868 123.44L82.4048 125.276ZM93.6358 131L95.9038 127.238H93.3118L90.8278 131H93.6358ZM99.1618 131V122.72H96.4438V131H99.1618ZM97.3798 126.212H95.1838C94.9558 126.212 94.7578 126.194 94.5898 126.158C94.4338 126.11 94.3138 126.038 94.2298 125.942C94.1458 125.834 94.1038 125.702 94.1038 125.546C94.1038 125.378 94.1458 125.246 94.2298 125.15C94.3138 125.054 94.4338 124.988 94.5898 124.952C94.7578 124.904 94.9558 124.88 95.1838 124.88H97.3798V122.72H94.8058C94.2418 122.72 93.6958 122.81 93.1678 122.99C92.6518 123.158 92.2318 123.428 91.9078 123.8C91.5958 124.172 91.4398 124.676 91.4398 125.312C91.4398 125.936 91.5958 126.452 91.9078 126.86C92.2318 127.256 92.6518 127.55 93.1678 127.742C93.6958 127.934 94.2418 128.03 94.8058 128.03H97.3798V126.212ZM108.211 126.68V127.652H110.605C110.797 127.652 110.959 127.676 111.091 127.724C111.223 127.772 111.325 127.832 111.397 127.904C111.481 127.976 111.541 128.06 111.577 128.156C111.613 128.252 111.631 128.354 111.631 128.462C111.631 128.666 111.553 128.858 111.397 129.038C111.253 129.206 110.989 129.29 110.605 129.29H108.211V131H111.523C112.471 131 113.149 130.784 113.557 130.352C113.977 129.908 114.187 129.374 114.187 128.75C114.187 128.21 114.055 127.79 113.791 127.49C113.527 127.19 113.167 126.98 112.711 126.86C112.255 126.74 111.739 126.68 111.163 126.68H108.211ZM108.211 127.04H110.983C111.499 127.04 111.967 126.968 112.387 126.824C112.819 126.668 113.167 126.44 113.431 126.14C113.695 125.828 113.827 125.438 113.827 124.97C113.827 124.43 113.695 123.998 113.431 123.674C113.167 123.338 112.819 123.098 112.387 122.954C111.967 122.798 111.499 122.72 110.983 122.72H108.211V124.43H110.425C110.701 124.43 110.911 124.508 111.055 124.664C111.199 124.808 111.271 124.988 111.271 125.204C111.271 125.3 111.253 125.396 111.217 125.492C111.181 125.588 111.127 125.672 111.055 125.744C110.983 125.816 110.893 125.876 110.785 125.924C110.689 125.96 110.569 125.978 110.425 125.978H108.211V127.04ZM106.645 122.72V131H109.255V122.72H106.645ZM124.67 122.72V131H127.406V122.72H124.67ZM115.796 122.72V131H118.532V122.72H115.796ZM117.938 127.274H120.026C120.338 127.274 120.572 127.352 120.728 127.508C120.896 127.652 120.98 127.844 120.98 128.084C120.98 128.252 120.938 128.402 120.854 128.534C120.782 128.654 120.674 128.744 120.53 128.804C120.398 128.864 120.23 128.894 120.026 128.894H117.938V131H120.512C121.088 131 121.604 130.886 122.06 130.658C122.516 130.418 122.876 130.076 123.14 129.632C123.404 129.188 123.536 128.672 123.536 128.084C123.536 127.196 123.242 126.548 122.654 126.14C122.078 125.72 121.364 125.51 120.512 125.51H117.938V127.274ZM129.561 122.72V131H132.243V124.97H134.871V122.72H129.561ZM135.226 126.86C135.226 127.724 135.43 128.48 135.838 129.128C136.246 129.776 136.81 130.28 137.53 130.64C138.25 131 139.06 131.18 139.96 131.18C140.86 131.18 141.664 131 142.372 130.64C143.092 130.28 143.656 129.776 144.064 129.128C144.484 128.48 144.694 127.724 144.694 126.86C144.694 125.984 144.484 125.222 144.064 124.574C143.656 123.926 143.092 123.422 142.372 123.062C141.664 122.702 140.86 122.522 139.96 122.522C139.06 122.522 138.25 122.702 137.53 123.062C136.81 123.422 136.246 123.926 135.838 124.574C135.43 125.222 135.226 125.984 135.226 126.86ZM138.016 126.86C138.016 126.428 138.106 126.056 138.286 125.744C138.466 125.432 138.7 125.192 138.988 125.024C139.276 124.856 139.6 124.772 139.96 124.772C140.308 124.772 140.626 124.856 140.914 125.024C141.214 125.192 141.448 125.432 141.616 125.744C141.796 126.056 141.886 126.428 141.886 126.86C141.886 127.292 141.796 127.664 141.616 127.976C141.448 128.276 141.214 128.51 140.914 128.678C140.626 128.846 140.308 128.93 139.96 128.93C139.6 128.93 139.276 128.846 138.988 128.678C138.7 128.51 138.466 128.276 138.286 127.976C138.106 127.664 138.016 127.292 138.016 126.86ZM150.671 125.996L152.651 130.46L155.279 129.902L150.671 122.09L146.063 129.902L148.691 130.46L150.671 125.996ZM153.695 131V132.62H156.251V128.858H145.091V132.62H147.737V131H153.695ZM158.971 127.652H165.667V125.618H158.971V127.652ZM164.443 122.72V131H167.053V122.72H164.443ZM158.125 122.72V131H160.753V122.72H158.125ZM171.305 128.534C171.305 128.306 171.359 128.114 171.467 127.958C171.587 127.802 171.755 127.682 171.971 127.598C172.199 127.502 172.469 127.454 172.781 127.454C173.249 127.454 173.645 127.514 173.969 127.634C174.305 127.742 174.629 127.91 174.941 128.138V126.86C174.821 126.728 174.617 126.596 174.329 126.464C174.053 126.32 173.723 126.206 173.339 126.122C172.967 126.026 172.571 125.978 172.151 125.978C171.431 125.978 170.801 126.086 170.261 126.302C169.721 126.518 169.301 126.824 169.001 127.22C168.713 127.616 168.569 128.09 168.569 128.642C168.569 129.182 168.695 129.644 168.947 130.028C169.211 130.4 169.571 130.688 170.027 130.892C170.483 131.084 170.999 131.18 171.575 131.18C172.151 131.18 172.667 131.084 173.123 130.892C173.591 130.688 173.957 130.4 174.221 130.028C174.497 129.644 174.635 129.188 174.635 128.66L174.347 127.652C174.347 128.096 174.263 128.444 174.095 128.696C173.927 128.948 173.699 129.128 173.411 129.236C173.135 129.344 172.829 129.398 172.493 129.398C172.289 129.398 172.091 129.368 171.899 129.308C171.719 129.236 171.575 129.14 171.467 129.02C171.359 128.888 171.305 128.726 171.305 128.534ZM170.243 125.276C170.375 125.192 170.573 125.096 170.837 124.988C171.101 124.868 171.407 124.766 171.755 124.682C172.115 124.598 172.493 124.556 172.889 124.556C173.345 124.556 173.699 124.664 173.951 124.88C174.215 125.084 174.347 125.36 174.347 125.708V131H176.957V125.168C176.957 124.592 176.789 124.106 176.453 123.71C176.129 123.314 175.673 123.014 175.085 122.81C174.509 122.594 173.849 122.486 173.105 122.486C172.361 122.486 171.659 122.588 170.999 122.792C170.351 122.996 169.793 123.212 169.325 123.44L170.243 125.276ZM181.474 131L183.742 127.238H181.15L178.666 131H181.474ZM187 131V122.72H184.282V131H187ZM185.218 126.212H183.022C182.794 126.212 182.596 126.194 182.428 126.158C182.272 126.11 182.152 126.038 182.068 125.942C181.984 125.834 181.942 125.702 181.942 125.546C181.942 125.378 181.984 125.246 182.068 125.15C182.152 125.054 182.272 124.988 182.428 124.952C182.596 124.904 182.794 124.88 183.022 124.88H185.218V122.72H182.644C182.08 122.72 181.534 122.81 181.006 122.99C180.49 123.158 180.07 123.428 179.746 123.8C179.434 124.172 179.278 124.676 179.278 125.312C179.278 125.936 179.434 126.452 179.746 126.86C180.07 127.256 180.49 127.55 181.006 127.742C181.534 127.934 182.08 128.03 182.644 128.03H185.218V126.212ZM196.301 128.534C196.301 128.306 196.355 128.114 196.463 127.958C196.583 127.802 196.751 127.682 196.967 127.598C197.195 127.502 197.465 127.454 197.777 127.454C198.245 127.454 198.641 127.514 198.965 127.634C199.301 127.742 199.625 127.91 199.937 128.138V126.86C199.817 126.728 199.613 126.596 199.325 126.464C199.049 126.32 198.719 126.206 198.335 126.122C197.963 126.026 197.567 125.978 197.147 125.978C196.427 125.978 195.797 126.086 195.257 126.302C194.717 126.518 194.297 126.824 193.997 127.22C193.709 127.616 193.565 128.09 193.565 128.642C193.565 129.182 193.691 129.644 193.943 130.028C194.207 130.4 194.567 130.688 195.023 130.892C195.479 131.084 195.995 131.18 196.571 131.18C197.147 131.18 197.663 131.084 198.119 130.892C198.587 130.688 198.953 130.4 199.217 130.028C199.493 129.644 199.631 129.188 199.631 128.66L199.343 127.652C199.343 128.096 199.259 128.444 199.091 128.696C198.923 128.948 198.695 129.128 198.407 129.236C198.131 129.344 197.825 129.398 197.489 129.398C197.285 129.398 197.087 129.368 196.895 129.308C196.715 129.236 196.571 129.14 196.463 129.02C196.355 128.888 196.301 128.726 196.301 128.534ZM195.239 125.276C195.371 125.192 195.569 125.096 195.833 124.988C196.097 124.868 196.403 124.766 196.751 124.682C197.111 124.598 197.489 124.556 197.885 124.556C198.341 124.556 198.695 124.664 198.947 124.88C199.211 125.084 199.343 125.36 199.343 125.708V131H201.953V125.168C201.953 124.592 201.785 124.106 201.449 123.71C201.125 123.314 200.669 123.014 200.081 122.81C199.505 122.594 198.845 122.486 198.101 122.486C197.357 122.486 196.655 122.588 195.995 122.792C195.347 122.996 194.789 123.212 194.321 123.44L195.239 125.276ZM206.686 134.96V122.72H203.968V134.96H206.686ZM213.454 126.86C213.454 125.888 213.262 125.078 212.878 124.43C212.506 123.77 212.02 123.272 211.42 122.936C210.832 122.6 210.196 122.432 209.512 122.432C208.792 122.432 208.168 122.618 207.64 122.99C207.124 123.35 206.728 123.86 206.452 124.52C206.176 125.18 206.038 125.96 206.038 126.86C206.038 127.748 206.176 128.528 206.452 129.2C206.728 129.86 207.124 130.376 207.64 130.748C208.168 131.108 208.792 131.288 209.512 131.288C210.196 131.288 210.832 131.12 211.42 130.784C212.02 130.448 212.506 129.95 212.878 129.29C213.262 128.63 213.454 127.82 213.454 126.86ZM210.592 126.86C210.592 127.292 210.502 127.658 210.322 127.958C210.142 128.258 209.902 128.486 209.602 128.642C209.302 128.798 208.972 128.876 208.612 128.876C208.3 128.876 207.994 128.804 207.694 128.66C207.406 128.504 207.166 128.276 206.974 127.976C206.782 127.676 206.686 127.304 206.686 126.86C206.686 126.416 206.782 126.044 206.974 125.744C207.166 125.444 207.406 125.222 207.694 125.078C207.994 124.922 208.3 124.844 208.612 124.844C208.972 124.844 209.302 124.922 209.602 125.078C209.902 125.234 210.142 125.462 210.322 125.762C210.502 126.062 210.592 126.428 210.592 126.86ZM216.139 127.436H223.699C223.723 127.292 223.735 127.16 223.735 127.04C223.735 126.908 223.735 126.806 223.735 126.734C223.735 125.858 223.561 125.108 223.213 124.484C222.877 123.86 222.379 123.38 221.719 123.044C221.059 122.708 220.243 122.54 219.271 122.54C218.371 122.54 217.597 122.684 216.949 122.972C216.313 123.26 215.803 123.662 215.419 124.178C215.047 124.694 214.801 125.294 214.681 125.978C214.657 126.122 214.639 126.266 214.627 126.41C214.615 126.554 214.609 126.704 214.609 126.86C214.609 127.688 214.789 128.432 215.149 129.092C215.521 129.74 216.055 130.25 216.751 130.622C217.459 130.994 218.311 131.18 219.307 131.18C220.111 131.18 220.789 131.084 221.341 130.892C221.905 130.688 222.379 130.406 222.763 130.046C223.147 129.674 223.477 129.236 223.753 128.732L221.323 128.138C221.191 128.366 221.029 128.564 220.837 128.732C220.645 128.888 220.417 129.008 220.153 129.092C219.901 129.176 219.607 129.218 219.271 129.218C218.923 129.218 218.599 129.14 218.299 128.984C218.011 128.828 217.777 128.576 217.597 128.228C217.429 127.88 217.345 127.424 217.345 126.86L217.381 126.428C217.381 125.984 217.459 125.612 217.615 125.312C217.771 125 217.981 124.766 218.245 124.61C218.521 124.442 218.845 124.358 219.217 124.358C219.541 124.358 219.811 124.424 220.027 124.556C220.255 124.676 220.429 124.85 220.549 125.078C220.681 125.306 220.771 125.588 220.819 125.924H216.139V127.436ZM226.295 127.652H232.991V125.618H226.295V127.652ZM231.767 122.72V131H234.377V122.72H231.767ZM225.449 122.72V131H228.077V122.72H225.449ZM241.761 125.996L243.741 130.46L246.369 129.902L241.761 122.09L237.153 129.902L239.781 130.46L241.761 125.996ZM244.785 131V132.62H247.341V128.858H236.181V132.62H238.827V131H244.785ZM251.32 128.534C251.32 128.306 251.374 128.114 251.482 127.958C251.602 127.802 251.77 127.682 251.986 127.598C252.214 127.502 252.484 127.454 252.796 127.454C253.264 127.454 253.66 127.514 253.984 127.634C254.32 127.742 254.644 127.91 254.956 128.138V126.86C254.836 126.728 254.632 126.596 254.344 126.464C254.068 126.32 253.738 126.206 253.354 126.122C252.982 126.026 252.586 125.978 252.166 125.978C251.446 125.978 250.816 126.086 250.276 126.302C249.736 126.518 249.316 126.824 249.016 127.22C248.728 127.616 248.584 128.09 248.584 128.642C248.584 129.182 248.71 129.644 248.962 130.028C249.226 130.4 249.586 130.688 250.042 130.892C250.498 131.084 251.014 131.18 251.59 131.18C252.166 131.18 252.682 131.084 253.138 130.892C253.606 130.688 253.972 130.4 254.236 130.028C254.512 129.644 254.65 129.188 254.65 128.66L254.362 127.652C254.362 128.096 254.278 128.444 254.11 128.696C253.942 128.948 253.714 129.128 253.426 129.236C253.15 129.344 252.844 129.398 252.508 129.398C252.304 129.398 252.106 129.368 251.914 129.308C251.734 129.236 251.59 129.14 251.482 129.02C251.374 128.888 251.32 128.726 251.32 128.534ZM250.258 125.276C250.39 125.192 250.588 125.096 250.852 124.988C251.116 124.868 251.422 124.766 251.77 124.682C252.13 124.598 252.508 124.556 252.904 124.556C253.36 124.556 253.714 124.664 253.966 124.88C254.23 125.084 254.362 125.36 254.362 125.708V131H256.972V125.168C256.972 124.592 256.804 124.106 256.468 123.71C256.144 123.314 255.688 123.014 255.1 122.81C254.524 122.594 253.864 122.486 253.12 122.486C252.376 122.486 251.674 122.588 251.014 122.792C250.366 122.996 249.808 123.212 249.34 123.44L250.258 125.276Z" fill="black"/>
<path d="M75.0605 144.8H67.4605V151.84C67.4605 152.267 67.4285 152.661 67.3645 153.024C67.3005 153.387 67.2045 153.707 67.0765 153.984C66.9485 154.251 66.7938 154.459 66.6125 154.608C66.4312 154.757 66.2178 154.832 65.9725 154.832V156C66.5805 156 67.0872 155.824 67.4925 155.472C67.9085 155.12 68.2178 154.651 68.4205 154.064C68.6338 153.477 68.7405 152.843 68.7405 152.16V146.08H73.7005V156H75.0605V144.8ZM83.3838 148.64H81.9438L79.6718 154.336L80.1998 154.4L77.8638 148.64H76.3438L79.1598 154.96L77.1438 159.52H78.5838L83.3838 148.64ZM87.0706 153.76H89.5826V152.56H87.0706V153.76ZM88.6706 148.64V156H89.9506V148.64H88.6706ZM85.4706 148.64H84.1906V150.752C84.1906 151.467 84.276 152.048 84.4466 152.496C84.6173 152.933 84.9106 153.253 85.3266 153.456C85.7533 153.659 86.3346 153.76 87.0706 153.76V152.56C86.6653 152.56 86.3453 152.501 86.1106 152.384C85.876 152.256 85.7106 152.059 85.6146 151.792C85.5186 151.525 85.4706 151.179 85.4706 150.752V148.64ZM98.0363 154.8V148.64H96.7563V154.8H93.6363V148.64H92.3563V156H102.436V148.64H101.156V154.8H98.0363ZM105.017 152.64H111.305C111.315 152.576 111.321 152.512 111.321 152.448C111.321 152.384 111.321 152.32 111.321 152.256C111.321 151.477 111.177 150.811 110.889 150.256C110.601 149.691 110.195 149.253 109.673 148.944C109.15 148.635 108.542 148.48 107.849 148.48C107.219 148.48 106.649 148.608 106.137 148.864C105.635 149.12 105.225 149.477 104.905 149.936C104.585 150.395 104.371 150.928 104.265 151.536C104.243 151.664 104.227 151.792 104.217 151.92C104.206 152.048 104.201 152.181 104.201 152.32C104.201 153.056 104.35 153.717 104.649 154.304C104.958 154.88 105.374 155.333 105.897 155.664C106.43 155.995 107.027 156.16 107.689 156.16C108.329 156.16 108.862 156.085 109.289 155.936C109.715 155.776 110.078 155.557 110.377 155.28C110.675 154.992 110.947 154.661 111.193 154.288L110.153 153.632C109.993 153.899 109.801 154.133 109.577 154.336C109.353 154.528 109.097 154.683 108.809 154.8C108.531 154.907 108.211 154.96 107.849 154.96C107.369 154.96 106.953 154.859 106.601 154.656C106.249 154.453 105.977 154.155 105.785 153.76C105.593 153.365 105.497 152.885 105.497 152.32L105.529 151.84C105.529 151.381 105.63 150.987 105.833 150.656C106.046 150.315 106.329 150.053 106.681 149.872C107.033 149.691 107.422 149.6 107.849 149.6C108.275 149.6 108.633 149.685 108.921 149.856C109.219 150.016 109.449 150.245 109.609 150.544C109.779 150.832 109.886 151.168 109.929 151.552H105.017V152.64ZM113.251 152.64H119.539C119.55 152.576 119.555 152.512 119.555 152.448C119.555 152.384 119.555 152.32 119.555 152.256C119.555 151.477 119.411 150.811 119.123 150.256C118.835 149.691 118.43 149.253 117.907 148.944C117.384 148.635 116.776 148.48 116.083 148.48C115.454 148.48 114.883 148.608 114.371 148.864C113.87 149.12 113.459 149.477 113.139 149.936C112.819 150.395 112.606 150.928 112.499 151.536C112.478 151.664 112.462 151.792 112.451 151.92C112.44 152.048 112.435 152.181 112.435 152.32C112.435 153.056 112.584 153.717 112.883 154.304C113.192 154.88 113.608 155.333 114.131 155.664C114.664 155.995 115.262 156.16 115.923 156.16C116.563 156.16 117.096 156.085 117.523 155.936C117.95 155.776 118.312 155.557 118.611 155.28C118.91 154.992 119.182 154.661 119.427 154.288L118.387 153.632C118.227 153.899 118.035 154.133 117.811 154.336C117.587 154.528 117.331 154.683 117.043 154.8C116.766 154.907 116.446 154.96 116.083 154.96C115.603 154.96 115.187 154.859 114.835 154.656C114.483 154.453 114.211 154.155 114.019 153.76C113.827 153.365 113.731 152.885 113.731 152.32L113.763 151.84C113.763 151.381 113.864 150.987 114.067 150.656C114.28 150.315 114.563 150.053 114.915 149.872C115.267 149.691 115.656 149.6 116.083 149.6C116.51 149.6 116.867 149.685 117.155 149.856C117.454 150.016 117.683 150.245 117.843 150.544C118.014 150.832 118.12 151.168 118.163 151.552H113.251V152.64ZM132.106 148.64H126.106V156H127.386V149.84H130.826V156H132.106V148.64ZM135.713 159.52V148.64H134.433V159.52H135.713ZM141.873 152.32C141.873 151.52 141.707 150.837 141.377 150.272C141.046 149.696 140.603 149.253 140.049 148.944C139.505 148.635 138.897 148.48 138.225 148.48C137.617 148.48 137.078 148.635 136.609 148.944C136.15 149.253 135.787 149.696 135.521 150.272C135.265 150.837 135.137 151.52 135.137 152.32C135.137 153.109 135.265 153.792 135.521 154.368C135.787 154.944 136.15 155.387 136.609 155.696C137.078 156.005 137.617 156.16 138.225 156.16C138.897 156.16 139.505 156.005 140.049 155.696C140.603 155.387 141.046 154.944 141.377 154.368C141.707 153.792 141.873 153.109 141.873 152.32ZM140.577 152.32C140.577 152.885 140.459 153.365 140.225 153.76C140.001 154.155 139.697 154.453 139.313 154.656C138.939 154.859 138.523 154.96 138.065 154.96C137.691 154.96 137.323 154.859 136.961 154.656C136.598 154.453 136.299 154.155 136.065 153.76C135.83 153.365 135.713 152.885 135.713 152.32C135.713 151.755 135.83 151.275 136.065 150.88C136.299 150.485 136.598 150.187 136.961 149.984C137.323 149.781 137.691 149.68 138.065 149.68C138.523 149.68 138.939 149.781 139.313 149.984C139.697 150.187 140.001 150.485 140.225 150.88C140.459 151.275 140.577 151.755 140.577 152.32ZM143.814 152.64H150.102C150.112 152.576 150.118 152.512 150.118 152.448C150.118 152.384 150.118 152.32 150.118 152.256C150.118 151.477 149.974 150.811 149.686 150.256C149.398 149.691 148.992 149.253 148.47 148.944C147.947 148.635 147.339 148.48 146.646 148.48C146.016 148.48 145.446 148.608 144.934 148.864C144.432 149.12 144.022 149.477 143.702 149.936C143.382 150.395 143.168 150.928 143.062 151.536C143.04 151.664 143.024 151.792 143.014 151.92C143.003 152.048 142.998 152.181 142.998 152.32C142.998 153.056 143.147 153.717 143.446 154.304C143.755 154.88 144.171 155.333 144.694 155.664C145.227 155.995 145.824 156.16 146.486 156.16C147.126 156.16 147.659 156.085 148.086 155.936C148.512 155.776 148.875 155.557 149.174 155.28C149.472 154.992 149.744 154.661 149.99 154.288L148.95 153.632C148.79 153.899 148.598 154.133 148.374 154.336C148.15 154.528 147.894 154.683 147.606 154.8C147.328 154.907 147.008 154.96 146.646 154.96C146.166 154.96 145.75 154.859 145.398 154.656C145.046 154.453 144.774 154.155 144.582 153.76C144.39 153.365 144.294 152.885 144.294 152.32L144.326 151.84C144.326 151.381 144.427 150.987 144.63 150.656C144.843 150.315 145.126 150.053 145.478 149.872C145.83 149.691 146.219 149.6 146.646 149.6C147.072 149.6 147.43 149.685 147.718 149.856C148.016 150.016 148.246 150.245 148.406 150.544C148.576 150.832 148.683 151.168 148.726 151.552H143.814V152.64ZM155.075 150.848L157.235 155.52H158.675L155.075 148.08L151.475 155.52H152.915L155.075 150.848ZM158.355 156V157.44H159.635V154.8H150.515V157.44H151.875V156H158.355ZM168.007 148.64H161.687V153.44C161.687 153.963 161.57 154.325 161.335 154.528C161.111 154.731 160.839 154.832 160.519 154.832V156C161.074 156 161.533 155.909 161.895 155.728C162.258 155.536 162.525 155.253 162.695 154.88C162.877 154.496 162.967 154.016 162.967 153.44V149.84H166.727V156H168.007V148.64ZM169.841 152.32C169.841 153.056 170.007 153.717 170.337 154.304C170.679 154.88 171.137 155.333 171.713 155.664C172.289 155.995 172.935 156.16 173.649 156.16C174.375 156.16 175.02 155.995 175.585 155.664C176.161 155.333 176.615 154.88 176.945 154.304C177.287 153.717 177.457 153.056 177.457 152.32C177.457 151.573 177.287 150.912 176.945 150.336C176.615 149.76 176.161 149.307 175.585 148.976C175.02 148.645 174.375 148.48 173.649 148.48C172.935 148.48 172.289 148.645 171.713 148.976C171.137 149.307 170.679 149.76 170.337 150.336C170.007 150.912 169.841 151.573 169.841 152.32ZM171.137 152.32C171.137 151.808 171.244 151.355 171.457 150.96C171.681 150.555 171.98 150.24 172.353 150.016C172.737 149.792 173.169 149.68 173.649 149.68C174.129 149.68 174.556 149.792 174.929 150.016C175.313 150.24 175.612 150.555 175.825 150.96C176.049 151.355 176.161 151.808 176.161 152.32C176.161 152.832 176.049 153.285 175.825 153.68C175.612 154.075 175.313 154.389 174.929 154.624C174.556 154.848 174.129 154.96 173.649 154.96C173.169 154.96 172.737 154.848 172.353 154.624C171.98 154.389 171.681 154.075 171.457 153.68C171.244 153.285 171.137 152.832 171.137 152.32ZM186.661 148.64L183.461 151.68L186.981 156H188.581L184.901 151.84L188.261 148.64H186.661ZM183.781 148.64H182.581V156H183.781V148.64ZM179.701 148.64H178.101L181.461 151.84L177.781 156H179.381L182.901 151.68L179.701 148.64ZM189.72 152.64H196.008C196.018 152.576 196.024 152.512 196.024 152.448C196.024 152.384 196.024 152.32 196.024 152.256C196.024 151.477 195.88 150.811 195.592 150.256C195.304 149.691 194.898 149.253 194.376 148.944C193.853 148.635 193.245 148.48 192.552 148.48C191.922 148.48 191.352 148.608 190.84 148.864C190.338 149.12 189.928 149.477 189.608 149.936C189.288 150.395 189.074 150.928 188.968 151.536C188.946 151.664 188.93 151.792 188.92 151.92C188.909 152.048 188.904 152.181 188.904 152.32C188.904 153.056 189.053 153.717 189.352 154.304C189.661 154.88 190.077 155.333 190.6 155.664C191.133 155.995 191.73 156.16 192.392 156.16C193.032 156.16 193.565 156.085 193.992 155.936C194.418 155.776 194.781 155.557 195.08 155.28C195.378 154.992 195.65 154.661 195.896 154.288L194.856 153.632C194.696 153.899 194.504 154.133 194.28 154.336C194.056 154.528 193.8 154.683 193.512 154.8C193.234 154.907 192.914 154.96 192.552 154.96C192.072 154.96 191.656 154.859 191.304 154.656C190.952 154.453 190.68 154.155 190.488 153.76C190.296 153.365 190.2 152.885 190.2 152.32L190.232 151.84C190.232 151.381 190.333 150.987 190.536 150.656C190.749 150.315 191.032 150.053 191.384 149.872C191.736 149.691 192.125 149.6 192.552 149.6C192.978 149.6 193.336 149.685 193.624 149.856C193.922 150.016 194.152 150.245 194.312 150.544C194.482 150.832 194.589 151.168 194.632 151.552H189.72V152.64ZM198.53 152.72H203.97V151.52H198.53V152.72ZM203.138 148.64V156H204.418V148.64H203.138ZM197.778 148.64V156H199.058V148.64H197.778ZM212.985 149.92L213.065 148.08L206.985 154.72L206.905 156.56L212.985 149.92ZM208.185 148.64H206.905V156.56L208.185 154.8V148.64ZM213.065 148.08L211.785 149.84V156H213.065V148.08ZM215.72 152.64H222.008C222.018 152.576 222.024 152.512 222.024 152.448C222.024 152.384 222.024 152.32 222.024 152.256C222.024 151.477 221.88 150.811 221.592 150.256C221.304 149.691 220.898 149.253 220.376 148.944C219.853 148.635 219.245 148.48 218.552 148.48C217.922 148.48 217.352 148.608 216.84 148.864C216.338 149.12 215.928 149.477 215.608 149.936C215.288 150.395 215.074 150.928 214.968 151.536C214.946 151.664 214.93 151.792 214.92 151.92C214.909 152.048 214.904 152.181 214.904 152.32C214.904 153.056 215.053 153.717 215.352 154.304C215.661 154.88 216.077 155.333 216.6 155.664C217.133 155.995 217.73 156.16 218.392 156.16C219.032 156.16 219.565 156.085 219.992 155.936C220.418 155.776 220.781 155.557 221.08 155.28C221.378 154.992 221.65 154.661 221.896 154.288L220.856 153.632C220.696 153.899 220.504 154.133 220.28 154.336C220.056 154.528 219.8 154.683 219.512 154.8C219.234 154.907 218.914 154.96 218.552 154.96C218.072 154.96 217.656 154.859 217.304 154.656C216.952 154.453 216.68 154.155 216.488 153.76C216.296 153.365 216.2 152.885 216.2 152.32L216.232 151.84C216.232 151.381 216.333 150.987 216.536 150.656C216.749 150.315 217.032 150.053 217.384 149.872C217.736 149.691 218.125 149.6 218.552 149.6C218.978 149.6 219.336 149.685 219.624 149.856C219.922 150.016 220.152 150.245 220.312 150.544C220.482 150.832 220.589 151.168 220.632 151.552H215.72V152.64ZM229.327 152.72H234.767V151.52H229.327V152.72ZM233.935 148.64V156H235.215V148.64H233.935ZM228.575 148.64V156H229.855V148.64H228.575ZM238.198 153.84C238.198 153.541 238.267 153.285 238.406 153.072C238.545 152.859 238.753 152.693 239.03 152.576C239.318 152.459 239.675 152.4 240.102 152.4C240.571 152.4 240.993 152.464 241.366 152.592C241.739 152.709 242.107 152.896 242.47 153.152V152.4C242.395 152.304 242.257 152.181 242.054 152.032C241.851 151.872 241.579 151.733 241.238 151.616C240.907 151.488 240.507 151.424 240.038 151.424C239.398 151.424 238.843 151.525 238.374 151.728C237.905 151.92 237.542 152.197 237.286 152.56C237.03 152.923 236.902 153.365 236.902 153.888C236.902 154.389 237.014 154.811 237.238 155.152C237.473 155.483 237.782 155.733 238.166 155.904C238.55 156.075 238.971 156.16 239.43 156.16C239.942 156.16 240.406 156.075 240.822 155.904C241.238 155.723 241.569 155.467 241.814 155.136C242.07 154.795 242.198 154.389 242.198 153.92L241.942 153.12C241.942 153.579 241.846 153.947 241.654 154.224C241.473 154.501 241.217 154.704 240.886 154.832C240.555 154.96 240.177 155.024 239.75 155.024C239.462 155.024 239.201 154.981 238.966 154.896C238.731 154.8 238.545 154.667 238.406 154.496C238.267 154.315 238.198 154.096 238.198 153.84ZM238.198 150.368C238.315 150.283 238.475 150.181 238.678 150.064C238.891 149.936 239.142 149.829 239.43 149.744C239.718 149.648 240.038 149.6 240.39 149.6C240.795 149.6 241.153 149.696 241.462 149.888C241.782 150.069 241.942 150.347 241.942 150.72V156H243.222V150.72C243.222 150.24 243.099 149.835 242.854 149.504C242.619 149.173 242.289 148.923 241.862 148.752C241.446 148.571 240.955 148.48 240.39 148.48C239.729 148.48 239.163 148.581 238.694 148.784C238.225 148.987 237.851 149.189 237.574 149.392L238.198 150.368ZM68.2672 182.52V171.64H66.9872V182.52H68.2672ZM74.4272 175.32C74.4272 174.52 74.2619 173.837 73.9312 173.272C73.6005 172.696 73.1579 172.253 72.6032 171.944C72.0592 171.635 71.4512 171.48 70.7792 171.48C70.1712 171.48 69.6325 171.635 69.1632 171.944C68.7045 172.253 68.3419 172.696 68.0752 173.272C67.8192 173.837 67.6912 174.52 67.6912 175.32C67.6912 176.109 67.8192 176.792 68.0752 177.368C68.3419 177.944 68.7045 178.387 69.1632 178.696C69.6325 179.005 70.1712 179.16 70.7792 179.16C71.4512 179.16 72.0592 179.005 72.6032 178.696C73.1579 178.387 73.6005 177.944 73.9312 177.368C74.2619 176.792 74.4272 176.109 74.4272 175.32ZM73.1312 175.32C73.1312 175.885 73.0139 176.365 72.7792 176.76C72.5552 177.155 72.2512 177.453 71.8672 177.656C71.4939 177.859 71.0779 177.96 70.6192 177.96C70.2459 177.96 69.8779 177.859 69.5152 177.656C69.1525 177.453 68.8539 177.155 68.6192 176.76C68.3845 176.365 68.2672 175.885 68.2672 175.32C68.2672 174.755 68.3845 174.275 68.6192 173.88C68.8539 173.485 69.1525 173.187 69.5152 172.984C69.8779 172.781 70.2459 172.68 70.6192 172.68C71.0779 172.68 71.4939 172.781 71.8672 172.984C72.2512 173.187 72.5552 173.485 72.7792 173.88C73.0139 174.275 73.1312 174.755 73.1312 175.32ZM82.8322 171.64V179H84.1122V171.64H82.8322ZM76.1922 171.64V179H77.4722V171.64H76.1922ZM76.9442 175.544H79.2322C79.7015 175.544 80.0535 175.645 80.2882 175.848C80.5229 176.051 80.6402 176.339 80.6402 176.712C80.6402 176.957 80.5869 177.171 80.4802 177.352C80.3735 177.523 80.2135 177.656 80.0002 177.752C79.7975 177.837 79.5415 177.88 79.2322 177.88H76.9442V179H79.2322C79.7442 179 80.2029 178.92 80.6082 178.76C81.0135 178.6 81.3335 178.349 81.5682 178.008C81.8029 177.667 81.9202 177.235 81.9202 176.712C81.9202 175.923 81.6589 175.347 81.1362 174.984C80.6242 174.611 79.9895 174.424 79.2322 174.424H76.9442V175.544ZM87.2567 175.72H92.6967V174.52H87.2567V175.72ZM91.8647 171.64V179H93.1447V171.64H91.8647ZM86.5047 171.64V179H87.7847V171.64H86.5047ZM95.4716 171.64V179H96.7516V171.64H95.4716ZM99.4716 171.64L96.2716 174.68L99.7916 179H101.392L97.8716 174.68L101.072 171.64H99.4716ZM102.54 175.64H108.828C108.839 175.576 108.844 175.512 108.844 175.448C108.844 175.384 108.844 175.32 108.844 175.256C108.844 174.477 108.7 173.811 108.412 173.256C108.124 172.691 107.719 172.253 107.196 171.944C106.673 171.635 106.065 171.48 105.372 171.48C104.743 171.48 104.172 171.608 103.66 171.864C103.159 172.12 102.748 172.477 102.428 172.936C102.108 173.395 101.895 173.928 101.788 174.536C101.767 174.664 101.751 174.792 101.74 174.92C101.729 175.048 101.724 175.181 101.724 175.32C101.724 176.056 101.873 176.717 102.172 177.304C102.481 177.88 102.897 178.333 103.42 178.664C103.953 178.995 104.551 179.16 105.212 179.16C105.852 179.16 106.385 179.085 106.812 178.936C107.239 178.776 107.601 178.557 107.9 178.28C108.199 177.992 108.471 177.661 108.716 177.288L107.676 176.632C107.516 176.899 107.324 177.133 107.1 177.336C106.876 177.528 106.62 177.683 106.332 177.8C106.055 177.907 105.735 177.96 105.372 177.96C104.892 177.96 104.476 177.859 104.124 177.656C103.772 177.453 103.5 177.155 103.308 176.76C103.116 176.365 103.02 175.885 103.02 175.32L103.052 174.84C103.052 174.381 103.153 173.987 103.356 173.656C103.569 173.315 103.852 173.053 104.204 172.872C104.556 172.691 104.945 172.6 105.372 172.6C105.799 172.6 106.156 172.685 106.444 172.856C106.743 173.016 106.972 173.245 107.132 173.544C107.303 173.832 107.409 174.168 107.452 174.552H102.54V175.64ZM115.971 176.84C115.971 176.541 116.041 176.285 116.179 176.072C116.318 175.859 116.526 175.693 116.803 175.576C117.091 175.459 117.449 175.4 117.875 175.4C118.345 175.4 118.766 175.464 119.139 175.592C119.513 175.709 119.881 175.896 120.243 176.152V175.4C120.169 175.304 120.03 175.181 119.827 175.032C119.625 174.872 119.353 174.733 119.011 174.616C118.681 174.488 118.281 174.424 117.811 174.424C117.171 174.424 116.617 174.525 116.147 174.728C115.678 174.92 115.315 175.197 115.059 175.56C114.803 175.923 114.675 176.365 114.675 176.888C114.675 177.389 114.787 177.811 115.011 178.152C115.246 178.483 115.555 178.733 115.939 178.904C116.323 179.075 116.745 179.16 117.203 179.16C117.715 179.16 118.179 179.075 118.595 178.904C119.011 178.723 119.342 178.467 119.587 178.136C119.843 177.795 119.971 177.389 119.971 176.92L119.715 176.12C119.715 176.579 119.619 176.947 119.427 177.224C119.246 177.501 118.99 177.704 118.659 177.832C118.329 177.96 117.95 178.024 117.523 178.024C117.235 178.024 116.974 177.981 116.739 177.896C116.505 177.8 116.318 177.667 116.179 177.496C116.041 177.315 115.971 177.096 115.971 176.84ZM115.971 173.368C116.089 173.283 116.249 173.181 116.451 173.064C116.665 172.936 116.915 172.829 117.203 172.744C117.491 172.648 117.811 172.6 118.163 172.6C118.569 172.6 118.926 172.696 119.235 172.888C119.555 173.069 119.715 173.347 119.715 173.72V179H120.995V173.72C120.995 173.24 120.873 172.835 120.627 172.504C120.393 172.173 120.062 171.923 119.635 171.752C119.219 171.571 118.729 171.48 118.163 171.48C117.502 171.48 116.937 171.581 116.467 171.784C115.998 171.987 115.625 172.189 115.347 172.392L115.971 173.368ZM124.361 182.52V171.64H123.081V182.52H124.361ZM130.521 175.32C130.521 174.52 130.356 173.837 130.025 173.272C129.694 172.696 129.252 172.253 128.697 171.944C128.153 171.635 127.545 171.48 126.873 171.48C126.265 171.48 125.726 171.635 125.257 171.944C124.798 172.253 124.436 172.696 124.169 173.272C123.913 173.837 123.785 174.52 123.785 175.32C123.785 176.109 123.913 176.792 124.169 177.368C124.436 177.944 124.798 178.387 125.257 178.696C125.726 179.005 126.265 179.16 126.873 179.16C127.545 179.16 128.153 179.005 128.697 178.696C129.252 178.387 129.694 177.944 130.025 177.368C130.356 176.792 130.521 176.109 130.521 175.32ZM129.225 175.32C129.225 175.885 129.108 176.365 128.873 176.76C128.649 177.155 128.345 177.453 127.961 177.656C127.588 177.859 127.172 177.96 126.713 177.96C126.34 177.96 125.972 177.859 125.609 177.656C125.246 177.453 124.948 177.155 124.713 176.76C124.478 176.365 124.361 175.885 124.361 175.32C124.361 174.755 124.478 174.275 124.713 173.88C124.948 173.485 125.246 173.187 125.609 172.984C125.972 172.781 126.34 172.68 126.713 172.68C127.172 172.68 127.588 172.781 127.961 172.984C128.345 173.187 128.649 173.485 128.873 173.88C129.108 174.275 129.225 174.755 129.225 175.32ZM132.462 175.64H138.75C138.761 175.576 138.766 175.512 138.766 175.448C138.766 175.384 138.766 175.32 138.766 175.256C138.766 174.477 138.622 173.811 138.334 173.256C138.046 172.691 137.641 172.253 137.118 171.944C136.595 171.635 135.987 171.48 135.294 171.48C134.665 171.48 134.094 171.608 133.582 171.864C133.081 172.12 132.67 172.477 132.35 172.936C132.03 173.395 131.817 173.928 131.71 174.536C131.689 174.664 131.673 174.792 131.662 174.92C131.651 175.048 131.646 175.181 131.646 175.32C131.646 176.056 131.795 176.717 132.094 177.304C132.403 177.88 132.819 178.333 133.342 178.664C133.875 178.995 134.473 179.16 135.134 179.16C135.774 179.16 136.307 179.085 136.734 178.936C137.161 178.776 137.523 178.557 137.822 178.28C138.121 177.992 138.393 177.661 138.638 177.288L137.598 176.632C137.438 176.899 137.246 177.133 137.022 177.336C136.798 177.528 136.542 177.683 136.254 177.8C135.977 177.907 135.657 177.96 135.294 177.96C134.814 177.96 134.398 177.859 134.046 177.656C133.694 177.453 133.422 177.155 133.23 176.76C133.038 176.365 132.942 175.885 132.942 175.32L132.974 174.84C132.974 174.381 133.075 173.987 133.278 173.656C133.491 173.315 133.774 173.053 134.126 172.872C134.478 172.691 134.867 172.6 135.294 172.6C135.721 172.6 136.078 172.685 136.366 172.856C136.665 173.016 136.894 173.245 137.054 173.544C137.225 173.832 137.331 174.168 137.374 174.552H132.462V175.64ZM141.272 175.72H146.712V174.52H141.272V175.72ZM145.88 171.64V179H147.16V171.64H145.88ZM140.52 171.64V179H141.8V171.64H140.52ZM153.567 173.848L155.727 178.52H157.167L153.567 171.08L149.967 178.52H151.407L153.567 173.848ZM156.847 179V180.44H158.127V177.8H149.007V180.44H150.367V179H156.847ZM166.692 171.64V179H167.972V171.64H166.692ZM160.052 171.64V179H161.332V171.64H160.052ZM160.804 175.544H163.092C163.561 175.544 163.913 175.645 164.148 175.848C164.382 176.051 164.5 176.339 164.5 176.712C164.5 176.957 164.446 177.171 164.34 177.352C164.233 177.523 164.073 177.656 163.86 177.752C163.657 177.837 163.401 177.88 163.092 177.88H160.804V179H163.092C163.604 179 164.062 178.92 164.468 178.76C164.873 178.6 165.193 178.349 165.428 178.008C165.662 177.667 165.78 177.235 165.78 176.712C165.78 175.923 165.518 175.347 164.996 174.984C164.484 174.611 163.849 174.424 163.092 174.424H160.804V175.544ZM174.521 175.32C174.521 176.056 174.686 176.717 175.017 177.304C175.358 177.88 175.817 178.333 176.393 178.664C176.969 178.995 177.614 179.16 178.329 179.16C179.054 179.16 179.7 178.995 180.265 178.664C180.841 178.333 181.294 177.88 181.625 177.304C181.966 176.717 182.137 176.056 182.137 175.32C182.137 174.573 181.966 173.912 181.625 173.336C181.294 172.76 180.841 172.307 180.265 171.976C179.7 171.645 179.054 171.48 178.329 171.48C177.614 171.48 176.969 171.645 176.393 171.976C175.817 172.307 175.358 172.76 175.017 173.336C174.686 173.912 174.521 174.573 174.521 175.32ZM175.817 175.32C175.817 174.808 175.924 174.355 176.137 173.96C176.361 173.555 176.66 173.24 177.033 173.016C177.417 172.792 177.849 172.68 178.329 172.68C178.809 172.68 179.236 172.792 179.609 173.016C179.993 173.24 180.292 173.555 180.505 173.96C180.729 174.355 180.841 174.808 180.841 175.32C180.841 175.832 180.729 176.285 180.505 176.68C180.292 177.075 179.993 177.389 179.609 177.624C179.236 177.848 178.809 177.96 178.329 177.96C177.849 177.96 177.417 177.848 177.033 177.624C176.66 177.389 176.361 177.075 176.137 176.68C175.924 176.285 175.817 175.832 175.817 175.32ZM189.895 171.64H183.895V179H185.175V172.84H188.615V179H189.895V171.64ZM192.878 176.84C192.878 176.541 192.947 176.285 193.086 176.072C193.224 175.859 193.432 175.693 193.71 175.576C193.998 175.459 194.355 175.4 194.782 175.4C195.251 175.4 195.672 175.464 196.046 175.592C196.419 175.709 196.787 175.896 197.15 176.152V175.4C197.075 175.304 196.936 175.181 196.734 175.032C196.531 174.872 196.259 174.733 195.918 174.616C195.587 174.488 195.187 174.424 194.718 174.424C194.078 174.424 193.523 174.525 193.054 174.728C192.584 174.92 192.222 175.197 191.966 175.56C191.71 175.923 191.582 176.365 191.582 176.888C191.582 177.389 191.694 177.811 191.918 178.152C192.152 178.483 192.462 178.733 192.846 178.904C193.23 179.075 193.651 179.16 194.11 179.16C194.622 179.16 195.086 179.075 195.502 178.904C195.918 178.723 196.248 178.467 196.494 178.136C196.75 177.795 196.878 177.389 196.878 176.92L196.622 176.12C196.622 176.579 196.526 176.947 196.334 177.224C196.152 177.501 195.896 177.704 195.566 177.832C195.235 177.96 194.856 178.024 194.43 178.024C194.142 178.024 193.88 177.981 193.646 177.896C193.411 177.8 193.224 177.667 193.086 177.496C192.947 177.315 192.878 177.096 192.878 176.84ZM192.878 173.368C192.995 173.283 193.155 173.181 193.358 173.064C193.571 172.936 193.822 172.829 194.11 172.744C194.398 172.648 194.718 172.6 195.07 172.6C195.475 172.6 195.832 172.696 196.142 172.888C196.462 173.069 196.622 173.347 196.622 173.72V179H197.902V173.72C197.902 173.24 197.779 172.835 197.534 172.504C197.299 172.173 196.968 171.923 196.542 171.752C196.126 171.571 195.635 171.48 195.07 171.48C194.408 171.48 193.843 171.581 193.374 171.784C192.904 171.987 192.531 172.189 192.254 172.392L192.878 173.368ZM206.515 171.64H200.195V176.44C200.195 176.963 200.078 177.325 199.843 177.528C199.619 177.731 199.347 177.832 199.027 177.832V179C199.582 179 200.041 178.909 200.403 178.728C200.766 178.536 201.033 178.253 201.203 177.88C201.385 177.496 201.475 177.016 201.475 176.44V172.84H205.235V179H206.515V171.64ZM214.829 171.64H213.389L211.117 177.336L211.645 177.4L209.309 171.64H207.789L210.605 177.96L208.589 182.52H210.029L214.829 171.64ZM219.204 172.68C219.684 172.68 220.111 172.792 220.484 173.016C220.868 173.24 221.167 173.555 221.38 173.96C221.604 174.355 221.716 174.808 221.716 175.32C221.716 175.832 221.604 176.285 221.38 176.68C221.167 177.075 220.868 177.389 220.484 177.624C220.111 177.848 219.684 177.96 219.204 177.96C218.724 177.96 218.292 177.848 217.908 177.624C217.535 177.389 217.236 177.075 217.012 176.68C216.788 176.285 216.676 175.832 216.676 175.32L215.396 174.36C215.396 175.416 215.561 176.301 215.892 177.016C216.233 177.731 216.692 178.269 217.268 178.632C217.844 178.984 218.489 179.16 219.204 179.16C219.929 179.16 220.575 178.995 221.14 178.664C221.716 178.333 222.169 177.88 222.5 177.304C222.841 176.717 223.012 176.056 223.012 175.32C223.012 174.573 222.841 173.912 222.5 173.336C222.169 172.76 221.716 172.307 221.14 171.976C220.575 171.645 219.929 171.48 219.204 171.48V172.68ZM216.1 175.32H216.676C216.676 174.893 216.751 174.52 216.9 174.2C217.06 173.869 217.263 173.592 217.508 173.368C217.764 173.144 218.041 172.973 218.34 172.856C218.639 172.739 218.927 172.68 219.204 172.68V171.48C218.745 171.48 218.324 171.571 217.94 171.752C217.567 171.923 217.241 172.173 216.964 172.504C216.687 172.835 216.473 173.24 216.324 173.72C216.175 174.189 216.1 174.723 216.1 175.32ZM215.396 174.36L216.516 175.208V173.56C216.516 173.027 216.585 172.493 216.724 171.96C216.863 171.416 217.113 170.931 217.476 170.504C217.849 170.077 218.367 169.757 219.028 169.544C219.615 169.352 220.137 169.112 220.596 168.824C221.065 168.536 221.444 168.2 221.732 167.816C222.02 167.421 222.191 166.989 222.244 166.52H220.98C220.905 166.904 220.687 167.272 220.324 167.624C219.972 167.965 219.433 168.259 218.708 168.504C217.855 168.792 217.183 169.208 216.692 169.752C216.212 170.285 215.876 170.936 215.684 171.704C215.492 172.472 215.396 173.357 215.396 174.36ZM224.69 171.64V179H225.97V171.64H224.69ZM228.69 171.64L225.49 174.68L229.01 179H230.61L227.09 174.68L230.29 171.64H228.69ZM237.977 172.92L238.057 171.08L231.977 177.72L231.897 179.56L237.977 172.92ZM233.177 171.64H231.897V179.56L233.177 177.8V171.64ZM238.057 171.08L236.777 172.84V179H238.057V171.08ZM240.856 178.36C240.856 178.595 240.941 178.803 241.112 178.984C241.293 179.155 241.501 179.24 241.736 179.24C241.981 179.24 242.189 179.155 242.36 178.984C242.531 178.803 242.616 178.595 242.616 178.36C242.616 178.115 242.531 177.907 242.36 177.736C242.189 177.565 241.981 177.48 241.736 177.48C241.501 177.48 241.293 177.565 241.112 177.736C240.941 177.907 240.856 178.115 240.856 178.36Z" fill="black"/>
<g filter="url(#filter0_f_411_31)">
<path d="M35 233H275V236H35V233Z" fill="#F9A825"/>
</g>
<defs>
<filter id="filter0_f_411_31" x="34" y="232" width="242" height="5" filterUnits="userSpaceOnUse" color-interpolation-filters="sRGB">
<feFlood flood-opacity="0" result="BackgroundImageFix"/>
<feBlend mode="normal" in="SourceGraphic" in2="BackgroundImageFix" result="shape"/>
<feGaussianBlur stdDeviation="0.5" result="effect1_foregroundBlur_411_31"/>
</filter>
<clipPath id="clip0_411_31">
<rect width="90" height="90" fill="white" transform="translate(110)"/>
</clipPath>
</defs>
</svg>
