<svg width="310" height="297" viewBox="0 0 310 297" fill="none" xmlns="http://www.w3.org/2000/svg">
<g clip-path="url(#clip0_411_56)">
<path d="M75.924 125.7C75.924 124.92 76.098 124.254 76.446 123.702C76.794 123.15 77.25 122.73 77.814 122.442C78.39 122.154 79.02 122.01 79.704 122.01C80.304 122.01 80.832 122.088 81.288 122.244C81.744 122.388 82.152 122.592 82.512 122.856C82.872 123.108 83.19 123.378 83.466 123.666V120.39C82.962 119.994 82.41 119.682 81.81 119.454C81.21 119.226 80.448 119.112 79.524 119.112C78.516 119.112 77.586 119.268 76.734 119.58C75.882 119.892 75.15 120.342 74.538 120.93C73.926 121.518 73.452 122.214 73.116 123.018C72.78 123.822 72.612 124.716 72.612 125.7C72.612 126.684 72.78 127.578 73.116 128.382C73.452 129.186 73.926 129.882 74.538 130.47C75.15 131.058 75.882 131.508 76.734 131.82C77.586 132.132 78.516 132.288 79.524 132.288C80.448 132.288 81.21 132.174 81.81 131.946C82.41 131.718 82.962 131.406 83.466 131.01V127.734C83.19 128.022 82.872 128.292 82.512 128.544C82.152 128.796 81.744 129 81.288 129.156C80.832 129.312 80.304 129.39 79.704 129.39C79.02 129.39 78.39 129.246 77.814 128.958C77.25 128.67 76.794 128.25 76.446 127.698C76.098 127.134 75.924 126.468 75.924 125.7ZM85.6651 123.72V132H88.2751V123.72H85.6651ZM91.2811 123.72L87.7351 127.14L91.6951 132H94.8991L90.9931 127.14L94.5391 123.72H91.2811ZM104.46 126.06L104.55 123.09L96.1978 129.66L96.1078 132.63L104.46 126.06ZM98.7358 123.72H96.1078V132.63L98.7358 130.092V123.72ZM104.55 123.09L101.94 125.628V132H104.55V123.09ZM111.962 126.996L113.942 131.46L116.57 130.902L111.962 123.09L107.354 130.902L109.982 131.46L111.962 126.996ZM114.986 132V133.62H117.542V129.858H106.382V133.62H109.028V132H114.986ZM119.398 123.72V132H122.008V123.72H119.398ZM125.014 123.72L121.468 127.14L125.428 132H128.632L124.726 127.14L128.272 123.72H125.014ZM138.192 126.06L138.282 123.09L129.93 129.66L129.84 132.63L138.192 126.06ZM132.468 123.72H129.84V132.63L132.468 130.092V123.72ZM138.282 123.09L135.672 125.628V132H138.282V123.09ZM154.061 123.72H145.853V132H148.481V126.078H151.451V132H154.061V123.72ZM158.313 129.534C158.313 129.306 158.367 129.114 158.475 128.958C158.595 128.802 158.763 128.682 158.979 128.598C159.207 128.502 159.477 128.454 159.789 128.454C160.257 128.454 160.653 128.514 160.977 128.634C161.313 128.742 161.637 128.91 161.949 129.138V127.86C161.829 127.728 161.625 127.596 161.337 127.464C161.061 127.32 160.731 127.206 160.347 127.122C159.975 127.026 159.579 126.978 159.159 126.978C158.439 126.978 157.809 127.086 157.269 127.302C156.729 127.518 156.309 127.824 156.009 128.22C155.721 128.616 155.577 129.09 155.577 129.642C155.577 130.182 155.703 130.644 155.955 131.028C156.219 131.4 156.579 131.688 157.035 131.892C157.491 132.084 158.007 132.18 158.583 132.18C159.159 132.18 159.675 132.084 160.131 131.892C160.599 131.688 160.965 131.4 161.229 131.028C161.505 130.644 161.643 130.188 161.643 129.66L161.355 128.652C161.355 129.096 161.271 129.444 161.103 129.696C160.935 129.948 160.707 130.128 160.419 130.236C160.143 130.344 159.837 130.398 159.501 130.398C159.297 130.398 159.099 130.368 158.907 130.308C158.727 130.236 158.583 130.14 158.475 130.02C158.367 129.888 158.313 129.726 158.313 129.534ZM157.251 126.276C157.383 126.192 157.581 126.096 157.845 125.988C158.109 125.868 158.415 125.766 158.763 125.682C159.123 125.598 159.501 125.556 159.897 125.556C160.353 125.556 160.707 125.664 160.959 125.88C161.223 126.084 161.355 126.36 161.355 126.708V132H163.965V126.168C163.965 125.592 163.797 125.106 163.461 124.71C163.137 124.314 162.681 124.014 162.093 123.81C161.517 123.594 160.857 123.486 160.113 123.486C159.369 123.486 158.667 123.588 158.007 123.792C157.359 123.996 156.801 124.212 156.333 124.44L157.251 126.276ZM168.698 135.96V123.72H165.98V135.96H168.698ZM175.466 127.86C175.466 126.888 175.274 126.078 174.89 125.43C174.518 124.77 174.032 124.272 173.432 123.936C172.844 123.6 172.208 123.432 171.524 123.432C170.804 123.432 170.18 123.618 169.652 123.99C169.136 124.35 168.74 124.86 168.464 125.52C168.188 126.18 168.05 126.96 168.05 127.86C168.05 128.748 168.188 129.528 168.464 130.2C168.74 130.86 169.136 131.376 169.652 131.748C170.18 132.108 170.804 132.288 171.524 132.288C172.208 132.288 172.844 132.12 173.432 131.784C174.032 131.448 174.518 130.95 174.89 130.29C175.274 129.63 175.466 128.82 175.466 127.86ZM172.604 127.86C172.604 128.292 172.514 128.658 172.334 128.958C172.154 129.258 171.914 129.486 171.614 129.642C171.314 129.798 170.984 129.876 170.624 129.876C170.312 129.876 170.006 129.804 169.706 129.66C169.418 129.504 169.178 129.276 168.986 128.976C168.794 128.676 168.698 128.304 168.698 127.86C168.698 127.416 168.794 127.044 168.986 126.744C169.178 126.444 169.418 126.222 169.706 126.078C170.006 125.922 170.312 125.844 170.624 125.844C170.984 125.844 171.314 125.922 171.614 126.078C171.914 126.234 172.154 126.462 172.334 126.762C172.514 127.062 172.604 127.428 172.604 127.86ZM176.135 123.72V125.97H181.949V123.72H176.135ZM177.737 124.08V132H180.347V124.08H177.737ZM183.947 128.652H190.643V126.618H183.947V128.652ZM189.419 123.72V132H192.029V123.72H189.419ZM183.101 123.72V132H185.729V123.72H183.101ZM195.219 128.436H202.779C202.803 128.292 202.815 128.16 202.815 128.04C202.815 127.908 202.815 127.806 202.815 127.734C202.815 126.858 202.641 126.108 202.293 125.484C201.957 124.86 201.459 124.38 200.799 124.044C200.139 123.708 199.323 123.54 198.351 123.54C197.451 123.54 196.677 123.684 196.029 123.972C195.393 124.26 194.883 124.662 194.499 125.178C194.127 125.694 193.881 126.294 193.761 126.978C193.737 127.122 193.719 127.266 193.707 127.41C193.695 127.554 193.689 127.704 193.689 127.86C193.689 128.688 193.869 129.432 194.229 130.092C194.601 130.74 195.135 131.25 195.831 131.622C196.539 131.994 197.391 132.18 198.387 132.18C199.191 132.18 199.869 132.084 200.421 131.892C200.985 131.688 201.459 131.406 201.843 131.046C202.227 130.674 202.557 130.236 202.833 129.732L200.403 129.138C200.271 129.366 200.109 129.564 199.917 129.732C199.725 129.888 199.497 130.008 199.233 130.092C198.981 130.176 198.687 130.218 198.351 130.218C198.003 130.218 197.679 130.14 197.379 129.984C197.091 129.828 196.857 129.576 196.677 129.228C196.509 128.88 196.425 128.424 196.425 127.86L196.461 127.428C196.461 126.984 196.539 126.612 196.695 126.312C196.851 126 197.061 125.766 197.325 125.61C197.601 125.442 197.925 125.358 198.297 125.358C198.621 125.358 198.891 125.424 199.107 125.556C199.335 125.676 199.509 125.85 199.629 126.078C199.761 126.306 199.851 126.588 199.899 126.924H195.219V128.436ZM198.963 120.984C198.963 121.404 199.113 121.752 199.413 122.028C199.725 122.304 200.103 122.442 200.547 122.442C200.979 122.442 201.351 122.304 201.663 122.028C201.975 121.752 202.131 121.404 202.131 120.984C202.131 120.552 201.975 120.198 201.663 119.922C201.351 119.646 200.979 119.508 200.547 119.508C200.103 119.508 199.725 119.646 199.413 119.922C199.113 120.198 198.963 120.552 198.963 120.984ZM194.571 120.984C194.571 121.404 194.727 121.752 195.039 122.028C195.351 122.304 195.723 122.442 196.155 122.442C196.599 122.442 196.971 122.304 197.271 122.028C197.583 121.752 197.739 121.404 197.739 120.984C197.739 120.552 197.583 120.198 197.271 119.922C196.971 119.646 196.599 119.508 196.155 119.508C195.723 119.508 195.351 119.646 195.039 119.922C194.727 120.198 194.571 120.552 194.571 120.984ZM207.229 135.96V123.72H204.511V135.96H207.229ZM213.997 127.86C213.997 126.888 213.805 126.078 213.421 125.43C213.049 124.77 212.563 124.272 211.963 123.936C211.375 123.6 210.739 123.432 210.055 123.432C209.335 123.432 208.711 123.618 208.183 123.99C207.667 124.35 207.271 124.86 206.995 125.52C206.719 126.18 206.581 126.96 206.581 127.86C206.581 128.748 206.719 129.528 206.995 130.2C207.271 130.86 207.667 131.376 208.183 131.748C208.711 132.108 209.335 132.288 210.055 132.288C210.739 132.288 211.375 132.12 211.963 131.784C212.563 131.448 213.049 130.95 213.421 130.29C213.805 129.63 213.997 128.82 213.997 127.86ZM211.135 127.86C211.135 128.292 211.045 128.658 210.865 128.958C210.685 129.258 210.445 129.486 210.145 129.642C209.845 129.798 209.515 129.876 209.155 129.876C208.843 129.876 208.537 129.804 208.237 129.66C207.949 129.504 207.709 129.276 207.517 128.976C207.325 128.676 207.229 128.304 207.229 127.86C207.229 127.416 207.325 127.044 207.517 126.744C207.709 126.444 207.949 126.222 208.237 126.078C208.537 125.922 208.843 125.844 209.155 125.844C209.515 125.844 209.845 125.922 210.145 126.078C210.445 126.234 210.685 126.462 210.865 126.762C211.045 127.062 211.135 127.428 211.135 127.86ZM217.744 129.534C217.744 129.306 217.798 129.114 217.906 128.958C218.026 128.802 218.194 128.682 218.41 128.598C218.638 128.502 218.908 128.454 219.22 128.454C219.688 128.454 220.084 128.514 220.408 128.634C220.744 128.742 221.068 128.91 221.38 129.138V127.86C221.26 127.728 221.056 127.596 220.768 127.464C220.492 127.32 220.162 127.206 219.778 127.122C219.406 127.026 219.01 126.978 218.59 126.978C217.87 126.978 217.24 127.086 216.7 127.302C216.16 127.518 215.74 127.824 215.44 128.22C215.152 128.616 215.008 129.09 215.008 129.642C215.008 130.182 215.134 130.644 215.386 131.028C215.65 131.4 216.01 131.688 216.466 131.892C216.922 132.084 217.438 132.18 218.014 132.18C218.59 132.18 219.106 132.084 219.562 131.892C220.03 131.688 220.396 131.4 220.66 131.028C220.936 130.644 221.074 130.188 221.074 129.66L220.786 128.652C220.786 129.096 220.702 129.444 220.534 129.696C220.366 129.948 220.138 130.128 219.85 130.236C219.574 130.344 219.268 130.398 218.932 130.398C218.728 130.398 218.53 130.368 218.338 130.308C218.158 130.236 218.014 130.14 217.906 130.02C217.798 129.888 217.744 129.726 217.744 129.534ZM216.682 126.276C216.814 126.192 217.012 126.096 217.276 125.988C217.54 125.868 217.846 125.766 218.194 125.682C218.554 125.598 218.932 125.556 219.328 125.556C219.784 125.556 220.138 125.664 220.39 125.88C220.654 126.084 220.786 126.36 220.786 126.708V132H223.396V126.168C223.396 125.592 223.228 125.106 222.892 124.71C222.568 124.314 222.112 124.014 221.524 123.81C220.948 123.594 220.288 123.486 219.544 123.486C218.8 123.486 218.098 123.588 217.438 123.792C216.79 123.996 216.232 124.212 215.764 124.44L216.682 126.276ZM233.367 132H236.103L233.601 123.09L232.233 126.33L233.367 132ZM229.713 129.642L230.253 132.558L233.781 126.762L233.601 123.09L229.713 129.642ZM230.253 132.558L230.793 129.642L226.959 123.09L226.779 126.762L230.253 132.558ZM224.457 132H227.193L228.327 126.33L226.959 123.09L224.457 132Z" fill="black"/>
<path d="M37.8212 148.8H36.3013L32.9093 156.256L33.7573 156.32L30.4613 148.8H28.7812L32.4773 156.688L31.0373 160H32.5573L37.8212 148.8ZM44.8951 160H46.3351L44.4151 152.08L43.6951 154.16L44.8951 160ZM41.0551 158.896L41.5351 160.496L44.5751 154.64L44.4151 152.08L41.0551 158.896ZM41.5351 160.496L42.0151 158.896L38.7031 152.08L38.5431 154.64L41.5351 160.496ZM36.7831 160H38.2231L39.4231 154.16L38.7031 152.08L36.7831 160ZM47.7979 156.64H54.0859C54.0965 156.576 54.1019 156.512 54.1019 156.448C54.1019 156.384 54.1019 156.32 54.1019 156.256C54.1019 155.477 53.9579 154.811 53.6699 154.256C53.3819 153.691 52.9765 153.253 52.4539 152.944C51.9312 152.635 51.3232 152.48 50.6299 152.48C50.0005 152.48 49.4299 152.608 48.9179 152.864C48.4165 153.12 48.0059 153.477 47.6859 153.936C47.3659 154.395 47.1525 154.928 47.0459 155.536C47.0245 155.664 47.0085 155.792 46.9979 155.92C46.9872 156.048 46.9819 156.181 46.9819 156.32C46.9819 157.056 47.1312 157.717 47.4299 158.304C47.7392 158.88 48.1552 159.333 48.6779 159.664C49.2112 159.995 49.8085 160.16 50.4699 160.16C51.1099 160.16 51.6432 160.085 52.0699 159.936C52.4965 159.776 52.8592 159.557 53.1579 159.28C53.4565 158.992 53.7285 158.661 53.9739 158.288L52.9339 157.632C52.7739 157.899 52.5819 158.133 52.3579 158.336C52.1339 158.528 51.8779 158.683 51.5899 158.8C51.3125 158.907 50.9925 158.96 50.6299 158.96C50.1499 158.96 49.7339 158.859 49.3819 158.656C49.0299 158.453 48.7579 158.155 48.5659 157.76C48.3739 157.365 48.2779 156.885 48.2779 156.32L48.3099 155.84C48.3099 155.381 48.4112 154.987 48.6139 154.656C48.8272 154.315 49.1099 154.053 49.4619 153.872C49.8139 153.691 50.2032 153.6 50.6299 153.6C51.0565 153.6 51.4139 153.685 51.7019 153.856C52.0005 154.016 52.2299 154.245 52.3899 154.544C52.5605 154.832 52.6672 155.168 52.7099 155.552H47.7979V156.64ZM56.6083 156.72H62.0483V155.52H56.6083V156.72ZM61.2163 152.64V160H62.4963V152.64H61.2163ZM55.8563 152.64V160H57.1363V152.64H55.8563ZM64.9031 152.64V160H66.1831V152.64H64.9031ZM65.6551 156.544H67.9431C68.4125 156.544 68.7645 156.645 68.9991 156.848C69.2338 157.051 69.3511 157.339 69.3511 157.712C69.3511 157.957 69.2978 158.171 69.1911 158.352C69.0845 158.523 68.9245 158.656 68.7111 158.752C68.5085 158.837 68.2525 158.88 67.9431 158.88H65.6551V160H67.9431C68.4551 160 68.9138 159.92 69.3191 159.76C69.7245 159.6 70.0445 159.349 70.2791 159.008C70.5138 158.667 70.6311 158.235 70.6311 157.712C70.6311 156.923 70.3698 156.347 69.8471 155.984C69.3351 155.611 68.7005 155.424 67.9431 155.424H65.6551V156.544ZM78.3175 158.8V152.64H77.0375V158.8H73.9175V152.64H72.6375V160H82.7175V152.64H81.4375V158.8H78.3175ZM91.2819 153.92L91.3619 152.08L85.2819 158.72L85.2019 160.56L91.2819 153.92ZM86.4819 152.64H85.2019V160.56L86.4819 158.8V152.64ZM91.3619 152.08L90.0819 153.84V160H91.3619V152.08ZM100.833 160H102.273L100.353 152.08L99.6326 154.16L100.833 160ZM96.9926 158.896L97.4726 160.496L100.513 154.64L100.353 152.08L96.9926 158.896ZM97.4726 160.496L97.9526 158.896L94.6406 152.08L94.4806 154.64L97.4726 160.496ZM92.7206 160H94.1606L95.3606 154.16L94.6406 152.08L92.7206 160ZM108.932 156.32C108.932 155.808 109.039 155.355 109.252 154.96C109.476 154.555 109.775 154.24 110.148 154.016C110.532 153.792 110.964 153.68 111.444 153.68C111.839 153.68 112.207 153.744 112.548 153.872C112.9 153.989 113.204 154.149 113.46 154.352C113.716 154.555 113.898 154.779 114.004 155.024V153.424C113.748 153.125 113.38 152.896 112.9 152.736C112.431 152.565 111.946 152.48 111.444 152.48C110.73 152.48 110.084 152.645 109.508 152.976C108.932 153.307 108.474 153.76 108.132 154.336C107.802 154.912 107.636 155.573 107.636 156.32C107.636 157.056 107.802 157.717 108.132 158.304C108.474 158.88 108.932 159.333 109.508 159.664C110.084 159.995 110.73 160.16 111.444 160.16C111.946 160.16 112.431 160.08 112.9 159.92C113.38 159.749 113.748 159.515 114.004 159.216V157.616C113.898 157.851 113.716 158.075 113.46 158.288C113.204 158.491 112.9 158.656 112.548 158.784C112.207 158.901 111.839 158.96 111.444 158.96C110.964 158.96 110.532 158.848 110.148 158.624C109.775 158.389 109.476 158.075 109.252 157.68C109.039 157.285 108.932 156.832 108.932 156.32ZM121.837 152.64H120.397L118.125 158.336L118.653 158.4L116.317 152.64H114.797L117.613 158.96L115.597 163.52H117.037L121.837 152.64ZM130.036 160H131.476L129.556 152.08L128.836 154.16L130.036 160ZM126.196 158.896L126.676 160.496L129.716 154.64L129.556 152.08L126.196 158.896ZM126.676 160.496L127.156 158.896L123.844 152.08L123.684 154.64L126.676 160.496ZM121.924 160H123.364L124.564 154.16L123.844 152.08L121.924 160ZM139.755 160H141.195L139.275 152.08L138.555 154.16L139.755 160ZM135.915 158.896L136.395 160.496L139.435 154.64L139.275 152.08L135.915 158.896ZM136.395 160.496L136.875 158.896L133.562 152.08L133.403 154.64L136.395 160.496ZM131.643 160H133.083L134.283 154.16L133.562 152.08L131.643 160ZM148.243 152.64H146.803L144.531 158.336L145.059 158.4L142.723 152.64H141.203L144.019 158.96L142.003 163.52H143.443L148.243 152.64ZM153.607 156.32C153.607 157.056 153.772 157.717 154.103 158.304C154.444 158.88 154.903 159.333 155.479 159.664C156.055 159.995 156.7 160.16 157.415 160.16C158.14 160.16 158.786 159.995 159.351 159.664C159.927 159.333 160.38 158.88 160.711 158.304C161.052 157.717 161.223 157.056 161.223 156.32C161.223 155.573 161.052 154.912 160.711 154.336C160.38 153.76 159.927 153.307 159.351 152.976C158.786 152.645 158.14 152.48 157.415 152.48C156.7 152.48 156.055 152.645 155.479 152.976C154.903 153.307 154.444 153.76 154.103 154.336C153.772 154.912 153.607 155.573 153.607 156.32ZM154.903 156.32C154.903 155.808 155.01 155.355 155.223 154.96C155.447 154.555 155.746 154.24 156.119 154.016C156.503 153.792 156.935 153.68 157.415 153.68C157.895 153.68 158.322 153.792 158.695 154.016C159.079 154.24 159.378 154.555 159.591 154.96C159.815 155.355 159.927 155.808 159.927 156.32C159.927 156.832 159.815 157.285 159.591 157.68C159.378 158.075 159.079 158.389 158.695 158.624C158.322 158.848 157.895 158.96 157.415 158.96C156.935 158.96 156.503 158.848 156.119 158.624C155.746 158.389 155.447 158.075 155.223 157.68C155.01 157.285 154.903 156.832 154.903 156.32ZM166.149 153.68C166.629 153.68 167.056 153.792 167.429 154.016C167.813 154.24 168.112 154.555 168.325 154.96C168.549 155.355 168.661 155.808 168.661 156.32C168.661 156.832 168.549 157.285 168.325 157.68C168.112 158.075 167.813 158.389 167.429 158.624C167.056 158.848 166.629 158.96 166.149 158.96C165.669 158.96 165.237 158.848 164.853 158.624C164.48 158.389 164.181 158.075 163.957 157.68C163.733 157.285 163.621 156.832 163.621 156.32L162.341 155.36C162.341 156.416 162.507 157.301 162.837 158.016C163.179 158.731 163.637 159.269 164.213 159.632C164.789 159.984 165.435 160.16 166.149 160.16C166.875 160.16 167.52 159.995 168.085 159.664C168.661 159.333 169.115 158.88 169.445 158.304C169.787 157.717 169.957 157.056 169.957 156.32C169.957 155.573 169.787 154.912 169.445 154.336C169.115 153.76 168.661 153.307 168.085 152.976C167.52 152.645 166.875 152.48 166.149 152.48V153.68ZM163.045 156.32H163.621C163.621 155.893 163.696 155.52 163.845 155.2C164.005 154.869 164.208 154.592 164.453 154.368C164.709 154.144 164.987 153.973 165.285 153.856C165.584 153.739 165.872 153.68 166.149 153.68V152.48C165.691 152.48 165.269 152.571 164.885 152.752C164.512 152.923 164.187 153.173 163.909 153.504C163.632 153.835 163.419 154.24 163.269 154.72C163.12 155.189 163.045 155.723 163.045 156.32ZM162.341 155.36L163.461 156.208V154.56C163.461 154.027 163.531 153.493 163.669 152.96C163.808 152.416 164.059 151.931 164.421 151.504C164.795 151.077 165.312 150.757 165.973 150.544C166.56 150.352 167.083 150.112 167.541 149.824C168.011 149.536 168.389 149.2 168.677 148.816C168.965 148.421 169.136 147.989 169.189 147.52H167.925C167.851 147.904 167.632 148.272 167.269 148.624C166.917 148.965 166.379 149.259 165.653 149.504C164.8 149.792 164.128 150.208 163.637 150.752C163.157 151.285 162.821 151.936 162.629 152.704C162.437 153.472 162.341 154.357 162.341 155.36ZM171.892 156.64H178.18C178.19 156.576 178.196 156.512 178.196 156.448C178.196 156.384 178.196 156.32 178.196 156.256C178.196 155.477 178.052 154.811 177.764 154.256C177.476 153.691 177.07 153.253 176.548 152.944C176.025 152.635 175.417 152.48 174.724 152.48C174.094 152.48 173.524 152.608 173.012 152.864C172.51 153.12 172.1 153.477 171.78 153.936C171.46 154.395 171.246 154.928 171.14 155.536C171.118 155.664 171.102 155.792 171.092 155.92C171.081 156.048 171.076 156.181 171.076 156.32C171.076 157.056 171.225 157.717 171.524 158.304C171.833 158.88 172.249 159.333 172.772 159.664C173.305 159.995 173.902 160.16 174.564 160.16C175.204 160.16 175.737 160.085 176.164 159.936C176.59 159.776 176.953 159.557 177.252 159.28C177.55 158.992 177.822 158.661 178.068 158.288L177.028 157.632C176.868 157.899 176.676 158.133 176.452 158.336C176.228 158.528 175.972 158.683 175.684 158.8C175.406 158.907 175.086 158.96 174.724 158.96C174.244 158.96 173.828 158.859 173.476 158.656C173.124 158.453 172.852 158.155 172.66 157.76C172.468 157.365 172.372 156.885 172.372 156.32L172.404 155.84C172.404 155.381 172.505 154.987 172.708 154.656C172.921 154.315 173.204 154.053 173.556 153.872C173.908 153.691 174.297 153.6 174.724 153.6C175.15 153.6 175.508 153.685 175.796 153.856C176.094 154.016 176.324 154.245 176.484 154.544C176.654 154.832 176.761 155.168 176.804 155.552H171.892V156.64ZM180.526 156.32C180.526 155.808 180.633 155.355 180.846 154.96C181.07 154.555 181.369 154.24 181.742 154.016C182.126 153.792 182.558 153.68 183.038 153.68C183.433 153.68 183.801 153.744 184.142 153.872C184.494 153.989 184.798 154.149 185.054 154.352C185.31 154.555 185.491 154.779 185.598 155.024V153.424C185.342 153.125 184.974 152.896 184.494 152.736C184.025 152.565 183.539 152.48 183.038 152.48C182.323 152.48 181.678 152.645 181.102 152.976C180.526 153.307 180.067 153.76 179.726 154.336C179.395 154.912 179.23 155.573 179.23 156.32C179.23 157.056 179.395 157.717 179.726 158.304C180.067 158.88 180.526 159.333 181.102 159.664C181.678 159.995 182.323 160.16 183.038 160.16C183.539 160.16 184.025 160.08 184.494 159.92C184.974 159.749 185.342 159.515 185.598 159.216V157.616C185.491 157.851 185.31 158.075 185.054 158.288C184.798 158.491 184.494 158.656 184.142 158.784C183.801 158.901 183.433 158.96 183.038 158.96C182.558 158.96 182.126 158.848 181.742 158.624C181.369 158.389 181.07 158.075 180.846 157.68C180.633 157.285 180.526 156.832 180.526 156.32ZM193.591 152.64H187.591V160H188.871V153.84H192.311V160H193.591V152.64ZM196.173 156.64H202.461C202.472 156.576 202.477 156.512 202.477 156.448C202.477 156.384 202.477 156.32 202.477 156.256C202.477 155.477 202.333 154.811 202.045 154.256C201.757 153.691 201.352 153.253 200.829 152.944C200.306 152.635 199.698 152.48 199.005 152.48C198.376 152.48 197.805 152.608 197.293 152.864C196.792 153.12 196.381 153.477 196.061 153.936C195.741 154.395 195.528 154.928 195.421 155.536C195.4 155.664 195.384 155.792 195.373 155.92C195.362 156.048 195.357 156.181 195.357 156.32C195.357 157.056 195.506 157.717 195.805 158.304C196.114 158.88 196.53 159.333 197.053 159.664C197.586 159.995 198.184 160.16 198.845 160.16C199.485 160.16 200.018 160.085 200.445 159.936C200.872 159.776 201.234 159.557 201.533 159.28C201.832 158.992 202.104 158.661 202.349 158.288L201.309 157.632C201.149 157.899 200.957 158.133 200.733 158.336C200.509 158.528 200.253 158.683 199.965 158.8C199.688 158.907 199.368 158.96 199.005 158.96C198.525 158.96 198.109 158.859 197.757 158.656C197.405 158.453 197.133 158.155 196.941 157.76C196.749 157.365 196.653 156.885 196.653 156.32L196.685 155.84C196.685 155.381 196.786 154.987 196.989 154.656C197.202 154.315 197.485 154.053 197.837 153.872C198.189 153.691 198.578 153.6 199.005 153.6C199.432 153.6 199.789 153.685 200.077 153.856C200.376 154.016 200.605 154.245 200.765 154.544C200.936 154.832 201.042 155.168 201.085 155.552H196.173V156.64ZM206.711 157.76H209.223V156.56H206.711V157.76ZM208.311 152.64V160H209.591V152.64H208.311ZM205.111 152.64H203.831V154.752C203.831 155.467 203.917 156.048 204.087 156.496C204.258 156.933 204.551 157.253 204.967 157.456C205.394 157.659 205.975 157.76 206.711 157.76V156.56C206.306 156.56 205.986 156.501 205.751 156.384C205.517 156.256 205.351 156.059 205.255 155.792C205.159 155.525 205.111 155.179 205.111 154.752V152.64ZM218.157 153.92L218.237 152.08L212.157 158.72L212.077 160.56L218.157 153.92ZM213.357 152.64H212.077V160.56L213.357 158.8V152.64ZM218.237 152.08L216.957 153.84V160H218.237V152.08ZM219.596 152.64V153.84H223.916V152.64H219.596ZM221.116 152.96V160H222.396V152.96H221.116ZM225.142 156.64H231.43C231.44 156.576 231.446 156.512 231.446 156.448C231.446 156.384 231.446 156.32 231.446 156.256C231.446 155.477 231.302 154.811 231.014 154.256C230.726 153.691 230.32 153.253 229.798 152.944C229.275 152.635 228.667 152.48 227.974 152.48C227.344 152.48 226.774 152.608 226.262 152.864C225.76 153.12 225.35 153.477 225.03 153.936C224.71 154.395 224.496 154.928 224.39 155.536C224.368 155.664 224.352 155.792 224.342 155.92C224.331 156.048 224.326 156.181 224.326 156.32C224.326 157.056 224.475 157.717 224.774 158.304C225.083 158.88 225.499 159.333 226.022 159.664C226.555 159.995 227.152 160.16 227.814 160.16C228.454 160.16 228.987 160.085 229.414 159.936C229.84 159.776 230.203 159.557 230.502 159.28C230.8 158.992 231.072 158.661 231.318 158.288L230.278 157.632C230.118 157.899 229.926 158.133 229.702 158.336C229.478 158.528 229.222 158.683 228.934 158.8C228.656 158.907 228.336 158.96 227.974 158.96C227.494 158.96 227.078 158.859 226.726 158.656C226.374 158.453 226.102 158.155 225.91 157.76C225.718 157.365 225.622 156.885 225.622 156.32L225.654 155.84C225.654 155.381 225.755 154.987 225.958 154.656C226.171 154.315 226.454 154.053 226.806 153.872C227.158 153.691 227.547 153.6 227.974 153.6C228.4 153.6 228.758 153.685 229.046 153.856C229.344 154.016 229.574 154.245 229.734 154.544C229.904 154.832 230.011 155.168 230.054 155.552H225.142V156.64ZM239.648 152.64H233.328V157.44C233.328 157.963 233.211 158.325 232.976 158.528C232.752 158.731 232.48 158.832 232.16 158.832V160C232.715 160 233.173 159.909 233.536 159.728C233.899 159.536 234.165 159.253 234.336 158.88C234.517 158.496 234.608 158.016 234.608 157.44V153.84H238.368V160H239.648V152.64ZM242.122 152.64V160H243.402V152.64H242.122ZM242.874 156.544H245.162C245.631 156.544 245.983 156.645 246.218 156.848C246.453 157.051 246.57 157.339 246.57 157.712C246.57 157.957 246.517 158.171 246.41 158.352C246.303 158.523 246.143 158.656 245.93 158.752C245.727 158.837 245.471 158.88 245.162 158.88H242.874V160H245.162C245.674 160 246.133 159.92 246.538 159.76C246.943 159.6 247.263 159.349 247.498 159.008C247.733 158.667 247.85 158.235 247.85 157.712C247.85 156.923 247.589 156.347 247.066 155.984C246.554 155.611 245.919 155.424 245.162 155.424H242.874V156.544ZM250.608 156.72H256.048V155.52H250.608V156.72ZM255.216 152.64V160H256.496V152.64H255.216ZM249.856 152.64V160H251.136V152.64H249.856ZM258.263 156.32C258.263 157.056 258.428 157.717 258.759 158.304C259.1 158.88 259.559 159.333 260.135 159.664C260.711 159.995 261.356 160.16 262.071 160.16C262.796 160.16 263.442 159.995 264.007 159.664C264.583 159.333 265.036 158.88 265.367 158.304C265.708 157.717 265.879 157.056 265.879 156.32C265.879 155.573 265.708 154.912 265.367 154.336C265.036 153.76 264.583 153.307 264.007 152.976C263.442 152.645 262.796 152.48 262.071 152.48C261.356 152.48 260.711 152.645 260.135 152.976C259.559 153.307 259.1 153.76 258.759 154.336C258.428 154.912 258.263 155.573 258.263 156.32ZM259.559 156.32C259.559 155.808 259.666 155.355 259.879 154.96C260.103 154.555 260.402 154.24 260.775 154.016C261.159 153.792 261.591 153.68 262.071 153.68C262.551 153.68 262.978 153.792 263.351 154.016C263.735 154.24 264.034 154.555 264.247 154.96C264.471 155.355 264.583 155.808 264.583 156.32C264.583 156.832 264.471 157.285 264.247 157.68C264.034 158.075 263.735 158.389 263.351 158.624C262.978 158.848 262.551 158.96 262.071 158.96C261.591 158.96 261.159 158.848 260.775 158.624C260.402 158.389 260.103 158.075 259.879 157.68C259.666 157.285 259.559 156.832 259.559 156.32ZM267.718 152.64V160H268.998V153.84H271.638V152.64H267.718ZM272.044 156.32C272.044 157.056 272.21 157.717 272.54 158.304C272.882 158.88 273.34 159.333 273.916 159.664C274.492 159.995 275.138 160.16 275.852 160.16C276.578 160.16 277.223 159.995 277.788 159.664C278.364 159.333 278.818 158.88 279.148 158.304C279.49 157.717 279.66 157.056 279.66 156.32C279.66 155.573 279.49 154.912 279.148 154.336C278.818 153.76 278.364 153.307 277.788 152.976C277.223 152.645 276.578 152.48 275.852 152.48C275.138 152.48 274.492 152.645 273.916 152.976C273.34 153.307 272.882 153.76 272.54 154.336C272.21 154.912 272.044 155.573 272.044 156.32ZM273.34 156.32C273.34 155.808 273.447 155.355 273.66 154.96C273.884 154.555 274.183 154.24 274.556 154.016C274.94 153.792 275.372 153.68 275.852 153.68C276.332 153.68 276.759 153.792 277.132 154.016C277.516 154.24 277.815 154.555 278.028 154.96C278.252 155.355 278.364 155.808 278.364 156.32C278.364 156.832 278.252 157.285 278.028 157.68C277.815 158.075 277.516 158.389 277.132 158.624C276.759 158.848 276.332 158.96 275.852 158.96C275.372 158.96 274.94 158.848 274.556 158.624C274.183 158.389 273.884 158.075 273.66 157.68C273.447 157.285 273.34 156.832 273.34 156.32ZM65.6609 175.64H59.6609V183H60.9409V176.84H64.3809V183H65.6609V175.64ZM74.5152 175.64H68.1952V180.44C68.1952 180.963 68.0779 181.325 67.8432 181.528C67.6192 181.731 67.3472 181.832 67.0272 181.832V183C67.5819 183 68.0405 182.909 68.4032 182.728C68.7659 182.536 69.0325 182.253 69.2032 181.88C69.3845 181.496 69.4752 181.016 69.4752 180.44V176.84H73.2352V183H74.5152V175.64ZM77.5651 180.84C77.5651 180.541 77.6344 180.285 77.7731 180.072C77.9117 179.859 78.1197 179.693 78.3971 179.576C78.6851 179.459 79.0424 179.4 79.4691 179.4C79.9384 179.4 80.3597 179.464 80.7331 179.592C81.1064 179.709 81.4744 179.896 81.8371 180.152V179.4C81.7624 179.304 81.6237 179.181 81.4211 179.032C81.2184 178.872 80.9464 178.733 80.6051 178.616C80.2744 178.488 79.8744 178.424 79.4051 178.424C78.7651 178.424 78.2104 178.525 77.7411 178.728C77.2717 178.92 76.9091 179.197 76.6531 179.56C76.3971 179.923 76.2691 180.365 76.2691 180.888C76.2691 181.389 76.3811 181.811 76.6051 182.152C76.8397 182.483 77.1491 182.733 77.5331 182.904C77.9171 183.075 78.3384 183.16 78.7971 183.16C79.3091 183.16 79.7731 183.075 80.1891 182.904C80.6051 182.723 80.9357 182.467 81.1811 182.136C81.4371 181.795 81.5651 181.389 81.5651 180.92L81.3091 180.12C81.3091 180.579 81.2131 180.947 81.0211 181.224C80.8397 181.501 80.5837 181.704 80.2531 181.832C79.9224 181.96 79.5437 182.024 79.1171 182.024C78.8291 182.024 78.5677 181.981 78.3331 181.896C78.0984 181.8 77.9117 181.667 77.7731 181.496C77.6344 181.315 77.5651 181.096 77.5651 180.84ZM77.5651 177.368C77.6824 177.283 77.8424 177.181 78.0451 177.064C78.2584 176.936 78.5091 176.829 78.7971 176.744C79.0851 176.648 79.4051 176.6 79.7571 176.6C80.1624 176.6 80.5197 176.696 80.8291 176.888C81.1491 177.069 81.3091 177.347 81.3091 177.72V183H82.5891V177.72C82.5891 177.24 82.4664 176.835 82.2211 176.504C81.9864 176.173 81.6557 175.923 81.2291 175.752C80.8131 175.571 80.3224 175.48 79.7571 175.48C79.0957 175.48 78.5304 175.581 78.0611 175.784C77.5917 175.987 77.2184 176.189 76.9411 176.392L77.5651 177.368ZM83.6347 175.64V176.84H87.9547V175.64H83.6347ZM85.1547 175.96V183H86.4347V175.96H85.1547ZM89.1807 179.64H95.4687C95.4794 179.576 95.4847 179.512 95.4847 179.448C95.4847 179.384 95.4847 179.32 95.4847 179.256C95.4847 178.477 95.3407 177.811 95.0527 177.256C94.7647 176.691 94.3594 176.253 93.8367 175.944C93.314 175.635 92.706 175.48 92.0127 175.48C91.3834 175.48 90.8127 175.608 90.3007 175.864C89.7994 176.12 89.3887 176.477 89.0687 176.936C88.7487 177.395 88.5354 177.928 88.4287 178.536C88.4074 178.664 88.3914 178.792 88.3807 178.92C88.37 179.048 88.3647 179.181 88.3647 179.32C88.3647 180.056 88.514 180.717 88.8127 181.304C89.122 181.88 89.538 182.333 90.0607 182.664C90.594 182.995 91.1914 183.16 91.8527 183.16C92.4927 183.16 93.026 183.085 93.4527 182.936C93.8794 182.776 94.242 182.557 94.5407 182.28C94.8394 181.992 95.1114 181.661 95.3567 181.288L94.3167 180.632C94.1567 180.899 93.9647 181.133 93.7407 181.336C93.5167 181.528 93.2607 181.683 92.9727 181.8C92.6954 181.907 92.3754 181.96 92.0127 181.96C91.5327 181.96 91.1167 181.859 90.7647 181.656C90.4127 181.453 90.1407 181.155 89.9487 180.76C89.7567 180.365 89.6607 179.885 89.6607 179.32L89.6927 178.84C89.6927 178.381 89.794 177.987 89.9967 177.656C90.21 177.315 90.4927 177.053 90.8447 176.872C91.1967 176.691 91.586 176.6 92.0127 176.6C92.4394 176.6 92.7967 176.685 93.0847 176.856C93.3834 177.016 93.6127 177.245 93.7727 177.544C93.9434 177.832 94.05 178.168 94.0927 178.552H89.1807V179.64ZM104.685 175.64L101.485 178.68L105.005 183H106.605L102.925 178.84L106.285 175.64H104.685ZM101.805 175.64H100.605V183H101.805V175.64ZM97.7247 175.64H96.1247L99.4847 178.84L95.8047 183H97.4047L100.925 178.68L97.7247 175.64ZM108.378 180.84C108.378 180.541 108.447 180.285 108.586 180.072C108.724 179.859 108.932 179.693 109.21 179.576C109.498 179.459 109.855 179.4 110.282 179.4C110.751 179.4 111.172 179.464 111.546 179.592C111.919 179.709 112.287 179.896 112.65 180.152V179.4C112.575 179.304 112.436 179.181 112.234 179.032C112.031 178.872 111.759 178.733 111.418 178.616C111.087 178.488 110.687 178.424 110.218 178.424C109.578 178.424 109.023 178.525 108.554 178.728C108.084 178.92 107.722 179.197 107.466 179.56C107.21 179.923 107.082 180.365 107.082 180.888C107.082 181.389 107.194 181.811 107.418 182.152C107.652 182.483 107.962 182.733 108.346 182.904C108.73 183.075 109.151 183.16 109.61 183.16C110.122 183.16 110.586 183.075 111.002 182.904C111.418 182.723 111.748 182.467 111.994 182.136C112.25 181.795 112.378 181.389 112.378 180.92L112.122 180.12C112.122 180.579 112.026 180.947 111.834 181.224C111.652 181.501 111.396 181.704 111.066 181.832C110.735 181.96 110.356 182.024 109.93 182.024C109.642 182.024 109.38 181.981 109.146 181.896C108.911 181.8 108.724 181.667 108.586 181.496C108.447 181.315 108.378 181.096 108.378 180.84ZM108.378 177.368C108.495 177.283 108.655 177.181 108.858 177.064C109.071 176.936 109.322 176.829 109.61 176.744C109.898 176.648 110.218 176.6 110.57 176.6C110.975 176.6 111.332 176.696 111.642 176.888C111.962 177.069 112.122 177.347 112.122 177.72V183H113.402V177.72C113.402 177.24 113.279 176.835 113.034 176.504C112.799 176.173 112.468 175.923 112.042 175.752C111.626 175.571 111.135 175.48 110.57 175.48C109.908 175.48 109.343 175.581 108.874 175.784C108.404 175.987 108.031 176.189 107.754 176.392L108.378 177.368ZM126.524 176.92L126.604 175.08L120.524 181.72L120.444 183.56L126.524 176.92ZM121.724 175.64H120.444V183.56L121.724 181.8V175.64ZM126.604 175.08L125.324 176.84V183H126.604V175.08ZM134.456 179.32C134.456 178.808 134.562 178.355 134.776 177.96C135 177.555 135.298 177.24 135.672 177.016C136.056 176.792 136.488 176.68 136.968 176.68C137.362 176.68 137.73 176.744 138.072 176.872C138.424 176.989 138.728 177.149 138.984 177.352C139.24 177.555 139.421 177.779 139.528 178.024V176.424C139.272 176.125 138.904 175.896 138.424 175.736C137.954 175.565 137.469 175.48 136.968 175.48C136.253 175.48 135.608 175.645 135.032 175.976C134.456 176.307 133.997 176.76 133.656 177.336C133.325 177.912 133.16 178.573 133.16 179.32C133.16 180.056 133.325 180.717 133.656 181.304C133.997 181.88 134.456 182.333 135.032 182.664C135.608 182.995 136.253 183.16 136.968 183.16C137.469 183.16 137.954 183.08 138.424 182.92C138.904 182.749 139.272 182.515 139.528 182.216V180.616C139.421 180.851 139.24 181.075 138.984 181.288C138.728 181.491 138.424 181.656 138.072 181.784C137.73 181.901 137.362 181.96 136.968 181.96C136.488 181.96 136.056 181.848 135.672 181.624C135.298 181.389 135 181.075 134.776 180.68C134.562 180.285 134.456 179.832 134.456 179.32ZM145.52 177.848L147.68 182.52H149.12L145.52 175.08L141.92 182.52H143.36L145.52 177.848ZM148.8 183V184.44H150.08V181.8H140.96V184.44H142.32V183H148.8ZM152.181 179.64H158.469C158.479 179.576 158.485 179.512 158.485 179.448C158.485 179.384 158.485 179.32 158.485 179.256C158.485 178.477 158.341 177.811 158.053 177.256C157.765 176.691 157.359 176.253 156.837 175.944C156.314 175.635 155.706 175.48 155.013 175.48C154.383 175.48 153.813 175.608 153.301 175.864C152.799 176.12 152.389 176.477 152.069 176.936C151.749 177.395 151.535 177.928 151.429 178.536C151.407 178.664 151.391 178.792 151.381 178.92C151.37 179.048 151.365 179.181 151.365 179.32C151.365 180.056 151.514 180.717 151.813 181.304C152.122 181.88 152.538 182.333 153.061 182.664C153.594 182.995 154.191 183.16 154.853 183.16C155.493 183.16 156.026 183.085 156.453 182.936C156.879 182.776 157.242 182.557 157.541 182.28C157.839 181.992 158.111 181.661 158.357 181.288L157.317 180.632C157.157 180.899 156.965 181.133 156.741 181.336C156.517 181.528 156.261 181.683 155.973 181.8C155.695 181.907 155.375 181.96 155.013 181.96C154.533 181.96 154.117 181.859 153.765 181.656C153.413 181.453 153.141 181.155 152.949 180.76C152.757 180.365 152.661 179.885 152.661 179.32L152.693 178.84C152.693 178.381 152.794 177.987 152.997 177.656C153.21 177.315 153.493 177.053 153.845 176.872C154.197 176.691 154.586 176.6 155.013 176.6C155.439 176.6 155.797 176.685 156.085 176.856C156.383 177.016 156.613 177.245 156.773 177.544C156.943 177.832 157.05 178.168 157.093 178.552H152.181V179.64ZM166.687 175.64H160.367V180.44C160.367 180.963 160.25 181.325 160.015 181.528C159.791 181.731 159.519 181.832 159.199 181.832V183C159.754 183 160.212 182.909 160.575 182.728C160.938 182.536 161.204 182.253 161.375 181.88C161.556 181.496 161.647 181.016 161.647 180.44V176.84H165.407V183H166.687V175.64ZM169.737 180.84C169.737 180.541 169.806 180.285 169.945 180.072C170.084 179.859 170.292 179.693 170.569 179.576C170.857 179.459 171.214 179.4 171.641 179.4C172.11 179.4 172.532 179.464 172.905 179.592C173.278 179.709 173.646 179.896 174.009 180.152V179.4C173.934 179.304 173.796 179.181 173.593 179.032C173.39 178.872 173.118 178.733 172.777 178.616C172.446 178.488 172.046 178.424 171.577 178.424C170.937 178.424 170.382 178.525 169.913 178.728C169.444 178.92 169.081 179.197 168.825 179.56C168.569 179.923 168.441 180.365 168.441 180.888C168.441 181.389 168.553 181.811 168.777 182.152C169.012 182.483 169.321 182.733 169.705 182.904C170.089 183.075 170.51 183.16 170.969 183.16C171.481 183.16 171.945 183.075 172.361 182.904C172.777 182.723 173.108 182.467 173.353 182.136C173.609 181.795 173.737 181.389 173.737 180.92L173.481 180.12C173.481 180.579 173.385 180.947 173.193 181.224C173.012 181.501 172.756 181.704 172.425 181.832C172.094 181.96 171.716 182.024 171.289 182.024C171.001 182.024 170.74 181.981 170.505 181.896C170.27 181.8 170.084 181.667 169.945 181.496C169.806 181.315 169.737 181.096 169.737 180.84ZM169.737 177.368C169.854 177.283 170.014 177.181 170.217 177.064C170.43 176.936 170.681 176.829 170.969 176.744C171.257 176.648 171.577 176.6 171.929 176.6C172.334 176.6 172.692 176.696 173.001 176.888C173.321 177.069 173.481 177.347 173.481 177.72V183H174.761V177.72C174.761 177.24 174.638 176.835 174.393 176.504C174.158 176.173 173.828 175.923 173.401 175.752C172.985 175.571 172.494 175.48 171.929 175.48C171.268 175.48 170.702 175.581 170.233 175.784C169.764 175.987 169.39 176.189 169.113 176.392L169.737 177.368ZM177.103 179.64H183.391C183.401 179.576 183.407 179.512 183.407 179.448C183.407 179.384 183.407 179.32 183.407 179.256C183.407 178.477 183.263 177.811 182.975 177.256C182.687 176.691 182.281 176.253 181.759 175.944C181.236 175.635 180.628 175.48 179.935 175.48C179.305 175.48 178.735 175.608 178.223 175.864C177.721 176.12 177.311 176.477 176.991 176.936C176.671 177.395 176.457 177.928 176.351 178.536C176.329 178.664 176.313 178.792 176.303 178.92C176.292 179.048 176.287 179.181 176.287 179.32C176.287 180.056 176.436 180.717 176.735 181.304C177.044 181.88 177.46 182.333 177.983 182.664C178.516 182.995 179.113 183.16 179.775 183.16C180.415 183.16 180.948 183.085 181.375 182.936C181.801 182.776 182.164 182.557 182.463 182.28C182.761 181.992 183.033 181.661 183.279 181.288L182.239 180.632C182.079 180.899 181.887 181.133 181.663 181.336C181.439 181.528 181.183 181.683 180.895 181.8C180.617 181.907 180.297 181.96 179.935 181.96C179.455 181.96 179.039 181.859 178.687 181.656C178.335 181.453 178.063 181.155 177.871 180.76C177.679 180.365 177.583 179.885 177.583 179.32L177.615 178.84C177.615 178.381 177.716 177.987 177.919 177.656C178.132 177.315 178.415 177.053 178.767 176.872C179.119 176.691 179.508 176.6 179.935 176.6C180.361 176.6 180.719 176.685 181.007 176.856C181.305 177.016 181.535 177.245 181.695 177.544C181.865 177.832 181.972 178.168 182.015 178.552H177.103V179.64ZM192.153 183H193.593L191.673 175.08L190.953 177.16L192.153 183ZM188.313 181.896L188.793 183.496L191.833 177.64L191.673 175.08L188.313 181.896ZM188.793 183.496L189.273 181.896L185.961 175.08L185.801 177.64L188.793 183.496ZM184.041 183H185.481L186.681 177.16L185.961 175.08L184.041 183ZM200.253 179.32C200.253 178.808 200.359 178.355 200.573 177.96C200.797 177.555 201.095 177.24 201.469 177.016C201.853 176.792 202.285 176.68 202.765 176.68C203.159 176.68 203.527 176.744 203.869 176.872C204.221 176.989 204.525 177.149 204.781 177.352C205.037 177.555 205.218 177.779 205.325 178.024V176.424C205.069 176.125 204.701 175.896 204.221 175.736C203.751 175.565 203.266 175.48 202.765 175.48C202.05 175.48 201.405 175.645 200.829 175.976C200.253 176.307 199.794 176.76 199.453 177.336C199.122 177.912 198.957 178.573 198.957 179.32C198.957 180.056 199.122 180.717 199.453 181.304C199.794 181.88 200.253 182.333 200.829 182.664C201.405 182.995 202.05 183.16 202.765 183.16C203.266 183.16 203.751 183.08 204.221 182.92C204.701 182.749 205.069 182.515 205.325 182.216V180.616C205.218 180.851 205.037 181.075 204.781 181.288C204.525 181.491 204.221 181.656 203.869 181.784C203.527 181.901 203.159 181.96 202.765 181.96C202.285 181.96 201.853 181.848 201.469 181.624C201.095 181.389 200.797 181.075 200.573 180.68C200.359 180.285 200.253 179.832 200.253 179.32ZM207.237 175.64V183H208.517V175.64H207.237ZM211.237 175.64L208.037 178.68L211.557 183H213.157L209.637 178.68L212.837 175.64H211.237ZM220.524 176.92L220.604 175.08L214.524 181.72L214.444 183.56L220.524 176.92ZM215.724 175.64H214.444V183.56L215.724 181.8V175.64ZM220.604 175.08L219.324 176.84V183H220.604V175.08ZM227.083 177.848L229.243 182.52H230.683L227.083 175.08L223.483 182.52H224.923L227.083 177.848ZM230.363 183V184.44H231.643V181.8H222.523V184.44H223.883V183H230.363ZM233.487 175.64V183H234.767V175.64H233.487ZM237.487 175.64L234.287 178.68L237.807 183H239.407L235.887 178.68L239.087 175.64H237.487ZM246.688 175.64H245.248L242.976 181.336L243.504 181.4L241.168 175.64H239.648L242.464 181.96L240.448 186.52H241.888L246.688 175.64ZM247.262 182.36C247.262 182.595 247.348 182.803 247.518 182.984C247.7 183.155 247.908 183.24 248.142 183.24C248.388 183.24 248.596 183.155 248.766 182.984C248.937 182.803 249.022 182.595 249.022 182.36C249.022 182.115 248.937 181.907 248.766 181.736C248.596 181.565 248.388 181.48 248.142 181.48C247.908 181.48 247.7 181.565 247.518 181.736C247.348 181.907 247.262 182.115 247.262 182.36Z" fill="black"/>
<path d="M145.791 82.2526C144.867 82.781 143.689 82.4353 143.197 81.4913L138.263 72.0194L127.694 71.4201C126.638 71.3603 125.841 70.4404 125.932 69.3873L126.851 58.7102L118.267 52.4239C117.419 51.803 117.247 50.6067 117.886 49.772L124.372 41.2923L120.512 31.3074C120.133 30.3251 120.636 29.2229 121.627 28.8668L131.608 25.2809L133.703 14.7805C133.911 13.7398 134.94 13.0786 135.972 13.3224L146.277 15.7548L153.647 8.07656C154.385 7.30781 155.615 7.30781 156.353 8.07656L163.723 15.7548L174.028 13.3224C175.061 13.0786 176.09 13.7398 176.297 14.7805L178.392 25.2809L188.373 28.8668C189.364 29.2229 189.868 30.3251 189.488 31.3074L185.628 41.2923L192.114 49.772C192.753 50.6067 192.581 51.803 191.733 52.4239L183.15 58.7102L184.069 69.3873C184.159 70.4404 183.362 71.3603 182.307 71.4201L171.737 72.0194L166.803 81.4913C166.311 82.4353 165.133 82.781 164.209 82.2526L155 76.9856L145.791 82.2526ZM145.622 78.0292L154.069 73.198C154.646 72.8681 155.354 72.8681 155.931 73.198L164.378 78.0292L168.904 69.3415C169.209 68.7553 169.801 68.3732 170.461 68.3358L180.167 67.7854L179.323 57.9813C179.267 57.329 179.555 56.6947 180.083 56.3078L187.973 50.5298L182.011 42.7358C181.614 42.2172 181.516 41.5296 181.751 40.9206L185.298 31.7466L176.127 28.4517C175.508 28.2293 175.05 27.6989 174.922 27.0539L173 17.4182L163.543 19.6505C162.897 19.8029 162.219 19.6027 161.759 19.124L155 12.0826L148.241 19.124C147.781 19.6027 147.103 19.8029 146.457 19.6505L137.001 17.4182L135.079 27.0539C134.95 27.6989 134.493 28.2293 133.874 28.4517L124.703 31.7466L128.249 40.9206C128.484 41.5296 128.386 42.2172 127.989 42.7358L122.028 50.5298L129.917 56.3078C130.445 56.6947 130.733 57.329 130.677 57.9813L129.833 67.7854L139.54 68.3358C140.199 68.3732 140.791 68.7553 141.096 69.3415L145.622 78.0292ZM162.849 30.7852C163.451 29.9425 164.622 29.7474 165.465 30.3492C166.308 30.9511 166.503 32.1222 165.901 32.9648L147.151 59.2148C146.549 60.0575 145.378 60.2526 144.535 59.6507C143.693 59.0489 143.497 57.8778 144.099 57.0352L162.849 30.7852ZM143.75 33.75V37.5H147.5V33.75H143.75ZM143.75 30H147.5C149.571 30 151.25 31.6789 151.25 33.75V37.5C151.25 39.5711 149.571 41.25 147.5 41.25H143.75C141.679 41.25 140 39.5711 140 37.5V33.75C140 31.6789 141.679 30 143.75 30ZM162.5 52.5V56.25H166.25V52.5H162.5ZM162.5 48.75H166.25C168.321 48.75 170 50.4289 170 52.5V56.25C170 58.3211 168.321 60 166.25 60H162.5C160.429 60 158.75 58.3211 158.75 56.25V52.5C158.75 50.4289 160.429 48.75 162.5 48.75Z" fill="black"/>
<g filter="url(#filter0_f_411_56)">
<path d="M35 238H275V241H35V238Z" fill="#F9A825"/>
</g>
</g>
<defs>
<filter id="filter0_f_411_56" x="34" y="237" width="242" height="5" filterUnits="userSpaceOnUse" color-interpolation-filters="sRGB">
<feFlood flood-opacity="0" result="BackgroundImageFix"/>
<feBlend mode="normal" in="SourceGraphic" in2="BackgroundImageFix" result="shape"/>
<feGaussianBlur stdDeviation="0.5" result="effect1_foregroundBlur_411_56"/>
</filter>
<clipPath id="clip0_411_56">
<rect width="310" height="297" fill="white"/>
</clipPath>
</defs>
</svg>
